<?xml version="1.0" encoding="UTF-8"?>
<svg width="45px" height="40px" viewBox="0 0 45 40" version="1.1" xmlns="http://www.w3.org/2000/svg" xmlns:xlink="http://www.w3.org/1999/xlink">
    <!-- Generator: Sketch 53 (72520) - https://sketchapp.com -->
    <title>Group 6 Copy 2</title>
    <desc>Created with Sketch.</desc>
    <defs>
        <polygon id="path-1" points="5.97345133e-05 0.189753695 44.9912389 0.189753695 44.9912389 39.8029557 5.97345133e-05 39.8029557"></polygon>
    </defs>
    <g id="Page-1" stroke="none" stroke-width="1" fill="none" fill-rule="evenodd">
        <g id="Technology---mobile" transform="translate(-949.000000, -710.000000)">
            <g id="tech" transform="translate(100.000000, 145.000000)">
                <g id="Group-17" transform="translate(640.000000, 465.000000)">
                    <g id="Group-12-Copy" transform="translate(209.000000, 100.000000)">
                        <g id="Group-6-Copy-2">
                            <g id="Group-3" transform="translate(0.000000, 0.007291)">
                                <mask id="mask-2" fill="white">
                                    <use xlink:href="#path-1"></use>
                                </mask>
                                <g id="Clip-2"></g>
                                <path d="M35.8732235,25.3746207 C35.6273164,25.4552118 35.3748385,25.5332414 35.1175819,25.6085123 C34.5483119,23.824867 33.7795288,21.9279212 32.8393075,19.9681182 C33.736719,18.0550148 34.4754358,16.1825025 35.0289757,14.4098916 C35.4891305,14.5417143 35.9357456,14.6808276 36.3664314,14.8276256 C40.5297279,16.2459507 43.0694403,18.3428966 43.0694403,19.9588571 C43.0694403,21.6800394 40.3266305,23.9143251 35.8732235,25.3746207 M34.2416748,34.8743251 C33.9736659,36.3038818 33.4348606,37.2567882 32.7684226,37.6384631 C31.3505243,38.4504828 28.3185996,37.3949163 25.0485332,34.6100887 C24.6735996,34.2908768 24.2958783,33.9501872 23.9171615,33.589202 C25.1847279,32.2173793 26.451896,30.6221084 27.6885996,28.8506798 C29.8633341,28.6597438 31.9184004,28.3474286 33.781719,27.9212217 C33.8735111,28.2875271 33.9551482,28.6467389 34.0254358,28.998266 C34.4754358,31.2489064 34.5399491,33.2837833 34.2416748,34.8743251 M22.5701482,32.2280197 C21.659396,31.2554089 20.7508341,30.1795468 19.8633783,29.0223054 C20.72475,29.0556059 21.6030465,29.0727488 22.4954801,29.0727488 C23.4128031,29.0727488 24.3193739,29.0522562 25.2116084,29.0130443 C24.3355022,30.1909754 23.4508341,31.2686108 22.5701482,32.2280197 M20.375104,34.3779704 C18.6294624,35.8879212 16.8800376,36.9592512 15.3384889,37.4979704 C13.9532456,37.9821084 12.8499491,37.9960985 12.1829137,37.6156059 C10.7640199,36.8055567 10.1738429,33.6788571 10.9786659,29.4843744 C11.0708562,29.0041773 11.1805686,28.5105813 11.3070066,28.0061478 C13.1500155,28.4094975 15.18975,28.6999409 17.3700597,28.8749163 C18.614927,30.6083153 19.9185332,32.2014187 21.2322942,33.5968867 C20.9451704,33.8709754 20.6594403,34.1318621 20.375104,34.3779704 M9.9591969,25.7082167 C9.57649779,25.5994483 9.20534735,25.4847685 8.84853319,25.3639803 C6.65488274,24.6221084 4.84313496,23.6575764 3.60125442,22.6051626 C2.4852146,21.6595468 1.92191814,20.7206305 1.92191814,19.9588571 C1.92191814,18.3375764 4.36446239,16.2697931 8.43815708,14.8640788 C8.93236062,14.6936355 9.44986062,14.5330443 9.98667478,14.3819113 C10.549573,16.1941281 11.2880907,18.0889064 12.1795288,20.0051626 C11.2767412,21.9495961 10.5276704,23.8747192 9.9591969,25.7082167 M12.1532456,2.39826601 C13.6585553,1.536 16.9867633,2.76535961 20.4947721,5.84792118 C20.7191748,6.04476847 20.9439757,6.25107389 21.1697721,6.46447291 C19.862781,7.85343842 18.5709226,9.43471921 17.3370066,11.158069 C15.2212102,11.3521576 13.1956128,11.6638818 11.3334889,12.0814187 C11.2164093,11.6154089 11.1124712,11.1574778 11.0240642,10.7097931 C10.1786217,6.43353695 10.7401261,3.20772414 12.1532456,2.39826601 M22.5171836,7.82368473 C23.4036438,8.7742266 24.2914978,9.83531034 25.1648164,10.9866404 C24.2847279,10.9456552 23.3938872,10.9241773 22.4954801,10.9241773 C21.6060332,10.9241773 20.7215642,10.9452611 19.84725,10.9856552 C20.7211659,9.84496552 21.6165863,8.78526108 22.5171836,7.82368473 M31.7256571,17.7689064 C31.3174712,17.0022069 30.8859889,16.229202 30.4314093,15.4522562 C29.9861881,14.6910739 29.529219,13.9482167 29.0632898,13.2254581 C30.4987102,13.4049655 31.8739978,13.6433892 33.1656571,13.9350148 C32.7779801,15.1649655 32.2945288,16.4508768 31.7256571,17.7689064 M30.4389757,24.531665 C30.8973385,23.745064 31.3324049,22.9574778 31.7439757,22.1726502 C32.3453031,23.5289064 32.85225,24.8414187 33.2548606,26.0893005 C31.9502588,26.3836847 30.5419181,26.6209261 29.0577146,26.7972808 C29.5248385,26.06467 29.9861881,25.3090049 30.4389757,24.531665 M13.2822279,17.7677241 C12.7223164,16.4540296 12.2436438,15.1622069 11.8523827,13.9151133 C13.1362765,13.6305813 14.5051925,13.398266 15.9314535,13.2221084 C15.4589535,13.9513695 14.9980022,14.6999409 14.5521836,15.465064 L14.5521836,15.4652611 C14.1073606,16.2284138 13.684042,16.9970837 13.2822279,17.7677241 M13.2844181,22.2410246 C13.6870288,23.0106798 14.1123385,23.7799409 14.55975,24.54467 L14.5599491,24.54467 C15.0157235,25.3237833 15.4878252,26.086936 15.9726704,26.8313695 C14.4988208,26.6684138 13.109396,26.4481182 11.8259004,26.171665 C12.2235332,24.9023054 12.7127588,23.5826995 13.2844181,22.2410246 M14.3034889,20.0045714 C14.8847058,18.807133 15.5244624,17.6043744 16.2173827,16.4152118 L16.2171836,16.4154089 C16.911896,15.2230936 17.6432456,14.0733399 18.3986881,12.9785616 C19.7369403,12.8784631 21.109042,12.8262463 22.4954801,12.8262463 C23.8886881,12.8262463 25.2623827,12.8788571 26.6000376,12.9799409 C27.3439314,14.0664433 28.0703031,15.2126502 28.7678031,16.4049655 C29.4732677,17.6110739 30.1213872,18.8057537 30.7073827,19.9773793 C30.1231792,21.1693005 29.4764535,22.376 28.7741748,23.5813202 C28.0707013,24.7880197 27.3487102,25.9401379 26.6159668,27.0276256 C25.2809004,27.1220099 23.9014314,27.1706798 22.4954801,27.1706798 C21.0955022,27.1706798 19.7335553,27.1275271 18.4221836,27.0433892 C17.659573,25.9417143 16.9218518,24.7864433 16.222958,23.5917635 L16.2231571,23.5917635 C15.5262544,22.4004335 14.8849049,21.1992512 14.3034889,20.0045714 M24.8985996,5.52437438 C28.2200376,2.66388177 31.3246394,1.53442365 32.7391527,2.34151724 C34.2456571,3.20141872 34.8316527,6.66900493 33.8850597,11.216 C33.8245288,11.5062463 33.7566305,11.8016158 33.6827588,12.1013202 C31.8162544,11.6749163 29.7892633,11.3578719 27.6670951,11.1608276 C26.4307898,9.41856158 25.1498827,7.83471921 23.8639978,6.46348768 C24.2096615,6.13442365 24.5547279,5.82053202 24.8985996,5.52437438 M36.9918518,13.029202 C36.5251261,12.8701872 36.0416748,12.7196453 35.5436881,12.5775764 C35.6255243,12.246936 35.7005907,11.9206305 35.7674934,11.5998424 C36.8638208,6.33343842 36.1468075,2.0906798 33.6990863,0.693832512 C31.3519181,-0.645674877 27.5135774,0.750975369 23.6368075,4.08969458 C23.2640642,4.4106798 22.8901261,4.75058128 22.5165863,5.10683744 C22.2674934,4.87117241 22.0189978,4.64338916 21.7710996,4.42565517 C17.7081571,0.855605911 13.6356571,-0.648827586 11.1903252,0.752157635 C8.84554646,2.09540887 8.15103319,6.0839803 9.13784735,11.0751133 C9.23322345,11.5570837 9.34472788,12.0494975 9.47056858,12.5499901 C8.89432965,12.7117635 8.3378031,12.8843744 7.80536947,13.0682167 C3.04194027,14.7115665 5.97345133e-05,17.287133 5.97345133e-05,19.9588571 C5.97345133e-05,22.718266 3.26554646,25.4855567 8.22689602,27.1637833 C8.61855531,27.2963941 9.02475,27.4215172 9.44348894,27.540335 C9.30769248,28.0818128 9.18941814,28.6122562 9.09005973,29.1296946 C8.14924115,34.0341281 8.88397566,37.9285123 11.2225819,39.2632906 C13.6382456,40.6418128 17.6922279,39.224867 21.6398827,35.8100887 C21.951896,35.5401379 22.2649049,35.2540296 22.5785111,34.953734 C22.985104,35.3413202 23.3910996,35.7080197 23.7949049,36.0520591 C27.6187102,39.3082167 31.3951261,40.6230936 33.731542,39.2845714 C36.1448164,37.9019113 36.9291305,33.7186601 35.9108562,28.6288079 C35.8332013,28.2400394 35.742604,27.842798 35.6410553,27.4388571 C35.9257898,27.3555074 36.2051482,27.269399 36.4777367,27.1799409 C41.6354137,25.4889064 44.9912987,22.7549163 44.9912987,19.9588571 C44.9912987,17.2774778 41.8510553,14.6845714 36.9918518,13.029202" id="Fill-1" fill="#4DC1E0" mask="url(#mask-2)"></path>
                            </g>
                            <path d="M22.4957588,15.9903645 C24.7144978,15.9903645 26.5133031,17.770266 26.5133031,19.9661281 C26.5133031,22.1617931 24.7144978,23.9418916 22.4957588,23.9418916 C20.2768208,23.9418916 18.4780155,22.1617931 18.4780155,19.9661281 C18.4780155,17.770266 20.2768208,15.9903645 22.4957588,15.9903645" id="Fill-4" fill="#4DC1E0"></path>
                        </g>
                    </g>
                </g>
            </g>
        </g>
    </g>
</svg>