<svg xmlns="http://www.w3.org/2000/svg" xmlns:xlink="http://www.w3.org/1999/xlink" width="44.991" height="39.613" viewBox="0 0 44.991 39.613">
  <defs>
    <clipPath id="clip-path">
      <path id="Clip_2" data-name="Clip 2" d="M0,0H44.991V39.613H0Z" transform="translate(0 0.19)" fill="none"/>
    </clipPath>
  </defs>
  <g id="Group_6_Copy_2" data-name="Group 6 Copy 2" transform="translate(0 -0.197)">
    <g id="Group_3" data-name="Group 3" transform="translate(0 0.007)">
      <path id="Clip_2-2" data-name="Clip 2" d="M0,0H44.991V39.613H0Z" transform="translate(0 0.19)" fill="none"/>
      <g id="Group_3-2" data-name="Group 3" clip-path="url(#clip-path)">
        <path id="Fill_1" data-name="Fill 1" d="M31.629,39.613h0c-2.212,0-4.994-1.332-7.834-3.751-.393-.334-.8-.7-1.217-1.1-.323.309-.64.6-.939.856C18.719,38.147,15.7,39.6,13.37,39.6a4.279,4.279,0,0,1-2.148-.523,5.284,5.284,0,0,1-2.3-3.728A16.972,16.972,0,0,1,9.09,28.94c.1-.505.216-1.04.354-1.589-.436-.123-.845-.251-1.217-.377a18.008,18.008,0,0,1-5.974-3.2A5.542,5.542,0,0,1,0,19.769a5.275,5.275,0,0,1,2.116-3.831,17.374,17.374,0,0,1,5.689-3.06c.525-.181,1.085-.355,1.665-.517-.128-.51-.24-1.007-.333-1.475a17.6,17.6,0,0,1-.223-6.53A5.284,5.284,0,0,1,11.191.563,4.2,4.2,0,0,1,13.305.043a9.152,9.152,0,0,1,3.978,1.093,21.164,21.164,0,0,1,4.487,3.1c.246.216.5.445.745.68.381-.363.759-.7,1.12-1.017C26.558,1.385,29.4,0,31.644,0A4.092,4.092,0,0,1,33.7.5a5.5,5.5,0,0,1,2.364,4,18.487,18.487,0,0,1-.295,6.9c-.068.325-.144.654-.224.977.511.146,1,.3,1.448.452a18.018,18.018,0,0,1,5.822,3.08,5.279,5.279,0,0,1,2.177,3.85,5.5,5.5,0,0,1-2.322,4.024,18.94,18.94,0,0,1-6.191,3.2c-.246.081-.512.163-.837.259.108.43.2.82.27,1.19a17.588,17.588,0,0,1,.2,6.718A5.553,5.553,0,0,1,33.731,39.1,4.173,4.173,0,0,1,31.629,39.613Zm2.152-11.882a45.453,45.453,0,0,1-6.093.93A44.92,44.92,0,0,1,23.918,33.4c.365.348.745.692,1.131,1.021,2.422,2.063,4.878,3.294,6.569,3.295a2.294,2.294,0,0,0,1.15-.266,3.932,3.932,0,0,0,1.473-2.765,15.9,15.9,0,0,0-.216-5.875c-.068-.338-.15-.7-.244-1.077Zm-22.475.085c-.126.507-.237,1-.328,1.479-.77,4.012-.285,7.28,1.205,8.131a2.385,2.385,0,0,0,1.189.268,6.072,6.072,0,0,0,1.966-.385,16.285,16.285,0,0,0,5.036-3.12c.273-.236.562-.5.857-.781a46.368,46.368,0,0,1-3.862-4.722A45.63,45.63,0,0,1,11.307,27.816Zm8.556,1.016c.883,1.151,1.793,2.23,2.707,3.206a40.836,40.836,0,0,0,2.642-3.215c-.9.04-1.815.059-2.716.059C21.614,28.883,20.728,28.866,19.863,28.832ZM16.222,23.4c.687,1.172,1.427,2.334,2.2,3.452,1.312.085,2.683.128,4.073.128s2.779-.048,4.12-.143c.734-1.09,1.461-2.249,2.158-3.446s1.348-2.409,1.933-3.6c-.589-1.177-1.241-2.379-1.939-3.572-.687-1.175-1.416-2.327-2.167-3.425-1.346-.1-2.727-.153-4.1-.153s-2.745.051-4.1.152c-.763,1.105-1.5,2.262-2.182,3.437s-1.329,2.383-1.913,3.589c.591,1.213,1.237,2.42,1.92,3.587Zm-2.938-1.351c-.568,1.335-1.059,2.657-1.458,3.931a41.515,41.515,0,0,0,4.146.66c-.5-.77-.975-1.54-1.412-2.287S13.693,22.833,13.284,22.051Zm18.46-.067c-.41.783-.849,1.576-1.305,2.359-.444.762-.909,1.524-1.382,2.265a41.413,41.413,0,0,0,4.2-.708A40.332,40.332,0,0,0,31.744,21.983ZM9.986,14.192c-.551.155-1.072.318-1.548.482-3.9,1.345-6.517,3.392-6.517,5.095A3.936,3.936,0,0,0,3.6,22.415a16.3,16.3,0,0,0,5.248,2.759c.341.116.715.232,1.111.345a45.93,45.93,0,0,1,2.22-5.7,45.23,45.23,0,0,1-2.193-5.623Zm25.042.028a44.306,44.306,0,0,1-2.19,5.558,44.29,44.29,0,0,1,2.278,5.64c.276-.081.524-.157.756-.234,4.237-1.389,7.2-3.616,7.2-5.415a3.845,3.845,0,0,0-1.79-2.64,17.021,17.021,0,0,0-4.913-2.492C35.952,14.5,35.514,14.36,35.029,14.22Zm-5.966-1.184c.466.722.927,1.472,1.369,2.227s.879,1.538,1.294,2.317a40.455,40.455,0,0,0,1.44-3.833C31.875,13.454,30.494,13.215,29.063,13.036Zm-13.131,0c-1.428.177-2.8.41-4.08.693.391,1.246.872,2.543,1.43,3.853.406-.779.834-1.553,1.27-2.3s.892-1.49,1.38-2.244ZM31.633,1.9C29.915,1.9,27.4,3.183,24.9,5.334c-.334.287-.672.595-1.035.94a44.68,44.68,0,0,1,3.8,4.7,46.406,46.406,0,0,1,6.016.941c.078-.318.145-.608.2-.886.9-4.326.43-7.975-1.146-8.874A2.213,2.213,0,0,0,31.633,1.9ZM13.318,1.94a2.324,2.324,0,0,0-1.165.269,3.833,3.833,0,0,0-1.412,2.856,16.616,16.616,0,0,0,.282,5.456c.084.427.188.889.31,1.372a47.393,47.393,0,0,1,6-.923A45.614,45.614,0,0,1,21.17,6.275c-.228-.215-.455-.423-.675-.616C17.845,3.33,15.162,1.94,13.318,1.94ZM22.5,10.734c.882,0,1.781.021,2.669.063a40.867,40.867,0,0,0-2.648-3.163c-.9.963-1.8,2.027-2.67,3.163C20.749,10.755,21.64,10.734,22.5,10.734Z" transform="translate(0 0.19)" fill="#4dc1e0"/>
      </g>
    </g>
    <path id="Fill_4" data-name="Fill 4" d="M4.018,0A4,4,0,0,1,8.035,3.976,4,4,0,0,1,4.018,7.952,4,4,0,0,1,0,3.976,4,4,0,0,1,4.018,0" transform="translate(18.478 15.99)" fill="#4dc1e0"/>
  </g>
</svg>
