<?xml version="1.0" encoding="UTF-8"?>
<svg width="400px" height="406px" viewBox="0 0 400 406" version="1.1" xmlns="http://www.w3.org/2000/svg" xmlns:xlink="http://www.w3.org/1999/xlink">
    <!-- Generator: Sketch 53 (72520) - https://sketchapp.com -->
    <title>Group 17</title>
    <desc>Created with Sketch.</desc>
    <g id="Page-1" stroke="none" stroke-width="1" fill="none" fill-rule="evenodd">
        <g id="Testimonials" transform="translate(-205.000000, -727.000000)">
            <g id="text" transform="translate(205.000000, 727.000000)">
                <g id="Group-17">
                    <path d="M202.945279,300.506076 C183.798705,305.388975 194.827059,353.607606 204.592605,357.67201 C214.358152,361.737023 231.112167,358.575956 264.449912,357.67201 C296.383249,356.805295 333.541153,351.891878 319.655767,339.361137 C306.795152,327.709319 253.939743,287.560289 202.945279,300.506076" id="Fill-1" fill="#F8F8F8"></path>
                    <path d="M287.087303,263.560656 C284.645917,262.864843 282.558531,260.7713 282.20453,258.335954 C277.504861,237.858295 280.886181,215.128398 297.634093,202.261958 C298.080257,216.990004 298.854787,233.726141 298.854787,233.726141 C298.854787,233.726141 308.083228,233.396545 309.902061,232.505416 C309.902061,232.505416 309.066497,243.754396 311.958929,244.206064 C321.27343,245.677037 319.527228,239.201092 319.527228,239.201092 C316.815458,246.132978 313.188778,252.67118 308.742402,258.641135 C302.468039,263.023537 294.631188,265.391743 287.087303,263.560656" id="Fill-3" fill="#4B4A4C"></path>
                    <path d="M321.797778,240.458377 C318.843701,233.982432 309.982078,229.893004 307.710978,234.324235 C304.048898,241.48989 303.396437,254.99721 307.710978,258.183302 C312.082891,261.242438 318.107012,260.178577 321.16668,255.806551 C321.398612,255.475124 321.609181,255.129048 321.797778,254.771376 C324.739649,249.32084 323.048989,243.198905 321.797778,240.458377" id="Fill-5" fill="#242326"></path>
                    <path d="M277.181682,209.091792 L291.268483,192.734079 C297.176639,198.868221 301.19272,200.22933 300.209451,203.641255 C299.795026,205.069504 300.557959,221.817848 300.881443,232.486983 C284.133531,245.347319 280.129656,260.942079 284.853129,281.413635 C285.201637,283.855084 283.474356,285.435923 285.915743,286.131736 C291.634691,292.406262 305.684871,292.076666 311.958624,287.675953 C306.099907,295.318301 297.420777,296.159991 287.392171,295.439763 C265.370864,293.846717 277.181682,209.091792 277.181682,209.091792" id="Fill-7" fill="#242528"></path>
                    <path d="M256.381007,175.08252 C263.106417,175.424933 269.708537,177.016148 275.850455,179.776207 C275.594109,191.099651 273.824714,202.338254 270.589877,213.193549 C268.526295,221.128261 271.468776,229.09349 274.416751,236.747435 C275.531854,240.886303 276.220935,245.127711 276.473619,249.406352 C276.765975,261.772294 273.238782,274.431211 278.243014,285.912128 C279.463707,288.5611 281.734807,290.416602 284.34648,291.7594 C284.023607,296.404258 286.611477,308.135423 288.00856,313.994902 C288.513317,316.11347 287.205344,318.239363 285.087441,318.744132 C285.0319,318.75756 284.976969,318.769157 284.920817,318.780144 C276.852034,320.262714 268.911424,314.568643 254.940589,318.84118 C253.433033,317.071129 251.705752,305.308835 251.431096,302.971757 C249.075158,286.778842 252.608454,271.470953 253.201101,255.571012 C253.494067,249.388041 254.07939,243.205069 252.316098,237.022098 C250.845163,232.017126 248.488614,227.604206 246.71922,222.599234 C241.122341,204.654579 223.757978,196.683246 208.163621,187.283665 C206.841,186.435261 205.641059,185.408021 204.599197,184.231853 C216.842751,177.047887 238.619309,174.276842 256.381007,175.08252" id="Fill-9" fill="#FFFFFF"></path>
                    <path d="M195.126373,196.261913 C195.736719,191.379013 199.246213,187.38114 204.592849,184.237773 C205.635321,185.414552 206.834653,186.441182 208.157884,187.289585 C223.757734,196.713581 241.116603,204.6605 246.718975,222.623466 C248.489591,227.628437 250.844919,232.041358 252.315854,237.046329 C254.079756,243.229301 253.493823,249.412272 253.200857,255.595243 C252.59051,271.464666 249.075524,286.803074 251.430852,302.996599 C251.705508,305.315366 253.432789,317.077049 254.940345,318.866022 C235.238965,324.041285 229.153199,313.463704 210.507108,309.478037 C206.77789,308.660152 209.994417,302.275761 209.994417,302.275761 C206.942684,293.87107 193.209884,212.387688 195.126373,196.261913" id="Fill-11" fill="#EFE1CA"></path>
                    <path d="M300.97922,200.540736 C300.97922,200.540736 299.715803,209.879281 295.62587,209.879281 L298.256464,202.268062 L300.97922,200.540736 Z" id="Fill-13" fill="#242326"></path>
                    <path d="M288.844979,254.490426 C287.557758,268.479933 286.330962,282.383989 285.915315,286.131614 C284.645794,297.484355 285.525304,301.16484 285.591832,302.001037 C285.707798,303.435388 279.610435,306.987698 278.811491,305.199336 C277.248393,301.708063 275.149411,294.163983 277.089703,283.964827 C278.437348,276.791238 279.172206,269.515718 279.287561,262.217614 C282.997858,260.539118 286.098419,257.530031 288.844979,254.490426" id="Fill-15" fill="#2D2C2F"></path>
                    <path d="M289.553104,246.873164 C289.321172,249.37565 289.083137,251.933069 288.845102,254.490487 C286.098542,257.542299 282.997981,260.539179 279.287683,262.211572 C279.384728,258.744713 279.433556,255.131368 279.549522,250.993111 C283.053522,250.28509 286.410429,248.563868 289.553104,246.873164" id="Fill-17" fill="#242326"></path>
                    <path d="M284.108873,186.105726 C279.4031,187.875777 279.4031,193.765775 277.633705,198.178695 C276.009572,201.425823 271.901939,200.198995 268.960069,201.810351 C268.929551,201.389201 268.905137,200.961948 268.89293,200.540798 C268.71593,195.297784 275.167904,193.442283 275.167904,189.279611 C275.167904,186.081312 272.286458,178.293087 272.286458,178.293087 C280.343034,180.282869 286.202362,183.389614 290.444271,186.661156 C288.477734,185.683966 286.215179,185.485598 284.108873,186.105726" id="Fill-19" fill="#242528"></path>
                    <path d="M277.633461,198.178573 C279.402856,193.765653 279.402856,187.875655 284.108628,186.105604 C286.213714,185.481814 288.476879,185.675909 290.444027,186.648827 C299.032214,193.265155 300.97922,200.540675 300.97922,200.540675 C300.97922,200.540675 296.339975,203.22627 292.305584,221.738562 C291.988814,223.185121 291.470019,227.598041 290.865776,233.494142 C287.203696,236.069872 283.315788,238.322109 279.006741,239.127787 C276.730148,228.141264 269.802713,215.323653 268.960435,201.810229 C271.901695,200.198872 276.009939,201.425701 277.633461,198.178573" id="Fill-21" fill="#38393E"></path>
                    <path d="M289.553104,246.873164 C286.410429,248.563868 283.053522,250.28509 279.573936,251.005318 C279.61727,249.522137 279.665488,247.953506 279.732626,246.348253 C279.79244,243.925724 279.556236,241.505637 279.030727,239.139873 C283.339775,238.334194 287.23989,236.08806 290.889763,233.506227 C290.456417,237.436961 290.010864,242.045198 289.553104,246.873164" id="Fill-23" fill="#242326"></path>
                    <path d="M224.935642,278.258244 C227.877513,276.201323 231.41142,275.902245 234.652361,274.431272 C238.803329,272.600184 243.197214,272.172931 247.397009,270.878962 C247.293861,273.715927 247.02836,276.543736 246.602948,279.350793 C244.332459,293.553926 244.674863,309.935443 243.691595,311.204997 C240.243136,315.685057 213.564884,308.874023 208.50511,302.507332 C207.577994,301.34154 208.547835,299.534867 208.50511,297.899707 C208.466048,297.510906 208.400131,297.125767 208.31041,296.746122 C212.209914,289.38454 217.746369,283.35477 224.935642,278.258244" id="Fill-25" fill="#2D2C2F"></path>
                    <path d="M202.480928,264.653205 L247.45188,262.602387 C247.518407,265.428365 247.506811,268.211618 247.396948,270.885005 C243.184946,272.178973 238.803268,272.618434 234.6523,274.437314 C231.411359,275.907677 227.877452,276.207365 224.935581,278.264287 C217.746308,283.366916 212.209853,289.391193 208.310349,296.752164 C207.321587,292.082281 202.956998,275.89608 202.499238,271.678476 C202.408297,270.823969 202.395479,268.284861 202.480928,264.653205" id="Fill-27" fill="#242326"></path>
                    <path d="M242.89198,200.241537 C236.416812,196.115487 235.238233,189.053594 233.767908,182.577648 C232.901215,179.116894 230.324942,177.371257 227.090105,176.474024 C232.165137,175.672008 237.282894,175.166628 242.41652,174.960326 L243.692144,189.291635 C246.634015,193.564172 247.152199,195.688233 247.024637,199.014708 C246.981302,200.058428 246.602887,202.579225 246.151841,205.899596 C245.791126,203.549701 244.674802,201.42564 242.89198,200.241537" id="Fill-29" fill="#242528"></path>
                    <path d="M227.084368,176.461817 C230.319205,177.371257 232.894868,179.116894 233.76095,182.565441 C235.232495,189.041386 236.410465,196.10328 242.886243,200.22933 C244.668455,201.413433 245.785389,203.537494 246.144883,205.875182 C245.144525,213.199531 243.771245,224.344749 244.778317,231.998693 C245.303215,235.966049 245.967883,241.30672 246.511702,247.178407 C235.806221,242.661725 228.475958,232.438154 226.980609,220.542191 C226.095606,213.474194 228.158578,204.062406 221.38373,199.637278 C220.795356,199.244815 220.183788,198.887753 219.55269,198.569144 C221.627869,196.628191 220.694038,194.388161 211.392355,190.103417 C201.504739,185.537906 194.034096,189.639542 194.034096,189.639542 C194.034096,189.639542 203.012296,180.337618 227.084368,176.461817" id="Fill-31" fill="#38393E"></path>
                    <path d="M226.998553,220.55452 C228.482306,232.450484 235.811959,242.674054 246.529646,247.190736 C246.981302,252.116361 247.348121,257.414306 247.463476,262.596283 L202.493745,264.653205 C202.817229,250.883429 204.482865,221.366302 208.108934,208.121438 C209.499914,203.024912 216.958961,201.041234 219.588945,198.581473 C220.220653,198.900082 220.83161,199.256534 221.419984,199.649607 C228.177132,204.068631 226.114161,213.486523 226.998553,220.55452" id="Fill-33" fill="#242528"></path>
                    <path d="M245.01031,177.517744 C243.878117,179.337234 243.497261,181.525994 243.948307,183.621368 C244.973079,189.11463 247.787387,194.498026 247.00004,198.971983 C247.00004,198.971983 243.667547,191.427904 240.469331,195.010731 C240.469331,195.010731 237.417598,185.031305 237.270504,180.935774 C237.203976,178.6225 237.741081,175.216678 240.457124,172.81185 C242.327226,173.995343 243.888493,175.609141 245.01031,177.517744" id="Fill-35" fill="#4B4A4C"></path>
                    <path d="M251.376042,170.034823 C251.376042,170.034823 253.408497,174.368396 251.376042,174.30736 C248.838221,174.181625 246.421248,175.398688 245.010127,177.511763 C243.891361,175.617198 242.33925,174.014386 240.481355,172.836386 C242.580947,170.986988 245.968371,169.729642 251.376042,170.034823" id="Fill-37" fill="#424144"></path>
                    <path d="M264.541403,171.566711 C264.541403,171.566711 266.012338,174.758906 267.708492,175.881973 C269.405866,177.00504 272.988601,179.684531 271.980918,185.19 C270.974457,190.695469 268.141838,196.060554 268.929185,200.540614 C268.929185,200.540614 272.256185,192.990431 275.454401,196.573259 C275.454401,196.573259 278.506134,186.593833 278.652618,182.498301 C278.79849,178.40277 276.943037,170.870897 264.541403,171.566711" id="Fill-39" fill="#4B4A4C"></path>
                    <path d="M221.463075,212.430596 C233.596766,204.495885 211.581563,176.461939 194.05851,189.651871 C194.05851,189.651871 191.830745,192.239808 197.592417,200.205037 C201.785499,206.009584 215.634264,216.214843 221.463075,212.430596" id="Fill-41" fill="#242326"></path>
                    <path d="M256.606896,264.811777 C256.77169,269.084314 252.645747,282.457354 248.580838,281.492982 C244.515319,280.528609 244.174135,265.184098 244.174135,265.184098 C244.174135,265.184098 252.456539,259.20865 254.507304,259.635904 C256.558069,260.063157 256.606896,264.811777 256.606896,264.811777" id="Fill-43" fill="#242326"></path>
                    <path d="M264.888873,263.102884 C267.476743,263.609485 270.381993,260.539362 272.82338,259.770305 C275.264766,259.001249 287.966691,254.393012 289.192877,253.794857 C290.419674,253.196702 289.705568,255.387903 287.405172,256.846669 C285.103554,258.305436 279.836263,261.19245 279.836263,261.19245 C279.836263,261.19245 281.448188,261.009341 282.339294,261.528149 C283.865161,262.425382 286.111237,263.762076 287.03225,264.348023 C288.491589,265.281878 286.605007,265.922758 285.457556,265.47109 C284.078172,264.933971 281.667303,263.755972 281.667303,263.755972 L277.914281,264.586065 C277.914281,264.586065 281.032542,265.147598 281.465888,265.25136 C281.899235,265.355121 284.560346,268.040716 284.835612,268.303172 C285.110268,268.565628 284.097093,269.523897 283.004572,268.785358 C281.912052,268.04682 280.740186,267.106862 280.740186,267.106862 C280.740186,267.106862 276.675277,267.430354 276.193104,267.399836 L279.988849,268.284861 C280.178667,268.327586 281.52082,270.445544 281.819889,270.787347 C282.118959,271.12915 280.397782,270.976559 279.940022,270.543202 C279.662924,270.279525 279.422448,269.979837 279.225916,269.651462 C279.225916,269.651462 275.240353,270.261825 274.65442,270.097027 C274.068487,269.932229 273.59913,270.99487 269.887612,272.795439 C267.33026,274.016164 261.647932,273.039584 259.743651,271.086425 L239.291545,265.880033 L251.784731,259.690958 L264.888873,263.102884 Z" id="Fill-45" fill="#F9BE39"></path>
                    <path d="M198.532168,203.018808 C199.435481,200.821503 202.114903,198.801204 204.7516,199.210146 C211.465414,200.19283 219.589128,203.604756 221.841307,210.294328 C217.904571,219.028614 206.509399,244.248789 206.509399,244.248789 C208.590681,244.663836 207.242425,246.433887 207.242425,246.433887 C212.35652,246.629203 254.519267,259.636026 254.519267,259.636026 C241.030606,271.757823 248.580594,281.523622 248.580594,281.523622 C245.266411,281.700627 195.480435,277.183945 178.842385,270.225814 C183.407778,247.21515 188.571311,224.875886 198.532168,203.018808" id="Fill-47" fill="#38393E"></path>
                    <path d="M194.943391,190.420867 C202.676483,184.433211 226.364037,200.186665 222.695853,208.347211 L221.816954,210.294267 C219.589189,203.58028 211.477682,200.192769 204.727248,199.210085 C202.09055,198.801143 199.411128,200.821442 198.507815,203.018747 C188.571372,224.875825 183.407839,247.215089 178.86686,270.195234 C177.377004,269.627597 175.981751,268.837788 174.72871,267.851443 C169.620108,263.426315 185.11681,198.025982 194.943391,190.420867" id="Fill-49" fill="#242528"></path>
                    <path d="M248.202118,174.344043 C249.608967,172.933495 250.772288,171.300165 251.645083,169.509972 C251.461979,172.300549 251.588321,175.102723 252.022888,177.865834 C253.383961,184.421126 259.566772,186.410908 264.449546,189.255196 C256.557763,189.835041 242.953137,179.623678 248.202118,174.344043" id="Fill-51" fill="#F9BE39"></path>
                    <path d="M251.644839,169.509728 C253.096243,166.523225 253.855515,163.24802 253.866501,159.927038 L256.454371,154.964792 C258.626594,154.702336 260.500969,155.666709 262.075663,157.217029 C258.449594,165.664445 261.520248,176.571621 269.686686,182.577587 C269.795938,182.720412 269.867349,182.888262 269.893594,183.065877 C269.760538,184.235942 269.44743,185.378541 268.966477,186.453389 C268.099785,188.284476 266.463446,189.108465 264.449302,189.254952 C259.566528,186.416767 253.384327,184.420882 252.022644,177.86559 C251.588077,175.103089 251.461735,172.300305 251.644839,169.509728" id="Fill-53" fill="#F9BE39"></path>
                    <path d="M262.075602,157.217212 C266.348029,161.410402 268.447011,169.888336 268.447011,169.888336 C268.447011,169.888336 270.650973,177.273721 269.894143,183.06606 C269.867898,182.888445 269.795877,182.719985 269.686625,182.577771 C259.335146,178.29913 257.809279,168.765269 262.075602,157.217212" id="Fill-55" fill="#E5AC3C"></path>
                    <path d="M290.999686,143.160383 C291.189504,145.198993 289.168646,151.705456 287.435262,152.706451 C285.701877,153.707445 283.22387,141.817585 285.146462,141.243845 C287.069664,140.670104 290.615168,139.034333 290.999686,143.160383" id="Fill-57" fill="#242528"></path>
                    <path d="M263.460784,134.139348 C268.953904,132.009183 287.075096,132.473059 288.405652,146.999684 C289.272344,156.399266 283.803638,179.049815 272.286397,178.280758 C263.803189,177.713121 260.634879,170.901477 259.633911,165.127448 C256.582177,164.126454 254.190229,162.423543 253.866135,159.92716 C253.097708,153.957816 252.041198,138.552268 263.460784,134.139348" id="Fill-59" fill="#F9BE39"></path>
                    <path d="M288.405713,146.999623 C288.405713,146.999623 283.010249,150.381031 275.869193,145.168536 C268.728137,139.956041 272.439044,145.809417 271.157316,147.48181 C269.875589,149.154203 265.835704,150.387135 265.340713,152.749237 C264.846332,155.11134 264.449607,146.584577 264.449607,146.584577 L257.393999,148.696431 C257.393999,148.696431 254.52537,152.688201 257.247516,155.105236 C259.078556,156.716593 257.247516,159.298426 255.73996,158.266913 C254.232404,157.235401 253.048331,148.696431 253.048331,148.696431 L254.122541,141.042486 L264.449607,136.458664 L274.98419,136.458664 L288.405713,146.999623 Z" id="Fill-61" fill="#E5AC3C"></path>
                    <path d="M271.578273,128.505764 C275.704826,128.914707 285.121865,129.580002 286.226592,124.483476 C288.539806,125.850688 289.437626,128.438624 289.980224,122.914844 C294.021329,124.965662 292.958716,130.65424 296.127025,125.966656 C299.740278,130.892281 300.399452,145.052689 288.418347,147.018056 C284.377852,147.677248 279.678183,147.018056 276.149769,143.758721 C272.878921,140.706909 268.887254,140.554318 269.307783,142.34268 C269.63737,143.752617 270.729891,145.650844 270.528476,146.230689 L250.558544,144.173767 C249.075402,141.799458 246.529646,135.091575 252.926079,135.091575 C251.57172,123.787663 263.272065,127.675671 271.578273,128.505764" id="Fill-63" fill="#38393E"></path>
                    <path d="M286.226592,143.581533 C288.119277,143.508289 289.892334,142.639743 291.109366,141.188912 C293.099706,138.686426 292.659646,135.219568 292.641946,135.085288 L292.348369,135.12191 C292.348369,135.158531 292.794533,138.619286 290.877434,141.018011 C289.706179,142.401702 288.007584,143.229964 286.196075,143.300766 L286.226592,143.581533 Z" id="Fill-65" fill="#4B4A4C"></path>
                    <path d="M284.072496,138.869657 C285.536717,138.869657 285.811984,138.057875 286.10495,137.203368 C286.177581,136.983637 286.250823,136.757803 286.348479,136.538072 L286.080536,136.416 C285.976777,136.654041 285.896822,136.885979 285.824191,137.10571 C285.536717,137.960217 285.323706,138.576683 284.072496,138.576683 L284.072496,138.869657 Z" id="Fill-67" fill="#4B4A4C"></path>
                    <path d="M250.545727,144.155212 C257.869887,139.272313 270.504062,145.626186 270.51688,146.212134 C270.558994,147.518309 265.994211,149.367707 265.737865,153.396099 L264.376182,154.006462 C264.376182,154.006462 264.449424,149.074733 260.848989,148.330091 C256.545434,147.432859 253.305104,153.823353 257.907118,157.54046 C257.907118,157.54046 253.817185,160.482407 253.634691,157.54046 C253.303883,152.945652 252.262022,148.430191 250.545727,144.155212" id="Fill-69" fill="#4B4A4C"></path>
                    <path d="M327.254522,285.356637 C327.254522,285.356637 278.426789,336.102168 272.05477,338.696208 C263.979884,341.986062 229.733333,347.241282 208.487166,331.164336 C196.438923,322.057729 175.528447,299.42549 177.359487,297.545574 C181.857131,292.809162 200.875533,284.972108 208.676374,284.727963 C216.476604,284.483819 325.600482,290.17789 327.254522,285.356637" id="Fill-71" fill="#242528"></path>
                    <path d="M334.309885,288.237425 C337.129686,296.397971 338.142862,303.984776 322.212814,310.100607 C306.282766,316.216438 253.670885,336.102046 244.729306,338.708293 C244.729306,338.708293 228.146798,331.957685 227.950877,330.370743 C227.755566,328.784411 229.531675,326.476631 236.49573,324.615636 C243.459785,322.75342 269.168197,305.986764 281.496589,298.668519 C293.544832,291.527889 328.597651,271.721018 334.309885,288.237425" id="Fill-73" fill="#38393E"></path>
                    <path d="M235.324047,324.950969 C238.632126,325.835994 241.84255,328.551497 244.186281,330.926417 C246.945048,333.666334 251.077095,335.979607 254.653726,335.333233 C249.880815,337.420673 246.981669,337.774683 245.96239,339.336601 C245.96239,339.336601 228.146371,331.957319 227.95106,330.370987 C227.767956,328.875599 229.330443,326.751538 235.324047,324.950969" id="Fill-75" fill="#242326"></path>
                    <path d="M246.920634,337.975981 C248.397673,339.159473 239.706336,340.869099 238.161549,341.796849 C236.617982,342.7246 227.480483,333.76448 225.863674,331.939496 C224.807775,330.718772 225.863674,328.277322 227.548231,327.190877 C229.232788,326.104432 231.01439,329.943611 235.836739,332.128709 C240.658477,334.313806 246.005114,337.231339 246.920634,337.975981" id="Fill-77" fill="#38393E"></path>
                    <path d="M232.53458,343.395938 C234.304585,336.791817 227.890452,329.406431 226.119837,332.122544 C223.111438,336.736884 216.665567,339.733763 212.625072,344.818082 C207.547598,351.208577 218.728539,362.213411 224.765478,355.865642 C226.278527,354.266493 231.429853,347.49147 232.53458,343.395938" id="Fill-79" fill="#A0A0A0"></path>
                    <path d="M232.53458,343.395938 C234.304585,336.791817 227.944773,329.436949 226.119837,332.122544 C222.678092,337.188552 216.665567,339.733763 212.625072,344.818082 C207.547598,351.208577 218.728539,362.213411 224.765478,355.865642 C226.278527,354.266493 231.429853,347.49147 232.53458,343.395938" id="Fill-81" fill="#939393"></path>
                    <path d="M226.205224,332.110215 C226.177148,332.104111 226.147852,332.104111 226.119776,332.110215 C226.147241,332.099228 226.177759,332.099228 226.205224,332.110215" id="Fill-83" fill="#939393"></path>
                    <path d="M220.980901,349.072186 C224.612464,347.589006 228.683476,347.05799 231.832865,345.281836 C230.001825,349.310838 226.058985,354.492205 224.758337,355.86552 C223.812299,356.887877 222.520806,357.525095 221.133488,357.654492 C217.434177,358.013996 215.499988,353.173822 218.374111,350.817823 C219.191975,350.163514 220.06416,349.579397 220.980901,349.072186" id="Fill-85" fill="#A0A0A0"></path>
                    <path d="M226.41262,352.997244 C234.261678,343.231445 235.915718,344.591943 238.161793,341.796483 C239.168865,340.539747 239.261028,337.908475 239.022382,336.645635 C238.466967,333.703688 237.264584,332.733212 235.848579,331.762735 C231.253279,328.540022 227.182267,328.954458 225.283479,333.025575 C222.549126,338.878951 217.196386,340.033146 213.992066,344.146989 C210.275665,348.877298 222.060848,358.428859 226.41262,352.997244" id="Fill-87" fill="#242326"></path>
                    <path d="M226.41262,352.997244 C228.24366,351.03737 226.302758,347.015082 224.057292,344.628565 C222.958668,343.456669 217.196386,340.002628 213.992066,344.11586 C210.275665,348.877298 221.645813,358.050434 226.41262,352.997244" id="Fill-89" fill="#2D2C2F"></path>
                    <path d="M228.970217,349.829158 C235.818306,342.38884 236.398136,343.994093 238.162037,341.796788 C239.169109,340.539442 239.736732,338.317723 239.022626,336.64533 C237.960623,338.476417 235.360546,339.7948 232.473607,340.917866 C228.115731,342.559741 228.384284,350.494453 228.970217,349.829158" id="Fill-91" fill="#38393E"></path>
                    <path d="M229.354674,349.346971 C232.479649,345.465066 235.555796,343.792673 235.458141,342.80999 C235.384899,341.924964 234.847794,341.259669 233.334745,342.504809 C229.751399,345.477274 228.811466,350.024474 229.354674,349.346971" id="Fill-93" fill="#5B5A5A"></path>
                    <path d="M252.8471,334.167197 L252.8471,334.167197 C251.03437,333.102115 249.070885,332.315968 247.024393,331.835613 C241.757101,330.614888 233.913536,329.931892 231.15538,331.683022 C227.206437,334.734834 225.869778,338.238314 225.375397,342.773918 C224.325601,342.321639 223.208056,341.876074 222.15887,341.400602 C221.615662,340.502759 220.419382,336.517703 220.60859,336.138668 C221.408144,334.460171 234.432941,324.621129 239.590371,320.366903 C242.642104,317.833899 245.889148,315.386346 249.905229,311.785207 C249.807574,319.549017 254.324139,324.254911 257.394183,331.670815 C254.421794,333.032533 254.335735,333.605664 252.8471,334.167197" id="Fill-95" fill="#242326"></path>
                    <path d="M294.448389,333.196782 L294.405665,332.653559 C295.161274,332.648676 295.915662,332.591302 296.663947,332.482658 C297.097293,332.342275 299.618025,334.698273 299.770612,334.881382 C301.332489,336.712469 299.434921,336.584293 299.337266,336.620915 C299.23961,336.657537 294.729148,333.154057 294.448389,333.196782" id="Fill-97" fill="#A0A0A0"></path>
                    <path d="M308.1323,334.460415 C307.183821,334.309045 306.221305,334.26632 305.263671,334.332239 L303.920908,346.490658 C306.929307,346.112234 309.743615,345.141758 311.940863,342.981075 C311.940863,342.657582 311.892035,342.321883 311.843208,341.973977 C311.184033,337.261979 308.644991,334.564177 308.1323,334.460415" id="Fill-99" fill="#A0A0A0"></path>
                    <path d="M303.591077,349.43877 L305.611934,350.049132 C306.903428,350.452582 308.310277,350.202333 309.383266,349.377123 C310.799881,348.291289 312.129826,346.276482 311.941229,342.975032 C309.743371,345.135105 306.929673,346.106191 303.920664,346.484616 L303.591077,349.43877 Z" id="Fill-101" fill="#939393"></path>
                    <path d="M284.579145,338.976792 C289.552859,340.74135 294.209804,342.516894 298.934498,345.392311 C301.546782,346.891972 304.73157,347.003668 307.44273,345.690779 C308.108008,345.336768 308.767183,344.934539 309.426357,344.512779 C309.491664,343.929273 309.52035,343.342104 309.511805,342.754935 C309.511805,340.429454 308.729951,333.599499 305.239379,334.332544 C301.748196,335.064369 299.892742,336.071467 298.263117,335.253581 C296.633491,334.436306 295.540971,332.488639 294.381312,332.654048 C293.221653,332.818235 287.337911,331.329561 284.005419,330.321853 C283.437796,330.150951 282.784725,331.280732 282.460631,331.768412 C282.345276,331.939924 282.765805,332.605219 282.821346,332.757809 C282.332459,332.713863 281.84174,332.787107 281.387032,332.970826 C281.606756,335.57097 282.626035,338.396948 284.579145,338.976792" id="Fill-103" fill="#2D2C2F"></path>
                    <path d="M307.442669,345.690779 C304.731509,347.003668 301.546721,346.891972 298.934437,345.392311 C294.209743,342.516894 289.552798,340.74135 284.579084,338.976792 C282.607664,338.36643 281.606695,335.57097 281.386971,332.970826 C280.13637,333.495127 279.253199,334.637726 279.06155,335.979912 C278.591583,338.763165 280.428116,341.717319 281.460212,341.845495 C283.114252,342.053019 284.773784,340.899434 287.343344,342.144573 C296.876958,346.765016 301.571134,350.079284 305.098938,349.56719 C308.223303,349.127119 309.16995,346.673462 309.426296,344.512779 C308.767122,344.934539 308.107947,345.336768 307.442669,345.690779" id="Fill-105" fill="#242326"></path>
                    <path d="M282.460814,331.768656 C283.590566,332.153184 290.34039,334.179587 291.817429,333.990375 C293.294468,333.801163 291.067313,332.513298 291.067313,332.513298 L283.285393,330.645589 C283.285393,330.645589 282.217286,331.689309 282.460814,331.768656" id="Fill-107" fill="#5B5A5A"></path>
                    <path d="M280.794873,326.842848 C279.323938,324.768226 263.027682,323.253917 253.182791,316.881733 C243.337899,310.50955 195.913964,274.461546 183.658203,275.065804 C171.402442,275.670063 166.501359,290.025787 173.984209,298.003224 C181.467059,305.980661 219.87007,329.949593 240.920926,333.501902 C255.215245,335.943352 270.632601,343.488042 273.128309,343.414188 C275.625237,343.340944 282.113222,328.759996 280.794873,326.842848" id="Fill-109" fill="#38393E"></path>
                    <path d="M284.389571,329.131707 C284.566571,330.468401 281.173044,339.904604 278.768278,342.944209 C278.298922,343.554571 277.272929,343.719369 275.765373,343.554571 C275.219723,343.50147 274.66858,343.55335 274.141851,343.707162 C272.493915,344.177141 270.913117,343.768198 270.797151,343.133421 C270.541416,341.674655 278.933682,328.796008 279.342004,326.653636 C279.750936,324.511264 281.411079,327.044268 282.155702,327.263998 C282.900935,327.483729 284.146043,327.263998 284.389571,329.131707" id="Fill-111" fill="#2D2C2F"></path>
                    <path d="M248.550198,284.868469 L263.643461,234.525777 C263.935817,233.547366 264.832416,232.873526 265.853526,232.865591 L300.881321,232.462752 L286.593105,287.455795 L250.808481,287.871452 C249.52065,287.88488 248.46536,286.852757 248.451322,285.565503 C248.448881,285.329293 248.48245,285.094303 248.550198,284.868469" id="Fill-113" fill="#A0A0A0"></path>
                    <path d="M340.089685,232.035498 L268.22808,232.859487 C267.208191,232.871695 266.314033,233.543704 266.018625,234.519673 L250.924142,284.844054 C250.553661,286.073935 251.249457,287.370955 252.479305,287.742055 C252.706964,287.810416 252.944389,287.843986 253.182424,287.840934 L325.04525,287.016945 C326.064529,287.004737 326.958687,286.332728 327.254705,285.356759 L342.347967,235.038481 C342.72211,233.809822 342.029977,232.51036 340.801349,232.136208 C340.570638,232.066016 340.331382,232.031836 340.089685,232.035498" id="Fill-115" fill="#D1D1D1"></path>
                    <path d="M319.437995,287.098916 L218.517786,288.261046 C217.843963,288.268981 217.2916,287.72881 217.283665,287.05497 L217.270238,285.938007 C217.262913,285.263557 217.80307,284.711179 218.476893,284.703244 L319.397712,283.540503 C320.071535,283.532569 320.623899,284.07335 320.631833,284.74719 L320.645261,285.864153 C320.652585,286.537993 320.111818,287.090982 319.437995,287.098916" id="Fill-117" fill="#D1D1D1"></path>
                    <path d="M299.331162,256.724475 C300.271096,257.908578 300.673925,260.997012 299.227403,266.178989 C298.232538,269.731298 295.089253,267.674377 295.089253,267.674377 C295.089253,267.674377 286.800745,268.748614 289.980651,264.622564 C293.056799,260.612483 298.103755,255.174154 299.331162,256.724475" id="Fill-119" fill="#FFFFFF"></path>
                    <path d="M302.559896,251.750082 C304.091866,252.415377 301.088961,255.68692 300.026957,255.070454 C298.964344,254.453988 300.863132,251.00544 302.559896,251.750082" id="Fill-121" fill="#FFFFFF"></path>
                    <polygon id="Fill-123" fill="#F4CD7F" points="236.373966 51.5756242 275.100461 51.5756242 275.100461 0 236.373966 0"></polygon>
                    <polygon id="Fill-125" fill="#F9BE39" points="257.918592 48.0355221 271.694116 48.0355221 271.694116 29.10208 257.918592 29.10208"></polygon>
                    <polygon id="Fill-126" fill="#F9BE39" points="247.078836 23.0716993 266.012399 23.0716993 266.012399 4.13825718 247.078836 4.13825718"></polygon>
                    <path d="M255.190709,12.2743272 C254.573649,11.7811543 254.280072,10.9870728 254.427776,10.2113022 C254.678628,9.04428925 255.827301,8.30208855 256.994283,8.5529475 C257.971448,8.76291217 258.676399,9.61558847 258.700202,10.6141414 C258.699592,11.263567 258.402963,11.8769812 257.894545,12.2804308 C257.768203,12.3921271 257.755996,12.5850016 257.867689,12.7113466 C257.908583,12.7577342 257.962904,12.7906938 258.022718,12.8053425 C259.670653,13.2081816 260.903554,14.4228029 261.159899,17.1267084 C258.469491,19.3118058 254.615762,19.3118058 251.925354,17.1267084 C252.1817,14.4228029 253.4146,13.2081816 255.062536,12.8053425 C255.22733,12.7675 255.329868,12.6039229 255.292027,12.4397354 C255.277378,12.375037 255.241368,12.3170525 255.190709,12.2743272" id="Fill-127" fill="#FFFBFC"></path>
                    <path d="M239.248393,30.1885251 L256.063444,30.1885251" id="Stroke-128" stroke="#FFFBFC" stroke-width="0.610499779"></path>
                    <path d="M239.163128,34.7477492 L255.978178,34.7477492" id="Stroke-129" stroke="#FFFBFC" stroke-width="0.610499779"></path>
                    <path d="M239.205486,38.9165856 L256.021147,38.9165856" id="Stroke-130" stroke="#FFFBFC" stroke-width="0.610499779"></path>
                    <path d="M239.126202,42.7191434 L255.941863,42.7191434" id="Stroke-131" stroke="#FFFBFC" stroke-width="0.610499779"></path>
                    <path d="M239.163128,46.9430955 L255.978178,46.9430955" id="Stroke-132" stroke="#FFFBFC" stroke-width="0.610499779"></path>
                    <path d="M206.002994,90.8280922 L169.815541,90.7121233 C168.838986,90.7054093 168.051029,89.9119382 168.051639,88.9359687 L168.137088,49.8727741 C168.137088,48.9016875 168.923825,48.1149303 169.894886,48.1149303 L169.906483,48.1149303 L206.093936,48.2308992 C207.068659,48.2308992 207.858448,49.0207081 207.858448,49.9948465 L207.858448,50.0009502 L207.779103,89.0641448 C207.771779,90.0401143 206.979549,90.8280922 206.002994,90.8280922" id="Fill-133" fill="#F4CD7F"></path>
                    <path d="M169.900745,48.6945915 C169.25683,48.6915397 168.732542,49.2103477 168.72888,49.8542801 L168.72888,49.8664873 L168.643431,88.929682 C168.64038,89.5803283 169.164667,90.1101229 169.815297,90.113785 L206.00275,90.2297539 C206.314027,90.2303643 206.612486,90.1076814 206.832821,89.8879509 C207.050105,89.665779 207.174616,89.3691429 207.180719,89.0578581 L207.260064,49.9946634 C207.267388,49.3507311 206.750425,48.823378 206.106509,48.816664 L206.088199,48.816664 L169.900745,48.7006951 L169.900745,48.6945915 Z M206.008853,91.4199606 L206.008853,91.4199606 L169.8214,91.3039918 C168.519531,91.2936156 167.469124,90.2376886 167.466073,88.9357856 L167.550911,49.8725909 C167.548469,49.2457487 167.799322,48.6451521 168.246706,48.2063016 C168.686156,47.7576852 169.291619,47.5104884 169.919056,47.5226956 L206.106509,47.6325609 C206.733945,47.6350023 207.333306,47.8876924 207.773366,48.3344777 C208.217698,48.77638 208.464888,49.3800285 208.456344,50.0068707 L208.376999,89.0700653 C208.370285,90.3707476 207.316216,91.4230124 206.014957,91.4260642 L206.008853,91.4199606 Z" id="Fill-134" fill="#F4CD7F"></path>
                    <polygon id="Fill-135" fill="#FFFFFF" points="205.154795 84.5289689 170.700727 84.4130001 170.767255 51.2214919 205.221323 51.3374607"></polygon>
                    <polygon id="Fill-136" fill="#E0A632" points="170.767377 51.2215529 170.718549 78.8892812 170.700849 84.4130611 205.154917 84.52903 205.185435 75.3186611 205.221445 51.3375218"></polygon>
                    <path d="M189.968821,70.8509303 C191.384826,69.9720084 196.127829,68.0066414 197.817879,67.8784653 C199.648919,67.738082 205.17866,71.6382978 205.17866,71.6382978 L205.221384,51.3315402 L170.767316,51.221675 L170.718488,70.4480911 C170.718488,70.4480911 176.853082,64.4787467 180.349758,64.3078452 C183.847655,64.1369437 189.968821,70.8509303 189.968821,70.8509303" id="Fill-137" fill="#F9BE39"></path>
                    <path d="M198.398075,56.1837383 C199.408809,56.1837383 200.229115,57.0034551 200.229115,58.0148256 C200.229115,59.0261961 199.408809,59.8459128 198.398075,59.8459128 C197.38673,59.8459128 196.567035,59.0261961 196.567035,58.0148256 C196.567035,57.0034551 197.38673,56.1837383 198.398075,56.1837383" id="Fill-138" fill="#E0A632"></path>
                    <path d="M391.493507,170.510784 L345.058334,170.510784 C342.765872,170.510784 340.907976,168.65284 340.907976,166.360319 L340.907976,148.922265 C340.907976,143.067058 345.654032,138.32027 351.509698,138.32027 L389.167476,138.32027 C394.989573,138.32027 399.708773,143.039592 399.708773,148.861229 L399.708773,162.289202 C399.708773,166.826636 396.030824,170.50468 391.493507,170.50468 L391.493507,170.510784 Z" id="Fill-139" fill="#F9BE39"></path>
                    <polygon id="Fill-140" fill="#F9BE39" points="336.57421 172.396681 352.352281 168.935926 350.264896 157.772398 340.889361 162.301287"></polygon>
                    <path d="M353.200175,147.414731 L387.404001,147.414731 C387.801337,147.414731 388.12421,147.737002 388.12421,148.134958 L388.12421,149.166471 C388.12421,149.563817 387.801337,149.886699 387.404001,149.886699 L353.200175,149.886699 C352.802839,149.886699 352.479966,149.563817 352.479966,149.166471 L352.479966,148.134958 C352.479966,147.737002 352.802839,147.414731 353.200175,147.414731" id="Fill-141" fill="#FFFBFC"></path>
                    <path d="M352.48021,160.916069 L367.915877,160.916069" id="Stroke-142" stroke="#E8EEF9" stroke-width="0.507614213"></path>
                    <path d="M323.781405,112.557055 L323.781405,72.0778198 C323.785067,70.634923 324.957543,69.4679101 326.399792,69.4715723 L360.536481,69.6363701 C362.227141,71.3209704 377.937464,88.3561854 381.172301,90.2666198 L381.074646,111.977211 C381.070983,113.64228 379.718455,114.989349 378.05343,114.986298 L326.216688,114.986298 C324.875757,114.982635 323.788119,113.898021 323.781405,112.557055" id="Fill-143" fill="#F9BE39"></path>
                    <path d="M328.102659,101.826823 L368.873816,101.826823" id="Stroke-144" stroke="#E8EEF9" stroke-width="0.507614213"></path>
                    <path d="M328.21893,106.441224 L368.990087,106.5694" id="Stroke-145" stroke="#E8EEF9" stroke-width="0.507614213"></path>
                    <polygon id="Fill-146" fill="#E0A632" points="328.102965 89.2960215 342.757388 89.2960215 342.757388 72.7124746 328.102965 72.7124746"></polygon>
                    <path d="M335.500122,75.6483179 C338.429786,75.6483179 340.804034,78.023238 340.804034,80.9523672 C340.804034,83.8814965 338.429786,86.2564166 335.500122,86.2564166 C332.570458,86.2564166 330.196209,83.8814965 330.196209,80.9523672 C330.196209,78.023238 332.570458,75.6483179 335.500122,75.6483179" id="Fill-147" fill="#F9BE39"></path>
                    <path d="M334.682379,81.2637742 C334.318613,80.9708002 334.143443,80.5026522 334.224619,80.0430493 C334.343027,79.3380807 335.010746,78.8632188 335.715086,78.9816291 C336.348626,79.0884425 336.808217,79.6444827 336.794179,80.2871943 C336.792958,80.6766055 336.615958,81.044654 336.312005,81.2881886 C336.235712,81.3492249 336.222894,81.4603109 336.283929,81.5366062 C336.309564,81.5689554 336.345574,81.5909284 336.385247,81.5994735 C337.374008,81.8436184 338.112528,82.5699497 338.271218,84.1935138 C336.65563,85.5027411 334.344247,85.5027411 332.72927,84.1935138 C332.881857,82.5699497 333.620376,81.8436184 334.609138,81.5994735 C334.709235,81.5854351 334.778814,81.4926601 334.765387,81.3925606 C334.757452,81.3394591 334.727545,81.2924612 334.682379,81.2637742" id="Fill-148" fill="#E8EEF9"></path>
                    <path d="M346.541232,75.7276039 L358.52844,75.7276039" id="Stroke-149" stroke="#E8EEF9" stroke-width="1.22099956"></path>
                    <path d="M346.480441,78.9749151 L358.473143,78.9749151" id="Stroke-150" stroke="#E8EEF9" stroke-width="0.507614213"></path>
                    <path d="M346.510837,81.9471359 L358.504148,81.9471359" id="Stroke-151" stroke="#E8EEF9" stroke-width="0.507614213"></path>
                    <path d="M346.455966,84.657084 L358.443175,84.657084" id="Stroke-152" stroke="#E8EEF9" stroke-width="0.507614213"></path>
                    <path d="M346.480441,87.6725795 L358.473143,87.6725795" id="Stroke-153" stroke="#E8EEF9" stroke-width="0.507614213"></path>
                    <path d="M328.102659,93.7884109 L368.873816,93.7884109" id="Stroke-154" stroke="#E8EEF9" stroke-width="1.22099956"></path>
                    <path d="M328.102659,98.0424539 L368.873816,98.17063" id="Stroke-155" stroke="#E8EEF9" stroke-width="0.507614213"></path>
                    <polygon id="Fill-156" fill="#E0A632" points="381.172423 90.2666198 360.060532 89.9736458 360.347395 69.4715723 370.759299 79.8721478"></polygon>
                    <path d="M173.660542,97.163593 L202.255283,97.163593 C202.81497,97.163593 203.268458,97.6170923 203.268458,98.1767946 L203.268458,100.758628 C203.268458,101.31833 202.81497,101.771829 202.255283,101.771829 L173.660542,101.771829 C173.100854,101.771829 172.647366,101.31833 172.647366,100.758628 L172.647366,98.1767946 C172.647366,97.6170923 173.100854,97.163593 173.660542,97.163593" id="Fill-157" fill="#F4CD7F"></path>
                    <path d="M173.264183,103.93239 L196.114951,103.93239 C196.455525,103.93239 196.731401,104.208274 196.731401,104.548856 L196.731401,105.104286 C196.731401,105.444868 196.455525,105.720752 196.114951,105.720752 L173.264183,105.720752 C172.922999,105.720752 172.647122,105.444868 172.647122,105.104286 L172.647122,104.548856 C172.647122,104.208274 172.922999,103.93239 173.264183,103.93239" id="Fill-158" fill="#EFCC8F"></path>
                    <path d="M173.660542,108.406408 L182.327464,108.406408 C182.887152,108.406408 183.34064,108.859907 183.34064,109.419609 L183.34064,110.4145 C183.34064,110.974202 182.887152,111.427702 182.327464,111.427702 L173.660542,111.427702 C173.100854,111.427702 172.647366,110.974202 172.647366,110.4145 L172.647366,109.419609 C172.647366,108.859907 173.100854,108.406408 173.660542,108.406408" id="Fill-159" fill="#F4CD7F"></path>
                    <path d="M173.660542,107.594565 L182.327464,107.594565 C182.887152,107.594565 183.34064,108.048064 183.34064,108.607766 L183.34064,109.602657 C183.34064,110.162359 182.887152,110.615859 182.327464,110.615859 L173.660542,110.615859 C173.100854,110.615859 172.647366,110.162359 172.647366,109.602657 L172.647366,108.607766 C172.647366,108.048064 173.100854,107.594565 173.660542,107.594565" id="Fill-160" fill="#F4CD7F"></path>
                    <path d="M134.543547,121.30953 L158.725481,121.30953 C164.560395,121.30953 169.290582,126.039839 169.290582,131.874904 L169.290582,147.671083 C169.290582,149.646216 167.689643,151.247807 165.71395,151.247807 L132.987163,151.247807 C127.745506,151.247807 123.496272,146.998464 123.496272,141.756671 L123.496272,141.750568 L123.496272,132.35709 C123.496272,126.258959 128.43947,121.315634 134.537443,121.315634 L134.543547,121.30953 Z" id="Fill-161" fill="#F4CD7F"></path>
                    <polygon id="Fill-162" fill="#F4CD7F" points="172.677701 153.011754 160.391422 149.789041 162.009451 139.406776 169.314691 143.618277"></polygon>
                    <path d="M137.99225,131.996854 L155.502485,131.996854 C156.059121,131.996854 156.510167,132.447912 156.510167,133.003952 L156.510167,133.925599 C156.510167,134.481639 156.059121,134.932697 155.502485,134.932697 L137.99225,134.932697 C137.435613,134.932697 136.985178,134.481639 136.985178,133.925599 L136.985178,133.003952 C136.985178,132.447912 137.435613,131.996854 137.99225,131.996854" id="Fill-163" fill="#F9BE39"></path>
                    <path d="M137.375311,136.318281 L151.950389,136.318281 C152.165842,136.318281 152.341621,136.493455 152.341621,136.708913 L152.341621,137.069027 C152.341621,137.284485 152.165842,137.459659 151.950389,137.459659 L137.375311,137.459659 C137.159248,137.459659 136.984689,137.284485 136.984689,137.069027 L136.984689,136.708913 C136.984689,136.493455 137.159248,136.318281 137.375311,136.318281" id="Fill-164" fill="#E5AC3C"></path>
                    <path d="M137.644108,139.168612 L143.143331,139.168612 C143.507098,139.168612 143.802506,139.464028 143.802506,139.827804 L143.802506,140.432063 C143.802506,140.796449 143.507098,141.091254 143.143331,141.091254 L137.644108,141.091254 C137.279731,141.091254 136.984933,140.796449 136.984933,140.432063 L136.984933,139.827804 C136.984933,139.464028 137.279731,139.168612 137.644108,139.168612" id="Fill-165" fill="#E5AC3C"></path>
                    <path d="M137.644108,138.650049 L143.143331,138.650049 C143.507098,138.650049 143.802506,138.944854 143.802506,139.30924 L143.802506,139.913499 C143.802506,140.277275 143.507098,140.57269 143.143331,140.57269 L137.644108,140.57269 C137.279731,140.57269 136.984933,140.277275 136.984933,139.913499 L136.984933,139.30924 C136.984933,138.944854 137.279731,138.650049 137.644108,138.650049" id="Fill-166" fill="#F9BE39"></path>
                    <path d="M108.786796,404.389271 C103.293676,403.705665 97.8432803,402.790121 92.4478159,401.630433 C86.0245277,400.272987 79.6799742,398.567634 73.4416211,396.521699 L72.2209278,396.112757 C71.2138558,395.777668 70.2250942,395.429151 69.2302292,395.069037 C62.8814032,392.805203 56.6894364,390.124491 50.6940012,387.042771 C46.8494277,385.062755 43.1073923,382.888645 39.4819332,380.530204 C21.5133277,368.811246 8.03077006,353.063895 2.91606509,333.496287 C2.86113389,333.30036 2.81230616,333.105044 2.75737496,332.885924 C0.375191967,323.152475 0.00104946732,313.036939 1.65875098,303.155171 C2.75798531,296.35024 4.55179413,289.677148 7.01149115,283.239045 L7.01149115,283.201813 C7.06642235,283.067534 7.12135354,282.951565 7.16407781,282.830103 C7.20680208,282.70803 7.20680208,282.713523 7.22572282,282.659201 L7.30445754,282.444964 C7.35938874,282.316788 7.40211301,282.201429 7.45094074,282.090954 C15.7821726,273.949329 20.7870151,265.569053 22.1908125,253.910521 C23.637334,241.959625 21.3241202,226.554077 14.9832288,204.440647 C14.7873075,203.763145 14.5981001,203.085643 14.3728822,202.402037 C14.1464435,201.718431 13.9755465,200.985996 13.7625355,200.253561 C13.3102686,198.715448 12.8403017,197.140713 12.3520244,195.529966 C12.0102303,194.437417 11.6745396,193.338155 11.326642,192.221802 C11.1008137,191.500964 10.8810889,190.768529 10.6430537,190.036704 C10.1669834,188.555355 9.67687499,187.037384 9.1721183,185.483401 C8.95849698,184.873038 8.76318605,184.262676 8.56177165,183.652314 C7.98865614,181.784605 7.45094074,179.922389 6.96266341,178.072991 C6.84669755,177.664658 6.74904208,177.255715 6.63979003,176.852266 C6.36452369,175.784132 6.10878844,174.697687 5.8701429,173.611241 C5.78469437,173.257231 5.69985618,172.891014 5.62600424,172.537614 C5.44900371,171.743532 5.29031358,170.950672 5.12551998,170.15659 C4.88138132,168.89314 4.64944959,167.642507 4.43582826,166.385161 C4.30216234,165.622208 4.17398955,164.852541 4.0635168,164.089588 C3.91703361,163.08249 3.77665387,162.075392 3.64237761,161.074397 C0.644965188,137.104855 3.89567147,112.767874 13.0783369,90.4249478 C22.5881481,67.3349376 36.4912346,52.2772968 45.5731928,51.8073177 C52.9339735,51.4227894 57.847264,52.1002917 58.9397846,60.4628672 C58.9397846,60.6398723 58.9886123,60.8223706 59.0069227,60.9993757 C59.0252331,61.1763808 59.0069227,61.3655932 59.0563608,61.5487019 C59.1051885,62.0675099 59.1350955,62.6168361 59.1534059,63.1966804 L59.1534059,63.349271 L59.1534059,64.1250417 L59.1534059,65.5105643 C59.1534059,65.9927506 59.1534059,66.5048447 59.0984747,67.0297564 C59.0984747,67.2983159 59.0984747,67.5668753 59.0563608,67.8415384 C59.0130261,68.1168119 59.0191296,68.4519008 58.9947158,68.7326675 C58.9703019,69.0134342 58.945888,69.294201 58.9214742,69.5871749 C58.8970603,69.8801489 58.866543,70.1975373 58.8421291,70.478304 C58.8177152,70.7596811 58.7810944,71.0886665 58.7444736,71.3938477 C58.7078528,71.6990289 58.6773355,72.0042101 58.6346112,72.3338058 C58.591887,72.6634015 58.5491627,73.0241257 58.500335,73.3775255 C58.4515072,73.7315357 58.4331968,73.9451626 58.396576,74.2326433 C58.3599552,74.5189032 58.3178413,74.8430057 58.2684032,75.1115651 C58.2195755,75.5321048 58.1524374,75.9477617 58.0852992,76.3866122 C58.0181611,76.8266835 57.9571264,77.2228087 57.8899883,77.6500624 C57.8899883,77.7843422 57.8533675,77.9247255 57.8289536,78.0596156 C57.7129878,78.7548184 57.5970219,79.4573455 57.4627456,80.1836768 C57.1514689,82.0147641 56.7852609,83.9490026 56.3763286,86.0120275 C56.3397078,86.182929 56.3152939,86.3538305 56.2786731,86.5186283 C56.2176385,86.8177059 56.1505003,87.1289908 56.0894657,87.4097575 C55.8575339,88.5395383 55.6201091,89.7047202 55.3509462,90.9071341 C55.266108,91.3349982 55.1678422,91.7738487 55.0762902,92.2194133 L54.8870828,93.0434026 C54.2767361,95.8327588 53.5809409,98.8119378 52.8247214,101.979719 C52.7020417,102.488151 52.5860759,102.994751 52.4762135,103.498911 C52.2564887,104.506009 52.0617881,105.50151 51.8658668,106.489687 C51.7810286,106.977977 51.7010732,107.466266 51.6217282,107.948453 C51.5423831,108.430639 51.4813484,108.918929 51.4203138,109.401115 C51.383693,109.639157 51.3476825,109.877198 51.3232686,110.121343 C51.2988548,110.365488 51.2677271,110.597426 51.2372098,110.829974 C51.188382,111.305446 51.1334508,111.763218 51.09683,112.239911 C51.0602092,112.715383 51.0180953,113.173155 50.9808642,113.637641 C50.9442434,114.100906 50.925933,114.454916 50.913726,114.858366 C50.9015191,115.260595 50.8771052,115.681745 50.8587948,116.079091 L50.8587948,116.170645 L50.8587948,116.994634 L50.8587948,117.958396 L50.8587948,119.283493 C50.8587948,119.893856 50.8954156,120.47309 50.925933,121.065751 L50.925933,121.676114 C50.9747607,122.439067 51.0357954,123.207513 51.1151404,123.952766 C51.1950958,124.696797 51.2860375,125.44144 51.383693,126.179978 C51.4325207,126.57122 51.5002692,126.949035 51.5606935,127.334173 C51.6217282,127.718091 51.6827628,128.18807 51.7621079,128.615935 C51.7987287,128.823458 51.8353495,129.024877 51.8780738,129.226297 C51.8780738,129.286723 51.8780738,129.359966 51.9269015,129.421003 C52.0617881,130.135127 52.2076609,130.837043 52.3724545,131.532857 C52.47011,131.939968 52.5683758,132.34708 52.6654209,132.753581 C52.744766,133.077073 52.8247214,133.363944 52.9156631,133.699643 L52.9950081,133.992617 C53.1598017,134.602979 53.3368023,135.213342 53.5260097,135.823704 C53.6541825,136.202129 53.7762519,136.586657 53.8983212,136.959589 L54.30115,138.082045 C54.3621846,138.25905 54.4232193,138.436666 54.4903574,138.606957 C54.5574956,138.778469 54.5941164,138.931059 54.6490476,139.089143 C54.7100822,139.248448 54.7772204,139.413246 54.838255,139.559122 C54.9542209,139.883225 55.0762902,140.200003 55.2105665,140.529599 C55.2838081,140.737732 55.3631532,140.932438 55.4431086,141.139961 C55.5218433,141.348095 55.5401537,141.372509 55.5956952,141.488478 C55.7293611,141.805866 55.8520408,142.128748 55.9857067,142.440643 C56.119983,142.751318 56.3152939,143.179182 56.4868013,143.545399 C56.8585025,144.362675 57.2308139,145.18056 57.6336427,145.986849 C57.767919,146.273109 57.8960918,146.56059 58.042575,146.834642 L58.6285078,147.853948 C58.762784,148.122507 58.9037741,148.384963 59.0496469,148.653522 L59.4952,149.465304 C59.5440277,149.544651 59.5928555,149.624609 59.6355797,149.703346 L59.8736149,150.14891 L59.9407531,150.264879 C60.0017877,150.375355 60.0689259,150.478506 60.136064,150.594475 C60.2032021,150.710444 60.3014679,150.899656 60.3924096,151.05835 C60.5510997,151.339117 60.7219968,151.620494 60.8806869,151.894547 C61.130929,152.322411 61.3872746,152.749054 61.6558272,153.176308 C61.7016032,153.24711 61.741886,153.320353 61.7778965,153.396038 C61.9426901,153.664598 62.1013802,153.914846 62.2539669,154.171199 C62.8398997,155.103222 63.4362084,156.029142 64.0422826,156.948958 L64.7020673,157.955446 C64.9272852,158.303352 65.1598273,158.639051 65.3911487,158.974751 C66.0686335,159.981849 66.7644287,160.970636 67.4602239,161.947826 C67.6860521,162.277422 67.9179838,162.606407 68.1621225,162.929899 C69.895507,165.371349 71.6410984,167.715141 73.3500691,170.028414 C73.6674493,170.467875 73.9604157,170.901232 74.3022099,171.340693 C78.110773,176.547085 81.6263697,181.576471 84.1715153,186.667504 C85.9921793,190.151453 87.2470521,193.90335 87.8885264,197.781593 C91.8985039,224.967746 57.0538134,237.204902 61.1925741,271.147156 C62.9924863,285.869097 74.0519677,306.426103 85.2945531,331.524206 C86.8692475,335.027686 88.4317349,338.622721 89.9820154,342.30931 C91.3613989,345.562541 92.7163684,348.859109 94.0408207,352.233803 C94.2178212,352.715989 94.4070287,353.198175 94.5901327,353.674258 C97.8493838,362.127777 100.876703,370.965825 103.427952,380.17009 C105.675249,388.134099 107.464785,396.22018 108.786796,404.389271" id="Fill-170" fill="#31BD70"></path>
                    <path d="M39.5428458,138.368977 C38.5662911,110.719559 46.7455467,84.8462964 58.9585832,60.444007 C59.8918033,67.4814856 58.1279014,79.9756043 52.8551167,101.948651 C45.2013696,133.901124 61.4487976,153.713488 74.3942501,171.395687 C71.1038713,169.265522 67.576678,167.495471 64.2862992,165.365306 C53.6052327,158.443796 39.8236052,151.619945 39.5428458,138.368977" id="Fill-171" fill="#2FA863"></path>
                    <path d="M42.8633757,220.365308 L42.8633757,220.365308 C42.8084445,220.816976 42.7352029,221.26254 42.6680648,221.708105 C42.293312,224.118426 41.7781794,226.505554 41.1232774,228.855449 C40.8150524,229.998658 40.4683755,231.133932 40.0862984,232.261271 C28.3920565,266.771162 13.6460814,309.910967 7.77454653,344.329914 C7.46326974,343.542547 5.94350657,341.748081 5.54678124,340.875263 C5.52480876,340.838031 5.50649836,340.799578 5.49185004,340.759294 C5.47659138,340.698258 5.45644994,340.639053 5.43081538,340.581679 C4.496985,337.695275 3.70353435,336.370789 2.90398023,333.495982 C2.84843868,333.300666 2.8002213,333.104739 2.7452901,332.885619 C0.362496756,323.15278 -0.0110353965,313.037244 1.64666612,303.154866 C2.7452901,296.351156 4.53970926,289.676843 6.99940628,283.23874 L6.99940628,283.202118 C7.07264788,283.012906 7.14527913,282.835901 7.21302761,282.658896 L7.26795881,282.53072 C7.27345193,282.499591 7.28626921,282.470294 7.30457961,282.444659 C7.34730388,282.317093 7.39002814,282.201124 7.43885587,282.090649 C7.84595709,281.06585 8.25244797,280.038 8.65954918,279.008929 C14.7996365,271.947036 18.9560973,264.91566 20.8115511,255.992162 C23.3505932,243.888675 21.6599329,228.300019 14.9522232,204.440952 C14.7569123,203.76345 14.5677048,203.085948 14.3418765,202.402342 C14.1160483,201.718736 13.9451512,200.986301 13.7315299,200.253866 C13.2798734,198.715753 12.8099064,197.141018 12.3216291,195.529661 C11.9792246,194.437112 11.6441443,193.33846 11.2962467,192.221497 C11.0704185,191.501269 10.8506937,190.768834 10.6126585,190.036399 C10.1365881,188.55505 9.64586938,187.037078 9.14172304,185.483096 C8.92810171,184.872733 8.73279078,184.262371 8.53137639,183.652008 C7.95765053,181.784299 7.42054547,179.922694 6.93226815,178.073296 C6.81569194,177.664353 6.71864682,177.25541 6.60878442,176.852571 C6.33412843,175.784437 6.07717249,174.697992 5.83974764,173.611547 C5.75429911,173.257536 5.66885057,172.891319 5.59499863,172.537309 C5.41860845,171.743838 5.25991832,170.950367 5.09512472,170.156895 C4.85098606,168.893445 4.61905433,167.642202 4.405433,166.384856 C4.27115673,165.621903 4.14298394,164.852846 4.03312154,164.089893 C3.88663834,163.082795 3.74625861,162.075697 3.611372,161.074703 C4.67947865,162.026868 5.78481644,162.954619 6.87733695,163.888473 C13.1089763,169.174212 19.6946167,174.166976 26.1154635,179.184156 C40.1412296,189.523695 44.8714162,204.721719 42.8633757,220.365308" id="Fill-172" fill="#2FA863"></path>
                    <path d="M40.5990507,273.088291 C36.6012801,281.932443 32.5302679,290.929185 28.9164054,300.5546 C28.7217048,301.04289 28.5386008,301.53118 28.3548864,302.01947 C25.2994911,310.219078 22.8092767,318.619496 20.9025538,327.160298 C19.2942903,334.468167 18.2353389,341.886512 17.735465,349.353075 C17.3387397,348.62064 16.9603247,347.863791 16.5812995,347.106941 C17.1379356,340.294686 18.1566042,333.528819 19.6330327,326.855116 C24.1685187,306.224867 32.273312,288.335144 39.4210816,272.532861 C52.2383614,244.297496 63.2246012,219.90131 50.3584937,190.402495 C39.2074603,164.858828 33.4518913,134.584852 33.4579948,107.429828 L33.4579948,105.684191 C33.6410988,85.5422316 37.0468331,67.2313591 43.8338879,53.9681838 C44.0023436,53.6446917 44.4009,53.5189571 44.7249941,53.6874171 C45.0484778,53.8558771 45.1742092,54.2550541 45.0057535,54.5785462 C37.5045931,69.2577623 33.9401687,91.0599078 34.9716545,115.962694 C35.6576842,132.109832 38.1472882,148.129404 42.3928595,163.723553 C42.5277461,164.230154 42.6620224,164.742859 42.8085056,165.24946 C45.1571195,173.65476 48.0770179,181.88916 51.5480593,189.895894 C64.6705124,219.919621 53.5200894,244.559952 40.5990507,273.088291" id="Fill-173" fill="#349B5E"></path>
                    <path d="M52.7630154,224.759734 C45.9393398,223.996781 35.9662754,220.072151 24.0767226,207.059224 C19.1780803,201.661789 14.8006741,195.812686 11.0030972,189.590652 C10.7919173,189.294015 10.8614968,188.882631 11.1581253,188.671446 C11.4547538,188.46026 11.8661274,188.529842 12.0773073,188.826478 C12.1011109,188.859437 12.1212523,188.894838 12.138342,188.93146 C12.3397564,189.273263 32.3591267,223.227724 55.0701257,223.618356 C55.4326716,223.583566 55.7543243,223.849073 55.7897244,224.211629 C55.8251245,224.573573 55.5596237,224.895845 55.1970778,224.930636 C55.1549639,224.934908 55.11285,224.934908 55.0701257,224.930636 C54.3132959,224.900117 53.5631798,224.851288 52.7630154,224.759734" id="Fill-174" fill="#349B5E"></path>
                    <path d="M42.1123442,165.60347 C41.9707437,165.588821 41.8370778,165.525954 41.7339292,165.426465 C41.478194,165.172554 41.476363,164.759338 41.7302672,164.502986 C41.7314879,164.501766 41.7327086,164.499934 41.7339292,164.498714 C48.8328712,157.052292 50.1384027,132.759868 50.1506096,132.540138 C50.1768545,132.183076 50.4832485,131.912075 50.8409117,131.929775 C51.1991852,131.952969 51.4720101,132.261202 51.4512583,132.619485 C51.4024306,133.63879 50.1084957,157.644344 42.6738631,165.414257 C42.5261592,165.560134 42.3186413,165.629715 42.1123442,165.60347" id="Fill-175" fill="#349B5E"></path>
                    <path d="M33.7200777,107.57015 C33.5925152,107.556722 33.4716666,107.506062 33.3727904,107.423663 C32.8112715,106.953684 19.6027595,95.7718446 18.6695395,81.5015714 C18.645736,81.1408472 18.9185609,80.8295623 19.2798862,80.8057582 C19.640601,80.7819541 19.9512675,81.0553964 19.975071,81.4161206 C20.878384,95.1248605 34.0807925,106.300596 34.2150688,106.44098 C34.4939972,106.669255 34.5348904,107.080639 34.3066208,107.360185 C34.1650204,107.533528 33.9428542,107.622641 33.7200777,107.594565 L33.7200777,107.57015 Z" id="Fill-176" fill="#349B5E"></path>
                    <path d="M27.8854688,302.07428 C27.5247539,302.02362 27.2739015,301.690362 27.3245602,301.329638 C27.3624017,301.061689 27.5607644,300.843179 27.8244342,300.780312 C46.8733533,296.849578 63.5052996,285.631727 63.6700932,285.521252 C63.9703838,285.31617 64.3799264,285.392465 64.5856132,285.692153 C64.7858069,285.994282 64.7070722,286.402004 64.4086126,286.607697 C64.2438191,286.717562 47.3921479,298.08251 28.0929867,302.068177 C28.0246279,302.082215 27.954438,302.084656 27.8854688,302.07428" id="Fill-177" fill="#349B5E"></path>
                    <path d="M103.525486,380.237596 C103.372899,380.591607 103.23313,380.95172 103.073829,381.305731 C100.241821,387.598567 96.7628447,394.873477 92.4483042,401.630799 C86.0244056,400.272743 79.6798522,398.56739 73.441499,396.522066 L72.2208057,396.113123 C71.2143441,395.777424 70.2249721,395.429517 69.2307174,395.069403 C62.8812812,392.805569 56.6893144,390.124247 50.6938792,387.042527 C65.146888,372.559237 76.7495779,347.406202 85.4049038,331.585608 C86.5218382,329.534791 87.583231,327.648771 88.6092237,325.957456 C93.2972964,318.208295 99.0498136,311.154947 105.69893,305.003715 C105.533526,305.278378 105.369343,305.541444 105.222249,305.810003 C99.3147041,316.283822 100.882685,328.887806 103.001198,341.656588 C103.098243,342.211408 103.195898,342.766837 103.275243,343.341188 C105.442584,356.225939 107.877257,369.183933 103.525486,380.237596" id="Fill-178" fill="#2FA863"></path>
                    <path d="M135.129419,405.884781 C131.556449,405.929337 127.963949,405.870743 124.350697,405.707776 C123.648798,405.677258 122.946899,405.64674 122.245001,405.597911 C117.769329,405.358038 113.293657,404.950927 108.817374,404.377186 C103.324254,403.69358 97.8738587,402.778036 92.4783943,401.618348 C86.0551061,400.260902 79.7105526,398.555549 73.4715891,396.510225 L72.2508958,396.100671 C71.2444342,395.764972 70.2556726,395.417676 69.2608075,395.056952 C72.3015546,389.98423 75.0072213,384.717412 77.3601076,379.291291 C82.3039155,368.024 86.0270301,355.158171 90.1285597,342.364364 C94.2606065,329.504028 98.7588614,316.729143 105.246846,305.803656 C105.393329,305.535096 105.558123,305.27264 105.722917,304.997977 C116.593191,295.042966 129.758368,288.299072 142.343716,291.264823 C162.881881,296.068375 150.119532,334.93015 131.918995,365.820592 C120.273581,385.578023 125.638528,397.235946 135.129419,405.884781" id="Fill-179" fill="#31BD70"></path>
                    <path d="M140.262556,293.022545 C134.568022,308.501335 123.362057,320.916107 111.503022,334.076131 C111.197848,334.41183 110.892675,334.741426 110.593605,335.082619 L109.250232,336.578007 C107.236698,338.799726 105.246968,341.04647 103.250524,343.340822 C100.321471,346.703919 97.4406347,350.15857 94.7056713,353.716983 C87.4303392,363.153186 81.0101027,373.535451 76.7681934,385.913601 C75.5230863,389.543426 74.4201899,393.071321 73.4601146,396.497285 L72.2394213,396.088342 C73.1952241,392.66665 74.2981205,389.134483 75.5475001,385.492451 C79.9358926,372.67484 86.6313954,361.969693 94.17528,352.276528 C97.0255989,348.614353 99.9857802,345.087069 103.0131,341.632418 C104.800805,339.575496 106.626352,337.555197 108.438471,335.528794 L108.487299,335.473861 C109.177601,334.69809 109.873396,333.935137 110.569191,333.160587 C122.330571,320.104325 133.457191,307.781718 139.060173,292.547072 C139.130973,292.19001 139.47704,291.957462 139.834093,292.027654 C140.191756,292.097846 140.424298,292.444531 140.353498,292.802204 C140.34007,292.870564 140.315656,292.937094 140.280866,292.99874 L140.262556,293.022545 Z" id="Fill-181" fill="#349B5E"></path>
                    <path d="M108.848197,336.608647 C108.486872,336.559207 108.234798,336.22717 108.284236,335.865836 C108.324519,335.573472 108.55523,335.342755 108.848197,335.302471 C109.067311,335.302471 130.900021,332.635187 143.027609,329.198847 C143.376117,329.101189 143.738053,329.30444 143.835708,329.653567 C143.933364,330.002694 143.730118,330.364639 143.381,330.462297 C131.174067,333.923663 109.244312,336.565921 109.024587,336.602543 L108.848197,336.608647 Z" id="Fill-182" fill="#349B5E"></path>
                    <path d="M124.350636,405.707715 C123.649347,405.677197 122.946838,405.646679 122.24494,405.59785 L123.557185,404.663995 C123.857475,404.460744 124.265187,404.527274 124.484912,404.816586 C124.682054,405.102846 124.62285,405.492257 124.350636,405.707715" id="Fill-183" fill="#4B4A4C"></path>
                </g>
            </g>
        </g>
    </g>
</svg>