<?xml version="1.0" encoding="UTF-8"?>
<svg width="678px" height="240px" viewBox="0 0 678 240" version="1.1" xmlns="http://www.w3.org/2000/svg" xmlns:xlink="http://www.w3.org/1999/xlink">
    <!-- Generator: Sketch 53 (72520) - https://sketchapp.com -->
    <title>Group 6</title>
    <desc>Created with Sketch.</desc>
    <g id="Page-1" stroke="none" stroke-width="1" fill="none" fill-rule="evenodd">
        <g id="404-not-found" transform="translate(-662.000000, -270.000000)" fill="#EFE7D0">
            <g id="Group-5" transform="translate(662.000000, 270.000000)">
                <g id="Group-6" transform="translate(-0.000139, 0.000000)">
                    <path d="M92.327852,3.4784 L-2.11741735e-12,148.521183 L-2.11741735e-12,187.4784 L111.141829,187.4784 L111.141829,235.477704 L160.615622,235.477704 L160.615622,187.4784 L190.578623,187.4784 L190.578623,144.000139 L160.615622,144.000139 L160.615622,3.4784 L92.327852,3.4784 Z M111.141829,47.304487 L111.141829,144.000139 L48.4285714,144.000139 L111.141829,47.304487 Z" id="Fill-1"></path>
                    <path d="M579.352742,3.4784 L487.02489,148.521183 L487.02489,187.4784 L598.166719,187.4784 L598.166719,235.477704 L647.640512,235.477704 L647.640512,187.4784 L677.602816,187.4784 L677.602816,144.000139 L647.640512,144.000139 L647.640512,3.4784 L579.352742,3.4784 Z M598.166719,47.304487 L598.166719,144.000139 L535.453461,144.000139 L598.166719,47.304487 Z" id="Fill-2"></path>
                    <path d="M463.672703,119.826087 C463.672703,186.004174 409.935802,239.652174 343.646495,239.652174 C277.357884,239.652174 223.620287,186.004174 223.620287,119.826087 C223.620287,53.648 277.357884,2.27373675e-13 343.646495,2.27373675e-13 C409.935802,2.27373675e-13 463.672703,53.648 463.672703,119.826087" id="Fill-3"></path>
                </g>
            </g>
        </g>
    </g>
</svg>