<svg xmlns="http://www.w3.org/2000/svg" xmlns:xlink="http://www.w3.org/1999/xlink" width="153.746" height="59.577" viewBox="0 0 153.746 59.577">
  <defs>
    <clipPath id="clip-path">
      <path id="Clip_44" data-name="Clip 44" d="M0,59.522H153.746V0H0Z" transform="translate(0 0.085)" fill="none"/>
    </clipPath>
  </defs>
  <g id="Group_58" data-name="Group 58" transform="translate(0 -0.085)">
    <path id="Stroke_17" data-name="Stroke 17" d="M13.388,0,10.352,10.555H9.032L6.668,2.715,4.5,10.555H3.156L0,0H1.632l2.3,7.866L6.118,0h1.2L9.7,7.891,12.063,0Z" transform="translate(43.993 48.563)" fill="none" stroke="#000" stroke-miterlimit="10" stroke-width="0.5"/>
    <path id="Fill_19" data-name="Fill 19" d="M4.827,11.142A4.439,4.439,0,0,1,1.335,9.619,5.855,5.855,0,0,1,0,5.629,5.917,5.917,0,0,1,1.387,1.553,4.489,4.489,0,0,1,4.869,0a4.218,4.218,0,0,1,3.32,1.43,6.465,6.465,0,0,1,1.288,4.28H1.822c0,1.588.336,2.676,1,3.231a3.263,3.263,0,0,0,2.114.836A2.9,2.9,0,0,0,7.771,7.7L9.3,8.013a4.317,4.317,0,0,1-1.625,2.241A4.7,4.7,0,0,1,4.827,11.142Zm.093-9.893a2.781,2.781,0,0,0-2.068.878A3.657,3.657,0,0,0,1.9,4.487H7.681a4.608,4.608,0,0,0-.293-1.577,2.7,2.7,0,0,0-.917-1.176A2.522,2.522,0,0,0,4.919,1.249Z" transform="translate(58.009 48.27)"/>
    <path id="Stroke_21" data-name="Stroke 21" d="M4.827,11.142A4.439,4.439,0,0,1,1.335,9.619,5.855,5.855,0,0,1,0,5.629,5.917,5.917,0,0,1,1.387,1.553,4.489,4.489,0,0,1,4.869,0a4.218,4.218,0,0,1,3.32,1.43,6.465,6.465,0,0,1,1.288,4.28H1.822c0,1.588.336,2.676,1,3.231a3.263,3.263,0,0,0,2.114.836A2.9,2.9,0,0,0,7.771,7.7L9.3,8.013a4.317,4.317,0,0,1-1.625,2.241A4.7,4.7,0,0,1,4.827,11.142Zm.093-9.893a2.781,2.781,0,0,0-2.068.878A3.657,3.657,0,0,0,1.9,4.487H7.681a4.608,4.608,0,0,0-.293-1.577,2.7,2.7,0,0,0-.917-1.176A2.522,2.522,0,0,0,4.919,1.249Z" transform="translate(58.009 48.27)" fill="none" stroke="#000" stroke-miterlimit="10" stroke-width="0.5"/>
    <path id="Fill_23" data-name="Fill 23" d="M4.669,14.546a3.616,3.616,0,0,1-3.294-2.04L.789,14.252H0V0H1.643V5.456A3.449,3.449,0,0,1,4.747,3.4,3.85,3.85,0,0,1,7.782,4.838,6.272,6.272,0,0,1,9.006,9a6.4,6.4,0,0,1-1.2,3.949A3.765,3.765,0,0,1,4.669,14.546ZM4.491,4.767a2.586,2.586,0,0,0-1.862.83,3.535,3.535,0,0,0-.985,2.146v2.371a3.232,3.232,0,0,0,1,2.36,2.882,2.882,0,0,0,1.862.734A2.372,2.372,0,0,0,6.52,12.119a5.114,5.114,0,0,0,.767-2.98,5.981,5.981,0,0,0-.741-3.206A2.323,2.323,0,0,0,4.491,4.767Z" transform="translate(69.645 44.866)"/>
    <path id="Stroke_25" data-name="Stroke 25" d="M4.669,14.546a3.616,3.616,0,0,1-3.294-2.04L.789,14.252H0V0H1.643V5.456A3.449,3.449,0,0,1,4.747,3.4,3.85,3.85,0,0,1,7.782,4.838,6.272,6.272,0,0,1,9.006,9a6.4,6.4,0,0,1-1.2,3.949A3.765,3.765,0,0,1,4.669,14.546ZM4.491,4.767a2.586,2.586,0,0,0-1.862.83,3.535,3.535,0,0,0-.985,2.146v2.371a3.232,3.232,0,0,0,1,2.36,2.882,2.882,0,0,0,1.862.734A2.372,2.372,0,0,0,6.52,12.119a5.114,5.114,0,0,0,.767-2.98,5.981,5.981,0,0,0-.741-3.206A2.323,2.323,0,0,0,4.491,4.767Z" transform="translate(69.645 44.866)" fill="none" stroke="#000" stroke-miterlimit="10" stroke-width="0.5"/>
    <path id="Fill_27" data-name="Fill 27" d="M0,8.113l1.567-.324q.523,1.989,3.3,1.989A3.129,3.129,0,0,0,6.6,9.319a1.454,1.454,0,0,0,.71-1.293q0-1.239-1.808-1.573L3.282,6.03A4.052,4.052,0,0,1,1.2,5.047,2.541,2.541,0,0,1,.433,3.114,2.8,2.8,0,0,1,1.487.893,4.242,4.242,0,0,1,4.324,0Q7.756,0,8.56,2.684l-1.5.324A2.569,2.569,0,0,0,4.4,1.364a3,3,0,0,0-1.643.411,1.292,1.292,0,0,0-.641,1.149q0,1.164,1.639,1.465l2.053.378Q9.032,5.352,9.031,7.9a2.793,2.793,0,0,1-1.2,2.349,5.215,5.215,0,0,1-3.195.9Q.888,11.142,0,8.113" transform="translate(82.838 48.27)"/>
    <path id="Stroke_29" data-name="Stroke 29" d="M0,8.113l1.567-.324q.523,1.989,3.3,1.989A3.129,3.129,0,0,0,6.6,9.319a1.454,1.454,0,0,0,.71-1.293q0-1.239-1.808-1.573L3.282,6.03A4.052,4.052,0,0,1,1.2,5.047,2.541,2.541,0,0,1,.433,3.114,2.8,2.8,0,0,1,1.487.893,4.242,4.242,0,0,1,4.324,0Q7.756,0,8.56,2.684l-1.5.324A2.569,2.569,0,0,0,4.4,1.364a3,3,0,0,0-1.643.411,1.292,1.292,0,0,0-.641,1.149q0,1.164,1.639,1.465l2.053.378Q9.032,5.352,9.031,7.9a2.793,2.793,0,0,1-1.2,2.349,5.215,5.215,0,0,1-3.195.9Q.888,11.142,0,8.113Z" transform="translate(82.838 48.27)" fill="none" stroke="#000" stroke-miterlimit="10" stroke-width="0.5"/>
    <path id="Fill_31" data-name="Fill 31" d="M4.827,11.142A4.439,4.439,0,0,1,1.335,9.619,5.855,5.855,0,0,1,0,5.629,5.914,5.914,0,0,1,1.387,1.553,4.49,4.49,0,0,1,4.87,0,4.221,4.221,0,0,1,8.19,1.43a6.466,6.466,0,0,1,1.287,4.28H1.822c0,1.587.336,2.675,1,3.231a3.273,3.273,0,0,0,2.116.836A2.9,2.9,0,0,0,7.771,7.7L9.3,8.013a4.308,4.308,0,0,1-1.626,2.241A4.694,4.694,0,0,1,4.827,11.142ZM4.92,1.249a2.785,2.785,0,0,0-2.069.878A3.652,3.652,0,0,0,1.9,4.487H7.681A4.629,4.629,0,0,0,7.39,2.911a2.713,2.713,0,0,0-.917-1.176A2.526,2.526,0,0,0,4.92,1.249Z" transform="translate(92.838 48.27)"/>
    <path id="Stroke_33" data-name="Stroke 33" d="M4.827,11.142A4.439,4.439,0,0,1,1.335,9.619,5.855,5.855,0,0,1,0,5.629,5.914,5.914,0,0,1,1.387,1.553,4.49,4.49,0,0,1,4.87,0,4.221,4.221,0,0,1,8.19,1.43a6.466,6.466,0,0,1,1.287,4.28H1.822c0,1.587.336,2.675,1,3.231a3.273,3.273,0,0,0,2.116.836A2.9,2.9,0,0,0,7.771,7.7L9.3,8.013a4.308,4.308,0,0,1-1.626,2.241A4.694,4.694,0,0,1,4.827,11.142ZM4.92,1.249a2.785,2.785,0,0,0-2.069.878A3.652,3.652,0,0,0,1.9,4.487H7.681A4.629,4.629,0,0,0,7.39,2.911a2.713,2.713,0,0,0-.917-1.176A2.526,2.526,0,0,0,4.92,1.249Z" transform="translate(92.838 48.27)" fill="none" stroke="#000" stroke-miterlimit="10" stroke-width="0.5"/>
    <path id="Fill_35" data-name="Fill 35" d="M1.643,10.848H0V.293H1.439v2.46A5.238,5.238,0,0,1,2.968.513,2.789,2.789,0,0,1,4.538,0c.167,0,.382.013.647.038V1.606H4.852A2.885,2.885,0,0,0,2.6,2.613,4.081,4.081,0,0,0,1.643,5.26Z" transform="translate(104.082 48.27)"/>
    <path id="Stroke_37" data-name="Stroke 37" d="M1.643,10.848H0V.293H1.439v2.46A5.238,5.238,0,0,1,2.968.513,2.789,2.789,0,0,1,4.538,0c.167,0,.382.013.647.038V1.606H4.852A2.885,2.885,0,0,0,2.6,2.613,4.081,4.081,0,0,0,1.643,5.26Z" transform="translate(104.082 48.27)" fill="none" stroke="#000" stroke-miterlimit="10" stroke-width="0.5"/>
    <path id="Fill_39" data-name="Fill 39" d="M9.108,0,5.466,10.555h-1.7L0,0H1.817L4.745,8.58,7.65,0Z" transform="translate(110.365 48.563)"/>
    <path id="Stroke_41" data-name="Stroke 41" d="M9.108,0,5.466,10.555h-1.7L0,0H1.817L4.745,8.58,7.65,0Z" transform="translate(110.365 48.563)" fill="none" stroke="#000" stroke-miterlimit="10" stroke-width="0.5"/>
    <path id="Clip_44-2" data-name="Clip 44" d="M0,59.522H153.746V0H0Z" transform="translate(0 0.085)" fill="none"/>
    <g id="Group_58-2" data-name="Group 58" clip-path="url(#clip-path)">
      <path id="Fill_43" data-name="Fill 43" d="M1.72,14.252H.077V3.7H1.72V14.25ZM1.758,1.822H0V0H1.758V1.821Z" transform="translate(120.786 44.867)"/>
      <path id="Stroke_45" data-name="Stroke 45" d="M1.72,14.252H.077V3.7H1.72V14.25ZM1.758,1.822H0V0H1.758V1.821Z" transform="translate(120.786 44.867)" fill="none" stroke="#000" stroke-miterlimit="10" stroke-width="0.5"/>
      <path id="Fill_46" data-name="Fill 46" d="M7.057,7.151l1.478.261a4.723,4.723,0,0,1-1.388,2.739,3.806,3.806,0,0,1-2.681.99A3.82,3.82,0,0,1,1.143,9.53,6.626,6.626,0,0,1,0,5.6a6.45,6.45,0,0,1,1.205-4A3.89,3.89,0,0,1,4.486,0a3.742,3.742,0,0,1,2.76,1.031A4.623,4.623,0,0,1,8.535,3.7l-1.478.282Q6.64,1.365,4.535,1.364A2.326,2.326,0,0,0,2.45,2.517a5.516,5.516,0,0,0-.73,2.991,5.779,5.779,0,0,0,.725,3.147A2.294,2.294,0,0,0,4.483,9.777q2.032,0,2.575-2.626" transform="translate(124.032 48.27)"/>
      <path id="Stroke_47" data-name="Stroke 47" d="M7.057,7.151l1.478.261a4.723,4.723,0,0,1-1.388,2.739,3.806,3.806,0,0,1-2.681.99A3.82,3.82,0,0,1,1.143,9.53,6.626,6.626,0,0,1,0,5.6a6.45,6.45,0,0,1,1.205-4A3.89,3.89,0,0,1,4.486,0a3.742,3.742,0,0,1,2.76,1.031A4.623,4.623,0,0,1,8.535,3.7l-1.478.282Q6.64,1.365,4.535,1.364A2.326,2.326,0,0,0,2.45,2.517a5.516,5.516,0,0,0-.73,2.991,5.779,5.779,0,0,0,.725,3.147A2.294,2.294,0,0,0,4.483,9.777Q6.515,9.777,7.057,7.151Z" transform="translate(124.032 48.27)" fill="none" stroke="#000" stroke-miterlimit="10" stroke-width="0.5"/>
      <path id="Fill_48" data-name="Fill 48" d="M4.828,11.142A4.44,4.44,0,0,1,1.335,9.619,5.855,5.855,0,0,1,0,5.629,5.914,5.914,0,0,1,1.388,1.553,4.486,4.486,0,0,1,4.87,0,4.218,4.218,0,0,1,8.19,1.43a6.471,6.471,0,0,1,1.288,4.28H1.823c0,1.588.336,2.676,1,3.231a3.268,3.268,0,0,0,2.115.836A2.9,2.9,0,0,0,7.771,7.7L9.3,8.013a4.307,4.307,0,0,1-1.625,2.241A4.7,4.7,0,0,1,4.828,11.142ZM4.92,1.249a2.781,2.781,0,0,0-2.068.878A3.648,3.648,0,0,0,1.9,4.487H7.682A4.606,4.606,0,0,0,7.39,2.911a2.708,2.708,0,0,0-.917-1.176A2.526,2.526,0,0,0,4.92,1.249Z" transform="translate(134.063 48.27)"/>
      <path id="Stroke_49" data-name="Stroke 49" d="M4.828,11.142A4.44,4.44,0,0,1,1.335,9.619,5.855,5.855,0,0,1,0,5.629,5.914,5.914,0,0,1,1.388,1.553,4.486,4.486,0,0,1,4.87,0,4.218,4.218,0,0,1,8.19,1.43a6.471,6.471,0,0,1,1.288,4.28H1.823c0,1.588.336,2.676,1,3.231a3.268,3.268,0,0,0,2.115.836A2.9,2.9,0,0,0,7.771,7.7L9.3,8.013a4.307,4.307,0,0,1-1.625,2.241A4.7,4.7,0,0,1,4.828,11.142ZM4.92,1.249a2.781,2.781,0,0,0-2.068.878A3.648,3.648,0,0,0,1.9,4.487H7.682A4.606,4.606,0,0,0,7.39,2.911a2.708,2.708,0,0,0-.917-1.176A2.526,2.526,0,0,0,4.92,1.249Z" transform="translate(134.063 48.27)" fill="none" stroke="#000" stroke-miterlimit="10" stroke-width="0.5"/>
      <path id="Fill_50" data-name="Fill 50" d="M0,8.113l1.567-.324q.523,1.989,3.3,1.989A3.128,3.128,0,0,0,6.6,9.319a1.454,1.454,0,0,0,.71-1.293q0-1.239-1.808-1.573L3.282,6.03A4.053,4.053,0,0,1,1.2,5.047,2.542,2.542,0,0,1,.433,3.114,2.8,2.8,0,0,1,1.487.893,4.241,4.241,0,0,1,4.325,0Q7.757,0,8.56,2.684l-1.5.324A2.569,2.569,0,0,0,4.4,1.364a3,3,0,0,0-1.643.411,1.293,1.293,0,0,0-.641,1.149q0,1.164,1.639,1.465l2.053.378Q9.032,5.352,9.032,7.9a2.793,2.793,0,0,1-1.2,2.349,5.216,5.216,0,0,1-3.195.9Q.887,11.142,0,8.113" transform="translate(144.468 48.27)"/>
      <path id="Stroke_51" data-name="Stroke 51" d="M0,8.113l1.567-.324q.523,1.989,3.3,1.989A3.128,3.128,0,0,0,6.6,9.319a1.454,1.454,0,0,0,.71-1.293q0-1.239-1.808-1.573L3.282,6.03A4.053,4.053,0,0,1,1.2,5.047,2.542,2.542,0,0,1,.433,3.114,2.8,2.8,0,0,1,1.487.893,4.241,4.241,0,0,1,4.325,0Q7.757,0,8.56,2.684l-1.5.324A2.569,2.569,0,0,0,4.4,1.364a3,3,0,0,0-1.643.411,1.293,1.293,0,0,0-.641,1.149q0,1.164,1.639,1.465l2.053.378Q9.032,5.352,9.032,7.9a2.793,2.793,0,0,1-1.2,2.349,5.216,5.216,0,0,1-3.195.9Q.887,11.142,0,8.113Z" transform="translate(144.468 48.27)" fill="none" stroke="#000" stroke-miterlimit="10" stroke-width="0.5"/>
      <path id="Fill_52" data-name="Fill 52" d="M.648,3.179V.644A.627.627,0,0,1,1.29,0H12.645A.634.634,0,0,1,13.3.64V2.815a3.552,3.552,0,0,1-.855,1.6l-5.881,8.4a12.583,12.583,0,0,1,6.477,1.392,1.159,1.159,0,0,1,.6.99V17.9c0,.373-.408.8-.836.58a13.07,13.07,0,0,0-12,.022C.413,18.715,0,18.289,0,17.916V15.345A3.059,3.059,0,0,1,.422,13.6L7.237,3.818H1.3a.631.631,0,0,1-.656-.638" transform="translate(106.783 22.825)"/>
      <path id="Fill_53" data-name="Fill 53" d="M4.073,19.341H.618A.652.652,0,0,1,0,18.757L0,1.013A.652.652,0,0,1,.669.374H3.886a.651.651,0,0,1,.629.6V3.286h.065A4.558,4.558,0,0,1,9.126,0c2.16,0,3.515,1.045,4.482,3.286A4.9,4.9,0,0,1,18.381,0a4.9,4.9,0,0,1,4,1.942c1.1,1.493.871,3.659.871,5.564l0,11.2a.652.652,0,0,1-.667.639h-3.45a.649.649,0,0,1-.62-.637V9.3a22.707,22.707,0,0,0-.1-3.323,1.8,1.8,0,0,0-2.031-1.531A2.29,2.29,0,0,0,14.318,5.9,10.731,10.731,0,0,0,14,9.3V18.7a.652.652,0,0,1-.666.639H9.878a.649.649,0,0,1-.62-.637l0-9.407c0-1.979.322-4.891-2.128-4.891C4.644,4.406,4.74,7.244,4.74,9.3l0,9.405a.652.652,0,0,1-.666.639" transform="translate(62.721 22.499)"/>
      <path id="Fill_54" data-name="Fill 54" d="M7.709,19.715a6.828,6.828,0,0,1-5.726-2.889A11.971,11.971,0,0,1,0,9.82,11.637,11.637,0,0,1,2,2.838,6.85,6.85,0,0,1,7.709,0a6.958,6.958,0,0,1,5.827,2.9,11.916,11.916,0,0,1,2.012,7.1,11.236,11.236,0,0,1-2.119,6.884A7.023,7.023,0,0,1,7.709,19.715ZM7.742,4.079c-1.1,0-1.876.675-2.292,2.007a12.9,12.9,0,0,0-.4,3.631v.076a16.591,16.591,0,0,0,.331,3.951c.394,1.534,1.176,2.312,2.324,2.312A2.389,2.389,0,0,0,10.1,14.132a12.132,12.132,0,0,0,.4-3.631A16.638,16.638,0,0,0,9.981,5.8,2.141,2.141,0,0,0,7.742,4.079Z" transform="translate(120.715 22.499)"/>
      <path id="Fill_55" data-name="Fill 55" d="M4.067,19.341H.625a.649.649,0,0,1-.62-.637L0,.953A.654.654,0,0,1,.663.374h3.2a.657.657,0,0,1,.614.5V3.584h.065C5.514,1.157,6.868,0,9.254,0a4.528,4.528,0,0,1,4.031,2.091c.9,1.419.9,3.809.9,5.526V18.782a.656.656,0,0,1-.662.559H10.064a.652.652,0,0,1-.616-.559V9.148c0-1.942.226-4.779-2.16-4.779a2.26,2.26,0,0,0-2,1.419,7.9,7.9,0,0,0-.549,3.36V18.7a.662.662,0,0,1-.673.639" transform="translate(139.557 22.499)"/>
      <path id="Fill_56" data-name="Fill 56" d="M5.17,19.758a5.155,5.155,0,0,1-3.676-1.347A5.452,5.452,0,0,1,0,14.369a6.092,6.092,0,0,1,1.03-3.526A6.071,6.071,0,0,1,3.684,8.719a19.328,19.328,0,0,1,5.528-1.1c.338-.034.657-.067.968-.1V7.073c0-.086,0-.173,0-.261A3.913,3.913,0,0,0,9.76,4.566a2.332,2.332,0,0,0-1.939-.9A2.632,2.632,0,0,0,5.044,5.744a.732.732,0,0,1-.6.635L1.1,6.016A.608.608,0,0,1,.58,5.294,5.844,5.844,0,0,1,3.5,1.122,9.879,9.879,0,0,1,8.305,0,9.99,9.99,0,0,1,11.04.384a5.91,5.91,0,0,1,2.468,1.338c1.544,1.443,1.533,3.364,1.521,5.4,0,.183,0,.368,0,.554v5.386a4.331,4.331,0,0,0,1.1,2.928c.068.091.136.183.2.277a.649.649,0,0,1-.012.918c-.731.613-1.982,1.7-2.649,2.3l-.008-.008a.683.683,0,0,1-.457.171.761.761,0,0,1-.36-.091,7.381,7.381,0,0,1-1.716-1.915c-.082-.121-.168-.25-.264-.389A6.836,6.836,0,0,1,5.17,19.758Zm5.009-9.467a7.725,7.725,0,0,0-3.507.636,2.957,2.957,0,0,0-1.632,2.844c0,1.547.8,2.507,2.1,2.507a2.791,2.791,0,0,0,2.392-1.571,6.508,6.508,0,0,0,.646-3.5v-.921Z" transform="translate(88.591 22.327)"/>
      <path id="Fill_57" data-name="Fill 57" d="M5.17,19.758a5.155,5.155,0,0,1-3.676-1.347A5.453,5.453,0,0,1,0,14.369a6.092,6.092,0,0,1,1.03-3.526A6.071,6.071,0,0,1,3.684,8.719a19.324,19.324,0,0,1,5.527-1.1c.34-.034.659-.067.968-.1V7.073c0-.086,0-.173,0-.262A3.918,3.918,0,0,0,9.76,4.566a2.332,2.332,0,0,0-1.939-.9A2.632,2.632,0,0,0,5.044,5.744a.732.732,0,0,1-.6.635L1.1,6.016A.607.607,0,0,1,.58,5.294,5.842,5.842,0,0,1,3.5,1.122,9.88,9.88,0,0,1,8.305,0,9.99,9.99,0,0,1,11.04.384a5.91,5.91,0,0,1,2.468,1.338c1.544,1.444,1.533,3.365,1.521,5.4,0,.183,0,.367,0,.551v5.386a4.331,4.331,0,0,0,1.1,2.928c.068.091.136.183.2.277a.65.65,0,0,1-.012.918c-.731.613-1.982,1.7-2.649,2.3l-.008-.008a.683.683,0,0,1-.457.171.761.761,0,0,1-.36-.091,7.375,7.375,0,0,1-1.717-1.915c-.081-.121-.168-.249-.264-.389A6.833,6.833,0,0,1,5.17,19.758Zm5.009-9.467a7.722,7.722,0,0,0-3.506.636,2.957,2.957,0,0,0-1.632,2.844c0,1.547.8,2.507,2.1,2.507a2.788,2.788,0,0,0,2.391-1.571,6.491,6.491,0,0,0,.646-3.491v-.925Z" transform="translate(43.696 22.327)"/>
    </g>
  </g>
</svg>
