<?xml version="1.0" encoding="UTF-8"?>
<svg width="16px" height="16px" viewBox="0 0 16 16" version="1.1" xmlns="http://www.w3.org/2000/svg" xmlns:xlink="http://www.w3.org/1999/xlink">
    <!-- Generator: Sketch 53 (72520) - https://sketchapp.com -->
    <title>Group 3</title>
    <desc>Created with Sketch.</desc>
    <defs>
        <polygon id="path-1" points="1.25e-05 0 16 0 16 15.9999844 1.25e-05 15.9999844"></polygon>
    </defs>
    <g id="Page-1" stroke="none" stroke-width="1" fill="none" fill-rule="evenodd">
        <g id="Careers" transform="translate(-940.000000, -431.000000)">
            <g id="1" transform="translate(205.000000, 419.000000)">
                <g id="Group-7">
                    <g id="Group-5" transform="translate(735.000000, 9.000000)">
                        <g id="Group-3" transform="translate(0.000000, 3.000000)">
                            <mask id="mask-2" fill="white">
                                <use xlink:href="#path-1"></use>
                            </mask>
                            <g id="Clip-2"></g>
                            <path d="M9.6492625,8.90689062 L7.3725125,8.90689062 C7.07798125,8.90689062 6.83916875,8.66810938 6.83916875,8.37357812 L6.83916875,4.86976562 C6.83916875,4.57523438 7.07795,4.33642187 7.3725125,4.33642187 C7.667075,4.33642187 7.905825,4.57520312 7.905825,4.86976562 L7.905825,7.84026563 L9.64929375,7.84026563 C9.943825,7.84026563 10.1826063,8.07904687 10.1826063,8.37360938 C10.1826063,8.66814062 9.94379375,8.90689062 9.6492625,8.90689062 M8.0000125,-1.5625e-05 C3.5783875,-1.5625e-05 1.25e-05,3.57804688 1.25e-05,7.99998438 C1.25e-05,12.4216094 3.57804375,15.9999844 8.0000125,15.9999844 C12.421575,15.9999844 16.0000125,12.4219531 16.0000125,7.99998438 C16.0000125,3.57842188 12.4219813,-1.5625e-05 8.0000125,-1.5625e-05" id="Fill-1" fill="#3E403D" mask="url(#mask-2)"></path>
                        </g>
                    </g>
                </g>
            </g>
        </g>
    </g>
</svg>