<?xml version="1.0" encoding="UTF-8"?>
<svg width="14px" height="14px" viewBox="0 0 14 14" version="1.1" xmlns="http://www.w3.org/2000/svg" xmlns:xlink="http://www.w3.org/1999/xlink">
    <!-- Generator: Sketch 53 (72520) - https://sketchapp.com -->
    <title>Group 3</title>
    <desc>Created with Sketch.</desc>
    <defs>
        <polygon id="path-1" points="0 0 13.9913958 0 13.9913958 13.9909 0 13.9909"></polygon>
    </defs>
    <g id="Page-1" stroke="none" stroke-width="1" fill="none" fill-rule="evenodd">
        <g id="Blogs---search" transform="translate(-1221.000000, -641.000000)">
            <g id="Group-3" transform="translate(1221.000000, 641.000000)">
                <mask id="mask-2" fill="white">
                    <use xlink:href="#path-1"></use>
                </mask>
                <g id="Clip-2"></g>
                <path d="M8.23302083,6.99556667 L13.7350208,1.49356667 C14.0768542,1.152025 14.0768542,0.597858333 13.7350208,0.256316667 C13.3931875,-0.0855166667 12.8398958,-0.0855166667 12.4977708,0.256316667 L6.99577083,5.75831667 L1.49377083,0.256316667 C1.1519375,-0.0855166667 0.5980625,-0.0855166667 0.256229167,0.256316667 C-0.0856041667,0.597858333 -0.0856041667,1.152025 0.256229167,1.49356667 L5.7588125,6.99556667 L0.256229167,12.4975667 C-0.0856041667,12.8394 -0.0856041667,13.393275 0.256229167,13.7348167 C0.427145833,13.9054417 0.651145833,13.9909 0.874854167,13.9909 C1.09885417,13.9909 1.32285417,13.9054417 1.49377083,13.734525 L6.99577083,8.232525 L12.4977708,13.734525 C12.6686875,13.9054417 12.8929792,13.9909 13.1163958,13.9909 C13.3403958,13.9909 13.5641042,13.9054417 13.7350208,13.734525 C14.0768542,13.3929833 14.0768542,12.8388167 13.7350208,12.497275 L8.23302083,6.99556667 Z" id="Fill-1" fill="#252427" mask="url(#mask-2)"></path>
            </g>
        </g>
    </g>
</svg>