<svg xmlns="http://www.w3.org/2000/svg" width="69.488" height="79.365" viewBox="0 0 69.488 79.365">
  <g id="Group_13" data-name="Group 13" transform="translate(0 0)">
    <path id="Fill_1" data-name="Fill 1" d="M0,0,5.824,71.2l29.115,8.17,28.34-8.17L69.488,0Z" transform="translate(0 0)" fill="#3f403f"/>
    <path id="Fill_2" data-name="Fill 2" d="M0,0V65.584l23.408-6.75L28.54,0" transform="translate(34.958 6.889)" fill="#3f403f"/>
    <path id="Fill_3" data-name="Fill 3" d="M10.464,0H0V13.423l9.3-1.75" transform="translate(34.957 40.849)" fill="#3f403f"/>
    <path id="Fill_4" data-name="Fill 4" d="M0,0,1.164,8.572,22.127,8.56,1.552,17.508l1.167,8.167H22.535V0" transform="translate(12.423 15.173)" fill="#3f403f"/>
    <path id="Fill_5" data-name="Fill 5" d="M9.316,6.615,8.54,0H0L1.163,13.617l18.245,5.056.018-.007V8.752" transform="translate(15.531 45.522)" fill="#3f403f"/>
    <path id="Fill_6" data-name="Fill 6" d="M19.782,16.782H1.083l20.3-8.322V0H0V25.679H10.463L9.3,37.349,0,39.1v9.915l17.451-5.439" transform="translate(34.958 15.173)" fill="#3f403f"/>
    <path id="Fill_7" data-name="Fill 7" d="M0,0,5.824,71.2l29.115,8.17,28.34-8.17L69.488,0Z" transform="translate(0 0)" fill="#0073ae"/>
    <path id="Fill_8" data-name="Fill 8" d="M0,0V65.584l23.408-6.75L28.54,0" transform="translate(34.958 6.889)" fill="#0083bd"/>
    <path id="Fill_9" data-name="Fill 9" d="M10.464,0H0V13.42l9.3-1.75" transform="translate(34.957 40.851)" fill="#0081ae"/>
    <path id="Fill_10" data-name="Fill 10" d="M0,0,1.164,8.572,22.127,8.56,1.552,17.508l1.167,8.17H22.535V0" transform="translate(12.423 15.173)" fill="#e9e9e8"/>
    <path id="Fill_11" data-name="Fill 11" d="M9.316,6.615,8.54,0H0L1.163,13.617l18.245,5.056.018-.007V8.752" transform="translate(15.531 45.522)" fill="#e9e9e8"/>
    <path id="Fill_12" data-name="Fill 12" d="M19.782,16.782H1.083l20.3-8.322V0H0V25.679H10.463L9.3,37.349,0,39.1v9.915l17.451-5.439" transform="translate(34.958 15.173)" fill="#fffffe"/>
  </g>
</svg>
