<?xml version="1.0" encoding="UTF-8"?>
<svg width="30px" height="30px" viewBox="0 0 30 30" version="1.1" xmlns="http://www.w3.org/2000/svg" xmlns:xlink="http://www.w3.org/1999/xlink">
    <!-- Generator: Sketch 53 (72520) - https://sketchapp.com -->
    <title>Fill 1</title>
    <desc>Created with Sketch.</desc>
    <g id="Page-1" stroke="none" stroke-width="1" fill="none" fill-rule="evenodd">
        <g id="Blog---details" transform="translate(-1253.000000, -873.000000)" fill="#3E403D">
            <g id="share-article-copy" transform="translate(1150.000000, 817.000000)">
                <path d="M117.969464,56 C109.702143,56 103,62.7422754 103,71.0591018 C103,78.5183234 108.396786,84.6958084 115.472857,85.8920359 L115.472857,74.2008383 L111.861786,74.2008383 L111.861786,69.9936527 L115.472857,69.9936527 L115.472857,66.8914371 C115.472857,63.291976 117.658214,61.330479 120.850536,61.330479 C122.379464,61.330479 123.693393,61.4450898 124.074643,61.4955689 L124.074643,65.2579641 L121.860714,65.2590419 C120.125,65.2590419 119.790357,66.0886228 119.790357,67.3064072 L119.790357,69.991497 L123.931964,69.991497 L123.391786,74.1986826 L119.790357,74.1986826 L119.790357,85.9924551 C127.196786,85.0858084 132.93875,78.7509581 132.93875,71.0547904 C132.93875,62.7422754 126.236607,56 117.969464,56" id="Fill-1"></path>
            </g>
        </g>
    </g>
</svg>