<?xml version="1.0" encoding="UTF-8"?>
<svg width="16px" height="14px" viewBox="0 0 16 14" version="1.1" xmlns="http://www.w3.org/2000/svg" xmlns:xlink="http://www.w3.org/1999/xlink">
    <!-- Generator: Sketch 53 (72520) - https://sketchapp.com -->
    <title>Group 6</title>
    <desc>Created with Sketch.</desc>
    <defs>
        <polygon id="path-1" points="0 0.0181663755 15.9688421 0.0181663755 15.9688421 6.26327335 0 6.26327335"></polygon>
    </defs>
    <g id="Page-1" stroke="none" stroke-width="1" fill="none" fill-rule="evenodd">
        <g id="Testimonials---rescale" transform="translate(-205.000000, -169.000000)">
            <g id="key-visual" transform="translate(100.000000, 166.000000)">
                <g id="Group-4">
                    <g id="Group-20" transform="translate(105.000000, 0.000000)">
                        <g id="Group-6" transform="translate(0.000000, 3.000000)">
                            <g id="Group-3" transform="translate(0.000000, 0.012410)">
                                <mask id="mask-2" fill="white">
                                    <use xlink:href="#path-1"></use>
                                </mask>
                                <g id="Clip-2"></g>
                                <path d="M15.7989957,5.52849607 L8.22956101,0.0967100437 C8.08356491,-0.00801484716 7.88526472,-0.00801484716 7.73936218,0.0967100437 L0.169833918,5.52849607 C-0.0150549708,5.66119039 -0.0552265107,5.91563581 0.0801653021,6.09684105 C0.215557115,6.27804629 0.475206238,6.31735633 0.660063938,6.18472314 L7.98441481,0.928793013 L15.3087657,6.18469258 C15.3826214,6.23772751 15.4684538,6.26325153 15.5535376,6.26325153 C15.6813193,6.26325153 15.8073856,6.20563144 15.8886331,6.09681048 C16.0240873,5.91563581 15.9839158,5.66119039 15.7989957,5.52849607" id="Fill-1" fill="#3E403D" mask="url(#mask-2)"></path>
                            </g>
                            <path d="M13.7932694,6.28917293 C13.5641544,6.28917293 13.378361,6.47123406 13.378361,6.69581485 L13.378361,13.1684917 L10.0591563,13.1684917 L10.0591563,9.6352952 C10.0591563,8.51410306 9.1284117,7.60193275 7.98445848,7.60193275 C6.84050526,7.60193275 5.90976062,8.51416419 5.90976062,9.6352952 L5.90976062,13.1685223 L2.59052476,13.1685223 L2.59052476,6.69584541 C2.59052476,6.47126463 2.40473138,6.28920349 2.17561637,6.28920349 C1.94650136,6.28920349 1.76070799,6.47126463 1.76070799,6.69584541 L1.76070799,13.5751948 C1.76070799,13.7998061 1.94650136,13.9818367 2.17561637,13.9818367 L6.32466901,13.9818367 C6.54286784,13.9818367 6.72142534,13.8166183 6.73795556,13.6068629 C6.73895361,13.5973869 6.73957739,13.5869633 6.73957739,13.5751948 L6.73957739,9.63532576 C6.73957739,8.96256157 7.29801793,8.41524716 7.98445848,8.41524716 C8.67089903,8.41524716 9.22933957,8.96259214 9.22933957,9.63532576 L9.22933957,13.5751948 C9.22933957,13.5869022 9.22993216,13.5971118 9.2309614,13.6064961 C9.24730448,13.8164349 9.42592437,13.9818367 9.64424795,13.9818367 L13.7933006,13.9818367 C14.0224468,13.9818367 14.208209,13.7998061 14.208209,13.5751948 L14.208209,6.69584541 C14.2081778,6.47123406 14.0224156,6.28917293 13.7932694,6.28917293" id="Fill-4" fill="#3E403D"></path>
                        </g>
                    </g>
                </g>
            </g>
        </g>
    </g>
</svg>