<svg xmlns="http://www.w3.org/2000/svg" width="69.932" height="79.794" viewBox="0 0 69.932 79.794">
  <g id="Group_7" data-name="Group 7" transform="translate(0 -0.162)">
    <path id="Fill_1" data-name="Fill 1" d="M0,0,6.364,71.817l28.559,7.977,28.638-7.988L69.932,0Z" transform="translate(0 0.162)" fill="#e44d26"/>
    <path id="Fill_2" data-name="Fill 2" d="M0,67.816l23.141-6.455L28.585,0H0Z" transform="translate(34.966 6.034)" fill="#f16529"/>
    <path id="Fill_3" data-name="Fill 3" d="M21.953,17.828H10.368l-.8-9.02H21.953V0H0L.21,2.363,2.361,26.636H21.953Z" transform="translate(13.013 14.842)" fill="#ebebeb"/>
    <path id="Fill_4" data-name="Fill 4" d="M19.2,9.663l-.038.01L9.412,7.025,8.788,0H0L1.227,13.83,19.16,18.839l.04-.011Z" transform="translate(15.766 45.882)" fill="#ebebeb"/>
    <path id="Fill_5" data-name="Fill 5" d="M0,0V8.808H10.781L9.764,20.231,0,22.883v9.163l17.948-5,.132-1.488L20.137,2.365,20.35,0H0Z" transform="translate(34.936 32.67)" fill="#fff"/>
    <path id="Fill_6" data-name="Fill 6" d="M0,0V8.808H21.147l.176-1.98.4-4.465L21.931,0Z" transform="translate(34.936 14.842)" fill="#fff"/>
  </g>
</svg>
