<svg xmlns="http://www.w3.org/2000/svg" width="1" height="425" viewBox="0 0 1 425">
  <g id="Rectangle_Copy" data-name="Rectangle Copy" fill="none" stroke-dasharray="2 2">
    <path d="M0,0H1V425H0V0Z" stroke="none"/>
    <path d="M 0 422.3665771484375 L 1 422.3665771484375 L 1 422.6352233886719 L 1 422.6352233886719 C 1 422.6352233886719 1 424.6352233886719 1 424.6352233886719 L 0 424.6352233886719 C 0 424.2257690429688 0 423.4712524414062 0 422.3665771484375 Z M 0 418.3651123046875 L 1 418.3651123046875 L 1 418.6352233886719 L 1 418.6352233886719 C 1 418.6352233886719 1 420.6352233886719 1 420.6352233886719 L 0 420.6352233886719 C 0 419.9581298828125 0 419.2015686035156 0 418.3651123046875 Z M 0 414.366943359375 L 1 414.366943359375 L 1 414.6352233886719 L 1 414.6352233886719 C 1 414.6352233886719 1 416.6352233886719 1 416.6352233886719 L 0 416.6352233886719 C 0 415.9249267578125 0 415.1689758300781 0 414.366943359375 Z M 0 410.3670043945312 L 1 410.3670043945312 L 1 410.6352233886719 L 1 410.6352233886719 C 1 410.6352233886719 1 412.6352233886719 1 412.6352233886719 L 0 412.6352233886719 C 0 411.9115295410156 0 411.1552124023438 0 410.3670043945312 Z M 0 406.3661193847656 L 1 406.3661193847656 L 1 406.6352233886719 L 1 406.6352233886719 C 1 406.6352233886719 1 408.3593139648438 1 408.3593139648438 C 1 408.3593139648438 1 408.6352233886719 1 408.6352233886719 L 0 408.6352233886719 C 0 407.9037780761719 0 407.1474609375 0 406.3661193847656 Z M 0 402.3670043945312 L 1 402.3670043945312 L 1 402.6352233886719 L 1 402.6352233886719 C 1 402.6352233886719 1 404.6352233886719 1 404.6352233886719 L 0 404.6352233886719 C 0 403.8986206054688 0 403.1443481445312 0 402.3670043945312 Z M 0 398.36572265625 L 1 398.36572265625 L 1 398.6352233886719 L 1 398.6352233886719 C 1 398.6352233886719 1 400.6352233886719 1 400.6352233886719 L 0 400.6352233886719 C 0 399.8954162597656 0 399.1399536132812 0 398.36572265625 Z M 0 394.3656921386719 L 1 394.3656921386719 L 1 394.6352233886719 L 1 394.6352233886719 C 1 394.6352233886719 1 396.6352233886719 1 396.6352233886719 L 0 396.6352233886719 C 0 395.8957824707031 0 395.1394958496094 0 394.3656921386719 Z M 0 390.3670959472656 L 1 390.3670959472656 L 1 390.6352233886719 L 1 390.6352233886719 C 1 390.6352233886719 1 392.6352233886719 1 392.6352233886719 L 0 392.6352233886719 C 0 391.8942260742188 0 391.1372985839844 0 390.3670959472656 Z M 0 386.3660583496094 L 1 386.3660583496094 L 1 386.6352233886719 L 1 386.6352233886719 C 1 386.6352233886719 1 387.3775634765625 1 387.3775634765625 C 1 387.3775634765625 1 388.6352233886719 1 388.6352233886719 L 0 388.6352233886719 C 0 387.8916320800781 0 387.1351013183594 0 386.3660583496094 Z M 0 382.3672485351562 L 1 382.3672485351562 L 1 382.6352233886719 L 1 382.6352233886719 C 1 382.6352233886719 1 384.6352233886719 1 384.6352233886719 L 0 384.6352233886719 C 0 383.890380859375 0 383.1346130371094 0 382.3672485351562 Z M 0 378.3671569824219 L 1 378.3671569824219 L 1 378.6352233886719 L 1 378.6352233886719 C 1 378.6352233886719 1 380.6352233886719 1 380.6352233886719 L 0 380.6352233886719 C 0 379.8888244628906 0 379.1337585449219 0 378.3671569824219 Z M 0 374.3670959472656 L 1 374.3670959472656 L 1 374.6352233886719 L 1 374.6352233886719 C 1 374.6352233886719 1 376.6352233886719 1 376.6352233886719 L 0 376.6352233886719 C 0 375.8879089355469 0 375.1326904296875 0 374.3670959472656 Z M 0 370.3671569824219 L 1 370.3671569824219 L 1 370.6352233886719 L 1 370.6352233886719 C 1 370.6352233886719 1 372.6352233886719 1 372.6352233886719 L 0 372.6352233886719 C 0 371.88720703125 0 371.1318664550781 0 370.3671569824219 Z M 0 366.3666381835938 L 1 366.3666381835938 L 1 366.6352233886719 L 1 366.6352233886719 C 1 366.6352233886719 1 368.6352233886719 1 368.6352233886719 L 0 368.6352233886719 C 0 367.8865356445312 0 367.1306762695312 0 366.3666381835938 Z M 0 362.3671569824219 L 1 362.3671569824219 L 1 362.6352233886719 L 1 362.6352233886719 C 1 362.6352233886719 1 364.6352233886719 1 364.6352233886719 L 0 364.6352233886719 C 0 364.3510437011719 0 364.0648803710938 0 363.7786865234375 C 0 363.3113098144531 0 362.8404235839844 0 362.3671569824219 Z M 0 358.3651123046875 L 1 358.3651123046875 L 1 358.6351928710938 L 1 358.6351928710938 C 1 358.6351928710938 1 360.6351928710938 1 360.6351928710938 L 0 360.6351928710938 C 0 359.8855590820312 0 359.1292419433594 0 358.3651123046875 Z M 0 354.3659973144531 L 1 354.3659973144531 L 1 354.6351928710938 L 1 354.6351928710938 C 1 354.6351928710938 1 356.6351928710938 1 356.6351928710938 L 0 356.6351928710938 C 0 355.885986328125 0 355.1288757324219 0 354.3659973144531 Z M 0 350.3665771484375 L 1 350.3665771484375 L 1 350.6351928710938 L 1 350.6351928710938 C 1 350.6351928710938 1 352.6351928710938 1 352.6351928710938 L 0 352.6351928710938 C 0 351.8858337402344 0 351.1288757324219 0 350.3665771484375 Z M 0 346.366455078125 L 1 346.366455078125 L 1 346.6351928710938 L 1 346.6351928710938 C 1 346.6351928710938 1 348.6351928710938 1 348.6351928710938 L 0 348.6351928710938 C 0 347.8847351074219 0 347.1292419433594 0 346.366455078125 Z M 0 342.36572265625 L 1 342.36572265625 L 1 342.6351928710938 L 1 342.6351928710938 C 1 342.6351928710938 1 344.6351928710938 1 344.6351928710938 L 0 344.6351928710938 C 0 343.8853454589844 0 343.1272583007812 0 342.36572265625 Z M 0 338.3655395507812 L 1 338.3655395507812 L 1 338.6351928710938 L 1 338.6351928710938 C 1 338.6351928710938 1 340.6351928710938 1 340.6351928710938 L 0 340.6351928710938 C 0 339.884521484375 0 339.1273803710938 0 338.3655395507812 Z M 0 334.3673095703125 L 1 334.3673095703125 L 1 334.6351928710938 L 1 334.6351928710938 C 1 334.6351928710938 1 336.6351928710938 1 336.6351928710938 L 0 336.6351928710938 C 0 335.8851318359375 0 335.1280517578125 0 334.3673095703125 Z M 0 330.3684692382812 L 1 330.3684692382812 L 1 330.6351928710938 L 1 330.6351928710938 C 1 330.6351928710938 1 332.0291748046875 1 332.0291748046875 C 1 332.0291748046875 1 332.6351928710938 1 332.6351928710938 L 0 332.6351928710938 C 0 331.8838500976562 0 331.1300659179688 0 330.3684692382812 Z M 0 326.3681030273438 L 1 326.3681030273438 L 1 326.6351928710938 L 1 326.6351928710938 C 1 326.6351928710938 1 328.6351928710938 1 328.6351928710938 L 0 328.6351928710938 C 0 327.8837280273438 0 327.12939453125 0 326.3681030273438 Z M 0 322.3653259277344 L 1 322.3653259277344 L 1 322.63916015625 L 1 322.63916015625 C 1 322.8357849121094 1 322.9374694824219 1 322.9374694824219 C 1 322.9374694824219 1 324.6351928710938 1 324.6351928710938 L 0 324.6351928710938 C 0 323.8835754394531 0 323.1264038085938 0 322.3653259277344 Z M 0 318.3679809570312 L 1 318.3679809570312 L 1 318.638671875 L 1 318.638671875 C 1 319.3983154296875 1 320.0682678222656 1 320.6394653320312 L 0 320.6394653320312 C 0 319.8876037597656 0 319.1289672851562 0 318.3679809570312 Z M 0 314.3682556152344 L 1 314.3682556152344 L 1 314.63720703125 L 1 314.63720703125 C 1 315.3415222167969 1 316.0086669921875 1 316.6356201171875 L 0 316.6356201171875 C 0 315.8844299316406 0 315.1282348632812 0 314.3682556152344 Z M 0 310.3655700683594 L 1 310.3655700683594 L 1 310.6371459960938 L 1 310.6371459960938 C 1 311.3270874023438 1 311.9947509765625 1 312.6382446289062 L 0 312.6382446289062 C 0 311.8945007324219 0 311.1364135742188 0 310.3655700683594 Z M 0 306.3653564453125 L 1 306.3653564453125 L 1 306.6365356445312 L 1 306.6365356445312 C 1 307.318359375 1 307.9851684570312 1 308.6355285644531 L 0 308.6355285644531 C 0 307.8883056640625 0 307.1312866210938 0 306.3653564453125 Z M 0 302.364990234375 L 1 302.364990234375 L 1 302.6363220214844 L 1 302.6363220214844 C 1 303.3142700195312 1 303.9813842773438 1 304.6366271972656 L 0 304.6366271972656 C 0 303.8858337402344 0 303.1282043457031 0 302.364990234375 Z M 0 298.364990234375 L 1 298.364990234375 L 1 298.6358032226562 L 1 298.6358032226562 C 1 299.3106689453125 1 299.9775390625 1 300.6355895996094 L 0 300.6355895996094 C 0 300.1971435546875 0 299.7573852539062 0 299.3163146972656 C 0 299.0000915527344 0 298.68310546875 0 298.364990234375 Z M 0 294.365478515625 L 1 294.365478515625 L 1 294.6365966796875 L 1 294.6365966796875 C 1 295.309326171875 1 295.9761962890625 1 296.636474609375 L 0 296.636474609375 C 0 295.8851928710938 0 295.1282653808594 0 294.365478515625 Z M 0 290.3659057617188 L 1 290.3659057617188 L 1 290.6354370117188 L 1 290.6354370117188 C 1 291.3067016601562 1 291.9737854003906 1 292.6360473632812 L 0 292.6360473632812 C 0 291.8851623535156 0 291.1290283203125 0 290.3659057617188 Z M 0 286.3654174804688 L 1 286.3654174804688 L 1 286.6358032226562 L 1 286.6358032226562 C 1 287.3055419921875 1 287.9724731445312 1 288.6360473632812 L 0 288.6360473632812 C 0 287.8856811523438 0 287.1286010742188 0 286.3654174804688 Z M 0 282.365966796875 L 1 282.365966796875 L 1 282.6355590820312 L 1 282.6355590820312 C 1 283.3038330078125 1 283.9705810546875 1 284.63525390625 L 0 284.63525390625 C 0 283.8851928710938 0 283.1292114257812 0 282.365966796875 Z M 0 278.3651733398438 L 1 278.3651733398438 L 1 278.6351928710938 L 1 278.6351928710938 C 1 279.3024291992188 1 279.9693603515625 1 280.6353759765625 L 0 280.6353759765625 C 0 280.3131103515625 0 279.990234375 0 279.66552734375 C 0 279.2371215820312 0 278.803466796875 0 278.3651733398438 Z M 0 274.3653564453125 L 1 274.3653564453125 L 1 274.6350708007812 L 1 274.6350708007812 C 1 275.3010559082031 1 275.9679565429688 1 276.6351013183594 L 0 276.6351013183594 C 0 275.8891296386719 0 275.1320190429688 0 274.3653564453125 Z M 0 270.3651733398438 L 1 270.3651733398438 L 1 270.6346435546875 L 1 270.6346435546875 C 1 271.299560546875 1 271.9665832519531 1 272.635009765625 L 0 272.635009765625 C 0 271.8851623535156 0 271.1274719238281 0 270.3651733398438 Z M 0 266.36669921875 L 1 266.36669921875 L 1 266.6347351074219 L 1 266.6347351074219 C 1 267.2983093261719 1 267.9652099609375 1 268.6347961425781 L 0 268.6347961425781 C 0 268.2108764648438 0 267.7853698730469 0 267.359375 C 0 267.0291748046875 0 266.6979370117188 0 266.36669921875 Z M 0 262.3664245605469 L 1 262.3664245605469 L 1 262.6343383789062 L 1 262.6343383789062 C 1 263.29638671875 1 263.9631958007812 1 264.6341552734375 L 0 264.6341552734375 C 0 263.8811340332031 0 263.1249694824219 0 262.3664245605469 Z M 0 258.3656311035156 L 1 258.3656311035156 L 1 258.634033203125 L 1 258.634033203125 C 1 259.2947387695312 1 259.9620056152344 1 260.6350708007812 L 0 260.6350708007812 C 0 259.8809814453125 0 259.1251831054688 0 258.3656311035156 Z M 0 254.3654174804688 L 1 254.3654174804688 L 1 254.6333618164062 L 1 254.6333618164062 C 1 255.2915802001953 1 255.9585723876953 1 256.6334838867188 L 0 256.6334838867188 C 0 255.8798980712891 0 255.1244659423828 0 254.3654174804688 Z M 0 250.3665313720703 L 1 250.3665313720703 L 1 250.6351623535156 L 1 250.6351623535156 C 1 251.2848358154297 1 251.9510040283203 1 252.6346893310547 L 0 252.6346893310547 C 0 251.881103515625 0 251.1255187988281 0 250.3665313720703 Z M 0 246.3668365478516 L 1 246.3668365478516 L 1 246.6347961425781 L 1 246.6347961425781 C 1 247.2828369140625 1 247.9490509033203 1 248.634521484375 L 0 248.634521484375 C 0 247.8818359375 0 247.1249084472656 0 246.3668365478516 Z M 0 242.3659973144531 L 1 242.3659973144531 L 1 242.6349945068359 L 1 242.6349945068359 C 1 243.0643157958984 1 243.5025329589844 1 243.9498901367188 C 1 244.1758422851562 1 244.4041595458984 1 244.6347961425781 L 0 244.6347961425781 C 0 243.8817901611328 0 243.1243286132812 0 242.3659973144531 Z M 0 238.3657379150391 L 1 238.3657379150391 L 1 238.6336364746094 L 1 238.6336364746094 C 1 239.2754211425781 1 239.9420013427734 1 240.6343688964844 L 0 240.6343688964844 C 0 239.8805236816406 0 239.1248779296875 0 238.3657379150391 Z M 0 234.366943359375 L 1 234.366943359375 L 1 234.6340026855469 L 1 234.6340026855469 C 1 235.2681579589844 1 235.9343109130859 1 236.6340484619141 L 0 236.6340484619141 C 0 235.8809967041016 0 235.1252593994141 0 234.366943359375 Z M 0 230.3655242919922 L 1 230.3655242919922 L 1 230.6347351074219 L 1 230.6347351074219 C 1 231.2551574707031 1 231.9205780029297 1 232.6343231201172 L 0 232.6343231201172 C 0 231.8805694580078 0 231.1240081787109 0 230.3655242919922 Z M 0 226.3671569824219 L 1 226.3671569824219 L 1 226.6343231201172 L 1 226.6343231201172 C 1 227.2212677001953 1 227.8848876953125 1 228.6347351074219 L 0 228.6347351074219 C 0 227.8803863525391 0 227.1257781982422 0 226.3671569824219 Z M 0 222.3651580810547 L 1 222.3651580810547 L 1 222.6347351074219 L 1 222.6347351074219 C 1 222.9633636474609 1 223.5671081542969 1 224.6343688964844 L 0 224.6343688964844 C 0 223.8802947998047 0 223.1230621337891 0 222.3651580810547 Z M 0 218.3665771484375 L 1 218.3665771484375 L 1 219 L 1 219 C 1 219 1 221 1 221 L 0 221 C 0 220.1240692138672 0 219.2471466064453 0 218.3665771484375 Z M 0 214.3659973144531 L 1 214.3659973144531 L 1 215 L 1 215 C 1 215 1 217 1 217 L 0 217 C 0 216.1240844726562 0 215.2460174560547 0 214.3659973144531 Z M 0 210.3657379150391 L 1 210.3657379150391 L 1 211 L 1 211 C 1 211 1 213 1 213 L 0 213 C 0 212.1240692138672 0 211.2452545166016 0 210.3657379150391 Z M 0 206.3661041259766 L 1 206.3661041259766 L 1 207 L 1 207 C 1 207 1 209 1 209 L 0 209 C 0 208.1231231689453 0 207.24609375 0 206.3661041259766 Z M 0 202.3649444580078 L 1 202.3649444580078 L 1 203 L 1 203 C 1 203 1 205 1 205 L 0 205 C 0 204.1229095458984 0 203.2446746826172 0 202.3649444580078 Z M 0 198.3656311035156 L 1 198.3656311035156 L 1 199 L 1 199 C 1 199 1 201 1 201 L 0 201 C 0 200.12255859375 0 199.2452545166016 0 198.3656311035156 Z M 0 194.3654174804688 L 1 194.3654174804688 L 1 195 L 1 195 C 1 195 1 197 1 197 L 0 197 C 0 196.1228942871094 0 195.2442626953125 0 194.3654174804688 Z M 0 190.3648376464844 L 1 190.3648376464844 L 1 190.6301116943359 L 1 191 L 1 191 C 1 191 1 193 1 193 L 0 193 C 0 192.2102966308594 0 191.4208831787109 0 190.6301116943359 C 0 190.5416259765625 0 190.4533386230469 0 190.3648376464844 Z M 0 186.3650512695312 L 1 186.3650512695312 L 1 187 L 1 187 C 1 187 1 189 1 189 L 0 189 C 0 188.125 0 187.2475280761719 0 186.3650512695312 Z M 0 182.3649444580078 L 1 182.3649444580078 L 1 183 L 1 183 C 1 183 1 185 1 185 L 0 185 C 0 184.12890625 0 183.2518463134766 0 182.3649444580078 Z M 0 178.3647918701172 L 1 178.3647918701172 L 1 178.3751068115234 L 1 179 L 1 179 C 1 179 1 181 1 181 L 0 181 C 0 180.1357269287109 0 179.2618408203125 0 178.3751068115234 C 0 178.3716430664062 0 178.3682556152344 0 178.3647918701172 Z M 0 174.3648376464844 L 1 174.3648376464844 L 1 175 L 1 175 C 1 175 1 177 1 177 L 0 177 C 0 176.1234436035156 0 175.2456207275391 0 174.3648376464844 Z M 0 170.3651123046875 L 1 170.3651123046875 L 1 171 L 1 171 C 1 171 1 173 1 173 L 0 173 C 0 172.1257476806641 0 171.2479858398438 0 170.3651123046875 Z M 0 166.3655395507812 L 1 166.3655395507812 L 1 167 L 1 167 C 1 167 1 169 1 169 L 0 169 C 0 168.1281127929688 0 167.25 0 166.3655395507812 Z M 0 162.3661499023438 L 1 162.3661499023438 L 1 163 L 1 163 C 1 163 1 165 1 165 L 0 165 C 0 164.6371459960938 0 164.272705078125 0 163.9071960449219 C 0 163.3934631347656 0 162.8804321289062 0 162.3661499023438 Z M 0 158.3661499023438 L 1 158.3661499023438 L 1 159 L 1 159 C 1 159 1 161 1 161 L 0 161 C 0 160.1227111816406 0 159.2450561523438 0 158.3661499023438 Z M 0 154.3661499023438 L 1 154.3661499023438 L 1 155 L 1 155 C 1 155 1 157 1 157 L 0 157 C 0 156.1228942871094 0 155.2449340820312 0 154.3661499023438 Z M 0 150.3661499023438 L 1 150.3661499023438 L 1 151 L 1 151 C 1 151 1 153 1 153 L 0 153 C 0 152.1230163574219 0 151.2448120117188 0 150.3661499023438 Z M 0 146.3661499023438 L 1 146.3661499023438 L 1 147 L 1 147 C 1 147 1 149 1 149 L 0 149 C 0 148.1231079101562 0 147.2447509765625 0 146.3661499023438 Z M 0 142.3661193847656 L 1 142.3661193847656 L 1 143 L 1 143 C 1 143 1 145 1 145 L 0 145 C 0 144.1224975585938 0 143.2453308105469 0 142.3661193847656 Z M 0 138.3660583496094 L 1 138.3660583496094 L 1 139 L 1 139 C 1 139 1 141 1 141 L 0 141 C 0 140.1231994628906 0 139.24462890625 0 138.3660583496094 Z M 0 134.3659973144531 L 1 134.3659973144531 L 1 135 L 1 135 C 1 135 1 137 1 137 L 0 137 C 0 136.1224975585938 0 135.2453002929688 0 134.3659973144531 Z M 0 130.3654174804688 L 1 130.3654174804688 L 1 131 L 1 131 C 1 131 1 133 1 133 L 0 133 C 0 132.397705078125 0 131.7947387695312 0 131.1915893554688 C 0 130.9169921875 0 130.6416625976562 0 130.3654174804688 Z M 0 126.3653564453125 L 1 126.3653564453125 L 1 127 L 1 127 C 1 127 1 129 1 129 L 0 129 C 0 128.1281127929688 0 127.2491455078125 0 126.3653564453125 Z M 0 122.3650512695312 L 1 122.3650512695312 L 1 123 L 1 123 C 1 123 1 125 1 125 L 0 125 C 0 124.1249084472656 0 123.2461853027344 0 122.3650512695312 Z M 0 118.3647766113281 L 1 118.3647766113281 L 1 119 L 1 119 C 1 119 1 121 1 121 L 0 121 C 0 120.1220703125 0 119.2432861328125 0 118.3647766113281 Z M 0 114.3651428222656 L 1 114.3651428222656 L 1 115 L 1 115 C 1 115 1 117 1 117 L 0 117 C 0 116.7738647460938 0 116.5480041503906 0 116.3221130371094 C 0 115.7115173339844 0 115.0557861328125 0 114.3651428222656 Z M 0 110.364990234375 L 1 110.364990234375 L 1 111 L 1 111 C 1 111 1 113 1 113 L 0 113 C 0 112.1533508300781 0 111.2693481445312 0 110.364990234375 Z M 0 106.36474609375 L 1 106.36474609375 L 1 107 L 1 107 C 1 107 1 109 1 109 L 0 109 C 0 108.1273498535156 0 107.2447814941406 0 106.36474609375 Z M 0 102.3647766113281 L 1 102.3647766113281 L 1 103 L 1 103 C 1 103 1 105 1 105 L 0 105 C 0 104.1056213378906 0 103.2209167480469 0 102.3647766113281 Z M 0 98.364013671875 L 1 98.364013671875 L 1 99 L 1 99 C 1 99 1 101 1 101 L 0 101 C 0 100.0687866210938 0 99.18270874023438 0 98.364013671875 Z M 0 94.36373901367188 L 1 94.36373901367188 L 1 95 L 1 95 C 1 95 1 97 1 97 L 0 97 C 0 95.92303466796875 0 95.02096557617188 0 94.36373901367188 Z M 0 90.36563110351562 L 1 90.36563110351562 L 1 91 L 1 91 C 1 91 1 93 1 93 L 0 93 C 0 92.63226318359375 0 91.7093505859375 0 90.36563110351562 Z M 0 86.36526489257812 L 1 86.36526489257812 L 1 87 L 1 87 C 1 87 1 89 1 89 L 0 89 C 0 88.20999145507812 0 87.32583618164062 0 86.36526489257812 Z M 0 82.36505126953125 L 1 82.36505126953125 L 1 83 L 1 83 C 1 83 1 85 1 85 L 0 85 C 0 84.16500854492188 0 83.28314208984375 0 82.36505126953125 Z M 0 78.364990234375 L 1 78.364990234375 L 1 79 L 1 79 C 1 79 1 81 1 81 L 0 81 C 0 80.14630126953125 0 79.26522827148438 0 78.364990234375 Z M 0 74.364990234375 L 1 74.364990234375 L 1 75 L 1 75 C 1 75 1 77 1 77 L 0 77 C 0 76.93008422851562 0 76.85964965820312 0 76.78952026367188 C 0 75.99447631835938 0 75.18411254882812 0 74.364990234375 Z M 0 70.36483764648438 L 1 70.36483764648438 L 1 71 L 1 71 C 1 71 1 73 1 73 L 0 73 C 0 72.12628173828125 0 71.24557495117188 0 70.36483764648438 Z M 0 66.36441040039062 L 1 66.36441040039062 L 1 67 L 1 67 C 1 67 1 69 1 69 L 0 69 C 0 68.11618041992188 0 67.2349853515625 0 66.36441040039062 Z M 0 62.36419677734375 L 1 62.36419677734375 L 1 63 L 1 63 C 1 63 1 65 1 65 L 0 65 C 0 64.10406494140625 0 63.22299194335938 0 62.36419677734375 Z M 0 58.36380004882812 L 1 58.36380004882812 L 1 59 L 1 59 C 1 59 1 61 1 61 L 0 61 C 0 60.08551025390625 0 59.20407104492188 0 58.36380004882812 Z M 0 54.36273193359375 L 1 54.36273193359375 L 1 55 L 1 55 C 1 55 1 57 1 57 L 0 57 C 0 56.44985961914062 0 55.9229736328125 0 55.42263793945312 C 0 55.06784057617188 0 54.71502685546875 0 54.36273193359375 Z M 0 50.3638916015625 L 1 50.3638916015625 L 1 51 L 1 51 C 1 51 1 53 1 53 L 0 53 C 0 52.11288452148438 0 51.2344970703125 0 50.3638916015625 Z M 0 46.36257934570312 L 1 46.36257934570312 L 1 47 L 1 47 C 1 47 1 49 1 49 L 0 49 C 0 48.1123046875 0 47.23208618164062 0 46.36257934570312 Z M 0 42.36279296875 L 1 42.36279296875 L 1 43 L 1 43 C 1 43 1 45 1 45 L 0 45 C 0 44.11077880859375 0 43.23178100585938 0 42.36279296875 Z M 0 38.36477661132812 L 1 38.36477661132812 L 1 39 L 1 39 C 1 39 1 41 1 41 L 0 41 C 0 40.11026000976562 0 39.23196411132812 0 38.36477661132812 Z M 0 34.36331176757812 L 1 34.36331176757812 L 1 35 L 1 35 C 1 35 1 36.88943481445312 1 36.88943481445312 C 1 36.88943481445312 1 37 1 37 L 0 37 C 0 36.10751342773438 0 35.23025512695312 0 34.36331176757812 Z M 0 30.36300659179688 L 1 30.36300659179688 L 1 31 L 1 31 C 1 31 1 33 1 33 L 0 33 C 0 32.10714721679688 0 31.226806640625 0 30.36300659179688 Z M 0 26.36404418945312 L 1 26.36404418945312 L 1 27 L 1 27 C 1 27 1 29 1 29 L 0 29 C 0 28.1041259765625 0 27.22625732421875 0 26.36404418945312 Z M 0 22.36248779296875 L 1 22.36248779296875 L 1 23 L 1 23 C 1 23 1 25 1 25 L 0 25 C 0 24.10067749023438 0 23.2220458984375 0 22.36248779296875 Z M 0 18.36309814453125 L 1 18.36309814453125 L 1 19 L 1 19 C 1 19 1 21 1 21 L 0 21 C 0 20.09762573242188 0 19.21743774414062 0 18.36309814453125 Z M 0 14.36236572265625 L 1 14.36236572265625 L 1 15 L 1 15 C 1 15 1 17 1 17 L 0 17 C 0 16.09078979492188 0 15.21115112304688 0 14.36236572265625 Z M 0 10.3642578125 L 1 10.3642578125 L 1 10.48959350585938 L 1 11 L 1 11 C 1 11 1 13 1 13 L 0 13 C 0 12.12725830078125 0 11.2899169921875 0 10.48959350585938 C 0 10.44754028320312 0 10.40606689453125 0 10.3642578125 Z M 0 6.364166259765625 L 1 6.364166259765625 L 1 7 L 1 7 C 1 7 1 9 1 9 L 0 9 C 0 8.053619384765625 0 7.173736572265625 0 6.364166259765625 Z M 0 2.3642578125 L 1 2.3642578125 L 1 3 L 1 3 C 1 3 1 5 1 5 L 0 5 C 0 3.97100830078125 0 3.088409423828125 0 2.3642578125 Z M 0 0 L 1 0 L 1 1 L 0 1 C 0 0.34307861328125 0 0 0 0 Z" stroke="none" fill="#9f9f9f"/>
  </g>
</svg>
