<?xml version="1.0" encoding="UTF-8"?>
<svg width="37px" height="30px" viewBox="0 0 37 30" version="1.1" xmlns="http://www.w3.org/2000/svg" xmlns:xlink="http://www.w3.org/1999/xlink">
    <!-- Generator: Sketch 53 (72520) - https://sketchapp.com -->
    <title>Fill 1</title>
    <desc>Created with Sketch.</desc>
    <g id="Page-1" stroke="none" stroke-width="1" fill="none" fill-rule="evenodd">
        <g id="Blog---details" transform="translate(-1303.000000, -873.000000)" fill="#3E403D">
            <g id="share-article-copy" transform="translate(1150.000000, 817.000000)">
                <path d="M185.629357,60.7469051 C187.201857,59.809982 188.402045,58.3376743 188.966295,56.563059 C187.50017,57.4353667 185.88142,58.0515205 184.156295,58.3953667 C182.76417,56.9161359 180.780045,55.999982 178.615545,55.999982 C174.416045,55.999982 171.03517,59.4015205 171.03517,63.5715205 C171.03517,64.1715205 171.086045,64.7484436 171.21092,65.2976743 C164.904732,64.9907513 159.32467,61.9745974 155.576107,57.379982 C154.92167,58.513059 154.537795,59.809982 154.537795,61.2061359 C154.537795,63.8276743 155.890607,66.1515205 157.907107,67.4969051 C156.68842,67.4738282 155.492857,67.1207513 154.479982,66.5645974 L154.479982,66.6476743 C154.479982,70.3261359 157.109295,73.3815205 160.557232,74.0853667 C159.939795,74.2538282 159.266857,74.3345974 158.568482,74.3345974 C158.082857,74.3345974 157.592607,74.3069051 157.13242,74.2053667 C158.115232,77.203059 160.904107,79.4069051 164.220232,79.4784436 C161.639482,81.493059 158.36267,82.7069051 154.815295,82.7069051 C154.193232,82.7069051 153.596607,82.6792128 152.999982,82.6029868 C156.360045,84.7653667 160.34217,85.999982 164.636482,85.999982 C178.594732,85.999982 186.225982,74.4615205 186.225982,64.459982 C186.225982,64.1253667 186.21442,63.8022897 186.198232,63.4815205 C187.70367,62.4153667 188.968607,61.0838282 189.999982,59.5515205 C188.624045,60.1538282 187.15792,60.553059 185.629357,60.7469051 Z" id="Fill-1"></path>
            </g>
        </g>
    </g>
</svg>