<?xml version="1.0" encoding="UTF-8"?>
<svg width="30px" height="32px" viewBox="0 0 30 32" version="1.1" xmlns="http://www.w3.org/2000/svg" xmlns:xlink="http://www.w3.org/1999/xlink">
    <!-- Generator: Sketch 53 (72520) - https://sketchapp.com -->
    <title>Group 29</title>
    <desc>Created with Sketch.</desc>
    <g id="Page-1" stroke="none" stroke-width="1" fill="none" fill-rule="evenodd">
        <g id="Menu-dropdown---services" transform="translate(-809.000000, -610.000000)">
            <g id="menu-drop-down" transform="translate(758.000000, 154.000000)">
                <g id="1-copy-5" transform="translate(30.000000, 430.000000)">
                    <g id="Group-29" transform="translate(21.000000, 27.000000)">
                        <path d="M29.4334615,29.4340385 L29.4334615,23.4455769 C29.4334615,22.7890385 29.1138462,22.1751923 28.5761538,21.7990385 L24.7973077,19.1532692 C24.5457692,18.9767308 24.2434615,18.8809615 23.9330769,18.8809615 L20.8915385,18.8809615 L20.9423077,27.4794231 C20.9596154,28.3748077 21.5457692,29.1605769 22.3984615,29.4340385 L29.4334615,29.4340385 Z" id="Fill-1" fill="#F8F8F8"></path>
                        <path d="M29.4334615,29.4340385 L29.4334615,23.4455769 C29.4334615,22.7890385 29.1138462,22.1751923 28.5761538,21.7990385 L24.7973077,19.1532692 C24.5457692,18.9767308 24.2434615,18.8809615 23.9330769,18.8809615 L20.8915385,18.8809615 L20.9423077,27.4794231 C20.9596154,28.3748077 21.5457692,29.1605769 22.3984615,29.4340385 L29.4334615,29.4340385 Z" id="Stroke-3" stroke="#4A4B4E" stroke-width="0.576923077"></path>
                        <path d="M26.4192692,29.4340385 L22.9011923,29.4340385 C21.7911923,29.4340385 20.8911923,28.5340385 20.8911923,27.4240385 L20.8911923,25.4140385 L24.4092692,25.4140385 L26.4192692,29.4340385 Z" id="Fill-5" fill="#FFFFFF"></path>
                        <path d="M26.4192692,29.4340385 L22.9011923,29.4340385 C21.7911923,29.4340385 20.8911923,28.5340385 20.8911923,27.4240385 L20.8911923,25.4140385 L24.4092692,25.4140385 L26.4192692,29.4340385 Z" id="Stroke-7" stroke="#4A4B4E" stroke-width="0.576923077"></path>
                        <path d="M13.3539231,3.80607692 C13.0066154,3.80607692 12.6650769,3.87876923 12.3489231,4.01838462 L12.3489231,0.288 L3.30392308,0.288 C1.63892308,0.288 0.288923077,1.638 0.288923077,3.303 L0.288923077,12.348 L4.01815385,12.348 C3.46084615,11.0787692 4.03776923,9.59607692 5.30815385,9.03761538 C6.57853846,8.48030769 8.06123077,9.05723077 8.61853846,10.3287692 C8.90238462,10.9714615 8.90238462,11.7053077 8.61853846,12.3491538 L12.3489231,12.3491538 L12.3489231,8.61992308 C13.6181538,9.17723077 15.102,8.60030769 15.6593077,7.32876923 C16.2166154,6.05838462 15.6385385,4.57569231 14.3681538,4.01838462 C14.0496923,3.87761538 13.7035385,3.80607692 13.3539231,3.80607692" id="Fill-9" fill="#F9BE39"></path>
                        <path d="M13.3539231,3.80607692 C13.0066154,3.80607692 12.6650769,3.87876923 12.3489231,4.01838462 L12.3489231,0.288 L3.30392308,0.288 C1.63892308,0.288 0.288923077,1.638 0.288923077,3.303 L0.288923077,12.348 L4.01815385,12.348 C3.46084615,11.0787692 4.03776923,9.59607692 5.30815385,9.03761538 C6.57853846,8.48030769 8.06123077,9.05723077 8.61853846,10.3287692 C8.90238462,10.9714615 8.90238462,11.7053077 8.61853846,12.3491538 L12.3489231,12.3491538 L12.3489231,8.61992308 C13.6181538,9.17723077 15.102,8.60030769 15.6593077,7.32876923 C16.2166154,6.05838462 15.6385385,4.57569231 14.3681538,4.01838462 C14.0496923,3.87761538 13.7035385,3.80607692 13.3539231,3.80607692 Z" id="Stroke-11" stroke="#4A4B4E" stroke-width="0.576923077"></path>
                        <path d="M24.4090385,3.30346154 C24.4090385,1.63846154 23.0590385,0.288461538 21.3940385,0.288461538 L12.3490385,0.288461538 L12.3490385,4.01769231 C13.6182692,3.46038462 15.1021154,4.03730769 15.6594231,5.30884615 C16.2167308,6.57807692 15.6386538,8.06192308 14.3682692,8.61923077 C13.7244231,8.90192308 12.9917308,8.90192308 12.3478846,8.61923077 L12.3478846,12.3484615 L16.0771154,12.3484615 C15.5198077,13.6188462 16.0978846,15.1015385 17.3671154,15.6588462 C18.6386538,16.2161538 20.1201923,15.6392308 20.6786538,14.3688462 C20.9613462,13.725 20.9613462,12.9911538 20.6786538,12.3473077 L24.4078846,12.3473077 L24.4078846,3.30346154 L24.4090385,3.30346154 Z" id="Fill-13" fill="#F4D88B"></path>
                        <path d="M24.4090385,3.30346154 C24.4090385,1.63846154 23.0590385,0.288461538 21.3940385,0.288461538 L12.3490385,0.288461538 L12.3490385,4.01769231 C13.6182692,3.46038462 15.1021154,4.03730769 15.6594231,5.30884615 C16.2167308,6.57807692 15.6386538,8.06192308 14.3682692,8.61923077 C13.7244231,8.90192308 12.9917308,8.90192308 12.3478846,8.61923077 L12.3478846,12.3484615 L16.0771154,12.3484615 C15.5198077,13.6188462 16.0978846,15.1015385 17.3671154,15.6588462 C18.6386538,16.2161538 20.1201923,15.6392308 20.6786538,14.3688462 C20.9613462,13.725 20.9613462,12.9911538 20.6786538,12.3473077 L24.4078846,12.3473077 L24.4078846,3.30346154 L24.4090385,3.30346154 Z" id="Stroke-15" stroke="#4A4B4E" stroke-width="0.576923077"></path>
                        <path d="M11.3436923,16.3688077 C11.6898462,16.3688077 12.0325385,16.4415 12.3486923,16.5811154 L12.3486923,12.3488077 L8.61946154,12.3488077 C9.17676923,11.0784231 8.59984615,9.59573077 7.32946154,9.03842308 C6.05792308,8.48111538 4.57638462,9.05803846 4.01792308,10.3284231 C3.73523077,10.9722692 3.73523077,11.7049615 4.01792308,12.3488077 L0.288692308,12.3488077 L0.288692308,21.3938077 C0.288692308,23.0599615 1.63869231,24.4099615 3.30369231,24.4099615 L12.3486923,24.4099615 L12.3486923,21.1826538 C11.0783077,21.7399615 9.59561538,21.1618846 9.03830769,19.8915 C8.481,18.6211154 9.05792308,17.1384231 10.3283077,16.5811154 C10.6479231,16.4403462 10.9940769,16.3688077 11.3436923,16.3688077" id="Fill-17" fill="#FFFFFF"></path>
                        <path d="M11.3436923,16.3688077 C11.6898462,16.3688077 12.0325385,16.4415 12.3486923,16.5811154 L12.3486923,12.3488077 L8.61946154,12.3488077 C9.17676923,11.0784231 8.59984615,9.59573077 7.32946154,9.03842308 C6.05792308,8.48111538 4.57638462,9.05803846 4.01792308,10.3284231 C3.73523077,10.9722692 3.73523077,11.7049615 4.01792308,12.3488077 L0.288692308,12.3488077 L0.288692308,21.3938077 C0.288692308,23.0599615 1.63869231,24.4099615 3.30369231,24.4099615 L12.3486923,24.4099615 L12.3486923,21.1826538 C11.0783077,21.7399615 9.59561538,21.1618846 9.03830769,19.8915 C8.481,18.6211154 9.05792308,17.1384231 10.3283077,16.5811154 C10.6479231,16.4403462 10.9940769,16.3688077 11.3436923,16.3688077 Z" id="Stroke-19" stroke="#4A4B4E" stroke-width="0.576923077"></path>
                        <path d="M25.7229231,22.8512308 L22.5429231,14.3589231 L19.0513846,15.6731538 C20.0252308,16.6654615 20.0102308,18.2589231 19.0179231,19.2304615 C18.0267692,20.2031538 16.4333077,20.1881538 15.4606154,19.1981538 C14.9656154,18.6927692 14.7048462,18.0027692 14.7440769,17.2966154 L11.2536923,18.6108462 L12.741,22.5858462 C12.3948462,22.5662308 12.0486923,22.6193077 11.7256154,22.7404615 C10.4275385,23.2435385 9.78484615,24.7031538 10.2879231,26.0000769 C10.7840769,27.2762308 12.2044615,27.9235385 13.491,27.4596923 C13.8163846,27.3373846 14.1117692,27.1481538 14.3586923,26.9058462 L15.4929231,29.937 L23.961,26.7466154 C25.521,26.1558462 26.3102308,24.4135385 25.7229231,22.8512308" id="Fill-21" fill="#F9BE39"></path>
                        <path d="M25.7229231,22.8512308 L22.5429231,14.3589231 L19.0513846,15.6731538 C20.0252308,16.6654615 20.0102308,18.2589231 19.0179231,19.2304615 C18.0267692,20.2031538 16.4333077,20.1881538 15.4606154,19.1981538 C14.9656154,18.6927692 14.7048462,18.0027692 14.7440769,17.2966154 L11.2536923,18.6108462 L12.741,22.5858462 C12.3948462,22.5662308 12.0486923,22.6193077 11.7256154,22.7404615 C10.4275385,23.2435385 9.78484615,24.7031538 10.2879231,26.0000769 C10.7840769,27.2762308 12.2044615,27.9235385 13.491,27.4596923 C13.8163846,27.3373846 14.1117692,27.1481538 14.3586923,26.9058462 L15.4929231,29.937 L23.961,26.7466154 C25.521,26.1558462 26.3102308,24.4135385 25.7229231,22.8512308 Z" id="Stroke-23" stroke="#4A4B4E" stroke-width="0.576923077"></path>
                        <path d="M23.4129231,22.9098462 C22.9317692,22.4194615 22.1436923,22.4113846 21.6544615,22.8925385 C21.1640769,23.3725385 21.156,24.1606154 21.636,24.6521538 C21.6429231,24.6579231 21.6486923,24.6636923 21.6544615,24.6683077 L23.4036923,26.4186923 C23.4036923,28.0836923 24.7536923,29.4336923 26.4175385,29.4336923 L29.4336923,29.4336923 L29.4336923,28.9317692 L23.4129231,22.9098462 Z" id="Fill-25" fill="#F8F8F8"></path>
                        <path d="M23.4129231,22.9098462 C22.9317692,22.4194615 22.1436923,22.4113846 21.6544615,22.8925385 C21.1640769,23.3725385 21.156,24.1606154 21.636,24.6521538 C21.6429231,24.6579231 21.6486923,24.6636923 21.6544615,24.6683077 L23.4036923,26.4186923 C23.4036923,28.0836923 24.7536923,29.4336923 26.4175385,29.4336923 L29.4336923,29.4336923 L29.4336923,28.9317692 L23.4129231,22.9098462 Z" id="Stroke-27" stroke="#4A4B4E" stroke-width="0.576923077"></path>
                    </g>
                </g>
            </g>
        </g>
    </g>
</svg>