<?xml version="1.0" encoding="UTF-8"?>
<svg width="25px" height="30px" viewBox="0 0 25 30" version="1.1" xmlns="http://www.w3.org/2000/svg" xmlns:xlink="http://www.w3.org/1999/xlink">
    <!-- Generator: Sketch 53 (72520) - https://sketchapp.com -->
    <title>Group 38</title>
    <desc>Created with Sketch.</desc>
    <defs>
        <polygon id="path-1" points="0 29.9708187 24.9705294 29.9708187 24.9705294 0 0 0"></polygon>
    </defs>
    <g id="Page-1" stroke="none" stroke-width="1" fill="none" fill-rule="evenodd">
        <g id="Menu-dropdown---services" transform="translate(-811.000000, -451.000000)">
            <g id="menu-drop-down" transform="translate(758.000000, 154.000000)">
                <g id="1-copy-3" transform="translate(30.000000, 270.000000)">
                    <g id="Group-38" transform="translate(23.000000, 27.000000)">
                        <path d="M7.42645882,2.88017544 L2.88281176,2.88017544 C1.62363529,2.88017544 0.602929412,3.89497076 0.602929412,5.14672515 L0.602929412,27.1048538 C0.602929412,28.3566667 1.62369412,29.3714035 2.88281176,29.3714035 L22.0876941,29.3714035 C23.3468706,29.3714035 24.3675765,28.3566082 24.3675765,27.1048538 L24.3675765,5.14672515 C24.3675765,3.89491228 23.3468118,2.88017544 22.0876941,2.88017544 L17.4264,2.88017544 L7.42645882,2.88017544 Z" id="Fill-1" fill="#FFFFFF"></path>
                        <path d="M12.4852824,10.0730994 C12.1604,10.0730994 11.8970471,9.81122807 11.8970471,9.48830409 C11.8970471,9.16532164 12.1604,8.90350877 12.4852824,8.90350877 L20.9559882,8.90350877 C21.2808706,8.90350877 21.5442235,9.16532164 21.5442235,9.48830409 C21.5442235,9.81122807 21.2808706,10.0730994 20.9559882,10.0730994 L12.4852824,10.0730994 Z" id="Fill-3" fill="#F9BE39"></path>
                        <path d="M14.1860471,1.88596491 C13.9800471,1.14426901 13.2968706,0.599415205 12.4852824,0.599415205 C11.6736941,0.599415205 10.9905176,1.14426901 10.7845176,1.88596491 L9.86763529,1.88596491 C8.19451765,1.88596491 6.83822353,3.23438596 6.83822353,4.89766082 L6.83822353,5.27777778 L18.1311059,5.27777778 L18.1311059,4.89766082 C18.1311059,3.23438596 16.7748118,1.88596491 15.1016941,1.88596491 L14.1860471,1.88596491 Z" id="Fill-5" fill="#F9BE39"></path>
                        <path d="M18.0658941,12.7088304 C17.9564824,12.6000585 17.8935412,12.4491813 17.8935412,12.2953801 C17.8935412,12.1415789 17.9564824,11.9907018 18.0658941,11.8819298 C18.1753059,11.7731579 18.3270706,11.7105848 18.4817765,11.7105848 C18.6364824,11.7105848 18.7882471,11.7731579 18.8976588,11.8819298 C19.0070706,11.9907018 19.0700118,12.1415789 19.0700118,12.2953801 C19.0700118,12.4491813 19.0070706,12.6000585 18.8976588,12.7088304 C18.7882471,12.8176023 18.6364824,12.8801754 18.4817765,12.8801754 C18.3270706,12.8801754 18.1753059,12.8176023 18.0658941,12.7088304 Z" id="Fill-7" fill="#F9BE39"></path>
                        <path d="M12.0688294,3.52754386 C11.9594176,3.41877193 11.8964765,3.26789474 11.8964765,3.11409357 C11.8964765,2.9602924 11.9594176,2.8094152 12.0688294,2.70064327 C12.1782412,2.59187135 12.3300059,2.52929825 12.4847118,2.52929825 C12.6394176,2.52929825 12.7911824,2.59187135 12.9005941,2.70064327 C13.0100059,2.8094152 13.0729471,2.9602924 13.0729471,3.11409357 C13.0729471,3.26789474 13.0100059,3.41877193 12.9005941,3.52754386 C12.7911824,3.63631579 12.6394176,3.69888889 12.4847118,3.69888889 C12.3300059,3.69888889 12.1782412,3.63631579 12.0688294,3.52754386 Z" id="Fill-9" fill="#FFFFFF"></path>
                        <path d="M12.4847118,3.69888889 C12.3300059,3.69888889 12.1782412,3.63631579 12.0688294,3.52754386 C11.9594176,3.41877193 11.8964765,3.26789474 11.8964765,3.11409357 C11.8964765,2.9602924 11.9594176,2.8094152 12.0688294,2.70064327 C12.1782412,2.59187135 12.3300059,2.52929825 12.4847118,2.52929825 C12.6394176,2.52929825 12.7911824,2.59187135 12.9005941,2.70064327 C13.0100059,2.8094152 13.0729471,2.9602924 13.0729471,3.11409357 C13.0729471,3.26789474 13.0100059,3.41877193 12.9005941,3.52754386 C12.7911824,3.63631579 12.6394176,3.69888889 12.4847118,3.69888889 Z" id="Stroke-11" stroke="#4A4B4E" stroke-width="0.5"></path>
                        <path d="M12.4852824,12.880117 C12.1604,12.880117 11.8970471,12.6182456 11.8970471,12.2953216 C11.8970471,11.9723392 12.1604,11.7105263 12.4852824,11.7105263 L16.0074588,11.7105263 C16.3323412,11.7105263 16.5956941,11.9723392 16.5956941,12.2953216 C16.5956941,12.6182456 16.3323412,12.880117 16.0074588,12.880117 L12.4852824,12.880117 Z" id="Fill-13" fill="#F8F8F8"></path>
                        <path d="M12.4852824,16.3888889 C12.1604,16.3888889 11.8970471,16.127076 11.8970471,15.8040936 C11.8970471,15.4811111 12.1604,15.2192982 12.4852824,15.2192982 L20.9559882,15.2192982 C21.2808706,15.2192982 21.5442235,15.4811111 21.5442235,15.8040936 C21.5442235,16.127076 21.2808706,16.3888889 20.9559882,16.3888889 L12.4852824,16.3888889 Z" id="Fill-15" fill="#F8F8F8"></path>
                        <path d="M18.4817765,19.1959649 C18.3270706,19.1959649 18.1753059,19.1333918 18.0658941,19.0246199 C17.9564824,18.915848 17.8935412,18.7649708 17.8935412,18.6111696 C17.8935412,18.4573684 17.9564824,18.3064912 18.0658941,18.1977193 C18.1753059,18.0889474 18.3270706,18.0263743 18.4817765,18.0263743 C18.6364824,18.0263743 18.7882471,18.0889474 18.8976588,18.1977193 C19.0070706,18.3064912 19.0700118,18.4573684 19.0700118,18.6111696 C19.0700118,18.7649708 19.0070706,18.915848 18.8976588,19.0246199 C18.7882471,19.1333918 18.6364824,19.1959649 18.4817765,19.1959649" id="Fill-17" fill="#F9BE39"></path>
                        <path d="M12.4852824,19.1959064 C12.1604,19.1959064 11.8970471,18.9340936 11.8970471,18.6111111 C11.8970471,18.2881287 12.1604,18.0263158 12.4852824,18.0263158 L16.0074588,18.0263158 C16.3323412,18.0263158 16.5956941,18.2881287 16.5956941,18.6111111 C16.5956941,18.9340936 16.3323412,19.1959064 16.0074588,19.1959064 L12.4852824,19.1959064 Z" id="Fill-19" fill="#F9BE39"></path>
                        <path d="M12.4852824,22.7046784 C12.1604,22.7046784 11.8970471,22.4428655 11.8970471,22.119883 C11.8970471,21.7969006 12.1604,21.5350877 12.4852824,21.5350877 L20.9559882,21.5350877 C21.2808706,21.5350877 21.5442235,21.7969006 21.5442235,22.119883 C21.5442235,22.4428655 21.2808706,22.7046784 20.9559882,22.7046784 L12.4852824,22.7046784 Z" id="Fill-21" fill="#F8F8F8"></path>
                        <path d="M18.0658941,25.3404094 C17.9564824,25.2316374 17.8935412,25.0807602 17.8935412,24.9269591 C17.8935412,24.7731579 17.9564824,24.6222807 18.0658941,24.5135088 C18.1753059,24.4047368 18.3270706,24.3421637 18.4817765,24.3421637 C18.6364824,24.3421637 18.7882471,24.4047368 18.8976588,24.5135088 C19.0070706,24.6222807 19.0700118,24.7731579 19.0700118,24.9269591 C19.0700118,25.0807602 19.0070706,25.2316374 18.8976588,25.3404094 C18.7882471,25.4491813 18.6364824,25.5117544 18.4817765,25.5117544 C18.3270706,25.5117544 18.1753059,25.4491813 18.0658941,25.3404094 Z" id="Fill-23" fill="#F9BE39"></path>
                        <path d="M12.4852824,25.5116959 C12.1604,25.5116959 11.8970471,25.249883 11.8970471,24.9269006 C11.8970471,24.6039181 12.1604,24.3421053 12.4852824,24.3421053 L16.0074588,24.3421053 C16.3323412,24.3421053 16.5956941,24.6039181 16.5956941,24.9269006 C16.5956941,25.249883 16.3323412,25.5116959 16.0074588,25.5116959 L12.4852824,25.5116959 Z" id="Fill-25" fill="#F8F8F8"></path>
                        <mask id="mask-2" fill="white">
                            <use xlink:href="#path-1"></use>
                        </mask>
                        <g id="Clip-28"></g>
                        <path d="M23.7794,27.1049181 C23.7794,28.0321696 23.0205176,28.7866725 22.0877529,28.7866725 L2.88281176,28.7866725 C1.95004706,28.7866725 1.19116471,28.0321696 1.19116471,27.1049181 L1.19116471,5.14673099 C1.19116471,4.21942105 1.95004706,3.46497661 2.88281176,3.46497661 L6.55028235,3.46497661 C6.35757647,3.90427485 6.24998824,4.38860234 6.24998824,4.89772515 L6.24998824,5.27784211 C6.24998824,5.60082456 6.51334118,5.86263743 6.83822353,5.86263743 L18.1311059,5.86263743 C18.4559882,5.86263743 18.7193412,5.60082456 18.7193412,5.27784211 L18.7193412,4.89772515 C18.7193412,4.38866082 18.6117529,3.90427485 18.4190471,3.46497661 L22.0877529,3.46497661 C23.0205176,3.46497661 23.7794,4.21942105 23.7794,5.14673099 L23.7794,27.1049181 Z M9.86763529,2.47076608 L10.7844588,2.47076608 C11.0490471,2.47076608 11.2810471,2.29515205 11.3514588,2.04164327 C11.4917529,1.53678947 11.9579882,1.18421637 12.4852824,1.18421637 C13.0125765,1.18421637 13.4788118,1.53678947 13.6190471,2.04164327 C13.6894588,2.29515205 13.9215176,2.47076608 14.1860471,2.47076608 L15.1016353,2.47076608 C16.3784,2.47076608 17.4293412,3.45029825 17.5342235,4.69304678 L7.43504706,4.69304678 C7.53992941,3.45029825 8.59092941,2.47076608 9.86763529,2.47076608 L9.86763529,2.47076608 Z M22.0877529,2.29538596 L17.5948706,2.29538596 C16.9454,1.68006433 16.0674588,1.30117544 15.1016353,1.30117544 L14.5863412,1.30117544 C14.1924,0.525853801 13.3830471,0.014625731 12.4852235,0.014625731 C11.5874,0.014625731 10.7781059,0.525853801 10.3841059,1.30117544 L9.86757647,1.30117544 C8.90175294,1.30117544 8.02387059,1.68006433 7.3744,2.29538596 L2.88281176,2.29538596 C1.30134118,2.29538596 0.0146941176,3.57450877 0.0146941176,5.14673099 L0.0146941176,27.1048596 C0.0146941176,28.6770819 1.30134118,29.9562047 2.88281176,29.9562047 L22.0876941,29.9562047 C23.6691647,29.9562047 24.9558118,28.6770819 24.9558118,27.1048596 L24.9558118,5.14673099 C24.9558706,3.57450877 23.6692235,2.29538596 22.0877529,2.29538596 L22.0877529,2.29538596 Z" id="Fill-30" fill="#FFFFFF" mask="url(#mask-2)"></path>
                        <path d="M23.7794,27.1049181 C23.7794,28.0321696 23.0205176,28.7866725 22.0877529,28.7866725 L2.88281176,28.7866725 C1.95004706,28.7866725 1.19116471,28.0321696 1.19116471,27.1049181 L1.19116471,5.14673099 C1.19116471,4.21942105 1.95004706,3.46497661 2.88281176,3.46497661 L6.55028235,3.46497661 C6.35757647,3.90427485 6.24998824,4.38860234 6.24998824,4.89772515 L6.24998824,5.27784211 C6.24998824,5.60082456 6.51334118,5.86263743 6.83822353,5.86263743 L18.1311059,5.86263743 C18.4559882,5.86263743 18.7193412,5.60082456 18.7193412,5.27784211 L18.7193412,4.89772515 C18.7193412,4.38866082 18.6117529,3.90427485 18.4190471,3.46497661 L22.0877529,3.46497661 C23.0205176,3.46497661 23.7794,4.21942105 23.7794,5.14673099 L23.7794,27.1049181 Z M9.86763529,2.47076608 L10.7844588,2.47076608 C11.0490471,2.47076608 11.2810471,2.29515205 11.3514588,2.04164327 C11.4917529,1.53678947 11.9579882,1.18421637 12.4852824,1.18421637 C13.0125765,1.18421637 13.4788118,1.53678947 13.6190471,2.04164327 C13.6894588,2.29515205 13.9215176,2.47076608 14.1860471,2.47076608 L15.1016353,2.47076608 C16.3784,2.47076608 17.4293412,3.45029825 17.5342235,4.69304678 L7.43504706,4.69304678 C7.53992941,3.45029825 8.59092941,2.47076608 9.86763529,2.47076608 Z M22.0877529,2.29538596 L17.5948706,2.29538596 C16.9454,1.68006433 16.0674588,1.30117544 15.1016353,1.30117544 L14.5863412,1.30117544 C14.1924,0.525853801 13.3830471,0.014625731 12.4852235,0.014625731 C11.5874,0.014625731 10.7781059,0.525853801 10.3841059,1.30117544 L9.86757647,1.30117544 C8.90175294,1.30117544 8.02387059,1.68006433 7.3744,2.29538596 L2.88281176,2.29538596 C1.30134118,2.29538596 0.0146941176,3.57450877 0.0146941176,5.14673099 L0.0146941176,27.1048596 C0.0146941176,28.6770819 1.30134118,29.9562047 2.88281176,29.9562047 L22.0876941,29.9562047 C23.6691647,29.9562047 24.9558118,28.6770819 24.9558118,27.1048596 L24.9558118,5.14673099 C24.9558706,3.57450877 23.6692235,2.29538596 22.0877529,2.29538596 Z" id="Stroke-31" stroke="#4A4B4E" stroke-width="0.5" mask="url(#mask-2)"></path>
                        <path d="M7.91275882,8.7628538 L5.39734706,11.2636725 L4.62246471,10.4932047 C4.39275882,10.2649591 4.02028824,10.2649591 3.79052353,10.4932047 C3.56081765,10.7215673 3.56081765,11.0918596 3.79052353,11.3202807 L4.98140588,12.5042573 C5.09628824,12.6184678 5.24681765,12.6754854 5.39734706,12.6754854 C5.54787647,12.6754854 5.69846471,12.6184678 5.81328824,12.5042573 L8.74464118,9.59004678 C8.97434706,9.36162573 8.97434706,8.99133333 8.74464118,8.76291228 C8.51493529,8.53460819 8.14246471,8.53460819 7.91275882,8.7628538" id="Fill-32" fill="#F9BE39" mask="url(#mask-2)"></path>
                        <path d="M7.91275882,8.7628538 L5.39734706,11.2636725 L4.62246471,10.4932047 C4.39275882,10.2649591 4.02028824,10.2649591 3.79052353,10.4932047 C3.56081765,10.7215673 3.56081765,11.0918596 3.79052353,11.3202807 L4.98140588,12.5042573 C5.09628824,12.6184678 5.24681765,12.6754854 5.39734706,12.6754854 C5.54787647,12.6754854 5.69846471,12.6184678 5.81328824,12.5042573 L8.74464118,9.59004678 C8.97434706,9.36162573 8.97434706,8.99133333 8.74464118,8.76291228 C8.51493529,8.53460819 8.14246471,8.53460819 7.91275882,8.7628538 Z" id="Stroke-33" stroke="#4A4B4E" stroke-width="0.5" mask="url(#mask-2)"></path>
                    </g>
                </g>
            </g>
        </g>
    </g>
</svg>