<?xml version="1.0" encoding="UTF-8"?>
<svg width="22px" height="32px" viewBox="0 0 22 32" version="1.1" xmlns="http://www.w3.org/2000/svg" xmlns:xlink="http://www.w3.org/1999/xlink">
    <!-- Generator: Sketch 53 (72520) - https://sketchapp.com -->
    <title>Group 57</title>
    <desc>Created with Sketch.</desc>
    <g id="Page-1" stroke="none" stroke-width="1" fill="none" fill-rule="evenodd">
        <g id="Menu-dropdown---services" transform="translate(-812.000000, -290.000000)">
            <g id="menu-drop-down" transform="translate(758.000000, 154.000000)">
                <g id="1-copy" transform="translate(30.000000, 110.000000)">
                    <g id="Group-57" transform="translate(25.000000, 27.000000)">
                        <path d="M5.78687213,8.2742 C5.78687213,7.70413548 6.25664262,7.24194194 6.83605246,7.24194194 L13.1311344,7.24194194 C13.7106098,7.24194194 14.1803148,7.70413548 14.1803148,8.2742 L14.1803148,14.4677484 C14.1803148,15.0378774 13.7106098,15.5000065 13.1311344,15.5000065 L6.83605246,15.5000065 C6.25664262,15.5000065 5.78687213,15.0378774 5.78687213,14.4677484 L5.78687213,8.2742 Z M0.0163803279,24.790329 L19.9508066,24.790329 L19.9508066,4.14516774 L0.0163803279,4.14516774 L0.0163803279,24.790329 Z" id="Fill-1" fill="#FFFFFF"></path>
                        <path d="M5.78687213,8.2742 C5.78687213,7.70413548 6.25664262,7.24194194 6.83605246,7.24194194 L13.1311344,7.24194194 C13.7106098,7.24194194 14.1803148,7.70413548 14.1803148,8.2742 L14.1803148,14.4677484 C14.1803148,15.0378774 13.7106098,15.5000065 13.1311344,15.5000065 L6.83605246,15.5000065 C6.25664262,15.5000065 5.78687213,15.0378774 5.78687213,14.4677484 L5.78687213,8.2742 Z M0.0163803279,24.790329 L19.9508066,24.790329 L19.9508066,4.14516774 L0.0163803279,4.14516774 L0.0163803279,24.790329 Z" id="Stroke-3" stroke="#4A4B4E" stroke-width="0.5"></path>
                        <path d="M19.9508066,24.790329 L19.9508066,26.8548452 C19.9508066,28.5651677 18.5416262,29.9516194 16.8032656,29.9516194 L3.16392131,29.9516194 C1.42562623,29.9516194 0.0163803279,28.5651677 0.0163803279,26.8548452 L0.0163803279,24.790329 L19.9508066,24.790329 Z" id="Fill-5" fill="#F9BE39"></path>
                        <path d="M19.9508066,24.790329 L19.9508066,26.8548452 C19.9508066,28.5651677 18.5416262,29.9516194 16.8032656,29.9516194 L3.16392131,29.9516194 C1.42562623,29.9516194 0.0163803279,28.5651677 0.0163803279,26.8548452 L0.0163803279,24.790329 L19.9508066,24.790329 Z" id="Stroke-7" stroke="#4A4B4E" stroke-width="0.5"></path>
                        <path d="M16.8032656,0.0161354839 L3.16392131,0.0161354839 C1.42562623,0.0161354839 0.0163803279,1.4025871 0.0163803279,3.11290968 L0.0163803279,4.14516774 L19.9508066,4.14516774 L19.9508066,3.11290968 C19.9508066,1.4025871 18.5416262,0.0161354839 16.8032656,0.0161354839" id="Fill-9" fill="#F9BE39"></path>
                        <path d="M16.8032656,0.0161354839 L3.16392131,0.0161354839 C1.42562623,0.0161354839 0.0163803279,1.4025871 0.0163803279,3.11290968 L0.0163803279,4.14516774 L19.9508066,4.14516774 L19.9508066,3.11290968 C19.9508066,1.4025871 18.5416262,0.0161354839 16.8032656,0.0161354839 Z" id="Stroke-11" stroke="#4A4B4E" stroke-width="0.5"></path>
                        <path d="M9.98359344,26.3387161 C10.5630689,26.3387161 11.0327738,26.8008452 11.0327738,27.3709742 C11.0327738,27.9411032 10.5630689,28.4032323 9.98359344,28.4032323 C9.40418361,28.4032323 8.93441311,27.9411032 8.93441311,27.3709742 C8.93441311,26.8008452 9.40418361,26.3387161 9.98359344,26.3387161" id="Fill-13" fill="#FFFFFF"></path>
                        <path d="M9.98359344,26.3387161 C10.5630689,26.3387161 11.0327738,26.8008452 11.0327738,27.3709742 C11.0327738,27.9411032 10.5630689,28.4032323 9.98359344,28.4032323 C9.40418361,28.4032323 8.93441311,27.9411032 8.93441311,27.3709742 C8.93441311,26.8008452 9.40418361,26.3387161 9.98359344,26.3387161 Z" id="Stroke-15" stroke="#4A4B4E" stroke-width="0.5"></path>
                        <path d="M6.83605246,15.5000065 L13.1311344,15.5000065 C13.7106098,15.5000065 14.1803148,15.0378774 14.1803148,14.4677484 L14.1803148,8.2742 C14.1803148,7.70413548 13.7106098,7.24194194 13.1311344,7.24194194 L6.83605246,7.24194194 C6.25664262,7.24194194 5.78687213,7.70413548 5.78687213,8.2742 L5.78687213,14.4677484 C5.78687213,15.0378774 6.25664262,15.5000065 6.83605246,15.5000065" id="Fill-17" fill="#F5CC71"></path>
                        <path d="M6.83605246,15.5000065 L13.1311344,15.5000065 C13.7106098,15.5000065 14.1803148,15.0378774 14.1803148,14.4677484 L14.1803148,8.2742 C14.1803148,7.70413548 13.7106098,7.24194194 13.1311344,7.24194194 L6.83605246,7.24194194 C6.25664262,7.24194194 5.78687213,7.70413548 5.78687213,8.2742 L5.78687213,14.4677484 C5.78687213,15.0378774 6.25664262,15.5000065 6.83605246,15.5000065 Z" id="Stroke-19" stroke="#4A4B4E" stroke-width="0.5"></path>
                        <polygon id="Fill-21" fill="#FFFFFF" points="9.98359344 10.8548452 11.0327738 11.3709742 11.0327738 7.24194194 8.93441311 7.24194194 8.93441311 11.3709742"></polygon>
                        <polygon id="Stroke-23" stroke="#4A4B4E" stroke-width="0.5" points="9.98359344 10.8548452 11.0327738 11.3709742 11.0327738 7.24194194 8.93441311 7.24194194 8.93441311 11.3709742"></polygon>
                        <path d="M13.1311344,7.24194194 L13.1311344,11.8871032 C13.1311344,13.0272968 12.191659,13.9516194 11.0327738,13.9516194 L5.78687213,13.9516194 L5.78687213,14.4677484 C5.78687213,15.0378774 6.25664262,15.5000065 6.83605246,15.5000065 L13.1311344,15.5000065 C13.7106098,15.5000065 14.1803148,15.0378774 14.1803148,14.4677484 L14.1803148,8.2742 C14.1803148,7.70413548 13.7106098,7.24194194 13.1311344,7.24194194" id="Fill-25" fill="#F9BE39"></path>
                        <path d="M13.1311344,7.24194194 L13.1311344,11.8871032 C13.1311344,13.0272968 12.191659,13.9516194 11.0327738,13.9516194 L5.78687213,13.9516194 L5.78687213,14.4677484 C5.78687213,15.0378774 6.25664262,15.5000065 6.83605246,15.5000065 L13.1311344,15.5000065 C13.7106098,15.5000065 14.1803148,15.0378774 14.1803148,14.4677484 L14.1803148,8.2742 C14.1803148,7.70413548 13.7106098,7.24194194 13.1311344,7.24194194 Z" id="Stroke-27" stroke="#4A4B4E" stroke-width="0.5"></path>
                        <path d="M7.36064262,2.59678065 L8.93441311,2.59678065 C9.22411803,2.59678065 9.45900328,2.36568387 9.45900328,2.08065161 C9.45900328,1.79561935 9.22411803,1.56452258 8.93441311,1.56452258 L7.36064262,1.56452258 C7.0709377,1.56452258 6.83605246,1.79561935 6.83605246,2.08065161 C6.83605246,2.36568387 7.0709377,2.59678065 7.36064262,2.59678065" id="Fill-29" fill="#FFFFFF"></path>
                        <path d="M7.36064262,2.59678065 L8.93441311,2.59678065 C9.22411803,2.59678065 9.45900328,2.36568387 9.45900328,2.08065161 C9.45900328,1.79561935 9.22411803,1.56452258 8.93441311,1.56452258 L7.36064262,1.56452258 C7.0709377,1.56452258 6.83605246,1.79561935 6.83605246,2.08065161 C6.83605246,2.36568387 7.0709377,2.59678065 7.36064262,2.59678065 Z" id="Stroke-31" stroke="#4A4B4E" stroke-width="0.5"></path>
                        <path d="M11.0327738,2.59678065 L12.0819541,2.59678065 C12.371659,2.59678065 12.6065443,2.36568387 12.6065443,2.08065161 C12.6065443,1.79561935 12.371659,1.56452258 12.0819541,1.56452258 L11.0327738,1.56452258 C10.7430689,1.56452258 10.5081836,1.79561935 10.5081836,2.08065161 C10.5081836,2.36568387 10.7430689,2.59678065 11.0327738,2.59678065" id="Fill-33" fill="#FFFFFF"></path>
                        <path d="M11.0327738,2.59678065 L12.0819541,2.59678065 C12.371659,2.59678065 12.6065443,2.36568387 12.6065443,2.08065161 C12.6065443,1.79561935 12.371659,1.56452258 12.0819541,1.56452258 L11.0327738,1.56452258 C10.7430689,1.56452258 10.5081836,1.79561935 10.5081836,2.08065161 C10.5081836,2.36568387 10.7430689,2.59678065 11.0327738,2.59678065 Z" id="Stroke-35" stroke="#4A4B4E" stroke-width="0.5"></path>
                        <path d="M3.16392131,19.1129097 L3.68851148,19.1129097 C3.97821639,19.1129097 4.21310164,18.8818129 4.21310164,18.5967806 C4.21310164,18.3117484 3.97821639,18.0806516 3.68851148,18.0806516 L3.16392131,18.0806516 C2.87421639,18.0806516 2.63933115,18.3117484 2.63933115,18.5967806 C2.63933115,18.8818129 2.87421639,19.1129097 3.16392131,19.1129097" id="Fill-37" fill="#F8F8F8"></path>
                        <path d="M5.78687213,19.1129097 L16.8032656,19.1129097 C17.0929705,19.1129097 17.3278557,18.8818129 17.3278557,18.5967806 C17.3278557,18.3117484 17.0929705,18.0806516 16.8032656,18.0806516 L5.78687213,18.0806516 C5.49716721,18.0806516 5.26228197,18.3117484 5.26228197,18.5967806 C5.26228197,18.8818129 5.49716721,19.1129097 5.78687213,19.1129097" id="Fill-41" fill="#F8F8F8"></path>
                        <path d="M3.16392131,21.1774258 L5.78687213,21.1774258 C6.07657705,21.1774258 6.3114623,20.946329 6.3114623,20.6612968 C6.3114623,20.3762645 6.07657705,20.1451677 5.78687213,20.1451677 L3.16392131,20.1451677 C2.87421639,20.1451677 2.63933115,20.3762645 2.63933115,20.6612968 C2.63933115,20.946329 2.87421639,21.1774258 3.16392131,21.1774258" id="Fill-45" fill="#F8F8F8"></path>
                        <path d="M16.8032656,20.1451677 L7.88523279,20.1451677 C7.59552787,20.1451677 7.36064262,20.3762645 7.36064262,20.6612968 C7.36064262,20.946329 7.59552787,21.1774258 7.88523279,21.1774258 L16.8032656,21.1774258 C17.0929705,21.1774258 17.3278557,20.946329 17.3278557,20.6612968 C17.3278557,20.3762645 17.0929705,20.1451677 16.8032656,20.1451677" id="Fill-49" fill="#F8F8F8"></path>
                        <path d="M15.7540852,22.2096839 L3.16392131,22.2096839 C2.87421639,22.2096839 2.63933115,22.4407806 2.63933115,22.7258129 C2.63933115,23.0108452 2.87421639,23.2419419 3.16392131,23.2419419 L15.7540852,23.2419419 C16.0437902,23.2419419 16.2786754,23.0108452 16.2786754,22.7258129 C16.2786754,22.4407806 16.0437902,22.2096839 15.7540852,22.2096839" id="Fill-53" fill="#F8F8F8"></path>
                    </g>
                </g>
            </g>
        </g>
    </g>
</svg>