<?xml version="1.0" encoding="UTF-8"?>
<svg width="35px" height="32px" viewBox="0 0 35 32" version="1.1" xmlns="http://www.w3.org/2000/svg" xmlns:xlink="http://www.w3.org/1999/xlink">
    <!-- Generator: Sketch 53 (72520) - https://sketchapp.com -->
    <title>Group 33</title>
    <desc>Created with Sketch.</desc>
    <g id="Page-1" stroke="none" stroke-width="1" fill="none" fill-rule="evenodd">
        <g id="Menu-dropdown---services" transform="translate(-806.000000, -530.000000)">
            <g id="menu-drop-down" transform="translate(758.000000, 154.000000)">
                <g id="1-copy-4" transform="translate(30.000000, 350.000000)">
                    <g id="Group-33" transform="translate(19.000000, 27.000000)">
                        <path d="M25.9062737,6.20261588 C22.5521099,4.85641416 19.8552444,8.53321674 16.4839053,7.02523391 L16.4839053,1.1409206 C19.8853497,2.66222961 22.6001626,-1.09382189 25.9962035,0.355512876 C26.0397532,0.374118026 26.0680573,0.417637339 26.0680573,0.465019313 L26.0680573,6.09278755 C26.067993,6.17628541 25.983724,6.23364592 25.9062737,6.20261588" id="Fill-1" fill="#F9BE39"></path>
                        <path d="M25.9062737,6.20261588 C22.5521099,4.85641416 19.8552444,8.53321674 16.4839053,7.02523391 L16.4839053,1.1409206 C19.8853497,2.66222961 22.6001626,-1.09382189 25.9962035,0.355512876 C26.0397532,0.374118026 26.0680573,0.417637339 26.0680573,0.465019313 L26.0680573,6.09278755 C26.067993,6.17628541 25.983724,6.23364592 25.9062737,6.20261588 Z" id="Stroke-3" stroke="#4A4B4E" stroke-width="0.5"></path>
                        <path d="M16.4838988,15.2750923 C16.2020158,15.2750923 15.9734602,15.0463584 15.9734602,14.764191 L15.9734602,1.05457725 C15.9734602,0.772538627 16.2020158,0.543804721 16.4838988,0.543804721 C16.7658462,0.543804721 16.9943374,0.772538627 16.9943374,1.05457725 L16.9943374,14.764191 C16.9943374,15.0463584 16.7658462,15.2750923 16.4838988,15.2750923" id="Fill-5" fill="#FFFFFF"></path>
                        <path d="M16.4838988,15.2750923 C16.2020158,15.2750923 15.9734602,15.0463584 15.9734602,14.764191 L15.9734602,1.05457725 C15.9734602,0.772538627 16.2020158,0.543804721 16.4838988,0.543804721 C16.7658462,0.543804721 16.9943374,0.772538627 16.9943374,1.05457725 L16.9943374,14.764191 C16.9943374,15.0463584 16.7658462,15.2750923 16.4838988,15.2750923 Z" id="Stroke-7" stroke="#4A4B4E" stroke-width="0.5"></path>
                        <path d="M24.7720322,17.4962511 L17.110114,29.958676 L32.385383,29.958676 C32.8277632,29.958676 33.0988392,29.4732682 32.8670029,29.0962082 L25.7352719,17.4962511 C25.5145,17.137088 24.9928684,17.137088 24.7720322,17.4962511" id="Fill-9" fill="#F9BE39"></path>
                        <path d="M24.7720322,17.4962511 L17.110114,29.958676 L32.385383,29.958676 C32.8277632,29.958676 33.0988392,29.4732682 32.8670029,29.0962082 L25.7352719,17.4962511 C25.5145,17.137088 24.9928684,17.137088 24.7720322,17.4962511 Z" id="Stroke-11" stroke="#4A4B4E" stroke-width="0.5"></path>
                        <path d="M32.8669579,29.096176 L25.7352912,17.4962189 C25.5145193,17.1370558 24.9928877,17.1370558 24.7720515,17.4962189 L23.5504082,19.4833648 L29.990683,29.9586438 L32.3854023,29.9586438 C32.8277181,29.9586438 33.0987942,29.4732361 32.8669579,29.096176" id="Fill-13" fill="#FFFFFF"></path>
                        <path d="M32.8669579,29.096176 L25.7352912,17.4962189 C25.5145193,17.1370558 24.9928877,17.1370558 24.7720515,17.4962189 L23.5504082,19.4833648 L29.990683,29.9586438 L32.3854023,29.9586438 C32.8277181,29.9586438 33.0987942,29.4732361 32.8669579,29.096176 Z" id="Stroke-15" stroke="#4A4B4E" stroke-width="0.5"></path>
                        <path d="M7.2325193,17.4962511 L0.100852632,29.0962082 C-0.130983626,29.4732682 0.140092398,29.958676 0.582472515,29.958676 L15.8577415,29.958676 L8.19575906,17.4962511 C7.97492281,17.137088 7.45329123,17.137088 7.2325193,17.4962511" id="Fill-17" fill="#F9BE39"></path>
                        <path d="M7.2325193,17.4962511 L0.100852632,29.0962082 C-0.130983626,29.4732682 0.140092398,29.958676 0.582472515,29.958676 L15.8577415,29.958676 L8.19575906,17.4962511 C7.97492281,17.137088 7.45329123,17.137088 7.2325193,17.4962511 Z" id="Stroke-19" stroke="#4A4B4E" stroke-width="0.5"></path>
                        <path d="M16.0022918,11.7542511 L4.81020994,29.9586502 L28.1576778,29.9586502 L16.9655316,11.7542511 C16.7446953,11.3951524 16.2231281,11.3951524 16.0022918,11.7542511" id="Fill-21" fill="#F9BE39"></path>
                        <path d="M16.0022918,11.7542511 L4.81020994,29.9586502 L28.1576778,29.9586502 L16.9655316,11.7542511 C16.7446953,11.3951524 16.2231281,11.3951524 16.0022918,11.7542511 Z" id="Stroke-23" stroke="#4A4B4E" stroke-width="0.5"></path>
                        <path d="M16.9655058,11.7542511 C16.7447339,11.395088 16.2231023,11.395088 16.0022661,11.7542511 L14.9977924,13.3880923 L25.1854006,29.9586502 L28.1575877,29.9586502 L16.9655058,11.7542511 Z" id="Fill-25" fill="#FFFFFF"></path>
                        <path d="M16.9655058,11.7542511 C16.7447339,11.395088 16.2231023,11.395088 16.0022661,11.7542511 L14.9977924,13.3880923 L25.1854006,29.9586502 L28.1575877,29.9586502 L16.9655058,11.7542511 Z" id="Stroke-27" stroke="#4A4B4E" stroke-width="0.5"></path>
                        <polygon id="Fill-29" fill="#FFFFFF" points="8.80835614 18.4926567 1.75902865 29.9586438 4.81020994 29.9586438 10.3339468 20.9740944"></polygon>
                        <polygon id="Stroke-31" stroke="#4A4B4E" stroke-width="0.5" points="8.80835614 18.4926567 1.75902865 29.9586438 4.81020994 29.9586438 10.3339468 20.9740944"></polygon>
                    </g>
                </g>
            </g>
        </g>
    </g>
</svg>