<?xml version="1.0" encoding="UTF-8"?>
<svg width="32px" height="32px" viewBox="0 0 32 32" version="1.1" xmlns="http://www.w3.org/2000/svg" xmlns:xlink="http://www.w3.org/1999/xlink">
    <!-- Generator: Sketch 53 (72520) - https://sketchapp.com -->
    <title>Group 31</title>
    <desc>Created with Sketch.</desc>
    <g id="Page-1" stroke="none" stroke-width="1" fill="none" fill-rule="evenodd">
        <g id="Menu-dropdown---services" transform="translate(-807.000000, -370.000000)">
            <g id="menu-drop-down" transform="translate(758.000000, 154.000000)">
                <g id="1-copy-2" transform="translate(30.000000, 190.000000)">
                    <g id="Group-31" transform="translate(20.000000, 27.000000)">
                        <path d="M4.91025,14.9794395 C4.91025,12.259459 5.98913672,9.79190039 7.74144141,7.98018164 L4.69005469,4.92879492 C2.15692969,7.52174414 0.594878906,11.0679551 0.594878906,14.9794395 C0.594878906,15.0411387 0.596460938,15.1026035 0.597164063,15.1642441 L4.91253516,15.1642441 C4.91142187,15.1027793 4.91025,15.041373 4.91025,14.9794395" id="Fill-1" fill="#F8F8F8"></path>
                        <path d="M14.9257441,4.91092969 L14.9257441,0.595617188 C10.9141816,0.610207031 7.29027539,2.2670625 4.69006055,4.92880078 L7.74144727,7.9801875" id="Fill-3" fill="#F4D88B"></path>
                        <path d="M14.979416,4.91024414 C17.7932637,4.91024414 20.3371113,6.06500977 22.1641816,7.92583008 L25.2155684,4.87444336 C22.6075605,2.23256836 18.985002,0.594931641 14.979416,0.594931641 C14.9613691,0.594931641 14.9435566,0.595341797 14.9257441,0.595341797 L14.9257441,4.91094727 C14.9435566,4.91071289 14.9613691,4.91024414 14.979416,4.91024414" id="Fill-5" fill="#F9BE39"></path>
                        <path d="M25.0479316,14.9794395 C25.0479316,15.0409043 25.0474629,15.1027793 25.0463496,15.1642441 L28.1429707,15.1642441 C28.5487324,15.1642441 28.9550801,15.157623 29.3605488,15.166998 C29.3852168,13.155123 28.9920527,11.1396738 28.1952949,9.29139258 C27.487834,7.65035742 26.471291,6.14608008 25.2158027,4.87441992 C25.2183223,4.87711523 22.3368574,7.75289648 22.1637129,7.92604102 C23.975666,9.76858008 25.0479316,12.3926426 25.0479316,14.9794395" id="Fill-7" fill="#F4D88B"></path>
                        <path d="M29.3655879,15.1644902 L25.0502168,15.1644902 C25.0004121,17.9319316 23.8342793,20.426502 21.9825996,22.2174199 L25.0339863,25.2688066 C26.0608418,24.2657988 26.9379902,23.1103301 27.6289863,21.8391387 C27.8723262,21.3913652 28.0925215,20.9295293 28.2880488,20.4545684 C28.4664668,20.0219121 28.624084,19.5785332 28.7601973,19.1257207 C29.137834,17.8691191 29.3482441,16.5401543 29.3655879,15.1644902" id="Fill-9" fill="#F8F8F8"></path>
                        <path d="M4.91253516,15.1642617 L0.597164063,15.1642617 C0.646734375,19.0962539 2.27341406,22.6477969 4.87439063,25.2156094 L7.92583594,22.1641641 C6.10585547,20.3771719 4.96210547,17.9045742 4.91253516,15.1642617" id="Fill-11" fill="#F9BE39"></path>
                        <path d="M14.979416,25.0486348 C14.9613691,25.0486348 14.9435566,25.0479316 14.9257441,25.0479316 L14.9257441,29.3633027 C14.9435566,29.3633027 14.9613691,29.3639473 14.979416,29.3639473 C18.8909004,29.3639473 22.4371113,27.8019551 25.0301191,25.2688301 L21.9786738,22.2174434 C20.1667207,23.969748 17.6993965,25.0486348 14.979416,25.0486348" id="Fill-13" fill="#F9BE39"></path>
                        <path d="M7.92582422,22.1641523 L4.87437891,25.2155977 C7.46029688,27.7685859 11.0080898,29.348918 14.9257266,29.3632734 L14.9257266,25.0479609 C12.1998281,25.0335469 9.7306875,23.9363789 7.92582422,22.1641523" id="Fill-15" fill="#F4D88B"></path>
                        <path d="M22.1662207,7.92352734 C20.339209,6.06270703 17.7953613,4.90794141 14.9814551,4.90794141 C14.9634082,4.90794141 14.9456543,4.90864453 14.9277832,4.90864453 C12.2366309,4.92282422 9.61368164,6.04448437 7.74354492,7.97790234 C5.99094727,9.78985547 4.91229492,12.2574141 4.91229492,14.9771602 C4.91229492,15.0390352 4.9134668,15.1005 4.91458008,15.1621992 C4.96391602,17.9025117 6.10790039,20.3751094 7.92788086,22.1621016 C9.73274414,23.9340937 12.2018848,25.0314961 14.9277832,25.0456758 C14.9458301,25.0459102 14.9636426,25.0463203 14.9814551,25.0463203 C17.7014355,25.0463203 20.1690527,23.967668 21.9807129,22.2151289 C23.3773535,20.8643672 24.3683496,19.1150508 24.7993652,17.2196602 C25.2688184,15.156457 25.0723535,12.9499922 24.2374512,11.0069648 C23.7456152,9.86251172 23.0390332,8.81262891 22.1662207,7.92352734 L17.2418713,15.7608809" id="Fill-17" fill="#FFFFFF"></path>
                        <path d="M25.6393594,14.5677949 C25.6046133,13.6474629 25.4515664,12.7316426 25.1825039,11.8508027 C24.8941641,10.9077949 24.4729336,10.0063887 23.9354531,9.17968945 C23.6526211,8.74474805 23.3376211,8.33037305 22.9947305,7.94090039 L25.206,5.72986523 C27.416332,8.16841992 28.6670156,11.2724238 28.7634023,14.5675605 L25.6393594,14.5675605 L25.6393594,14.5677949 Z M15.5242617,25.631584 C16.4546719,25.5851777 17.3784609,25.4170723 18.265043,25.1310762 C19.151332,24.8450801 19.9990664,24.441252 20.7798281,23.9336543 C21.1939687,23.6645332 21.589418,23.3666426 21.9624844,23.0429707 L24.1741641,25.254709 C21.7762734,27.4039863 18.742875,28.6325215 15.5242617,28.7567988 L15.5242617,25.631584 Z M4.34439844,15.7608809 C4.40861719,16.6543184 4.58516016,17.5397871 4.87074609,18.3888105 C5.18047266,19.3103145 5.61863672,20.1877559 6.16777734,20.9900215 C6.44832422,21.3996504 6.75740625,21.7895332 7.09180078,22.1564473 L4.88240625,24.3658418 C2.68092188,22.001291 1.39555078,18.9845918 1.21619531,15.7608809 L4.34439844,15.7608809 Z M4.70603906,5.78652539 L6.91771875,7.99826367 C6.31578516,8.69224805 5.80320703,9.46322461 5.39861719,10.2880488 C4.97967188,11.1421699 4.67726953,12.0524824 4.50090234,12.9872285 C4.40269922,13.5087715 4.34351953,14.0373457 4.32342188,14.5675605 L1.19932031,14.5675605 C1.29500391,11.3002559 2.52769922,8.21705273 4.70603906,5.78652539 L4.70603906,5.78652539 Z M14.3308828,28.7517598 C11.1245742,28.6032832 8.11039453,27.3599238 5.73195703,25.2039082 L7.94293359,22.9926973 C8.68584375,23.6464863 9.51892969,24.1970332 10.4127773,24.6211934 C11.1832852,24.9869355 11.9983242,25.2588105 12.8341641,25.4289668 C13.327582,25.5294551 13.8283242,25.5950215 14.3311172,25.6251973 L14.3311172,28.7517598 L14.3308828,28.7517598 Z M14.3308828,4.33369336 C13.9233633,4.35836133 13.5174258,4.40611523 13.1184023,4.47642773 C12.7939688,4.53355664 12.5772305,4.84310742 12.6343008,5.16742383 C12.6916641,5.4920332 13.0012148,5.7086543 13.3255313,5.65152539 C14.6084414,5.42517773 15.9587344,5.4489082 17.2256484,5.75863477 C18.3157266,6.02500195 19.3511953,6.49949414 20.2724648,7.13933789 C21.1878164,7.77549023 21.9898477,8.57254102 22.6363711,9.48033398 C23.2878164,10.3952168 23.7808242,11.4224824 24.0795938,12.5052949 C24.2945156,13.2844746 24.4083047,14.091252 24.414457,14.8994941 C24.4345547,17.4680098 23.4171328,19.9979121 21.5658633,21.7883613 C18.1878164,25.0557246 12.5557266,25.2832441 8.9450625,22.2633223 C6.142875,19.9195723 4.9006875,15.9226582 5.89502344,12.4056855 C6.45195703,10.4358223 7.63613672,8.65884961 9.27107813,7.4214082 C9.53375391,7.22248242 9.58560938,6.84830273 9.38668359,6.58562695 C9.18793359,6.32289258 8.81351953,6.27103711 8.55078516,6.47002148 C8.27351953,6.67996289 8.00510156,6.90449414 7.74857813,7.14138867 L5.53959375,4.93246289 C7.94680078,2.66517773 11.0297695,1.35900586 14.3311172,1.20689648 L14.3311172,4.33369336 L14.3308828,4.33369336 Z M22.1584805,7.08976758 C21.4510195,6.44400586 20.656957,5.89322461 19.8030703,5.4592207 C18.9224648,5.01144727 17.9787539,4.69006055 17.0086172,4.50455273 C16.518832,4.41086133 16.0224844,4.35174023 15.5242617,4.32707227 L15.5242617,1.20185742 C18.8386172,1.32912305 21.9412148,2.62000195 24.367875,4.88031445 L22.1584805,7.08976758 Z M25.6420547,4.4552168 C22.8047109,1.58101758 28.4283047,7.2770332 25.6420547,4.4552168 C21.9033047,0.667951172 16.1720742,-0.872361328 11.0370937,0.519943359 C6.25021875,1.81791211 2.31137109,5.62205273 0.767777344,10.324377 C-0.170367188,13.1821113 -0.240972656,16.3269551 0.606058594,19.2155098 C1.96455469,23.8488691 5.69516016,27.6646699 10.263832,29.2002363 C15.1377187,30.8383418 20.7095156,29.7315645 24.6381094,26.4304512 C25.7309414,25.5121113 26.7004336,24.4192793 27.4869375,23.2293574 C27.5515664,23.1313301 27.6155508,23.0324824 27.6767227,22.9349238 C27.8519766,22.6560176 27.7676602,22.2877559 27.4885195,22.1125605 C27.2096133,21.9371309 26.8413516,22.0213887 26.6659219,22.3005879 C26.608793,22.3917012 26.5505508,22.4821699 26.4914297,22.5717012 C26.0580703,23.2270723 25.5673477,23.8470527 25.0280508,24.4208613 L22.8195352,22.2126387 C23.4570938,21.5234004 24.0041836,20.7508418 24.4398281,19.9191035 C24.8880117,19.0626973 25.2171914,18.1448848 25.4164102,17.199123 C25.5161953,16.7250996 25.5840469,16.2440449 25.6183242,15.7608809 L28.746293,15.7608809 C28.6996523,16.5910371 28.5790664,17.4145723 28.3860586,18.2165449 C28.3090664,18.5370527 28.5061758,18.8591426 28.8266836,18.9364277 C29.1467227,19.0133613 29.4690469,18.816252 29.5462734,18.4957441 C30.7501406,13.489377 29.2579922,8.11750195 25.6420547,4.4552168 L25.6420547,4.4552168 Z" id="Fill-19" fill="#FFFFFF"></path>
                        <path d="M25.6393594,14.5677949 C25.6046133,13.6474629 25.4515664,12.7316426 25.1825039,11.8508027 C24.8941641,10.9077949 24.4729336,10.0063887 23.9354531,9.17968945 C23.6526211,8.74474805 23.3376211,8.33037305 22.9947305,7.94090039 L25.206,5.72986523 C27.416332,8.16841992 28.6670156,11.2724238 28.7634023,14.5675605 L25.6393594,14.5675605 L25.6393594,14.5677949 Z M15.5242617,25.631584 C16.4546719,25.5851777 17.3784609,25.4170723 18.265043,25.1310762 C19.151332,24.8450801 19.9990664,24.441252 20.7798281,23.9336543 C21.1939687,23.6645332 21.589418,23.3666426 21.9624844,23.0429707 L24.1741641,25.254709 C21.7762734,27.4039863 18.742875,28.6325215 15.5242617,28.7567988 L15.5242617,25.631584 Z M4.34439844,15.7608809 C4.40861719,16.6543184 4.58516016,17.5397871 4.87074609,18.3888105 C5.18047266,19.3103145 5.61863672,20.1877559 6.16777734,20.9900215 C6.44832422,21.3996504 6.75740625,21.7895332 7.09180078,22.1564473 L4.88240625,24.3658418 C2.68092188,22.001291 1.39555078,18.9845918 1.21619531,15.7608809 L4.34439844,15.7608809 Z M4.70603906,5.78652539 L6.91771875,7.99826367 C6.31578516,8.69224805 5.80320703,9.46322461 5.39861719,10.2880488 C4.97967188,11.1421699 4.67726953,12.0524824 4.50090234,12.9872285 C4.40269922,13.5087715 4.34351953,14.0373457 4.32342188,14.5675605 L1.19932031,14.5675605 C1.29500391,11.3002559 2.52769922,8.21705273 4.70603906,5.78652539 Z M14.3308828,28.7517598 C11.1245742,28.6032832 8.11039453,27.3599238 5.73195703,25.2039082 L7.94293359,22.9926973 C8.68584375,23.6464863 9.51892969,24.1970332 10.4127773,24.6211934 C11.1832852,24.9869355 11.9983242,25.2588105 12.8341641,25.4289668 C13.327582,25.5294551 13.8283242,25.5950215 14.3311172,25.6251973 L14.3311172,28.7517598 L14.3308828,28.7517598 Z M14.3308828,4.33369336 C13.9233633,4.35836133 13.5174258,4.40611523 13.1184023,4.47642773 C12.7939688,4.53355664 12.5772305,4.84310742 12.6343008,5.16742383 C12.6916641,5.4920332 13.0012148,5.7086543 13.3255313,5.65152539 C14.6084414,5.42517773 15.9587344,5.4489082 17.2256484,5.75863477 C18.3157266,6.02500195 19.3511953,6.49949414 20.2724648,7.13933789 C21.1878164,7.77549023 21.9898477,8.57254102 22.6363711,9.48033398 C23.2878164,10.3952168 23.7808242,11.4224824 24.0795938,12.5052949 C24.2945156,13.2844746 24.4083047,14.091252 24.414457,14.8994941 C24.4345547,17.4680098 23.4171328,19.9979121 21.5658633,21.7883613 C18.1878164,25.0557246 12.5557266,25.2832441 8.9450625,22.2633223 C6.142875,19.9195723 4.9006875,15.9226582 5.89502344,12.4056855 C6.45195703,10.4358223 7.63613672,8.65884961 9.27107813,7.4214082 C9.53375391,7.22248242 9.58560938,6.84830273 9.38668359,6.58562695 C9.18793359,6.32289258 8.81351953,6.27103711 8.55078516,6.47002148 C8.27351953,6.67996289 8.00510156,6.90449414 7.74857813,7.14138867 L5.53959375,4.93246289 C7.94680078,2.66517773 11.0297695,1.35900586 14.3311172,1.20689648 L14.3311172,4.33369336 L14.3308828,4.33369336 Z M22.1584805,7.08976758 C21.4510195,6.44400586 20.656957,5.89322461 19.8030703,5.4592207 C18.9224648,5.01144727 17.9787539,4.69006055 17.0086172,4.50455273 C16.518832,4.41086133 16.0224844,4.35174023 15.5242617,4.32707227 L15.5242617,1.20185742 C18.8386172,1.32912305 21.9412148,2.62000195 24.367875,4.88031445 L22.1584805,7.08976758 Z M25.6420547,4.4552168 C22.8047109,1.58101758 28.4283047,7.2770332 25.6420547,4.4552168 C21.9033047,0.667951172 16.1720742,-0.872361328 11.0370937,0.519943359 C6.25021875,1.81791211 2.31137109,5.62205273 0.767777344,10.324377 C-0.170367188,13.1821113 -0.240972656,16.3269551 0.606058594,19.2155098 C1.96455469,23.8488691 5.69516016,27.6646699 10.263832,29.2002363 C15.1377187,30.8383418 20.7095156,29.7315645 24.6381094,26.4304512 C25.7309414,25.5121113 26.7004336,24.4192793 27.4869375,23.2293574 C27.5515664,23.1313301 27.6155508,23.0324824 27.6767227,22.9349238 C27.8519766,22.6560176 27.7676602,22.2877559 27.4885195,22.1125605 C27.2096133,21.9371309 26.8413516,22.0213887 26.6659219,22.3005879 C26.608793,22.3917012 26.5505508,22.4821699 26.4914297,22.5717012 C26.0580703,23.2270723 25.5673477,23.8470527 25.0280508,24.4208613 L22.8195352,22.2126387 C23.4570938,21.5234004 24.0041836,20.7508418 24.4398281,19.9191035 C24.8880117,19.0626973 25.2171914,18.1448848 25.4164102,17.199123 C25.5161953,16.7250996 25.5840469,16.2440449 25.6183242,15.7608809 L28.746293,15.7608809 C28.6996523,16.5910371 28.5790664,17.4145723 28.3860586,18.2165449 C28.3090664,18.5370527 28.5061758,18.8591426 28.8266836,18.9364277 C29.1467227,19.0133613 29.4690469,18.816252 29.5462734,18.4957441 C30.7501406,13.489377 29.2579922,8.11750195 25.6420547,4.4552168 Z" id="Stroke-21" stroke="#4A4B4E" stroke-width="0.5"></path>
                        <path d="M14.4293555,11.4016758 C14.4293555,11.1227695 14.1004102,11.0473594 13.8769922,11.0473594 C13.6535742,11.047125 13.3248633,11.1230039 13.3248633,11.4016758 L13.3248633,16.4030039 C13.3248633,16.8893906 13.1804883,17.4042539 12.7046484,17.6226914 C12.249375,17.8319297 11.5291406,17.8079063 11.1483398,17.4576914 C10.790625,17.1288047 10.7663672,16.5823594 10.7673047,16.0967344 C10.7698242,14.5760508 10.7721094,13.0553672 10.7746289,11.5348594 C10.7748633,11.4375352 10.7736914,11.3352305 10.7259375,11.2505039 C10.6277344,11.0763633 10.3894922,11.0553867 10.1896289,11.0601914 C9.99544922,11.0647617 9.75966797,11.1020273 9.68865234,11.2829063 C9.66533203,11.3420273 9.66509766,11.4071836 9.66533203,11.4706992 C9.66720703,13.0009922 9.66919922,14.5312266 9.67125,16.0615195 C9.6721875,16.7093906 9.68935547,17.4077109 10.0794727,17.924625 C10.6691016,18.7056797 11.8925977,18.8502891 12.7839258,18.6501914 C13.2378516,18.5480625 13.6839844,18.322125 13.9802344,17.9548008 C14.3295117,17.5216758 14.4293555,16.945582 14.4293555,16.4030039 L14.4293555,11.4016758 Z" id="Fill-23" fill="#252427"></path>
                        <path d="M17.138373,14.8505801 C17.138373,14.8505801 15.342416,17.9234707 15.3357949,17.9347207 C15.0150527,18.4833926 16.0295449,18.970248 16.3361074,18.445541 L17.8572598,15.6736465 C17.8572598,15.6736465 19.3900723,18.428373 19.3993887,18.4453066 C19.7030215,18.9909902 20.7133535,18.4889004 20.3894473,17.9347207 L18.5868691,14.8505801 C18.5868691,14.8505801 20.3343691,11.7921035 20.3373574,11.7870645 C20.6912051,11.1677285 19.6474746,10.7228262 19.3160684,11.328627 L17.8572598,13.9960488 C17.8572598,13.9960488 16.4235879,11.3363613 16.4194863,11.328627 C16.096459,10.7293887 15.0228457,11.150209 15.3878848,11.7870645 L17.138373,14.8505801 Z" id="Fill-25" fill="#252427"></path>
                        <path d="M10.3970332,5.94141211 C10.5190254,6.24316992 10.882248,6.39305273 11.1821309,6.26719336 C11.490334,6.13787695 11.6193574,5.77629492 11.4951387,5.47424414 C11.3710957,5.16703711 10.9976191,5.01738867 10.6958027,5.15467383 C10.397502,5.29014258 10.275041,5.64445898 10.3970332,5.94141211" id="Fill-27" fill="#BDC3C7"></path>
                        <path d="M28.7855684,20.3300684 C28.6635762,20.0287207 28.3101973,19.8789551 28.0086738,20.0006543 C27.7071504,20.1226465 27.5572676,20.4760254 27.6792598,20.7776074 L27.6872285,20.7974707 C27.8163105,21.1165723 28.2014473,21.261416 28.509416,21.1063184 C28.7831074,20.9683301 28.9082637,20.6337012 28.7935957,20.3499316 L28.7855684,20.3300684 Z" id="Fill-29" fill="#F8F8F8"></path>
                    </g>
                </g>
            </g>
        </g>
    </g>
</svg>