<?xml version="1.0" encoding="UTF-8"?>
<svg width="32px" height="32px" viewBox="0 0 32 32" version="1.1" xmlns="http://www.w3.org/2000/svg" xmlns:xlink="http://www.w3.org/1999/xlink">
    <!-- Generator: Sketch 53 (72520) - https://sketchapp.com -->
    <title>Group 26</title>
    <desc>Created with Sketch.</desc>
    <defs>
        <polygon id="path-1" points="0 29.9707602 29.9707602 29.9707602 29.9707602 0 0 0"></polygon>
    </defs>
    <g id="Page-1" stroke="none" stroke-width="1" fill="none" fill-rule="evenodd">
        <g id="Menu-dropdown---services" transform="translate(-807.000000, -210.000000)">
            <g id="menu-drop-down" transform="translate(758.000000, 154.000000)">
                <g id="1" transform="translate(30.000000, 30.000000)">
                    <g id="Group-26" transform="translate(20.000000, 27.000000)">
                        <path d="M28.2783626,29.956117 L1.69239766,29.956117 C0.765730994,29.956117 0.014619883,29.2050058 0.014619883,28.2783977 L0.014619883,6.20939181 L29.9561404,6.20939181 L29.9561404,28.2783977 C29.9561404,29.2050058 29.2050292,29.956117 28.2783626,29.956117" id="Fill-1" fill="#FFFFFF"></path>
                        <polygon id="Fill-18" fill="#F8F8F8" points="14.4691228 30 15.5015789 30 15.5015789 6 14.4691228 6"></polygon>
                        <path d="M28.2783626,29.956117 L1.69239766,29.956117 C0.765730994,29.956117 0.014619883,29.2050058 0.014619883,28.2783977 L0.014619883,6.20939181 L29.9561404,6.20939181 L29.9561404,28.2783977 C29.9561404,29.2050058 29.2050292,29.956117 28.2783626,29.956117 Z" id="Stroke-3" stroke="#4A4B4E" stroke-width="0.5"></path>
                        <path d="M29.9561345,6.20940351 L0.0146140351,6.20940351 L0.0146140351,1.69238596 C0.0146140351,0.765719298 0.765725146,0.0146081871 1.69239181,0.0146081871 L28.2783567,0.0146081871 C29.2050234,0.0146081871 29.9561345,0.765719298 29.9561345,1.69238596 L29.9561345,6.20940351 Z" id="Fill-5" fill="#F9BE39"></path>
                        <path d="M29.9561345,6.20940351 L0.0146140351,6.20940351 L0.0146140351,1.69238596 C0.0146140351,0.765719298 0.765725146,0.0146081871 1.69239181,0.0146081871 L28.2783567,0.0146081871 C29.2050234,0.0146081871 29.9561345,0.765719298 29.9561345,1.69238596 L29.9561345,6.20940351 Z" id="Stroke-7" stroke="#4A4B4E" stroke-width="0.5"></path>
                        <mask id="mask-2" fill="white">
                            <use xlink:href="#path-1"></use>
                        </mask>
                        <g id="Clip-10"></g>
                        <polygon id="Fill-9" fill="#FFFFFF" mask="url(#mask-2)" points="2.07953216 4.14444444 4.14444444 4.14444444 4.14444444 2.07953216 2.07953216 2.07953216"></polygon>
                        <polygon id="Stroke-11" stroke="#4A4B4E" stroke-width="0.5" mask="url(#mask-2)" points="2.07953216 4.14444444 4.14444444 4.14444444 4.14444444 2.07953216 2.07953216 2.07953216"></polygon>
                        <polygon id="Fill-12" fill="#FFFFFF" mask="url(#mask-2)" points="6.2094152 4.14444444 8.27432749 4.14444444 8.27432749 2.07953216 6.2094152 2.07953216"></polygon>
                        <polygon id="Stroke-13" stroke="#4A4B4E" stroke-width="0.5" mask="url(#mask-2)" points="6.2094152 4.14444444 8.27432749 4.14444444 8.27432749 2.07953216 6.2094152 2.07953216"></polygon>
                        <polygon id="Fill-14" fill="#FFFFFF" mask="url(#mask-2)" points="10.3392982 4.14444444 12.4042105 4.14444444 12.4042105 2.07953216 10.3392982 2.07953216"></polygon>
                        <polygon id="Stroke-15" stroke="#4A4B4E" stroke-width="0.5" mask="url(#mask-2)" points="10.3392982 4.14444444 12.4042105 4.14444444 12.4042105 2.07953216 10.3392982 2.07953216"></polygon>
                        <path d="M6.20942105,21.180193 C6.12322222,21.180193 6.03702339,21.1584971 5.95907018,21.1156316 C5.79491813,21.024345 5.69322222,20.8518889 5.69322222,20.6639942 L5.69322222,15.5015965 C5.69322222,15.3137602 5.79491813,15.1412456 5.95907018,15.0499591 C6.12322222,14.9585556 6.32404094,14.9637602 6.48304678,15.0632924 L10.6129298,17.6445205 C10.7636901,17.7394912 10.8555614,17.9046374 10.8555614,18.0828246 C10.8555614,18.2609532 10.7636901,18.4260409 10.6129298,18.5206023 L6.48304678,21.1017719 C6.39942105,21.1538772 6.30439181,21.180193 6.20942105,21.180193" id="Fill-16" fill="#F9BE39" mask="url(#mask-2)"></path>
                        <path d="M6.20942105,21.180193 C6.12322222,21.180193 6.03702339,21.1584971 5.95907018,21.1156316 C5.79491813,21.024345 5.69322222,20.8518889 5.69322222,20.6639942 L5.69322222,15.5015965 C5.69322222,15.3137602 5.79491813,15.1412456 5.95907018,15.0499591 C6.12322222,14.9585556 6.32404094,14.9637602 6.48304678,15.0632924 L10.6129298,17.6445205 C10.7636901,17.7394912 10.8555614,17.9046374 10.8555614,18.0828246 C10.8555614,18.2609532 10.7636901,18.4260409 10.6129298,18.5206023 L6.48304678,21.1017719 C6.39942105,21.1538772 6.30439181,21.180193 6.20942105,21.180193 Z" id="Stroke-17" stroke="#4A4B4E" stroke-width="0.5" mask="url(#mask-2)"></path>
                        <path d="M27.3749591,17.5665673 L17.566538,17.5665673 C17.2815673,17.5665673 17.0502807,17.3352807 17.0502807,17.0503099 C17.0502807,16.7653392 17.2815673,16.5340526 17.566538,16.5340526 L27.3749591,16.5340526 C27.6599298,16.5340526 27.8912164,16.7653392 27.8912164,17.0503099 C27.8912164,17.3352807 27.6599298,17.5665673 27.3749591,17.5665673" id="Fill-19" fill="#F8F8F8" mask="url(#mask-2)"></path>
                        <path d="M26.3425146,15.5016257 L18.5990058,15.5016257 C18.3140351,15.5016257 18.0827485,15.2703392 18.0827485,14.9853684 C18.0827485,14.7003977 18.3140351,14.4691696 18.5990058,14.4691696 L26.3425146,14.4691696 C26.6274854,14.4691696 26.8587719,14.7003977 26.8587719,14.9853684 C26.8587719,15.2703392 26.6274854,15.5016257 26.3425146,15.5016257" id="Fill-20" fill="#F8F8F8" mask="url(#mask-2)"></path>
                        <path d="M27.3749591,21.6964561 L17.566538,21.6964561 C17.2815673,21.6964561 17.0502807,21.4651696 17.0502807,21.1801988 L17.0502807,19.1152281 C17.0502807,18.8302573 17.2815673,18.5989708 17.566538,18.5989708 L27.3749591,18.5989708 C27.6599298,18.5989708 27.8912164,18.8302573 27.8912164,19.1152281 L27.8912164,21.1801988 C27.8912164,21.4651696 27.6599298,21.6964561 27.3749591,21.6964561" id="Fill-21" fill="#F9BE39" mask="url(#mask-2)"></path>
                        <path d="M27.3749591,21.6964561 L17.566538,21.6964561 C17.2815673,21.6964561 17.0502807,21.4651696 17.0502807,21.1801988 L17.0502807,19.1152281 C17.0502807,18.8302573 17.2815673,18.5989708 17.566538,18.5989708 L27.3749591,18.5989708 C27.6599298,18.5989708 27.8912164,18.8302573 27.8912164,19.1152281 L27.8912164,21.1801988 C27.8912164,21.4651696 27.6599298,21.6964561 27.3749591,21.6964561 Z" id="Stroke-22" stroke="#4A4B4E" stroke-width="0.5" mask="url(#mask-2)"></path>
                        <path d="M27.3749591,27.8912339 L17.566538,27.8912339 C17.2815673,27.8912339 17.0502807,27.6599474 17.0502807,27.3749766 L17.0502807,25.3100643 C17.0502807,25.0250936 17.2815673,24.793807 17.566538,24.793807 L27.3749591,24.793807 C27.6599298,24.793807 27.8912164,25.0250936 27.8912164,25.3100643 L27.8912164,27.3749766 C27.8912164,27.6599474 27.6599298,27.8912339 27.3749591,27.8912339" id="Fill-23" fill="#F9BE39" mask="url(#mask-2)"></path>
                        <path d="M27.3749591,27.8912339 L17.566538,27.8912339 C17.2815673,27.8912339 17.0502807,27.6599474 17.0502807,27.3749766 L17.0502807,25.3100643 C17.0502807,25.0250936 17.2815673,24.793807 17.566538,24.793807 L27.3749591,24.793807 C27.6599298,24.793807 27.8912164,25.0250936 27.8912164,25.3100643 L27.8912164,27.3749766 C27.8912164,27.6599474 27.6599298,27.8912339 27.3749591,27.8912339 Z" id="Stroke-24" stroke="#4A4B4E" stroke-width="0.5" mask="url(#mask-2)"></path>
                        <path d="M27.7399415,11.006807 L25.1587719,8.42563743 C24.9574269,8.22376608 24.6301754,8.22376608 24.4288304,8.42563743 L22.2126316,10.6418363 L21.0288889,9.45809357 C20.8275439,9.25616374 20.5002924,9.25616374 20.2989474,9.45809357 L17.7177778,12.0392047 C17.5159064,12.241076 17.5159064,12.5673918 17.7177778,12.7692047 C17.8184211,12.8697895 17.9505848,12.9204327 18.0827485,12.9204327 C18.2149123,12.9204327 18.347076,12.8697895 18.4477193,12.7692047 L20.6639181,10.5529474 L22.880117,12.7692047 C22.9807602,12.8697895 23.112924,12.9204327 23.2450877,12.9204327 C23.3772515,12.9204327 23.5094152,12.8697895 23.6100585,12.7692047 C23.8119298,12.5673333 23.8119298,12.2410175 23.6100585,12.0392047 L22.9425731,11.3717193 L24.7938012,9.52049123 L27.01,11.7366901 C27.1106433,11.8373333 27.242807,11.8879181 27.3749708,11.8879181 C27.5071345,11.8879181 27.6392982,11.8373333 27.7399415,11.7366901 C27.9418129,11.5348187 27.9418129,11.2085614 27.7399415,11.006807" id="Fill-25" fill="#F9BE39" mask="url(#mask-2)"></path>
                    </g>
                </g>
            </g>
        </g>
    </g>
</svg>