<?xml version="1.0" encoding="UTF-8"?>
<svg width="35px" height="40px" viewBox="0 0 35 40" version="1.1" xmlns="http://www.w3.org/2000/svg" xmlns:xlink="http://www.w3.org/1999/xlink">
    <!-- Generator: Sketch 53 (72520) - https://sketchapp.com -->
    <title>Group 13</title>
    <desc>Created with Sketch.</desc>
    <g id="Page-1" stroke="none" stroke-width="1" fill="none" fill-rule="evenodd">
        <g id="Technology---front-end" transform="translate(-953.000000, -610.000000)">
            <g id="tech" transform="translate(100.000000, 145.000000)">
                <g id="Group-17" transform="translate(640.000000, 465.000000)">
                    <g id="Group-12" transform="translate(213.000000, 0.000000)">
                        <g id="Group-13">
                            <polygon id="Fill-1" fill="#3F403F" points="0 0.000184615385 2.91175439 35.5977231 17.4692982 39.6826462 31.639386 35.5977231 34.7439474 0.000184615385"></polygon>
                            <polyline id="Fill-2" fill="#3F403F" points="17.479 3.44473846 17.479 36.2367385 29.1831228 32.8619692 31.7491754 3.44473846"></polyline>
                            <polyline id="Fill-3" fill="#3F403F" points="22.710886 20.4243077 17.478693 20.4243077 17.478693 27.1356923 22.1287807 26.2606154"></polyline>
                            <polyline id="Fill-4" fill="#3F403F" points="6.21170175 7.58652308 6.79380702 11.8726769 17.275386 11.8665231 6.98784211 16.3403692 7.57117544 20.4240615 17.4792456 20.4240615 17.4792456 7.58652308"></polyline>
                            <polyline id="Fill-5" fill="#3F403F" points="12.4234035 26.0685538 12.0353333 22.7608615 7.76533333 22.7608615 8.34682456 29.5694769 17.4695439 32.0974769 17.4787544 32.0937846 17.4787544 27.1368615"></polyline>
                            <polyline id="Fill-6" fill="#3F403F" points="27.3701228 15.9771692 18.0208246 15.9771692 28.1695965 11.8159385 28.1695965 7.5864 17.4792456 7.5864 17.4792456 20.4257846 22.7108246 20.4257846 22.1274912 26.2608615 17.4792456 27.1359385 17.4792456 32.0934769 26.2046842 29.3740923"></polyline>
                            <polygon id="Fill-7" fill="#0073AE" points="0 0.000184615385 2.91175439 35.5977231 17.4692982 39.6826462 31.639386 35.5977231 34.7439474 0.000184615385"></polygon>
                            <polyline id="Fill-8" fill="#0083BD" points="17.479 3.44473846 17.479 36.2367385 29.1831228 32.8619692 31.7491754 3.44473846"></polyline>
                            <polyline id="Fill-9" fill="#0081AE" points="22.710886 20.4254769 17.478693 20.4254769 17.478693 27.1356308 22.1287807 26.2605538"></polyline>
                            <polyline id="Fill-10" fill="#E9E9E8" points="6.21170175 7.58652308 6.79380702 11.8726769 17.275386 11.8665231 6.98784211 16.3403692 7.57117544 20.4252923 17.4792456 20.4252923 17.4792456 7.58652308"></polyline>
                            <polyline id="Fill-11" fill="#E9E9E8" points="12.4234035 26.0685538 12.0353333 22.7608615 7.76533333 22.7608615 8.34682456 29.5694769 17.4695439 32.0974769 17.4787544 32.0937846 17.4787544 27.1368615"></polyline>
                            <polyline id="Fill-12" fill="#FFFFFE" points="27.3701228 15.9771692 18.0208246 15.9771692 28.1695965 11.8159385 28.1695965 7.5864 17.4792456 7.5864 17.4792456 20.4257846 22.7108246 20.4257846 22.1274912 26.2608615 17.4792456 27.1359385 17.4792456 32.0934769 26.2046842 29.3740923"></polyline>
                        </g>
                    </g>
                </g>
            </g>
        </g>
    </g>
</svg>