<?xml version="1.0" encoding="UTF-8"?>
<svg width="35px" height="40px" viewBox="0 0 35 40" version="1.1" xmlns="http://www.w3.org/2000/svg" xmlns:xlink="http://www.w3.org/1999/xlink">
    <!-- Generator: Sketch 53 (72520) - https://sketchapp.com -->
    <title>Group 7</title>
    <desc>Created with Sketch.</desc>
    <g id="Page-1" stroke="none" stroke-width="1" fill="none" fill-rule="evenodd">
        <g id="Technology---front-end" transform="translate(-743.000000, -610.000000)">
            <g id="tech" transform="translate(100.000000, 145.000000)">
                <g id="Group-17" transform="translate(640.000000, 465.000000)">
                    <g id="Group-11" transform="translate(3.000000, 0.000000)">
                        <g id="Group-7">
                            <polygon id="Fill-1" fill="#E44D26" points="0 0.0810872211 3.18209677 35.9895659 17.4616935 39.9778824 31.7805645 35.9839675 34.966129 0.0810872211"></polygon>
                            <polygon id="Fill-2" fill="#F16529" points="17.4830645 36.9251116 29.0534677 33.6978499 31.7757258 3.01711968 17.4830645 3.01711968"></polygon>
                            <polygon id="Fill-3" fill="#EBEBEB" points="17.4830645 16.3351318 11.6906452 16.3351318 11.2905645 11.825355 17.4830645 11.825355 17.4830645 7.42121704 17.4679032 7.42121704 6.5066129 7.42121704 6.61137097 8.60279919 7.68725806 20.7390264 17.4830645 20.7390264"></polygon>
                            <polygon id="Fill-4" fill="#EBEBEB" points="17.4830645 27.7728357 17.463871 27.7779473 12.5887903 26.4535659 12.2770161 22.9411927 9.90814516 22.9411927 7.88282258 22.9411927 8.49612903 29.8561623 17.4629032 32.360503 17.4830645 32.3549047"></polygon>
                            <polygon id="Fill-5" fill="#FFFFFF" points="17.4678629 16.3351318 17.4678629 20.7390264 22.8581855 20.7390264 22.3500403 26.4508316 17.4678629 27.7765923 17.4678629 32.3583367 26.4417339 29.8561055 26.507621 29.1121704 27.5363306 17.5176876 27.6431048 16.3351318 26.4635081 16.3351318"></polygon>
                            <polygon id="Fill-6" fill="#FFFFFF" points="17.4678629 7.42123327 17.4678629 10.1564868 17.4678629 11.814499 17.4678629 11.8252901 28.027379 11.8252901 28.0413306 11.8252901 28.1291532 10.835432 28.3286694 8.60281542 28.4333468 7.42123327"></polygon>
                        </g>
                    </g>
                </g>
            </g>
        </g>
    </g>
</svg>