<?xml version="1.0" encoding="UTF-8"?>
<svg width="35px" height="40px" viewBox="0 0 35 40" version="1.1" xmlns="http://www.w3.org/2000/svg" xmlns:xlink="http://www.w3.org/1999/xlink">
    <!-- Generator: Sketch 53 (72520) - https://sketchapp.com -->
    <title>Group 8</title>
    <desc>Created with Sketch.</desc>
    <g id="Page-1" stroke="none" stroke-width="1" fill="none" fill-rule="evenodd">
        <g id="Technology---front-end" transform="translate(-1163.000000, -610.000000)">
            <g id="tech" transform="translate(100.000000, 145.000000)">
                <g id="Group-17" transform="translate(640.000000, 465.000000)">
                    <g id="Group-14" transform="translate(423.000000, 0.000000)">
                        <g id="Group-8">
                            <path d="M1.59163256e-06,0.0159680128 L3.24877831,35.953561 L17.4724504,39.9862519 L31.7780598,35.9261319 L34.99954,0.0296745302 L0.0367205548,0.0159680128 L1.59163256e-06,0.0159680128 Z M17.5270593,3.21193762 L31.8599493,3.21193762 L29.1435259,33.9920736 L17.6362772,37.1606301 L17.5270593,3.21193762 Z M12.7085032,7.72470852 L16.1893399,7.72470852 L16.1893399,31.2899064 L5.92426489,28.5054202 L5.91059277,24.2944006 L12.6675346,26.1461719 L12.7085032,7.72470852 Z" id="Fill-1" fill="#D4B830"></path>
                            <g id="Group-6" transform="translate(5.904957, 7.727149)" fill="#EBEBEB">
                                <path d="M9.13774079,23.2198305 C8.68727694,23.0826693 6.46227012,22.4791188 4.1963106,21.8618936 L0.0875588904,20.7508341 L0.0875588904,18.6796146 C0.0875588904,16.6495626 0.0875588904,16.608411 0.292306503,16.6769916 C0.401508413,16.7181271 1.90305457,17.1296425 3.62300455,17.6097225 L6.74893906,18.4738729 L6.77623556,9.28372491 L6.80353206,0.0935769692 L10.2161196,0.0935769692 L10.2161196,11.7801503 C10.2161196,21.0663239 10.1888231,23.4667397 10.0932774,23.4667397 C10.0250282,23.4530012 9.58820464,23.3432851 9.13774079,23.2198305" id="Fill-2"></path>
                                <path d="M0.0193033197,20.7782759 L0.00564711232,16.5672563 C0.00564711232,16.5672563 4.31916235,17.788032 6.76257299,18.4189956 L6.80354161,0.0112706917 L10.2843784,0.0112706917 L10.2843784,23.5627461 L0.0193033197,20.7782759 Z" id="Fill-4"></path>
                            </g>
                            <path d="M28.4064043,28.8209084 L29.3482847,17.3126477 L22.3865953,18.094495 L22.3865953,11.949433 L29.8124047,11.922004 L30.112698,7.72470692 L18.9057585,7.77958097 L19.0558972,23.0599168 L25.8264952,21.8940152 L25.7309336,25.2957265 L18.9057585,27.1200368 L18.9740077,31.2898888 L28.4064043,28.8208924 L28.4064043,28.8209084 Z M17.5270705,3.19822951 L31.8599445,3.19822951 L29.1435371,33.9783655 L17.5270705,37.146906 L17.5270705,3.19822951 Z" id="Fill-7" fill="#FDD83C"></path>
                        </g>
                    </g>
                </g>
            </g>
        </g>
    </g>
</svg>