<svg id="_4_copy_3" data-name="4 copy 3" xmlns="http://www.w3.org/2000/svg" xmlns:xlink="http://www.w3.org/1999/xlink" width="80" height="80" viewBox="0 0 80 80">
  <defs>
    <clipPath id="clip-path">
      <path id="Clip_2" data-name="Clip 2" d="M0,0H33.966V15.162H0Z" transform="translate(0 0)" fill="none"/>
    </clipPath>
    <clipPath id="clip-path-2">
      <path id="Clip_7" data-name="Clip 7" d="M0,0H22.172V12.462H0Z" transform="translate(0.02 0.104)" fill="none"/>
    </clipPath>
  </defs>
  <g id="Group_11" data-name="Group 11" transform="translate(23 20)">
    <g id="Group_3" data-name="Group 3" transform="translate(0 13.044)">
      <path id="Clip_2-2" data-name="Clip 2" d="M0,0H33.966V15.162H0Z" transform="translate(0 0)" fill="none"/>
      <g id="Group_3-2" data-name="Group 3" clip-path="url(#clip-path)">
        <path id="Fill_1" data-name="Fill 1" d="M31.48,15.161A2.446,2.446,0,0,1,28.994,12.7V2.459A2.432,2.432,0,0,1,29.718.716a2.526,2.526,0,0,1,3.524,0,2.432,2.432,0,0,1,.724,1.743V12.7A2.446,2.446,0,0,1,31.48,15.161Zm-28.994,0A2.446,2.446,0,0,1,0,12.7V2.459A2.432,2.432,0,0,1,.724.716,2.486,2.486,0,0,1,2.486,0,2.486,2.486,0,0,1,4.248.716a2.432,2.432,0,0,1,.724,1.743V12.7A2.446,2.446,0,0,1,2.486,15.161Z" transform="translate(0 0)" fill="#3e403d"/>
      </g>
    </g>
    <path id="Fill_4" data-name="Fill 4" d="M10.77,15.161A2.447,2.447,0,0,1,8.284,12.7V2.459A2.432,2.432,0,0,1,9.008.716a2.527,2.527,0,0,1,3.525,0,2.432,2.432,0,0,1,.724,1.743V12.7A2.446,2.446,0,0,1,10.77,15.161Zm-8.284,0A2.446,2.446,0,0,1,0,12.7V2.459A2.432,2.432,0,0,1,.724.716,2.486,2.486,0,0,1,2.486,0,2.486,2.486,0,0,1,4.248.716a2.432,2.432,0,0,1,.724,1.743V12.7A2.446,2.446,0,0,1,2.486,15.161Z" transform="translate(10.355 24.734)" fill="#3e403d"/>
    <g id="Group_8" data-name="Group 8" transform="translate(5.877 0.034)">
      <path id="Clip_7-2" data-name="Clip 7" d="M0,0H22.172V12.462H0Z" transform="translate(0.02 0.104)" fill="none"/>
      <g id="Group_8-2" data-name="Group 8" clip-path="url(#clip-path-2)">
        <path id="Fill_6" data-name="Fill 6" d="M22.172,12.461H0A9.453,9.453,0,0,1,1.563,7.288,10.75,10.75,0,0,1,5.649,3.65L3.9.519A.345.345,0,0,1,3.863.254.366.366,0,0,1,4.2,0a.354.354,0,0,1,.312.181L6.289,3.344a12.066,12.066,0,0,1,9.594,0L17.657.181a.352.352,0,0,1,.48-.136.349.349,0,0,1,.172.209.345.345,0,0,1-.036.265L16.522,3.65a10.75,10.75,0,0,1,4.087,3.638,9.458,9.458,0,0,1,1.564,5.173ZM16.2,6.617a.915.915,0,1,0,0,1.831.915.915,0,1,0,0-1.831Zm-10.233,0a.915.915,0,1,0,.924.915A.921.921,0,0,0,5.97,6.617Z" transform="translate(0.02 0.104)" fill="#3e403d"/>
      </g>
    </g>
    <path id="Fill_9" data-name="Fill 9" d="M0,15.9a2.66,2.66,0,0,0,2.68,2.651H19.492a2.66,2.66,0,0,0,2.68-2.651V0H0Z" transform="translate(5.897 13.466)" fill="#3e403d"/>
  </g>
  <g id="Rectangle_Copy_7" data-name="Rectangle Copy 7" fill="none" stroke="#3e403d" stroke-miterlimit="10" stroke-width="1">
    <rect width="80" height="80" rx="10" stroke="none"/>
    <rect x="0.5" y="0.5" width="79" height="79" rx="9.5" fill="none"/>
  </g>
</svg>
