<svg id="_4_copy_2" data-name="4 copy 2" xmlns="http://www.w3.org/2000/svg" xmlns:xlink="http://www.w3.org/1999/xlink" width="80" height="80" viewBox="0 0 80 80">
  <defs>
    <clipPath id="clip-path">
      <path id="Clip_2" data-name="Clip 2" d="M0,0H32.928V30.067H0Z" transform="translate(0 0.07)" fill="none"/>
    </clipPath>
    <clipPath id="clip-path-2">
      <path id="Clip_5" data-name="Clip 5" d="M0,0H8.2V9.145H0Z" transform="translate(0.141 0.111)" fill="none"/>
    </clipPath>
  </defs>
  <g id="Rectangle_Copy_7" data-name="Rectangle Copy 7" fill="none" stroke="#3e403d" stroke-miterlimit="10" stroke-width="1">
    <rect width="80" height="80" rx="10" stroke="none"/>
    <rect x="0.5" y="0.5" width="79" height="79" rx="9.5" fill="none"/>
  </g>
  <g id="Group_7" data-name="Group 7" transform="translate(24 20)">
    <g id="Group_3" data-name="Group 3" transform="translate(0 9.752)">
      <path id="Clip_2-2" data-name="Clip 2" d="M0,0H32.928V30.067H0Z" transform="translate(0 0.07)" fill="none"/>
      <g id="Group_3-2" data-name="Group 3" clip-path="url(#clip-path)">
        <path id="Fill_1" data-name="Fill 1" d="M27.5,11.5a8.946,8.946,0,0,1,4.369-7.54A9.526,9.526,0,0,0,24.474.031c-3.15-.312-6.146,1.817-7.742,1.817S12.669.079,10.059.127A9.928,9.928,0,0,0,1.692,5.091C-1.873,11.155.781,20.135,4.256,25.053c1.7,2.4,3.723,5.11,6.384,5.012,2.562-.1,3.53-1.621,6.624-1.621s3.967,1.621,6.675,1.571c2.756-.047,4.5-2.451,6.189-4.864a21.68,21.68,0,0,0,2.8-5.635A8.784,8.784,0,0,1,27.5,11.5" transform="translate(0 0.07)" fill="#3e403d"/>
      </g>
    </g>
    <g id="Group_6" data-name="Group 6" transform="translate(16.22 0.163)">
      <path id="Clip_5-2" data-name="Clip 5" d="M0,0H8.2V9.145H0Z" transform="translate(0.141 0.111)" fill="none"/>
      <g id="Group_6-2" data-name="Group 6" clip-path="url(#clip-path-2)">
        <path id="Fill_4" data-name="Fill 4" d="M6.049,6.326A8.6,8.6,0,0,0,8.152,0,9.14,9.14,0,0,0,2.2,3,8.187,8.187,0,0,0,.051,9.13a7.566,7.566,0,0,0,6-2.8" transform="translate(0.141 0.111)" fill="#3e403d"/>
      </g>
    </g>
  </g>
</svg>
