<svg id="_4_copy" data-name="4 copy" xmlns="http://www.w3.org/2000/svg" xmlns:xlink="http://www.w3.org/1999/xlink" width="80" height="80" viewBox="0 0 80 80">
  <defs>
    <clipPath id="clip-path">
      <path id="Clip_2" data-name="Clip 2" d="M0,0H38.426V38.653H0Z" transform="translate(0 0.578)" fill="none"/>
    </clipPath>
    <clipPath id="clip-path-2">
      <path id="Clip_13" data-name="Clip 13" d="M0,38.653H38.426V0H0Z" transform="translate(0 0.77)" fill="none"/>
    </clipPath>
  </defs>
  <g id="Group_16" data-name="Group 16" transform="translate(21 20)">
    <g id="Group_3" data-name="Group 3" transform="translate(0 0.192)">
      <path id="Clip_2-2" data-name="Clip 2" d="M0,0H38.426V38.653H0Z" transform="translate(0 0.578)" fill="none"/>
      <g id="Group_3-2" data-name="Group 3" clip-path="url(#clip-path)">
        <path id="Fill_1" data-name="Fill 1" d="M19.317,38.653h-.156a18.352,18.352,0,0,1-7.338-1.534A19.54,19.54,0,0,1,5.74,32.961a19.768,19.768,0,0,1-4.163-6.118A19.073,19.073,0,0,1,5.532,5.837,19.2,19.2,0,0,1,19.211,0h.017A18.929,18.929,0,0,1,32.689,5.63a19.173,19.173,0,0,1,5.738,13.516A19.43,19.43,0,0,1,26.789,37.062,19.092,19.092,0,0,1,19.317,38.653ZM19.251,1.012h-.03A18.2,18.2,0,0,0,6.262,6.551,18.006,18.006,0,0,0,2.5,26.445a18.723,18.723,0,0,0,3.944,5.8,18.509,18.509,0,0,0,5.763,3.939,17.381,17.381,0,0,0,6.949,1.453h.13a18.134,18.134,0,0,0,12.859-5.476,18.345,18.345,0,0,0,5.276-13,18.168,18.168,0,0,0-5.44-12.8A17.872,17.872,0,0,0,19.251,1.012Z" transform="translate(0 0.577)" fill="#3e403d"/>
      </g>
    </g>
    <path id="Fill_4" data-name="Fill 4" d="M0,11.291V0H2.731V1.012H1.282V10.3H2.731v1.012Z" transform="translate(4.31 14.458)" fill="#3e403d"/>
    <path id="Fill_6" data-name="Fill 6" d="M2.806,6.344A2.85,2.85,0,0,1,0,3.217,2.936,2.936,0,0,1,2.9,0,2.884,2.884,0,0,1,5.733,3.11C5.733,5.075,4.584,6.344,2.806,6.344ZM1.175,3.206h0c0,1.338.683,2.237,1.695,2.237s1.684-.919,1.684-2.287c0-1.084-.527-2.251-1.684-2.251-1.178,0-1.7,1.166-1.7,2.322Z" transform="translate(7.845 16.881)" fill="#3e403d"/>
    <path id="Fill_8" data-name="Fill 8" d="M1.316,6.236A10.425,10.425,0,0,1,.01,6.154L0,.15A9.326,9.326,0,0,1,1.589.013H1.62C1.712,0,1.806,0,1.9,0A2.888,2.888,0,0,1,3.37.4,1.3,1.3,0,0,1,4,1.552,1.421,1.421,0,0,1,3,2.882,1.552,1.552,0,0,1,4.23,4.4a1.59,1.59,0,0,1-.589,1.265,3.356,3.356,0,0,1-2.263.571ZM1.106,3.4v2c.166.017.34.026.516.026H1.7c.405,0,1.347-.1,1.347-1.012,0-.653-.491-1.012-1.382-1.012ZM1.633.847A3.062,3.062,0,0,0,1.1.894l0,1.68h.569c.741,0,1.2-.339,1.2-.886,0-.518-.437-.84-1.141-.84Z" transform="translate(14.524 16.943)" fill="#3e403d"/>
    <path id="Fill_10" data-name="Fill 10" d="M1.841,0H2.952V3.991c0,1.7-.814,2.262-2.012,2.262A2.965,2.965,0,0,1,0,6.091l.136-.9A2.409,2.409,0,0,0,.824,5.3c.634,0,1.006-.294,1.006-1.356Z" transform="translate(19.11 17.013)" fill="#3e403d"/>
    <path id="Clip_13-2" data-name="Clip 13" d="M0,38.653H38.426V0H0Z" transform="translate(0 0.77)" fill="none"/>
    <g clip-path="url(#clip-path-2)">
      <path id="Fill_12" data-name="Fill 12" d="M0,.774H2.313V0H0Z" transform="translate(22.912 20.336)" fill="#3e403d"/>
      <path id="Fill_14" data-name="Fill 14" d="M4.691,6.061a3.824,3.824,0,0,1-1.575.273A2.885,2.885,0,0,1,0,3.249,3.079,3.079,0,0,1,2.906,0a3.267,3.267,0,0,1,.358,0A3.518,3.518,0,0,1,4.772.279l-.246.891a2.946,2.946,0,0,0-1.2-.238A2.039,2.039,0,0,0,1.191,3.193,2.014,2.014,0,0,0,3.319,5.409a3.089,3.089,0,0,0,1.212-.228Z" transform="translate(25.935 16.905)" fill="#3e403d"/>
      <path id="Fill_15" data-name="Fill 15" d="M2.731,0V11.322H0V10.309H1.448v-9.3H0V0Z" transform="translate(31.386 14.428)" fill="#3e403d"/>
    </g>
  </g>
  <g id="Rectangle_Copy_7" data-name="Rectangle Copy 7" fill="none" stroke="#3e403d" stroke-miterlimit="10" stroke-width="1">
    <rect width="80" height="80" rx="10" stroke="none"/>
    <rect x="0.5" y="0.5" width="79" height="79" rx="9.5" fill="none"/>
  </g>
</svg>
