<svg id="_3" data-name="3" xmlns="http://www.w3.org/2000/svg" xmlns:xlink="http://www.w3.org/1999/xlink" width="80" height="80" viewBox="0 0 80 80">
  <defs>
    <clipPath id="clip-path">
      <path id="Clip_6" data-name="Clip 6" d="M0,0H55.715V29.524H0Z" transform="translate(0 0.15)" fill="none"/>
    </clipPath>
  </defs>
  <g id="Rectangle" fill="none" stroke="#3e403d" stroke-miterlimit="10" stroke-width="1">
    <rect width="80" height="80" rx="10" stroke="none"/>
    <rect x="0.5" y="0.5" width="79" height="79" rx="9.5" fill="none"/>
  </g>
  <g id="Group_8" data-name="Group 8" transform="translate(12 25)">
    <path id="Fill_1" data-name="Fill 1" d="M3.387,0H1.195L0,6.191H1.946a4.671,4.671,0,0,0,2.882-.734A3.906,3.906,0,0,0,6.106,3.006,2.7,2.7,0,0,0,5.817.678,3.257,3.257,0,0,0,3.387,0" transform="translate(12.887 10.896)" fill="#3e403d"/>
    <path id="Fill_3" data-name="Fill 3" d="M3.387,0H1.195L0,6.191H1.946a4.671,4.671,0,0,0,2.882-.734A3.9,3.9,0,0,0,6.106,3.006,2.7,2.7,0,0,0,5.817.678,3.257,3.257,0,0,0,3.387,0" transform="translate(37.856 10.896)" fill="#3e403d"/>
    <g id="Group_7" data-name="Group 7" transform="translate(0 0.177)">
      <path id="Clip_6-2" data-name="Clip 6" d="M0,0H55.715V29.524H0Z" transform="translate(0 0.15)" fill="none"/>
      <g id="Group_7-2" data-name="Group 7" clip-path="url(#clip-path)">
        <path id="Fill_5" data-name="Fill 5" d="M27.858,29.524c-7.441,0-14.437-1.536-19.7-4.324a18.774,18.774,0,0,1-5.97-4.692A9.133,9.133,0,0,1,0,14.762,9.131,9.131,0,0,1,2.189,9.016a18.775,18.775,0,0,1,5.97-4.692C13.421,1.536,20.417,0,27.858,0s14.436,1.536,19.7,4.324a18.774,18.774,0,0,1,5.97,4.692,9.131,9.131,0,0,1,2.189,5.746,9.133,9.133,0,0,1-2.189,5.746,18.774,18.774,0,0,1-5.97,4.692C42.294,27.989,35.3,29.524,27.858,29.524ZM36.3,8.235,33.449,23.029h3.2l.759-3.934h2.741a9.812,9.812,0,0,0,2.984-.383,5.675,5.675,0,0,0,2.129-1.287A6.447,6.447,0,0,0,47.269,13.8,4.654,4.654,0,0,0,46.5,9.7a5.109,5.109,0,0,0-4.049-1.468H36.3Zm-24.97,0L8.479,23.029h3.2l.759-3.934h2.741a9.8,9.8,0,0,0,2.984-.383,5.671,5.671,0,0,0,2.129-1.287A6.433,6.433,0,0,0,22.3,13.8a4.651,4.651,0,0,0-.766-4.1,5.109,5.109,0,0,0-4.049-1.468H11.333ZM26.6,10.62H29.14a2.231,2.231,0,0,1,1.592.406,1.8,1.8,0,0,1,.158,1.524L29.629,19.1h3.224l1.328-6.884a3.131,3.131,0,0,0-.608-3.038c-.672-.622-1.91-.938-3.681-.938H27.064L27.823,4.3H24.649L21.794,19.1h3.174L26.6,10.621Z" transform="translate(0 0.15)" fill="#3e403d"/>
      </g>
    </g>
  </g>
</svg>
