<svg id="_1" data-name="1" xmlns="http://www.w3.org/2000/svg" xmlns:xlink="http://www.w3.org/1999/xlink" width="80" height="80" viewBox="0 0 80 80">
  <defs>
    <clipPath id="clip-path">
      <path id="Clip_5" data-name="Clip 5" d="M0,0H54.411V33.722H0Z" transform="translate(0 0.066)" fill="none"/>
    </clipPath>
  </defs>
  <g id="Group_7" data-name="Group 7" transform="translate(13 23)">
    <g id="Group_6" data-name="Group 6" transform="translate(0 0.122)">
      <path id="Clip_5-2" data-name="Clip 5" d="M0,0H54.411V33.722H0Z" transform="translate(0 0.066)" fill="none"/>
      <g id="Group_6-2" data-name="Group 6" clip-path="url(#clip-path)">
        <path id="Fill_4" data-name="Fill 4" d="M20.633,33.723H1.679a.029.029,0,0,1,0-.012,31.04,31.04,0,0,1,.99-4.634A46.934,46.934,0,0,1,7.438,18.072,37.925,37.925,0,0,1,17.013,7.364c3.729-2.8,7.648-4.515,11.033-4.821a21.866,21.866,0,0,1,2.191-.11A26.882,26.882,0,0,1,39.493,4.2a40.282,40.282,0,0,1,7.7,3.877,46.345,46.345,0,0,1,7.218,5.639c-.008.005-.416.3-.84.653-5.642-4.212-11.038-6.348-16.04-6.348a17.411,17.411,0,0,0-8.222,2.1l-.3.151a16.07,16.07,0,0,0-6.369,6.516,21.748,21.748,0,0,0-2.316,7.745,30.979,30.979,0,0,0,.312,9.19Zm3.886-.751h0L21.64,31.93a24.819,24.819,0,0,1-.288-3.053l2.591.945a31.928,31.928,0,0,0,.576,3.147ZM2.759,24.952h0L0,23.935c.229-.622.722-1.817,1.2-2.907l2.758,1.017c-.4.924-.889,2.088-1.2,2.906Zm20.9-.679h0l-1.942-1.549a23.082,23.082,0,0,1,.72-2.665l1.727,1.381a19.738,19.738,0,0,0-.5,2.832Zm2.687-7.607h0L25.19,14.923A13.273,13.273,0,0,1,26.678,13.3l1.08,1.647a13.133,13.133,0,0,0-1.415,1.719ZM9.572,13.13h0l-1.846-1.6c.5-.55,1.081-1.144,1.775-1.817l1.7,1.5a24.505,24.505,0,0,0-1.631,1.913Zm22.144-1.066h0l-.551-1.67a17.291,17.291,0,0,1,2.111-.776l.527,1.6a14.937,14.937,0,0,0-2.086.847Zm9.453-1.211h0a13.366,13.366,0,0,0-2.374-.29l.1-1.526a16.791,16.791,0,0,1,2.375.315l-.1,1.5ZM18.425,5.088h0l-1.1-1.695c.563-.337,1.14-.658,1.871-1.042l1.08,1.671c-.652.329-1.295.723-1.847,1.066ZM41.169,3.9h0c-.811-.333-1.572-.618-2.326-.872l.1-1.6a11.921,11.921,0,0,1,2.327.848l-.1,1.622ZM27.925,1.575h0L27.47.146A19,19,0,0,1,29.773,0l.48,1.478h-.24a20,20,0,0,0-2.086.1Z" transform="translate(0 0.065)" fill="#3e403d"/>
      </g>
    </g>
  </g>
  <g id="Rectangle_Copy_4" data-name="Rectangle Copy 4" fill="none" stroke="#3e403d" stroke-miterlimit="10" stroke-width="1">
    <rect width="80" height="80" rx="10" stroke="none"/>
    <rect x="0.5" y="0.5" width="79" height="79" rx="9.5" fill="none"/>
  </g>
</svg>
