<svg id="_2" data-name="2" xmlns="http://www.w3.org/2000/svg" xmlns:xlink="http://www.w3.org/1999/xlink" width="80" height="80" viewBox="0 0 80 80">
  <defs>
    <clipPath id="clip-path">
      <path id="Clip_2" data-name="Clip 2" d="M0,0H34.257V38.664H0Z" transform="translate(0.008 0.169)" fill="none"/>
    </clipPath>
  </defs>
  <g id="Rectangle_Copy_3" data-name="Rectangle Copy 3" fill="none" stroke="#3e403d" stroke-miterlimit="10" stroke-width="1">
    <rect width="80" height="80" rx="10" stroke="none"/>
    <rect x="0.5" y="0.5" width="79" height="79" rx="9.5" fill="none"/>
  </g>
  <g id="Group_16" data-name="Group 16" transform="translate(23 21)">
    <g id="Group_3" data-name="Group 3" transform="translate(0 0)">
      <path id="Clip_2-2" data-name="Clip 2" d="M0,0H34.257V38.664H0Z" transform="translate(0.008 0.169)" fill="none"/>
      <g id="Group_3-2" data-name="Group 3" clip-path="url(#clip-path)">
        <path id="Fill_1" data-name="Fill 1" d="M17.135,38.664a2.977,2.977,0,0,1-1.484-.4l-4.724-2.8c-.706-.4-.361-.535-.129-.615a9.519,9.519,0,0,0,2.136-.975.358.358,0,0,1,.352.025l3.629,2.156a.478.478,0,0,0,.439,0L31.5,27.879a.447.447,0,0,0,.216-.383V11.147a.456.456,0,0,0-.219-.39L17.356,2.586a.435.435,0,0,0-.436,0L2.778,10.757a.452.452,0,0,0-.224.387V27.493a.437.437,0,0,0,.219.38l3.875,2.241c2.1,1.053,3.39-.188,3.39-1.436V12.541a.4.4,0,0,1,.411-.408h1.792a.406.406,0,0,1,.407.408V28.685c0,2.809-1.53,4.422-4.19,4.422A6.059,6.059,0,0,1,5.2,32.22L1.484,30.078A3,3,0,0,1,0,27.493V11.144A2.978,2.978,0,0,1,1.484,8.562L15.649.38a3.1,3.1,0,0,1,2.975,0L32.772,8.566a2.989,2.989,0,0,1,1.484,2.582V27.5a3,3,0,0,1-1.484,2.582L18.625,38.26a2.973,2.973,0,0,1-1.491.4" transform="translate(0.008 0.169)" fill="#3e403d"/>
      </g>
    </g>
  </g>
</svg>
