<svg id="_4" data-name="4" xmlns="http://www.w3.org/2000/svg" xmlns:xlink="http://www.w3.org/1999/xlink" width="80" height="80" viewBox="0 0 80 80">
  <defs>
    <clipPath id="clip-path">
      <path id="Clip_2" data-name="Clip 2" d="M0,0H45V39.917H0Z" transform="translate(0 0)" fill="none"/>
    </clipPath>
  </defs>
  <g id="Rectangle_Copy_7" data-name="Rectangle Copy 7" fill="none" stroke="#3e403d" stroke-miterlimit="10" stroke-width="1">
    <rect width="80" height="80" rx="10" stroke="none"/>
    <rect x="0.5" y="0.5" width="79" height="79" rx="9.5" fill="none"/>
  </g>
  <g id="Group_3" data-name="Group 3" transform="translate(18 20)">
    <path id="Clip_2-2" data-name="Clip 2" d="M0,0H45V39.917H0Z" transform="translate(0 0)" fill="none"/>
    <g id="Group_3-2" data-name="Group 3" clip-path="url(#clip-path)">
      <path id="Fill_1" data-name="Fill 1" d="M41.44,27.494C43.945,17.651,37.911,6.11,27.665,0c4.554,6.11,6.375,13.351,4.781,19.8a9.857,9.857,0,0,1-.569,1.7A130.654,130.654,0,0,1,9.9,3.621,127.293,127.293,0,0,0,22.769,19.688,143.43,143.43,0,0,1,4.44,5.884c.683,1.132,1.593,2.263,2.5,3.508,4.895,6.223,11.157,13.69,18.784,19.461-5.351,3.282-12.864,3.507-20.492,0A24.844,24.844,0,0,1,0,25.685a31.341,31.341,0,0,0,14,11.88c7.058,3.055,14.287,3.089,20.151-.452,2.5-1.245,7.514-2.6,10.247,2.6.569,1.471,1.935-5.318-3.188-11.54.114-.227.114-.453.228-.68Z" transform="translate(0 0)" fill="#3e403d"/>
    </g>
  </g>
</svg>
