<svg xmlns="http://www.w3.org/2000/svg" xmlns:xlink="http://www.w3.org/1999/xlink" width="34.943" height="39.758" viewBox="0 0 34.943 39.758">
  <defs>
    <clipPath id="clip-path">
      <path id="Clip_2" data-name="Clip 2" d="M0,0H34.943V39.758H0Z" transform="translate(0 0.103)" fill="none"/>
    </clipPath>
    <clipPath id="clip-path-2">
      <path id="Clip_7" data-name="Clip 7" d="M0,0H17.418V19.879H0Z" transform="translate(0.025 0.061)" fill="none"/>
    </clipPath>
    <clipPath id="clip-path-3">
      <path id="Clip_10" data-name="Clip 10" d="M0,39.758H34.943V0H0Z" transform="translate(0 0.138)" fill="none"/>
    </clipPath>
  </defs>
  <g id="Group_12" data-name="Group 12" transform="translate(0 -0.138)">
    <g id="Group_3" data-name="Group 3" transform="translate(0 0.035)">
      <path id="Clip_2-2" data-name="Clip 2" d="M0,0H34.943V39.758H0Z" transform="translate(0 0.103)" fill="none"/>
      <g id="Group_3-2" data-name="Group 3" clip-path="url(#clip-path)">
        <path id="Fill_1" data-name="Fill 1" d="M34.941,11.689a3.545,3.545,0,0,0-.427-1.766A3.357,3.357,0,0,0,33.25,8.676Q26.272,4.6,19.291.535a3.391,3.391,0,0,0-3.714.037C13.726,1.678,4.456,7.055,1.693,8.674A3.274,3.274,0,0,0,0,11.688Q0,19.879,0,28.07A3.559,3.559,0,0,0,.408,29.8a3.345,3.345,0,0,0,1.283,1.281c2.763,1.62,12.034,7,13.885,8.1a3.392,3.392,0,0,0,3.715.037q6.976-4.078,13.96-8.141A3.346,3.346,0,0,0,34.534,29.8a3.561,3.561,0,0,0,.409-1.732s0-10.919,0-16.38" transform="translate(0 0.103)" fill="#a179dc"/>
      </g>
    </g>
    <path id="Fill_4" data-name="Fill 4" d="M17.116,0,0,9.977a3.345,3.345,0,0,0,1.283,1.281c2.763,1.62,12.034,7,13.885,8.1a3.392,3.392,0,0,0,3.715.037q6.976-4.078,13.96-8.141a3.346,3.346,0,0,0,1.283-1.281L17.116,0" transform="translate(0.409 19.964)" fill="#280068"/>
    <g id="Group_8" data-name="Group 8" transform="translate(17.5 10)">
      <path id="Clip_7-2" data-name="Clip 7" d="M0,0H17.418V19.879H0Z" transform="translate(0.025 0.061)" fill="none"/>
      <g id="Group_8-2" data-name="Group 8" clip-path="url(#clip-path-2)">
        <path id="Fill_6" data-name="Fill 6" d="M17.416,1.766A3.545,3.545,0,0,0,16.989,0L0,9.9l17.009,9.976a3.564,3.564,0,0,0,.409-1.732s0-10.919,0-16.38" transform="translate(0.025 0.061)" fill="#390091"/>
      </g>
    </g>
    <path id="Clip_10-2" data-name="Clip 10" d="M0,39.758H34.943V0H0Z" transform="translate(0 0.138)" fill="none"/>
    <g clip-path="url(#clip-path-3)">
      <path id="Fill_9" data-name="Fill 9" d="M2.763,7.46H1.842V5.594H0V4.662H1.842V2.8H0V1.865H1.842V0h.921V1.865H4.605V0h.921V1.865H7.368V2.8H5.526V4.662H7.368v.932H5.526V7.458H4.605V5.594H2.763V7.459Zm0-4.663V4.662H4.605V2.8Z" transform="translate(24.839 16.234)" fill="#fff"/>
      <path id="Fill_11" data-name="Fill 11" d="M12.988,0A12.956,12.956,0,0,1,24.235,6.568l-.022-.038-5.653,3.3a6.451,6.451,0,0,0-5.5-3.224h-.074a6.508,6.508,0,0,0-6.468,6.548A6.579,6.579,0,0,0,7.374,16.4a6.427,6.427,0,0,0,11.25-.038l-.027.048,5.645,3.31A12.959,12.959,0,0,1,13.133,26.3h-.145A12.956,12.956,0,0,1,1.72,19.692,13.213,13.213,0,0,1,0,13.149,13.069,13.069,0,0,1,12.988,0" transform="translate(4.574 6.869)" fill="#fff"/>
    </g>
  </g>
</svg>
