<svg xmlns="http://www.w3.org/2000/svg" xmlns:xlink="http://www.w3.org/1999/xlink" width="34.985" height="39.555" viewBox="0 0 34.985 39.555">
  <defs>
    <clipPath id="clip-path">
      <path id="Clip_2" data-name="Clip 2" d="M0,0H34.985V39.555H0Z" transform="translate(0 0.173)" fill="none"/>
    </clipPath>
  </defs>
  <g id="Group_6" data-name="Group 6" transform="translate(0 -0.272)">
    <g id="Group_3" data-name="Group 3" transform="translate(0 0.099)">
      <path id="Clip_2-2" data-name="Clip 2" d="M0,0H34.985V39.555H0Z" transform="translate(0 0.173)" fill="none"/>
      <g id="Group_3-2" data-name="Group 3" clip-path="url(#clip-path)">
        <path id="Fill_1" data-name="Fill 1" d="M17.5,39.555a3.036,3.036,0,0,1-1.516-.406l-4.825-2.865c-.72-.4-.369-.547-.131-.629a9.726,9.726,0,0,0,2.181-1,.365.365,0,0,1,.359.026l3.707,2.206a.487.487,0,0,0,.448,0l14.452-8.367a.457.457,0,0,0,.221-.392V11.4a.466.466,0,0,0-.224-.4L17.726,2.646a.443.443,0,0,0-.445,0L2.837,11a.462.462,0,0,0-.229.4V28.126a.448.448,0,0,0,.224.388L6.79,30.807c2.149,1.078,3.462-.192,3.462-1.47V12.83a.413.413,0,0,1,.42-.417H12.5a.414.414,0,0,1,.416.417V29.345c0,2.873-1.563,4.524-4.279,4.524a6.181,6.181,0,0,1-3.332-.907L1.516,30.771A3.066,3.066,0,0,1,0,28.126V11.4A3.047,3.047,0,0,1,1.516,8.759L15.982.389a3.16,3.16,0,0,1,3.039,0L33.469,8.763A3.059,3.059,0,0,1,34.985,11.4V28.13a3.068,3.068,0,0,1-1.516,2.641l-14.448,8.37a3.029,3.029,0,0,1-1.523.407" transform="translate(0 0.173)" fill="#689f63"/>
      </g>
    </g>
    <path id="Fill_4" data-name="Fill 4" d="M7.649,16.052C1.326,16.052,0,13.141,0,10.7a.416.416,0,0,1,.418-.417H2.285a.418.418,0,0,1,.412.355c.282,1.907,1.121,2.87,4.945,2.87,3.046,0,4.341-.69,4.341-2.31,0-.933-.369-1.625-5.1-2.09C2.925,8.715.48,7.84.48,4.666.48,1.741,2.94,0,7.06,0c4.627,0,6.921,1.611,7.21,5.072a.423.423,0,0,1-.112.323.43.43,0,0,1-.308.134H11.973a.415.415,0,0,1-.405-.327C11.115,3.2,10.023,2.554,7.053,2.554c-3.325,0-3.712,1.161-3.712,2.032,0,1.056.456,1.364,4.942,1.959,4.442.592,6.551,1.426,6.551,4.557,0,3.156-2.626,4.967-7.206,4.967" transform="translate(14.315 12.25)" fill="#689f63"/>
  </g>
</svg>
