<svg id="_1" data-name="1" xmlns="http://www.w3.org/2000/svg" width="80" height="80" viewBox="0 0 80 80">
  <path id="Fill_1" data-name="Fill 1" d="M17.479,40h0L3.185,36,0,0H35L31.811,36,17.479,40ZM7.89,22.919h0L8.5,29.852l8.976,2.511.02-.005,8.968-2.506.067-.746,1.03-11.624L27.67,16.3H11.7l-.4-4.522H28.068l.088-.993.2-2.238.1-1.184H6.513l.1,1.184L7.695,20.712H22.881l-.508,5.727-4.887,1.328L12.6,26.441l-.311-3.522H7.89Z" transform="translate(23 20)" fill="#3e403d"/>
  <g id="Rectangle_Copy_4" data-name="Rectangle Copy 4" fill="none" stroke="#3e403d" stroke-miterlimit="10" stroke-width="1">
    <rect width="80" height="80" rx="10" stroke="none"/>
    <rect x="0.5" y="0.5" width="79" height="79" rx="9.5" fill="none"/>
  </g>
</svg>
