<svg xmlns="http://www.w3.org/2000/svg" width="69.999" height="79.941" viewBox="0 0 69.999 79.941">
  <g id="Group_8" data-name="Group 8" transform="translate(0 -0.032)">
    <path id="Fill_1" data-name="Fill 1" d="M34.945,79.941h0L6.5,71.875,0,0H.074L70,.027,63.556,71.82,34.945,79.941Zm.109-73.549.219,67.9,23.014-6.338L63.72,6.392ZM11.821,48.557l.027,8.422,20.53,5.569V15.418H25.417L25.335,52.26Z" transform="translate(0 0.032)" fill="#d4b830"/>
    <g id="Group_6" data-name="Group 6" transform="translate(11.81 15.454)">
      <path id="Fill_2" data-name="Fill 2" d="M18.1,46.253c-.9-.274-5.351-1.481-9.883-2.716L0,41.315V37.172c0-4.06,0-4.142.409-4.005.218.082,3.221.905,6.661,1.865l6.252,1.728.055-18.38L13.432,0h6.825V23.373c0,18.572-.055,23.373-.246,23.373-.136-.027-1.01-.247-1.911-.494" transform="translate(0.175 0.187)" fill="#ebebeb"/>
      <path id="Fill_4" data-name="Fill 4" d="M.027,41.534,0,33.112s8.627,2.442,13.514,3.7L13.6,0h6.962V47.1Z" transform="translate(0.011 0.023)" fill="#ebebeb"/>
    </g>
    <path id="Fill_7" data-name="Fill 7" d="M0,67.9V0H28.666L23.233,61.56,0,67.9ZM16.6,37.391h0l-.191,6.8L2.758,47.844l.136,8.339,18.865-4.938,1.884-23.017L9.719,29.793V17.5l14.852-.055.6-8.394-22.414.11.3,30.56L16.6,37.392Z" transform="translate(35.054 6.396)" fill="#fdd83c"/>
  </g>
</svg>
