<svg xmlns="http://www.w3.org/2000/svg" width="106.798" height="54.076" viewBox="0 0 106.798 54.076">
  <g id="Group_15" data-name="Group 15" transform="translate(-0.315 -0.36)">
    <path id="Fill_3" data-name="Fill 3" d="M53.4,54.076c29.491,0,53.4-12.106,53.4-27.038S82.89,0,53.4,0,0,12.105,0,27.038,23.908,54.076,53.4,54.076" transform="translate(0.315 0.36)" fill="#6079a7"/>
    <path id="Fill_5" data-name="Fill 5" d="M7.25,38.785H.869a.866.866,0,0,1-.852-1.032L5.71,8.484a.87.87,0,0,1,.853-.7H18.833c3.937,0,6.875,1.077,8.732,3.2a8.166,8.166,0,0,1,1.895,4.18L32.272.7a.869.869,0,0,1,.852-.7h6.332a.868.868,0,0,1,.852,1.033L39,7.782h4.586c3.809,0,6.4.682,7.932,2.083,1.578,1.448,2.075,3.741,1.478,6.816L50.341,30.3a.869.869,0,0,1-.852.7H43.058a.868.868,0,0,1-.852-1.033l2.518-12.95c.312-1.606.034-2.114-.1-2.258s-.69-.527-2.541-.527H37.739L34.614,30.3a.869.869,0,0,1-.852.7H27.43a.868.868,0,0,1-.852-1.033l1.139-5.848a14.047,14.047,0,0,1-2.7,3.347A12.171,12.171,0,0,1,20.452,30.2a20.527,20.527,0,0,1-6.222.8H9.479L8.1,38.083A.871.871,0,0,1,7.25,38.785ZM12.76,14.136,10.715,24.65h2.828c2.366,0,4.122-.428,5.219-1.273a6.932,6.932,0,0,0,2.228-4.329c.36-1.857.232-3.191-.37-3.858-.435-.481-1.517-1.054-4.2-1.054Z" transform="translate(14.19 5.834)" fill="#fffffe"/>
    <path id="Fill_7" data-name="Fill 7" d="M7.25,31H.869a.867.867,0,0,1-.852-1.032L5.71.7A.87.87,0,0,1,6.563,0H18.833c3.937,0,6.875,1.077,8.731,3.2,1.871,2.139,2.452,5.115,1.726,8.845a14.016,14.016,0,0,1-1.5,4.176,14,14,0,0,1-2.767,3.466,12.183,12.183,0,0,1-4.568,2.733,20.515,20.515,0,0,1-6.221.8H9.479L8.1,30.3A.871.871,0,0,1,7.25,31Zm5.872-24.65L11.076,16.869H13.9c2.365,0,4.121-.428,5.219-1.273a6.935,6.935,0,0,0,2.228-4.329c.361-1.855.233-3.189-.369-3.857-.435-.481-1.518-1.055-4.2-1.055Z" transform="translate(63.636 13.616)" fill="#fffffe"/>
    <path id="Fill_9" data-name="Fill 9" d="M6.381,29.27H0L5.694,0H17.965c3.675,0,6.393.977,8.077,2.9s2.2,4.654,1.527,8.108a13.205,13.205,0,0,1-1.41,3.92,13.125,13.125,0,0,1-2.6,3.249,11.308,11.308,0,0,1-4.247,2.547,19.687,19.687,0,0,1-5.953.76H7.895L6.381,29.269Zm4.8-24.651L8.793,16.869h3.882c2.562,0,4.5-.489,5.748-1.454a7.748,7.748,0,0,0,2.551-4.851c.42-2.165.226-3.714-.578-4.6s-2.435-1.341-4.847-1.341Z" transform="translate(15.058 14.484)" fill="#1a1919"/>
    <path id="Fill_11" data-name="Fill 11" d="M5.694,0h6.331L10.511,7.782h5.64q5.323,0,7.344,1.855t1.212,6.012l-2.649,13.62H15.627l2.519-12.95q.43-2.209-.316-3.014t-3.177-.8H9.593L6.331,29.269H0Z" transform="translate(41.62 6.702)" fill="#1a1919"/>
    <path id="Fill_13" data-name="Fill 13" d="M6.382,29.27H0L5.693,0H17.965c3.675,0,6.393.977,8.077,2.9s2.2,4.654,1.527,8.108a13.178,13.178,0,0,1-1.41,3.92,13.125,13.125,0,0,1-2.6,3.249,11.308,11.308,0,0,1-4.247,2.547,19.687,19.687,0,0,1-5.953.76H7.895L6.382,29.269Zm4.8-24.651L8.793,16.869h3.883c2.562,0,4.5-.489,5.747-1.454a7.742,7.742,0,0,0,2.551-4.851c.421-2.164.227-3.714-.577-4.6s-2.435-1.341-4.848-1.341Z" transform="translate(64.866 14.484)" fill="#1a1919"/>
  </g>
</svg>
