<svg id="_4" data-name="4" xmlns="http://www.w3.org/2000/svg" xmlns:xlink="http://www.w3.org/1999/xlink" width="80" height="80" viewBox="0 0 80 80">
  <defs>
    <clipPath id="clip-path">
      <path id="Clip_2" data-name="Clip 2" d="M0,0H40V40H0Z" transform="translate(0)" fill="none"/>
    </clipPath>
  </defs>
  <g id="Group_3" data-name="Group 3" transform="translate(21 20)">
    <path id="Clip_2-2" data-name="Clip 2" d="M0,0H40V40H0Z" transform="translate(0)" fill="none"/>
    <g id="Group_3-2" data-name="Group 3" clip-path="url(#clip-path)">
      <path id="Fill_1" data-name="Fill 1" d="M36.374,40H3.626A3.63,3.63,0,0,1,0,36.374V3.626A3.63,3.63,0,0,1,3.626,0H36.374A3.63,3.63,0,0,1,40,3.626V36.374A3.63,3.63,0,0,1,36.374,40ZM8.158,14.81,7.3,17.992h2.839L8.3,25.479a8.252,8.252,0,0,0-.216,1.809,3.557,3.557,0,0,0,.881,2.559,3.606,3.606,0,0,0,2.713.969c1.921,0,3.6-1.088,4.853-3.147l-.723,2.9h4.024l2.3-9.225c.58-2.355,1.716-3.549,3.378-3.549a2.018,2.018,0,0,1,2.156,2.192,4.278,4.278,0,0,1-.18,1.293L26.3,25.52a6.359,6.359,0,0,0-.251,1.8c0,2.183,1.37,3.486,3.665,3.486,2.268,0,3.864-1.559,4.744-4.635l-1.581-.611c-.838,2.319-1.55,2.587-2.012,2.587-.548,0-.826-.363-.826-1.078a4.759,4.759,0,0,1,.179-1.114l1.15-4.131a9.12,9.12,0,0,0,.4-2.62,4.976,4.976,0,0,0-1.217-3.511A3.96,3.96,0,0,0,27.632,14.5a5.106,5.106,0,0,0-3.068,1.208,8.733,8.733,0,0,0-2.286,2.717l.79-3.613H16.924l-.863,3.181h2.875l-1.77,7.087a5.319,5.319,0,0,1-2.22,2.561,3.923,3.923,0,0,1-1.837.523,1.07,1.07,0,0,1-.207-.016c-.533-.12-.863-.33-.863-1a6.87,6.87,0,0,1,.251-1.644l2.7-10.691Zm5.21-7.041a2.455,2.455,0,0,0-1.72.692,2.4,2.4,0,0,0,0,3.432,2.484,2.484,0,0,0,3.44,0,2.4,2.4,0,0,0,0-3.432A2.456,2.456,0,0,0,13.368,7.77Z" transform="translate(0 0)" fill="#3e403d"/>
    </g>
  </g>
  <g id="Rectangle_Copy_7" data-name="Rectangle Copy 7" fill="none" stroke="#3e403d" stroke-miterlimit="10" stroke-width="1">
    <rect width="80" height="80" rx="10" stroke="none"/>
    <rect x="0.5" y="0.5" width="79" height="79" rx="9.5" fill="none"/>
  </g>
</svg>
