<svg id="_2" data-name="2" xmlns="http://www.w3.org/2000/svg" width="80" height="80" viewBox="0 0 80 80">
  <g id="Rectangle_Copy_3" data-name="Rectangle Copy 3" fill="none" stroke="#3e403d" stroke-miterlimit="10" stroke-width="1">
    <rect width="80" height="80" rx="10" stroke="none"/>
    <rect x="0.5" y="0.5" width="79" height="79" rx="9.5" fill="none"/>
  </g>
  <g id="Group_5" data-name="Group 5" transform="translate(21 23)">
    <path id="Fill_1" data-name="Fill 1" d="M8.294,4.567c-2.37,0-3.179,1.211-3.179,2.218,0,1.094.535,1.853,3.728,3.517,4.71,2.306,6.184,4.524,6.184,7.763,0,4.859-3.67,7.471-8.626,7.471a12.928,12.928,0,0,1-6.155-1.3C.029,24.15,0,23.99,0,23.756v-4.48c0-.306.144-.394.361-.248A11.12,11.12,0,0,0,6.4,20.823c2.37,0,3.367-1.007,3.367-2.364,0-1.094-.694-2.058-3.728-3.648C1.777,12.754,0,10.667,0,7.165,0,3.254,3.034,0,8.294,0a13.7,13.7,0,0,1,5.375.846.664.664,0,0,1,.3.613V5.618c0,.248-.144.394-.448.306a10.135,10.135,0,0,0-5.23-1.357" transform="translate(22.901 8.449)" fill="#3e403d"/>
    <path id="Fill_3" data-name="Fill 3" d="M4.956,33.46H.361C.1,33.46,0,33.358,0,33.1V.51C0,.284.43.146.664.146,2.674.055,5.57,0,8.409,0c3.931,0,6.928,1.023,8.908,3.041a8.8,8.8,0,0,1,2.028,3.331,12.625,12.625,0,0,1,.638,4.12,12.1,12.1,0,0,1-.971,4.972,9.148,9.148,0,0,1-2.645,3.426,13.755,13.755,0,0,1-8.709,2.619c-.62,0-1.025-.018-1.382-.033-.3-.013-.589-.025-.959-.025V33.1C5.317,33.358,5.216,33.46,4.956,33.46ZM8.236,4.816c-1.276,0-2.491.066-2.89.087L5.36,16.62c.694.059,1.237.059,2.427.059,4.526,0,6.82-2.042,6.82-6.071a5.513,5.513,0,0,0-1.685-4.341A6.881,6.881,0,0,0,8.236,4.816Z" transform="translate(0 0)" fill="#3e403d"/>
  </g>
</svg>
