<svg id="_1" data-name="1" xmlns="http://www.w3.org/2000/svg" xmlns:xlink="http://www.w3.org/1999/xlink" width="80" height="80" viewBox="0 0 80 80">
  <defs>
    <clipPath id="clip-path">
      <path id="Clip_5" data-name="Clip 5" d="M0,0H44V40H0Z" fill="none"/>
    </clipPath>
  </defs>
  <g id="Group_6" data-name="Group 6" transform="translate(18 20)">
    <path id="Clip_5-2" data-name="Clip 5" d="M0,0H44V40H0Z" fill="none"/>
    <g id="Group_6-2" data-name="Group 6" clip-path="url(#clip-path)">
      <path id="Fill_4" data-name="Fill 4" d="M22,40h0l-.052-.111L35.738,14.419H44L22,40Zm-.074-.086h0L0,14.419H8.147L21.939,39.887l-.013.026Zm.017-.035v0L9.964,14.419H34.035L21.944,39.877ZM44,14.419h0l-8.092-1.263L34.375,1.395,44,14.417Zm-44,0v0L9.625,1.4l-1.53,11.76L0,14.419Zm33.093-1.4H10.907L22,0,9.625,12.349l0,0v0l0-10.953L22,0,33.092,13.021Zm1.282-.674,0,0L22,0,34.375,1.4V12.349Z" transform="translate(0 0)" fill="#3e403d"/>
    </g>
  </g>
  <g id="Rectangle_Copy_4" data-name="Rectangle Copy 4" fill="none" stroke="#3e403d" stroke-miterlimit="10" stroke-width="1">
    <rect width="80" height="80" rx="10" stroke="none"/>
    <rect x="0.5" y="0.5" width="79" height="79" rx="9.5" fill="none"/>
  </g>
</svg>
