<?xml version="1.0" standalone="no"?>
<!DOCTYPE svg PUBLIC "-//W3C//DTD SVG 20010904//EN"
 "http://www.w3.org/TR/2001/REC-SVG-20010904/DTD/svg10.dtd">
<svg version="1.0" xmlns="http://www.w3.org/2000/svg"
 width="160.000000pt" height="160.000000pt" viewBox="0 0 160.000000 160.000000"
 preserveAspectRatio="xMidYMid meet">

<g transform="translate(0.000000,160.000000) scale(0.100000,-0.100000)"
fill="#000000" stroke="none">
<path d="M135 1585 c-51 -18 -110 -81 -124 -131 -15 -55 -15 -1254 0 -1309 15
-52 82 -119 134 -134 56 -15 1254 -15 1310 0 52 15 119 82 134 134 15 56 15
1254 0 1310 -15 52 -82 119 -134 134 -27 7 -235 11 -660 11 -508 -1 -627 -3
-660 -15z m1343 -24 c42 -22 63 -43 86 -88 14 -29 16 -102 16 -673 0 -571 -2
-644 -16 -673 -23 -45 -44 -66 -86 -88 -35 -18 -69 -19 -678 -19 -571 0 -644
2 -673 16 -45 23 -66 44 -88 86 -18 35 -19 69 -19 678 0 609 1 643 19 678 21
41 42 62 86 85 26 14 106 16 673 17 611 0 645 -1 680 -19z"/>
<path d="M420 800 l0 -400 380 0 380 0 0 400 0 400 -380 0 -380 0 0 -400z
m597 300 l5 -20 33 20 c18 11 35 20 39 20 3 0 6 -36 6 -80 0 -44 -3 -80 -6
-80 -4 0 -21 9 -39 20 l-33 20 -5 -20 c-5 -18 -13 -20 -101 -20 l-96 0 0 73
c0 41 3 77 7 80 3 4 47 7 96 7 81 0 89 -2 94 -20z m-312 -285 c43 -17 53 -40
30 -65 -15 -17 -20 -17 -39 -5 -35 22 -79 27 -100 12 -31 -23 -12 -42 57 -61
77 -21 109 -50 109 -99 0 -48 -18 -76 -57 -93 -49 -20 -112 -17 -162 7 -47 23
-53 37 -24 63 17 16 22 16 43 3 56 -36 128 -28 128 13 0 14 -11 22 -42 30 -65
16 -118 42 -129 61 -13 25 -11 81 5 101 34 46 116 61 181 33z m303 -110 c23
-26 32 -44 32 -70 l0 -35 -85 0 c-68 0 -85 -3 -85 -15 0 -8 11 -22 25 -31 22
-15 32 -15 67 -5 33 10 42 10 49 -1 12 -19 6 -31 -22 -45 -56 -29 -147 -5
-173 46 -71 136 88 265 192 156z"/>
<path d="M883 678 c-27 -36 -25 -38 36 -38 34 0 61 4 61 9 0 33 -76 56 -97 29z"/>
</g>
</svg>
