<?xml version="1.0" standalone="no"?>
<!DOCTYPE svg PUBLIC "-//W3C//DTD SVG 20010904//EN"
 "http://www.w3.org/TR/2001/REC-SVG-20010904/DTD/svg10.dtd">
<svg version="1.0" xmlns="http://www.w3.org/2000/svg"
 width="160.000000pt" height="160.000000pt" viewBox="0 0 160.000000 160.000000"
 preserveAspectRatio="xMidYMid meet">

<g transform="translate(0.000000,160.000000) scale(0.100000,-0.100000)"
fill="#000000" stroke="none">
<path d="M135 1585 c-51 -18 -110 -81 -124 -131 -15 -55 -15 -1254 0 -1309 15
-52 82 -119 134 -134 56 -15 1254 -15 1310 0 52 15 119 82 134 134 15 56 15
1254 0 1310 -15 52 -82 119 -134 134 -27 7 -235 11 -660 11 -508 -1 -627 -3
-660 -15z m1343 -24 c42 -22 63 -43 86 -88 14 -29 16 -102 16 -673 0 -571 -2
-644 -16 -673 -23 -45 -44 -66 -86 -88 -35 -18 -69 -19 -678 -19 -571 0 -644
2 -673 16 -45 23 -66 44 -88 86 -18 35 -19 69 -19 678 0 609 1 643 19 678 21
41 42 62 86 85 26 14 106 16 673 17 611 0 645 -1 680 -19z"/>
<path d="M428 795 l-3 -395 373 0 372 0 0 342 c0 287 -2 340 -13 328 -8 -8
-65 -73 -128 -144 l-113 -129 -63 68 c-35 37 -63 72 -63 78 0 6 10 21 22 34
l22 23 42 -41 41 -41 90 124 c49 68 93 129 97 136 6 9 -64 12 -333 12 l-341 0
-2 -395z m277 20 c43 -17 53 -40 30 -65 -15 -17 -20 -17 -39 -5 -35 22 -79 27
-100 12 -31 -23 -12 -42 57 -61 77 -21 109 -50 109 -99 0 -69 -47 -107 -134
-107 -41 0 -128 34 -128 50 0 4 8 18 18 30 17 21 20 22 43 7 57 -36 129 -29
129 13 0 14 -11 22 -42 30 -65 16 -118 42 -129 61 -18 35 -10 84 19 111 15 14
34 28 42 31 29 11 91 7 125 -8z m260 -79 c39 -17 75 -68 75 -108 l0 -28 -85 0
c-68 0 -85 -3 -85 -15 0 -8 11 -22 26 -31 21 -14 31 -15 61 -6 36 11 63 3 63
-19 0 -15 -58 -39 -95 -39 -75 0 -127 52 -129 126 -1 51 25 91 75 116 41 22
50 22 94 4z"/>
<path d="M875 668 c-15 -23 -15 -23 41 -26 31 -2 59 -1 62 2 3 3 -3 15 -13 26
-25 27 -70 26 -90 -2z"/>
</g>
</svg>
