<svg id="_3" data-name="3" xmlns="http://www.w3.org/2000/svg" xmlns:xlink="http://www.w3.org/1999/xlink" width="80" height="80" viewBox="0 0 80 80">
  <defs>
    <clipPath id="clip-path">
      <path id="Clip_2" data-name="Clip 2" d="M0,0H5.342V24.273H0Z" transform="translate(0.005 0.115)" fill="none"/>
    </clipPath>
    <clipPath id="clip-path-2">
      <path id="Clip_5" data-name="Clip 5" d="M0,0H6.008V6.083H0Z" transform="translate(0.105 0.115)" fill="none"/>
    </clipPath>
  </defs>
  <g id="Rectangle" fill="none" stroke="#3e403d" stroke-miterlimit="10" stroke-width="1">
    <rect width="80" height="80" rx="10" stroke="none"/>
    <rect x="0.5" y="0.5" width="79" height="79" rx="9.5" fill="none"/>
  </g>
  <g id="Group_9" data-name="Group 9" transform="translate(23 23)">
    <g id="Group_3" data-name="Group 3" transform="translate(29.19 9.497)">
      <path id="Clip_2-2" data-name="Clip 2" d="M0,0H5.342V24.273H0Z" transform="translate(0.005 0.115)" fill="none"/>
      <g id="Group_3-2" data-name="Group 3" clip-path="url(#clip-path)">
        <path id="Fill_1" data-name="Fill 1" d="M0,.359C0,.115.085,0,.354,0H4.988c.241,0,.354.086.354.359V23.915c0,.244-.057.359-.354.359H.411c-.3,0-.383-.143-.383-.387V.359Z" transform="translate(0.005 0.115)" fill="#3e403d"/>
      </g>
    </g>
    <g id="Group_6" data-name="Group 6" transform="translate(28.765 0.029)">
      <path id="Clip_5-2" data-name="Clip 5" d="M0,0H6.008V6.083H0Z" transform="translate(0.105 0.115)" fill="none"/>
      <g id="Group_6-2" data-name="Group 6" clip-path="url(#clip-path-2)">
        <path id="Fill_4" data-name="Fill 4" d="M0,3.041A2.88,2.88,0,0,1,3,0a2.859,2.859,0,0,1,3,3.041A2.829,2.829,0,0,1,2.947,6.083,2.778,2.778,0,0,1,0,3.041" transform="translate(0.105 0.115)" fill="#3e403d"/>
      </g>
    </g>
    <path id="Fill_7" data-name="Fill 7" d="M24.619,32.9H19.73c-.227,0-.38-.045-.439-.272l-2.423-8.981H7.416L5.092,32.594c-.057.244-.139.3-.439.3H.317c-.147,0-.226-.021-.27-.073s-.059-.165-.027-.371L8.394,2.783A9.865,9.865,0,0,0,8.691.3c0-.206.077-.3.241-.3h6.192c.221,0,.3.068.355.3L24.86,32.508a.361.361,0,0,1-.024.308A.26.26,0,0,1,24.619,32.9ZM12.036,4.777c-.651,3.637-2.381,10.143-3.415,14.03h6.986c-.265-1.068-.655-2.572-1.069-4.165-.867-3.34-1.946-7.494-2.445-9.865h-.057Z" transform="translate(0 0.976)" fill="#3e403d"/>
  </g>
</svg>
