<svg xmlns="http://www.w3.org/2000/svg" xmlns:xlink="http://www.w3.org/1999/xlink" width="159" height="39.541" viewBox="0 0 159 39.541">
  <defs>
    <clipPath id="clip-path">
      <path id="Clip_2" data-name="Clip 2" d="M9.624,27.586c-5.8,0-9.391-3.15-9.606-8.426L0,18.706H3.344l.031.4C3.624,22.475,5.926,24.4,9.693,24.4c3.9,0,6.144-1.536,6.144-4.213a3.429,3.429,0,0,0-1.779-3.242A13.4,13.4,0,0,0,9.67,15.618l-.384-.076-.151-.03L8.9,15.463a12.843,12.843,0,0,1-5.172-1.846A6.021,6.021,0,0,1,1.265,8.3,6.889,6.889,0,0,1,3.689,3.017,9.645,9.645,0,0,1,10.109.874,9.042,9.042,0,0,1,16.56,3.21a8.571,8.571,0,0,1,2.461,6.133l.011.447h-3.32L15.7,9.366a5.145,5.145,0,0,0-5.557-5.311c-3.384,0-5.486,1.588-5.486,4.144A2.894,2.894,0,0,0,5.924,10.87a13.311,13.311,0,0,0,4.619,1.545c.008,0,.531.112.536.113l.54.117A12.829,12.829,0,0,1,16.8,14.617a6.232,6.232,0,0,1,2.46,5.4C19.265,24.544,15.39,27.586,9.624,27.586Zm69.4-.069a8.789,8.789,0,0,1-6.562-2.84,10.13,10.13,0,0,1-2.559-6.9,10.188,10.188,0,0,1,2.557-6.925,8.773,8.773,0,0,1,15.228,4.254l.1.522H84.442l-.085-.326a5.642,5.642,0,0,0-1.9-3.088,5.727,5.727,0,0,0-7.589.756,7.213,7.213,0,0,0-1.6,4.807,7.149,7.149,0,0,0,1.6,4.779,5.732,5.732,0,0,0,7.588.75,5.642,5.642,0,0,0,1.9-3.089l.085-.324h3.352l-.1.522a8.5,8.5,0,0,1-8.663,7.1Zm-30.115,0c-5.371,0-9.121-4.019-9.121-9.773a10.147,10.147,0,0,1,2.553-6.906,8.745,8.745,0,0,1,6.533-2.83,9.18,9.18,0,0,1,3.636.717,8.19,8.19,0,0,1,2.815,1.989,9.973,9.973,0,0,1,2.463,6.821c0,.091,0,.194-.005.307v.039c0,.093-.007.191-.011.29l-.006.124V18.3c0,.085-.008.156-.011.2l-.026.41H43.158c.4,3.334,2.676,5.489,5.79,5.489a5.665,5.665,0,0,0,3.2-.948,5.019,5.019,0,0,0,1.928-2.5l.1-.291h3.454l-.174.566A8.66,8.66,0,0,1,48.913,27.517Zm-.035-16.4a5.485,5.485,0,0,0-3.694,1.344,6.2,6.2,0,0,0-1.926,3.551H54.413a5.859,5.859,0,0,0-1.81-3.575A5.486,5.486,0,0,0,48.878,11.119ZM66.758,27.166a4.891,4.891,0,0,1-3.716-1.36,5.543,5.543,0,0,1-1.287-3.937V11.4H58.4V8.426h3.357V3.356h3.324v5.07h4.05V11.4h-4.05V21.7c0,1.675.577,2.359,1.991,2.359h.086a7.222,7.222,0,0,0,.915-.082c.114-.017.228-.036.339-.058h.005l.119-.023.525-.116v3.113l-.316.088a3.992,3.992,0,0,1-.524.1A10.63,10.63,0,0,1,66.758,27.166ZM93.913,27.1H90.59V0h3.324V10.06a7.219,7.219,0,0,1,5.279-2.053,7.017,7.017,0,0,1,5.218,2,7.44,7.44,0,0,1,1.9,5.287V27.1h-3.323V15.786a5.223,5.223,0,0,0-1.053-3.531,4,4,0,0,0-3.153-1.206c-3,0-4.864,1.949-4.864,5.087V27.1Zm-67.639,0H22.951V0h3.323V17.7l8.987-9.142.128-.13h4.516l-.743.747-7.035,7.073L39.756,26.4l.525.7-.871,0H36.149l-.13-.174-6.247-8.38-3.5,3.442V27.1Z" fill="none"/>
    </clipPath>
  </defs>
  <g id="Group_13" data-name="Group 13" transform="translate(0 0)">
    <g id="Group_3" data-name="Group 3" transform="translate(52.695 5.517)">
      <path id="Clip_2-2" data-name="Clip 2" d="M9.624,27.586c-5.8,0-9.391-3.15-9.606-8.426L0,18.706H3.344l.031.4C3.624,22.475,5.926,24.4,9.693,24.4c3.9,0,6.144-1.536,6.144-4.213a3.429,3.429,0,0,0-1.779-3.242A13.4,13.4,0,0,0,9.67,15.618l-.384-.076-.151-.03L8.9,15.463a12.843,12.843,0,0,1-5.172-1.846A6.021,6.021,0,0,1,1.265,8.3,6.889,6.889,0,0,1,3.689,3.017,9.645,9.645,0,0,1,10.109.874,9.042,9.042,0,0,1,16.56,3.21a8.571,8.571,0,0,1,2.461,6.133l.011.447h-3.32L15.7,9.366a5.145,5.145,0,0,0-5.557-5.311c-3.384,0-5.486,1.588-5.486,4.144A2.894,2.894,0,0,0,5.924,10.87a13.311,13.311,0,0,0,4.619,1.545c.008,0,.531.112.536.113l.54.117A12.829,12.829,0,0,1,16.8,14.617a6.232,6.232,0,0,1,2.46,5.4C19.265,24.544,15.39,27.586,9.624,27.586Zm69.4-.069a8.789,8.789,0,0,1-6.562-2.84,10.13,10.13,0,0,1-2.559-6.9,10.188,10.188,0,0,1,2.557-6.925,8.773,8.773,0,0,1,15.228,4.254l.1.522H84.442l-.085-.326a5.642,5.642,0,0,0-1.9-3.088,5.727,5.727,0,0,0-7.589.756,7.213,7.213,0,0,0-1.6,4.807,7.149,7.149,0,0,0,1.6,4.779,5.732,5.732,0,0,0,7.588.75,5.642,5.642,0,0,0,1.9-3.089l.085-.324h3.352l-.1.522a8.5,8.5,0,0,1-8.663,7.1Zm-30.115,0c-5.371,0-9.121-4.019-9.121-9.773a10.147,10.147,0,0,1,2.553-6.906,8.745,8.745,0,0,1,6.533-2.83,9.18,9.18,0,0,1,3.636.717,8.19,8.19,0,0,1,2.815,1.989,9.973,9.973,0,0,1,2.463,6.821c0,.091,0,.194-.005.307v.039c0,.093-.007.191-.011.29l-.006.124V18.3c0,.085-.008.156-.011.2l-.026.41H43.158c.4,3.334,2.676,5.489,5.79,5.489a5.665,5.665,0,0,0,3.2-.948,5.019,5.019,0,0,0,1.928-2.5l.1-.291h3.454l-.174.566A8.66,8.66,0,0,1,48.913,27.517Zm-.035-16.4a5.485,5.485,0,0,0-3.694,1.344,6.2,6.2,0,0,0-1.926,3.551H54.413a5.859,5.859,0,0,0-1.81-3.575A5.486,5.486,0,0,0,48.878,11.119ZM66.758,27.166a4.891,4.891,0,0,1-3.716-1.36,5.543,5.543,0,0,1-1.287-3.937V11.4H58.4V8.426h3.357V3.356h3.324v5.07h4.05V11.4h-4.05V21.7c0,1.675.577,2.359,1.991,2.359h.086a7.222,7.222,0,0,0,.915-.082c.114-.017.228-.036.339-.058h.005l.119-.023.525-.116v3.113l-.316.088a3.992,3.992,0,0,1-.524.1A10.63,10.63,0,0,1,66.758,27.166ZM93.913,27.1H90.59V0h3.324V10.06a7.219,7.219,0,0,1,5.279-2.053,7.017,7.017,0,0,1,5.218,2,7.44,7.44,0,0,1,1.9,5.287V27.1h-3.323V15.786a5.223,5.223,0,0,0-1.053-3.531,4,4,0,0,0-3.153-1.206c-3,0-4.864,1.949-4.864,5.087V27.1Zm-67.639,0H22.951V0h3.323V17.7l8.987-9.142.128-.13h4.516l-.743.747-7.035,7.073L39.756,26.4l.525.7-.871,0H36.149l-.13-.174-6.247-8.38-3.5,3.442V27.1Z" fill="none"/>
      <g id="Group_3-2" data-name="Group 3" clip-path="url(#clip-path)">
        <path id="Fill_1" data-name="Fill 1" d="M0,32.184H110.888V0H0Z" transform="translate(-2.291 -2.299)"/>
      </g>
    </g>
    <path id="Fill_4" data-name="Fill 4" d="M9.578,1.3,0,14.1,21.95,39.54,43.9,14.1,34.322,1.3,21.95,0Z" transform="translate(0 0)" fill="#fdb300"/>
    <path id="Fill_5" data-name="Fill 5" d="M0,0,21.95,25.441,8.891,0Z" transform="translate(0 14.1)" fill="#ea6c00"/>
    <path id="Fill_6" data-name="Fill 6" d="M13.059,0,0,25.441,21.95,0Z" transform="translate(21.95 14.1)" fill="#ea6c00"/>
    <path id="Fill_7" data-name="Fill 7" d="M0,0,13.059,25.441,26.119,0Z" transform="translate(8.891 14.1)" fill="#fdad00"/>
    <path id="Fill_8" data-name="Fill 8" d="M.687,1.3,0,14.1,13.059,0Z" transform="translate(8.891 0)" fill="#fdd231"/>
    <path id="Fill_9" data-name="Fill 9" d="M13.059,14.1,12.372,1.3,0,0Z" transform="translate(21.95 0)" fill="#fdd231"/>
    <path id="Fill_10" data-name="Fill 10" d="M.687,12.8H9.578L0,0Z" transform="translate(34.322 1.302)" fill="#fdad00"/>
    <path id="Fill_11" data-name="Fill 11" d="M0,12.8H8.891L9.578,0Z" transform="translate(0 1.302)" fill="#fdad00"/>
    <path id="Fill_12" data-name="Fill 12" d="M0,14.1H26.119L13.059,0Z" transform="translate(8.891 0)" fill="#feeeb7"/>
  </g>
</svg>
