<svg id="_4" data-name="4" xmlns="http://www.w3.org/2000/svg" xmlns:xlink="http://www.w3.org/1999/xlink" width="80" height="80" viewBox="0 0 80 80">
  <defs>
    <clipPath id="clip-path">
      <path id="Clip_2" data-name="Clip 2" d="M0,0H45.847V39.86H0Z" transform="translate(0)" fill="none"/>
    </clipPath>
  </defs>
  <g id="Rectangle_Copy_7" data-name="Rectangle Copy 7" fill="none" stroke="#3e403d" stroke-miterlimit="10" stroke-width="1">
    <rect width="80" height="80" rx="10" stroke="none"/>
    <rect x="0.5" y="0.5" width="79" height="79" rx="9.5" fill="none"/>
  </g>
  <g id="Group_3" data-name="Group 3" transform="translate(17 20)">
    <path id="Clip_2-2" data-name="Clip 2" d="M0,0H45.847V39.86H0Z" transform="translate(0)" fill="none"/>
    <g id="Group_3-2" data-name="Group 3" clip-path="url(#clip-path)">
      <path id="Fill_1" data-name="Fill 1" d="M23.8,39.86c-.786,0-1.574-.036-2.349-.107a25.6,25.6,0,0,1-5.4-1.09,25.939,25.939,0,0,1-2.579-.973A25.752,25.752,0,0,1,8.7,34.943a25.77,25.77,0,0,1-4.081-3.707,1.867,1.867,0,0,1-.354-1.886,48.762,48.762,0,0,1,2.567-5.633c2.351-4.34,4.534-6.368,6.869-6.384,2.261,0,3.923,1.767,5.389,3.326a13.057,13.057,0,0,0,1.719,1.634c1.07-.919,3.371-4.7,5.167-8.537a1.86,1.86,0,1,1,3.368,1.582c-.048.1-1.186,2.528-2.619,5-2.013,3.468-3.767,5.778-5.786,5.778-1.832,0-3.217-1.473-4.556-2.9-.807-.858-2.026-2.155-2.669-2.155,0,0-1.273.128-3.6,4.4a44.631,44.631,0,0,0-1.945,4.124q.431.437.885.85A21.907,21.907,0,0,0,24.15,36.131h.029c11.6,0,16.153-3.934,17.908-6.594A42.348,42.348,0,0,0,36.95,12.6C34.6,8.555,30.468,3.727,24.179,3.727c-9.215,0-16.134,6.382-20.565,18.97a1.86,1.86,0,1,1-3.508-1.24A40.991,40.991,0,0,1,8.116,7.2,21.132,21.132,0,0,1,24.179,0c6.377,0,11.9,3.71,15.985,10.729a46.319,46.319,0,0,1,5.679,19.138,1.864,1.864,0,0,1-.244,1.06c-3.31,5.756-10.912,8.927-21.406,8.93l-.391,0Z" transform="translate(0 0)" fill="#3e403d"/>
    </g>
  </g>
</svg>
