<svg xmlns="http://www.w3.org/2000/svg" xmlns:xlink="http://www.w3.org/1999/xlink" width="76.853" height="77.306" viewBox="0 0 76.853 77.306">
  <defs>
    <clipPath id="clip-path">
      <path id="Clip_2" data-name="Clip 2" d="M0,0H76.853V77.306H0Z" transform="translate(0 1.155)" fill="none"/>
    </clipPath>
    <clipPath id="clip-path-2">
      <path id="Clip_13" data-name="Clip 13" d="M0,77.306H76.853V0H0Z" transform="translate(0 1.539)" fill="none"/>
    </clipPath>
  </defs>
  <g id="Group_16" data-name="Group 16" transform="translate(0 -1.539)">
    <g id="Group_3" data-name="Group 3" transform="translate(0 0.384)">
      <path id="Clip_2-2" data-name="Clip 2" d="M0,0H76.853V77.306H0Z" transform="translate(0 1.155)" fill="none"/>
      <g id="Group_3-2" data-name="Group 3" clip-path="url(#clip-path)">
        <path id="Fill_1" data-name="Fill 1" d="M38.634,77.307h-.312a36.7,36.7,0,0,1-14.676-3.068,39.081,39.081,0,0,1-12.167-8.317A39.538,39.538,0,0,1,3.152,53.686a38.143,38.143,0,0,1,7.912-42.01A38.406,38.406,0,0,1,38.423,0h.034a37.851,37.851,0,0,1,26.92,11.26A38.346,38.346,0,0,1,76.854,38.294a38.858,38.858,0,0,1-23.275,35.83A38.181,38.181,0,0,1,38.634,77.307ZM38.5,2.023h-.057A36.408,36.408,0,0,0,12.524,13.1,36.011,36.011,0,0,0,5,52.889,37.444,37.444,0,0,0,12.887,64.48a37.019,37.019,0,0,0,11.526,7.877,34.766,34.766,0,0,0,13.9,2.9h.262a36.382,36.382,0,0,0,25.716-10.95A36.81,36.81,0,0,0,74.841,38.3,36.332,36.332,0,0,0,63.959,12.7,35.742,35.742,0,0,0,38.5,2.023Z" transform="translate(0 1.155)" fill="#f1592a"/>
      </g>
    </g>
    <path id="Fill_4" data-name="Fill 4" d="M0,22.582V0H5.462V2.023h-2.9V20.6h2.9v2.023Z" transform="translate(8.62 28.916)" fill="#f1592a"/>
    <path id="Fill_6" data-name="Fill 6" d="M5.613,12.687C2.308,12.687,0,10.116,0,6.435,0,2.646,2.382,0,5.793,0A5.33,5.33,0,0,1,9.92,1.817a6.635,6.635,0,0,1,1.546,4.406A6.784,6.784,0,0,1,9.8,11,5.6,5.6,0,0,1,5.613,12.687ZM2.352,6.409h0a5.493,5.493,0,0,0,.891,3.173,2.974,2.974,0,0,0,2.5,1.3c2.015,0,3.37-1.838,3.37-4.573a5.634,5.634,0,0,0-.847-3.119A2.944,2.944,0,0,0,5.743,1.813,2.966,2.966,0,0,0,3.2,3.185a5.891,5.891,0,0,0-.867,3.27Z" transform="translate(15.691 33.762)" fill="#f1592a"/>
    <path id="Fill_8" data-name="Fill 8" d="M2.65,12.472A21.493,21.493,0,0,1,.02,12.31L0,.3A18.558,18.558,0,0,1,3.177.028h.062C3.425.009,3.615,0,3.8,0A5.757,5.757,0,0,1,6.738.807,2.593,2.593,0,0,1,8.006,3.1,2.844,2.844,0,0,1,5.995,5.764,3.1,3.1,0,0,1,8.459,8.8a3.179,3.179,0,0,1-1.177,2.529c-.876.78-2.315,1.143-4.526,1.143ZM2.213,6.8v4a10.006,10.006,0,0,0,1,.051l.175,0c.81,0,2.7-.2,2.7-2.023C6.086,7.515,5.1,6.8,3.32,6.8Zm1.062-5.1A6.17,6.17,0,0,0,2.2,1.787l.009,3.361H3.35c1.483,0,2.4-.679,2.4-1.771,0-1.036-.875-1.68-2.283-1.68Q3.373,1.693,3.275,1.693Z" transform="translate(29.048 33.886)" fill="#f1592a"/>
    <path id="Fill_10" data-name="Fill 10" d="M3.681,0H5.9V7.983C5.9,11.372,4.275,12.5,1.88,12.5A5.846,5.846,0,0,1,0,12.18l.272-1.8a4.923,4.923,0,0,0,1.376.222c1.268,0,2.011-.588,2.011-2.712Z" transform="translate(38.221 34.025)" fill="#f1592a"/>
    <path id="Clip_13-2" data-name="Clip 13" d="M0,77.306H76.853V0H0Z" transform="translate(0 1.539)" fill="none"/>
    <g clip-path="url(#clip-path-2)">
      <path id="Fill_12" data-name="Fill 12" d="M0,1.548H4.626V0H0Z" transform="translate(45.824 40.673)" fill="#f1592a"/>
      <path id="Fill_14" data-name="Fill 14" d="M9.382,12.124a7.647,7.647,0,0,1-3.149.545C2.362,12.668.009,10.231.009,6.5A6.132,6.132,0,0,1,6.527.013,6.991,6.991,0,0,1,9.543.559l-.492,1.78a5.918,5.918,0,0,0-2.394-.475c-2.484,0-4.275,1.569-4.275,4.523,0,2.692,1.58,4.431,4.255,4.431a6.178,6.178,0,0,0,2.424-.455Z" transform="translate(51.87 33.81)" fill="#f1592a"/>
      <path id="Fill_15" data-name="Fill 15" d="M5.462,0V22.642H0V20.62H2.9V2.023H0V0Z" transform="translate(62.772 28.855)" fill="#f1592a"/>
    </g>
  </g>
</svg>
