<svg id="_2" data-name="2" xmlns="http://www.w3.org/2000/svg" width="80" height="80" viewBox="0 0 80 80">
  <g id="Rectangle_Copy_3" data-name="Rectangle Copy 3" fill="none" stroke="#3e403d" stroke-miterlimit="10" stroke-width="1">
    <rect width="80" height="80" rx="10" stroke="none"/>
    <rect x="0.5" y="0.5" width="79" height="79" rx="9.5" fill="none"/>
  </g>
  <path id="Fill_1" data-name="Fill 1" d="M17.6,40h0L2.933,35.882,0,0H35L31.872,35.882,17.6,40ZM7.823,22.943l.293,3.432.293,3.432L17.6,32.354l.01,0,8.79-2.741,1.174-13.5H18.154l10.223-4.194V7.647H6.258l.586,4.32L17.4,11.961,7.039,16.471l.588,4.118H22.878l-.543,5.429-.045.454-4.683.882-3.395-.716-1.7-.359-.2-1.668-.2-1.667Z" transform="translate(23 20)" fill="#3e403d"/>
</svg>
