<svg id="_3" data-name="3" xmlns="http://www.w3.org/2000/svg" xmlns:xlink="http://www.w3.org/1999/xlink" width="80" height="80" viewBox="0 0 80 80">
  <defs>
    <clipPath id="clip-path">
      <path id="Clip_2" data-name="Clip 2" d="M0,0H35V39.97H0Z" transform="translate(0 0.016)" fill="none"/>
    </clipPath>
  </defs>
  <g id="Rectangle" fill="none" stroke="#3e403d" stroke-miterlimit="10" stroke-width="1">
    <rect width="80" height="80" rx="10" stroke="none"/>
    <rect x="0.5" y="0.5" width="79" height="79" rx="9.5" fill="none"/>
  </g>
  <g id="Group_3" data-name="Group 3" transform="translate(23 20)">
    <path id="Clip_2-2" data-name="Clip 2" d="M0,0H35V39.97H0Z" transform="translate(0 0.016)" fill="none"/>
    <g id="Group_3-2" data-name="Group 3" clip-path="url(#clip-path)">
      <path id="Fill_1" data-name="Fill 1" d="M17.472,39.97h0L3.249,35.938,0,0,35,.014l-3.221,35.9L17.473,39.97Zm8.354-18.092h0l-.1,3.4L18.905,27.1l.068,4.17,9.433-2.47L29.348,17.3l-6.962.781V11.933l7.426-.027.3-4.2-11.208.055.15,15.28,6.769-1.165Zm-19.7,2.493c-.13,0-.13.269-.13,2.02v2.071L10.1,29.573l1.116.3.009,0c1.847.5,3.442.937,3.816,1.052.448.122.888.233.956.247a13.964,13.964,0,0,0,.1-2.4c.018-1.684.025-4.461.025-9.284V7.8H12.709l-.028,9.19-.027,9.19-3.126-.864-1.567-.436c-.981-.272-1.69-.469-1.763-.5A.258.258,0,0,0,6.122,24.371Z" transform="translate(0 0.016)" fill="#3e403d"/>
    </g>
  </g>
</svg>
