<svg id="_6" data-name="6" xmlns="http://www.w3.org/2000/svg" xmlns:xlink="http://www.w3.org/1999/xlink" width="80" height="80" viewBox="0 0 80 80">
  <defs>
    <clipPath id="clip-path">
      <path id="Clip_2" data-name="Clip 2" d="M0,0H49.986V34H0Z" transform="translate(0 0)" fill="none"/>
    </clipPath>
  </defs>
  <g id="Rectangle_Copy_5" data-name="Rectangle Copy 5" fill="none" stroke="#3e403d" stroke-miterlimit="10" stroke-width="1">
    <rect width="80" height="80" rx="10" stroke="none"/>
    <rect x="0.5" y="0.5" width="79" height="79" rx="9.5" fill="none"/>
  </g>
  <g id="Group_3" data-name="Group 3" transform="translate(15 23)">
    <path id="Clip_2-2" data-name="Clip 2" d="M0,0H49.986V34H0Z" transform="translate(0 0)" fill="none"/>
    <g id="Group_3-2" data-name="Group 3" clip-path="url(#clip-path)">
      <path id="Fill_1" data-name="Fill 1" d="M31.035,34a.776.776,0,0,1-.661-.374l-5.819-9.706L13.682,26.876a.769.769,0,0,1-.882-.382L.09,2.584A.769.769,0,0,1,.667,1.461L11.468.007a.768.768,0,0,1,.762.366L25.275,22.128l15.151-4.12-5.06-7.132a.769.769,0,0,1,.451-1.194L42.9,8.007a.773.773,0,0,1,.177-.021.764.764,0,0,1,.6.289l6.134,7.659a.77.77,0,0,1-.4,1.223l-6.462,1.758,5.634,7.942a.769.769,0,0,1-.374,1.171L31.289,33.956A.779.779,0,0,1,31.035,34ZM41.374,19.345,26.1,23.5l5.275,8.8,15.371-5.383ZM11.171,1.6l-9.2,1.238,11.9,22.392,9.861-2.682L11.171,1.6ZM42.785,9.617l-5.5,1.3,4.726,6.661,5.874-1.6-5.1-6.364Z" transform="translate(0 0)" fill="#3e403d"/>
    </g>
  </g>
</svg>
