<svg id="Group_7" data-name="Group 7" xmlns="http://www.w3.org/2000/svg" xmlns:xlink="http://www.w3.org/1999/xlink" width="80" height="80" viewBox="0 0 80 80">
  <defs>
    <clipPath id="clip-path">
      <path id="Clip_2" data-name="Clip 2" d="M0,0H40V39.9H0Z" transform="translate(0 0)" fill="none"/>
    </clipPath>
  </defs>
  <g id="Group_3" data-name="Group 3" transform="translate(20 20)">
    <path id="Clip_2-2" data-name="Clip 2" d="M0,0H40V39.9H0Z" transform="translate(0 0)" fill="none"/>
    <g id="Group_3-2" data-name="Group 3" clip-path="url(#clip-path)">
      <path id="Fill_1" data-name="Fill 1" d="M28.82,39.9a11.191,11.191,0,0,1-5.5-1.45l-.077-.042-.02-.011.019.01.077.042a18.985,18.985,0,0,1-3.308.294A18.878,18.878,0,0,1,1.122,19.859a19.021,19.021,0,0,1,.284-3.253c.016.025.03.05.043.076-.014-.027-.028-.053-.043-.079A11.175,11.175,0,0,1,16.426,1.31h.009A19,19,0,0,1,20.011.972,18.874,18.874,0,0,1,38.9,19.859a18.956,18.956,0,0,1-.315,3.424v0A11.177,11.177,0,0,1,28.82,39.9ZM12.6,23.5a2.121,2.121,0,0,0-2.227,2.157,4.983,4.983,0,0,0,2.34,3.813,12.415,12.415,0,0,0,7.372,1.959,11.331,11.331,0,0,0,7.168-2.054,6.385,6.385,0,0,0,2.38-5.145c0-3.459-2.041-5.668-6.066-6.565l-4.417-.981a10.08,10.08,0,0,1-2.438-.786,1.879,1.879,0,0,1-1.178-1.687c0-1.663,1.459-2.7,3.807-2.7a5.512,5.512,0,0,1,4.8,2.133,2.61,2.61,0,0,0,3.83.717,1.879,1.879,0,0,0,.726-1.52c0-1.409-1.048-2.759-2.951-3.8A13.147,13.147,0,0,0,19.7,7.518,11.979,11.979,0,0,0,13.386,9.1a6.063,6.063,0,0,0-2.948,5.39,5.742,5.742,0,0,0,1.037,3.587,7.873,7.873,0,0,0,4.642,2.66l5.969,1.49c1.5.37,2.258,1.17,2.258,2.378,0,1.5-1.463,3.013-4.258,3.013a5.442,5.442,0,0,1-5.048-2.536C14.381,24.233,13.814,23.5,12.6,23.5Z" transform="translate(0 0)" fill="#3e403d"/>
    </g>
  </g>
  <g id="Rectangle_Copy_6" data-name="Rectangle Copy 6" fill="none" stroke="#3e403d" stroke-miterlimit="10" stroke-width="1">
    <rect width="80" height="80" rx="10" stroke="none"/>
    <rect x="0.5" y="0.5" width="79" height="79" rx="9.5" fill="none"/>
  </g>
</svg>
