<svg id="_1" data-name="1" xmlns="http://www.w3.org/2000/svg" xmlns:xlink="http://www.w3.org/1999/xlink" width="80" height="80" viewBox="0 0 80 80">
  <defs>
    <clipPath id="clip-path">
      <path id="Clip_8" data-name="Clip 8" d="M0,0H18.658V18.56H0Z" transform="translate(0 0.107)" fill="none"/>
    </clipPath>
  </defs>
  <g id="Group_10" data-name="Group 10" transform="translate(20 20)">
    <path id="Fill_1" data-name="Fill 1" d="M14.657,18.534H4a3.974,3.974,0,1,1,0-7.947H14.631a3.974,3.974,0,1,1,.026,7.947ZM18.631,7.947h-4a3.974,3.974,0,1,1,4-3.974V7.946Z" transform="translate(0 0.027)" fill="#3e403d"/>
    <path id="Fill_3" data-name="Fill 3" d="M14.707,18.56H10.658V14.586a4,4,0,1,1,4.049,3.974Zm-10.657,0H4a3.991,3.991,0,0,1-4-3.974V3.974a4,4,0,0,1,8,0V14.586A3.966,3.966,0,0,1,6.852,17.4,3.914,3.914,0,0,1,4.05,18.56Z" transform="translate(21.289 0)" fill="#3e403d"/>
    <path id="Fill_5" data-name="Fill 5" d="M4,18.56a3.991,3.991,0,0,1-4-3.974V10.614H4A3.973,3.973,0,1,1,4,18.56ZM14.657,7.947H4A3.974,3.974,0,1,1,4,0H14.657a3.974,3.974,0,1,1,0,7.947Z" transform="translate(21.289 21.227)" fill="#3e403d"/>
    <g id="Group_9" data-name="Group 9" transform="translate(0 21.12)">
      <path id="Clip_8-2" data-name="Clip 8" d="M0,0H18.658V18.56H0Z" transform="translate(0 0.107)" fill="none"/>
      <g id="Group_9-2" data-name="Group 9" clip-path="url(#clip-path)">
        <path id="Fill_7" data-name="Fill 7" d="M14.657,18.56a3.991,3.991,0,0,1-4-3.974V3.974a4,4,0,0,1,8,0V14.586A3.992,3.992,0,0,1,14.657,18.56ZM4,7.946A3.973,3.973,0,1,1,4,0H8V3.974A3.991,3.991,0,0,1,4,7.946Z" transform="translate(0 0.107)" fill="#3e403d"/>
      </g>
    </g>
  </g>
  <g id="Rectangle_Copy_4" data-name="Rectangle Copy 4" fill="none" stroke="#3e403d" stroke-miterlimit="10" stroke-width="1">
    <rect width="80" height="80" rx="10" stroke="none"/>
    <rect x="0.5" y="0.5" width="79" height="79" rx="9.5" fill="none"/>
  </g>
</svg>
