<svg id="_2" data-name="2" xmlns="http://www.w3.org/2000/svg" xmlns:xlink="http://www.w3.org/1999/xlink" width="80" height="80" viewBox="0 0 80 80">
  <defs>
    <clipPath id="clip-path">
      <path id="Clip_2" data-name="Clip 2" d="M0,0H40V40H0Z" transform="translate(0 0)" fill="none"/>
    </clipPath>
  </defs>
  <g id="Rectangle_Copy_3" data-name="Rectangle Copy 3" fill="none" stroke="#3e403d" stroke-miterlimit="10" stroke-width="1">
    <rect width="80" height="80" rx="10" stroke="none"/>
    <rect x="0.5" y="0.5" width="79" height="79" rx="9.5" fill="none"/>
  </g>
  <g id="Group_3" data-name="Group 3" transform="translate(20 20)">
    <path id="Clip_2-2" data-name="Clip 2" d="M0,0H40V40H0Z" transform="translate(0 0)" fill="none"/>
    <g id="Group_3-2" data-name="Group 3" clip-path="url(#clip-path)">
      <path id="Fill_1" data-name="Fill 1" d="M36.094,40H3.906A3.91,3.91,0,0,1,0,36.094V3.906A3.91,3.91,0,0,1,3.906,0H36.094A3.91,3.91,0,0,1,40,3.906V36.094A3.91,3.91,0,0,1,36.094,40ZM7.075,5.2A1.877,1.877,0,0,0,5.2,7.075v23.75A1.877,1.877,0,0,0,7.075,32.7h8.45A1.877,1.877,0,0,0,17.4,30.825V7.075A1.877,1.877,0,0,0,15.525,5.2Zm17.4,0A1.877,1.877,0,0,0,22.6,7.075v13.75A1.877,1.877,0,0,0,24.475,22.7h8.45A1.877,1.877,0,0,0,34.8,20.825V7.075A1.877,1.877,0,0,0,32.925,5.2Z" transform="translate(0 0)" fill="#3e403d"/>
    </g>
  </g>
</svg>
