<?xml version="1.0" encoding="UTF-8"?>
<svg width="53px" height="60px" viewBox="0 0 53 60" version="1.1" xmlns="http://www.w3.org/2000/svg" xmlns:xlink="http://www.w3.org/1999/xlink">
    <!-- Generator: Sketch 53 (72520) - https://sketchapp.com -->
    <title>Group</title>
    <desc>Created with Sketch.</desc>
    <g id="Page-1" stroke="none" stroke-width="1" fill="none" fill-rule="evenodd">
        <g id="Technology" transform="translate(-169.000000, -225.000000)" fill="#FFFFFF">
            <g id="technologies">
                <g id="Group-14" transform="translate(100.000000, 225.000000)">
                    <g id="Group">
                        <path d="M69,0 L73.8234063,54.0022667 L95.4677088,60 L117.171551,53.9937 L122,0 L69,0 Z M79.0213502,12.8155667 L78.8625658,11.0387333 L95.4770589,11.0387333 L95.5000334,11.0387333 L112.097997,11.0387333 L111.939346,12.8155667 L111.636904,16.1732333 L111.503933,17.662 L111.482595,17.662 L95.5000334,17.662 L95.4770589,17.662 L86.1138209,17.662 L86.720207,24.4441333 L95.4770589,24.4441333 L95.5000334,24.4441333 L109.112149,24.4441333 L110.900185,24.4441333 L110.738295,26.2228 L109.179102,43.6592 L109.079357,44.7780333 L95.5000334,48.5347667 L95.5000334,48.5359667 L95.4693117,48.5443333 L81.8781005,44.7780333 L80.9485355,34.3788333 L84.0184343,34.3788333 L87.609166,34.3788333 L88.081512,39.6610667 L95.4710147,41.6528 L95.4770589,41.6512333 L95.4770589,41.6507667 L102.877247,39.6569333 L103.647427,31.0673 L95.5000334,31.0673 L95.4770589,31.0673 L80.6522047,31.0673 L79.0213502,12.8155667 Z" id="Fill-1"></path>
                    </g>
                </g>
            </g>
        </g>
    </g>
</svg>