<?xml version="1.0" encoding="UTF-8"?>
<svg width="67px" height="60px" viewBox="0 0 67 60" version="1.1" xmlns="http://www.w3.org/2000/svg" xmlns:xlink="http://www.w3.org/1999/xlink">
    <!-- Generator: Sketch 53 (72520) - https://sketchapp.com -->
    <title>Group 33</title>
    <desc>Created with Sketch.</desc>
    <defs>
        <polygon id="path-1" points="0 1.83486238e-05 66.999986 1.83486238e-05 66.999986 59.8760917 0 59.8760917"></polygon>
    </defs>
    <g id="Page-1" stroke="none" stroke-width="1" fill="none" fill-rule="evenodd">
        <g id="Technology" transform="translate(-792.000000, -365.000000)">
            <g id="technologies">
                <g id="Group-15" transform="translate(100.000000, 365.000000)">
                    <g id="Group-33" transform="translate(630.000000, 0.000000)">
                        <g id="Group-3" transform="translate(62.000000, 0.000000)">
                            <mask id="mask-2" fill="white">
                                <use xlink:href="#path-1"></use>
                            </mask>
                            <g id="Clip-2"></g>
                            <path d="M61.7001899,41.2416697 C65.428694,26.4757982 56.4457378,9.16515596 41.1899296,1.83486238e-05 C47.970146,9.16515596 50.6820858,20.0264404 48.3086337,29.7005688 C48.1393899,30.5495596 47.8009022,31.398367 47.4611296,32.2471743 C44.5399296,30.2262569 31.019146,21.8950642 14.7465899,5.4313945 C14.2383077,4.9220367 23.5604858,18.6702936 33.9003296,29.531578 C28.9858337,26.6468073 15.2557899,16.8016697 6.61113781,8.82533945 C7.62770219,10.5227706 8.98367205,12.2200183 10.3398255,14.0869908 C17.6275899,23.4218532 26.9506858,34.6224037 38.3072775,43.2787339 C30.3408858,48.2011193 19.1535378,48.5391009 7.79712959,43.2787339 C4.9155789,42.0897431 2.54267753,40.3937798 -1.83561644e-05,38.5268073 C4.74615151,45.9941468 12.0348337,52.6128624 20.8487296,56.3464404 C31.3576337,60.9291927 42.1211378,60.9792844 50.851146,55.6684587 C54.5796501,53.8014862 62.038494,51.764055 66.1071378,59.571211 C66.9546419,61.778 68.9879542,51.5948807 61.3600501,42.2605688 C61.529294,41.9207523 61.529294,41.5809358 61.7001899,41.2409358 L61.7001899,41.2416697 Z" id="Fill-1" fill="#FFFFFF" mask="url(#mask-2)"></path>
                        </g>
                    </g>
                </g>
            </g>
        </g>
    </g>
</svg>