<?xml version="1.0" encoding="UTF-8"?>
<svg width="59px" height="59px" viewBox="0 0 59 59" version="1.1" xmlns="http://www.w3.org/2000/svg" xmlns:xlink="http://www.w3.org/1999/xlink">
    <!-- Generator: Sketch 53 (72520) - https://sketchapp.com -->
    <title>Group 34</title>
    <desc>Created with Sketch.</desc>
    <defs>
        <polygon id="path-1" points="0 0.866538462 58.1323529 0.866538462 58.1323529 58.8456923 0 58.8456923"></polygon>
        <polygon id="path-3" points="0 59.1339231 58.1323529 59.1339231 58.1323529 1.15430769 0 1.15430769"></polygon>
    </defs>
    <g id="Page-1" stroke="none" stroke-width="1" fill="none" fill-rule="evenodd">
        <g id="Technology" transform="translate(-1006.000000, -366.000000)">
            <g id="technologies">
                <g id="Group-15" transform="translate(100.000000, 365.000000)">
                    <g id="Group-34" transform="translate(840.000000, 0.000000)">
                        <g id="Group-16" transform="translate(66.000000, 0.000000)">
                            <g id="Group-3" transform="translate(0.000000, 0.287769)">
                                <mask id="mask-2" fill="white">
                                    <use xlink:href="#path-1"></use>
                                </mask>
                                <g id="Clip-2"></g>
                                <path d="M29.0782078,2.38338462 C21.6916392,2.42723077 14.630149,5.41915385 9.4728549,10.6922308 C4.34216863,15.8083846 1.47893333,22.7603077 1.52289412,29.9960769 C1.63626667,44.8541538 14.1893843,57.3133846 28.9787176,57.3133846 L29.1765412,57.3133846 C44.4101098,57.1760769 56.6705412,44.7883846 56.6103843,29.5945385 C56.5421294,22.3541538 53.5782471,15.4414615 48.3793059,10.3887692 C43.2763843,5.25530769 36.3259529,2.37184615 29.0782078,2.38338462 L29.0782078,2.38338462 Z M28.9868157,58.8456923 C13.3680118,58.8456923 0.121933333,45.6883846 0.000462745098,30.0110769 C-0.0539098039,22.3726154 2.95971765,15.0295385 8.36920784,9.62261538 C13.8145608,4.05992308 21.2682275,0.906461538 29.0631686,0.866076923 C36.7158157,0.859153846 44.0549529,3.89953846 49.4517176,9.31107692 C54.9387176,14.6464615 58.0634039,21.9445385 58.1328157,29.5864615 C58.2045412,45.6099231 45.2870118,58.683 29.2228157,58.8456923 L28.9868157,58.8456923 Z" id="Fill-1" fill="#FFFFFF" mask="url(#mask-2)"></path>
                            </g>
                            <polygon id="Fill-4" fill="#FFFFFF" points="6.52054118 38.6235 6.52054118 21.6873462 10.651698 21.6873462 10.651698 23.2046538 8.4606 23.2046538 8.4606 37.1361923 10.651698 37.1361923 10.651698 38.6535"></polygon>
                            <path d="M13.6492451,30.1250769 C13.6492451,31.9989231 14.5920882,33.4862308 16.2128529,33.4862308 C17.8336176,33.4862308 18.7614216,31.9689231 18.7614216,30.0558462 C18.7614216,28.3193077 17.9018725,26.6796923 16.2128529,26.6796923 C14.5238333,26.6796923 13.6342059,28.2662308 13.6342059,30.1631538 L13.6492451,30.1250769 Z M20.5418333,29.9877692 C20.5418333,33.0766154 18.6630882,34.8373846 16.1145196,34.8373846 C13.565951,34.8373846 11.8688333,32.8562308 11.8688333,30.1481538 C11.8688333,27.3166154 13.6492451,25.3216154 16.2510294,25.3216154 C18.8528137,25.3216154 20.5418333,27.4008462 20.5418333,29.9877692 L20.5418333,29.9877692 Z" id="Fill-6" fill="#FFFFFF"></path>
                            <path d="M23.6458118,33.5089615 C23.9419686,33.5389615 24.2392824,33.5516538 24.5365961,33.5470385 C25.6171059,33.5470385 26.5749882,33.1374231 26.5749882,32.0297308 C26.5749882,30.9220385 25.6460275,30.5112692 24.4833804,30.5112692 L23.6458118,30.5112692 L23.6458118,33.5089615 Z M23.6458118,29.2755 L24.5053608,29.2755 C25.6703216,29.2755 26.323949,28.7285769 26.323949,27.9474231 C26.323949,27.1651154 25.6703216,26.6874231 24.5967529,26.6874231 C24.2751451,26.6770385 23.9546941,26.7001154 23.6388706,26.7555 L23.6458118,29.2755 Z M21.9718314,25.6408846 C22.7804784,25.5012692 23.6006941,25.4320385 24.4220667,25.4355 C25.3440863,25.3455 26.2718902,25.5508846 27.0689686,26.0193462 C27.6786353,26.3781923 28.0453608,27.0370385 28.0280078,27.7420385 C28.0060275,28.6651154 27.3917333,29.4705 26.5067333,29.7381923 C27.5918706,29.9574231 28.3704392,30.9105 28.3704392,32.0147308 C28.3820078,32.7497308 28.0534588,33.4489615 27.4796549,33.9116538 C26.8260275,34.4885769 25.7385765,34.7689615 24.056498,34.7689615 C23.3646941,34.7724231 22.6740471,34.7320385 21.9868706,34.6466538 L21.9718314,25.6408846 Z" id="Fill-8" fill="#FFFFFF"></path>
                            <path d="M31.6952627,25.5188077 L33.3761843,25.5188077 L33.3761843,31.5049615 C33.3761843,34.0480385 32.1441255,34.8984231 30.3324784,34.8984231 C29.8489098,34.8938077 29.3688118,34.8118846 28.9106941,34.6549615 L29.1166157,33.3038077 C29.4544196,33.4099615 29.804949,33.4665 30.1577922,33.4722692 C31.1168314,33.4722692 31.6790667,33.0315 31.6790667,31.4380385 L31.6952627,25.5188077 Z" id="Fill-10" fill="#FFFFFF"></path>
                            <mask id="mask-4" fill="white">
                                <use xlink:href="#path-3"></use>
                            </mask>
                            <g id="Clip-13"></g>
                            <polygon id="Fill-12" fill="#FFFFFF" mask="url(#mask-4)" points="34.6619216 31.6654615 38.1614314 31.6654615 38.1614314 30.5046923 34.6619216 30.5046923"></polygon>
                            <path d="M46.3323529,34.4498077 C45.5769216,34.7509615 44.7659608,34.8905769 43.9503725,34.8594231 C41.0223529,34.8594231 39.2419412,33.0317308 39.2419412,30.2313462 C39.1065882,27.6778846 41.072098,25.4994231 43.6310784,25.3644231 C43.811549,25.3551923 43.9920196,25.3563462 44.1724902,25.3667308 C44.9545294,25.3355769 45.733098,25.4751923 46.4538235,25.7763462 L46.0813137,27.1125 C45.5098235,26.8701923 44.8932157,26.7478846 44.2708235,26.7559615 C42.3920784,26.7559615 41.0373922,27.9317308 41.0373922,30.1471154 C41.0373922,32.1663462 42.2324314,33.4713462 44.2557843,33.4713462 C44.8839608,33.4805769 45.5063529,33.3651923 46.0894118,33.1298077 L46.3323529,34.4498077 Z" id="Fill-14" fill="#FFFFFF" mask="url(#mask-4)"></path>
                            <polygon id="Fill-15" fill="#FFFFFF" mask="url(#mask-4)" points="51.6127373 21.6414231 51.6127373 38.6237308 47.4815804 38.6237308 47.4815804 37.1052692 49.6726784 37.1052692 49.6726784 23.1587308 47.4815804 23.1587308 47.4815804 21.6414231"></polygon>
                        </g>
                    </g>
                </g>
            </g>
        </g>
    </g>
</svg>