<?xml version="1.0" encoding="UTF-8"?>
<svg width="60px" height="60px" viewBox="0 0 60 60" version="1.1" xmlns="http://www.w3.org/2000/svg" xmlns:xlink="http://www.w3.org/1999/xlink">
    <!-- Generator: Sketch 53 (72520) - https://sketchapp.com -->
    <title>Group 35</title>
    <desc>Created with Sketch.</desc>
    <defs>
        <polygon id="path-1" points="0.14378125 0.0625625 54.5031563 0.0625625 54.5031563 21.25 0.14378125 21.25"></polygon>
        <polygon id="path-3" points="0 0 33.4172656 0 33.4172656 41.0140469 0 41.0140469"></polygon>
    </defs>
    <g id="Page-1" stroke="none" stroke-width="1" fill="none" fill-rule="evenodd">
        <g id="Technology" transform="translate(-1215.000000, -365.000000)">
            <g id="technologies">
                <g id="Group-15" transform="translate(100.000000, 365.000000)">
                    <g id="Group-35" transform="translate(1050.000000, 0.000000)">
                        <g id="Group-31" transform="translate(65.000000, 0.000000)">
                            <polygon id="Fill-1" fill="#FFFFFF" points="38.7765469 30.1718125 29.7656094 46.3922813 35.8202969 30.4030625 35.9124844 30.15775"></polygon>
                            <polygon id="Fill-2" fill="#FFFFFF" points="31.74225 31.2469531 31.7235 31.3936719 29.7656875 46.3922656 27.8063125 31.3936719 27.7874063 31.2469531 29.7656875 31.2469531"></polygon>
                            <polygon id="Fill-3" fill="#FFFFFF" points="23.7094063 30.4031406 29.7656563 46.3922031 20.7531562 30.1718906 23.6172188 30.1578281"></polygon>
                            <polygon id="Fill-4" fill="#FFFFFF" points="20.6124844 30.2421563 20.6812344 30.3827813 15.6952969 29.5327813 14.0609219 25.5484063 18.6812344 26.3859063 18.7187344 26.3921563 20.6109219 30.2421563"></polygon>
                            <polygon id="Fill-5" fill="#FFFFFF" points="25.7530938 26.4797187 27.7015313 31.4078437 23.7624688 30.3828437"></polygon>
                            <polygon id="Fill-6" fill="#FFFFFF" points="33.7765469 26.4797187 35.7671719 30.3828437 31.8281094 31.4078437"></polygon>
                            <polygon id="Fill-7" fill="#FFFFFF" points="45.46875 25.5484062 43.834375 29.5327812 38.8484375 30.3827813 38.9171875 30.2421562 38.91875 30.2421562 40.8109375 26.3921562 40.8484375 26.3859063"></polygon>
                            <polygon id="Fill-8" fill="#FFFFFF" points="36.6906719 16.875 40.7967656 26.1015625 33.8922344 26.1109375 33.8922344 26.109375 34.8077031 16.8578125 36.6906719 16.8578125"></polygon>
                            <polygon id="Fill-9" fill="#FFFFFF" points="25.6375156 26.1093906 29.7656406 16.8578281 33.8922031 26.1093906 33.8922031 26.1109531 33.7765781 26.1109531 29.7656406 26.1172031 25.7531406 26.1109531 25.6375156 26.1109531"></polygon>
                            <polygon id="Fill-10" fill="#FFFFFF" points="25.6375156 26.1093906 25.6375156 26.1109531 18.7328281 26.1015781 22.8390781 16.8750156 22.8390781 16.8578281 24.7218906 16.8578281"></polygon>
                            <polygon id="Fill-11" fill="#FFFFFF" points="38.8484219 30.3828437 43.8343594 29.5328437 29.7656094 46.3922187 38.7765469 30.17175 38.9171719 30.2422187"></polygon>
                            <polygon id="Fill-12" fill="#FFFFFF" points="35.8203125 30.4031406 29.765625 46.3922031 31.7234375 31.3937656 31.828125 31.4078281 35.7671875 30.3828281"></polygon>
                            <polygon id="Fill-13" fill="#FFFFFF" points="27.80625 31.3937344 29.765625 46.3921719 23.709375 30.4031094 23.7625 30.3827969 27.7015625 31.4077969"></polygon>
                            <polygon id="Fill-14" fill="#FFFFFF" points="20.7530938 30.1718125 29.7655938 46.3922812 15.6952813 29.53275 20.6812188 30.3829063 20.6124688 30.242125"></polygon>
                            <polygon id="Fill-15" fill="#FFFFFF" points="25.6375156 26.1109219 25.7531406 26.1109219 25.7531406 26.4796719 23.7625156 30.3827969 23.7093906 30.4031094 23.6172031 30.1577969 20.7531406 30.1718594 20.6125156 30.2421719 20.6109531 30.2421719 18.7187656 26.3921719 18.6812656 26.3859219 18.7328281 26.1015469"></polygon>
                            <polygon id="Fill-16" fill="#FFFFFF" points="31.74225 31.2469531 29.7656875 31.2469531 27.7874063 31.2469531 27.8063125 31.3936719 27.701625 31.4077344 25.7530313 26.4797656 25.7530313 26.1108594 29.7656875 26.1171094 33.776625 26.1108594 33.776625 26.4797656 31.8281875 31.4077344 31.7235 31.3936719"></polygon>
                            <polygon id="Fill-17" fill="#FFFFFF" points="40.7968125 26.1015312 40.848375 26.3859062 40.8110312 26.3921562 38.9186875 30.2421562 38.9172813 30.2421562 38.7765 30.1718437 35.9124375 30.1577812 35.82025 30.4030937 35.7672813 30.3827812 33.7765 26.4796562 33.7765 26.1109062 33.8922813 26.1109062"></polygon>
                            <polygon id="Fill-18" fill="#FFFFFF" points="37.9046563 16.8578281 45.6952813 24.9968906 45.4687188 25.5484531 40.8484063 26.3859531 40.7968438 26.1015781 36.6905938 16.8750156 36.6905938 16.8578281"></polygon>
                            <polygon id="Fill-19" fill="#FFFFFF" points="34.8077344 16.8578281 33.8922656 26.1093906 29.7655469 16.8578281"></polygon>
                            <polygon id="Fill-20" fill="#FFFFFF" points="29.765625 16.8578281 25.6375 26.1093906 24.721875 16.8578281"></polygon>
                            <polygon id="Fill-21" fill="#FFFFFF" points="22.8390469 16.8578281 22.8390469 16.8750156 18.7327969 26.1015781 18.6812344 26.3859531 14.0609219 25.5484531 13.8343594 24.9968906 21.6249844 16.8578281"></polygon>
                            <g id="Group-30">
                                <path d="M60,30 C60,33.921875 59.246875,37.66875 57.878125,41.1015625 L57.871875,41.0984375 L53.4109375,41.9859375 L50.621875,37.8234375 C51.5453125,35.3921875 52.05,32.7546875 52.05,30 C52.05,18.5453125 43.3171875,9.13125 32.1453125,8.053125 L32.1484375,8.0203125 L35.165625,3.9484375 L32.884375,0.1375 C48.1,1.5875 60,14.4046875 60,30" id="Fill-22" fill="#FFFFFF"></path>
                                <g id="Group-26" transform="translate(2.656250, 38.750000)">
                                    <mask id="mask-2" fill="white">
                                        <use xlink:href="#path-1"></use>
                                    </mask>
                                    <g id="Clip-25"></g>
                                    <path d="M50.1422187,4.8735 L54.5031563,4.00615625 C49.70925,14.1969375 39.3500313,21.2500625 27.3437813,21.2500625 C15.3031563,21.2500625 4.92034375,14.157875 0.14378125,3.92178125 L0.15003125,3.9188125 L2.56409375,0.0625625 L7.50628125,0.889125 L7.50784375,0.889125 C11.0828438,8.23740625 18.6219063,13.3000625 27.3437813,13.3000625 C36.1594062,13.3000625 43.7672187,8.12646875 47.2953437,0.6500625 L47.3219062,0.6625625 L50.1422187,4.8735 Z" id="Fill-24" fill="#FFFFFF" mask="url(#mask-2)"></path>
                                </g>
                                <g id="Group-29">
                                    <mask id="mask-4" fill="white">
                                        <use xlink:href="#path-3"></use>
                                    </mask>
                                    <g id="Clip-28"></g>
                                    <path d="M30.4327344,7.94998437 L30.4327344,7.95467187 C30.2889844,7.95154687 30.1452344,7.94998437 29.9999219,7.94998437 C17.8219531,7.94998437 7.94992188,17.8218594 7.94992188,29.9999844 C7.94992188,32.8485781 8.49054688,35.5687344 9.47335938,38.0687344 L9.44679688,38.0796719 L4.44851563,37.2437344 L2.08742188,41.0140469 C0.738984375,37.6046719 -7.8125e-05,33.8890469 -7.8125e-05,29.9999844 C-7.8125e-05,13.4312344 13.4311719,-1.5625e-05 29.9999219,-1.5625e-05 C30.3625781,-1.5625e-05 30.7219531,0.006234375 31.0811719,0.018734375 L33.4172656,3.92342187 L30.4327344,7.94998437 Z" id="Fill-27" fill="#FFFFFF" mask="url(#mask-4)"></path>
                                </g>
                            </g>
                        </g>
                    </g>
                </g>
            </g>
        </g>
    </g>
</svg>