<?xml version="1.0" encoding="UTF-8"?>
<svg width="53px" height="60px" viewBox="0 0 53 60" version="1.1" xmlns="http://www.w3.org/2000/svg" xmlns:xlink="http://www.w3.org/1999/xlink">
    <!-- Generator: Sketch 53 (72520) - https://sketchapp.com -->
    <title>Group 36</title>
    <desc>Created with Sketch.</desc>
    <defs>
        <polygon id="path-1" points="0 -5.68434189e-14 52.9999353 -5.68434189e-14 52.9999353 59.833338 0 59.833338"></polygon>
    </defs>
    <g id="Page-1" stroke="none" stroke-width="1" fill="none" fill-rule="evenodd">
        <g id="Technology" transform="translate(-169.000000, -505.000000)">
            <g id="technologies">
                <g id="Group-17" transform="translate(100.000000, 505.000000)">
                    <g id="Group-36">
                        <g id="Group-3" transform="translate(69.000000, 0.000000)">
                            <mask id="mask-2" fill="white">
                                <use xlink:href="#path-1"></use>
                            </mask>
                            <g id="Clip-2"></g>
                            <path d="M1.30303398,18.4881115 L1.30303398,18.4881115 C-2.33450508,29.7957073 1.88789727,41.7775192 10.9260535,48.4059512 L10.9275027,48.4003066 L16.8765457,29.9134077 L1.30945195,18.4925017 L20.5517645,18.4925017 L26.5006004,0.00497560976 L26.5020496,-4.18118467e-05 L7.25124883,-4.18118467e-05 L1.30303398,18.4881115 Z M10.929366,48.4038606 L10.9243973,48.4074146 L26.4989441,59.833338 L42.0770105,48.4040697 L26.5039129,36.9779373 L10.929366,48.4038606 Z M42.0770105,48.4038606 L36.1287957,29.9159164 L51.699616,18.4927108 L32.4525418,18.4927108 L26.5039129,0.00539372822 L26.5020496,0.00037630662 L45.7518152,0.00037630662 L51.7021004,18.4910383 L51.7023074,18.4906202 L51.7072762,18.4876934 C55.1624207,29.2147317 51.6039676,41.4152195 42.0770105,48.4038606 L42.0770105,48.4038606 Z" id="Fill-1" fill="#FFFFFF" mask="url(#mask-2)"></path>
                        </g>
                    </g>
                </g>
            </g>
        </g>
    </g>
</svg>