<?xml version="1.0" encoding="UTF-8"?>
<svg width="80px" height="60px" viewBox="0 0 80 60" version="1.1" xmlns="http://www.w3.org/2000/svg" xmlns:xlink="http://www.w3.org/1999/xlink">
    <!-- Generator: Sketch 53 (72520) - https://sketchapp.com -->
    <title>Group 37</title>
    <desc>Created with Sketch.</desc>
    <g id="Page-1" stroke="none" stroke-width="1" fill="none" fill-rule="evenodd">
        <g id="Technology" transform="translate(-365.000000, -505.000000)" fill="#FFFFFF">
            <g id="technologies">
                <g id="Group-17" transform="translate(100.000000, 505.000000)">
                    <g id="Group-37" transform="translate(210.000000, 0.000000)">
                        <path d="M55,0 L64.905,9.89958616 L64.905,9.92582182 L64.9575,9.92582182 L85.44875,9.92582182 L92.7071875,17.180292 L82.0946875,27.7873038 L74.83625,20.5325213 L74.83625,14.9018506 L64.905,14.9018506 L64.905,24.6443351 L82.0946875,41.8246272 L75.0984375,48.8170532 L86.2871875,60 L103.267188,60 L135,60 L125.094687,50.1528851 L110.630313,50.1528851 L90.4534375,50.1528851 L82.173125,41.8767861 L85.684375,38.3677676 L92.52375,45.2030921 L106.595,45.2030921 L92.7334375,31.322558 L96.270625,27.7873038 L110.132812,41.6412899 L110.132812,27.5774186 L103.319688,20.7683298 L106.804688,17.2852346 L89.5890625,0 L55,0 Z M106.8575,17.180292 L115.137812,25.456391 L115.137812,45.1768564 L125.06875,45.1768564 L125.06875,21.3445772 L113.879687,10.1616304 L106.8575,17.180292 Z" id="Fill-1"></path>
                    </g>
                </g>
            </g>
        </g>
    </g>
</svg>