<?xml version="1.0" encoding="UTF-8"?>
<svg width="113px" height="60px" viewBox="0 0 113 60" version="1.1" xmlns="http://www.w3.org/2000/svg" xmlns:xlink="http://www.w3.org/1999/xlink">
    <!-- Generator: Sketch 53 (72520) - https://sketchapp.com -->
    <title>Group 38</title>
    <desc>Created with Sketch.</desc>
    <defs>
        <polygon id="path-1" points="0.0937812593 0.480645161 42.2132045 0.480645161 42.2132045 42.026 0.0937812593 42.026"></polygon>
    </defs>
    <g id="Page-1" stroke="none" stroke-width="1" fill="none" fill-rule="evenodd">
        <g id="Technology" transform="translate(-559.000000, -505.000000)">
            <g id="technologies">
                <g id="Group-17" transform="translate(100.000000, 505.000000)">
                    <g id="Group-38" transform="translate(420.000000, 0.000000)">
                        <g id="Group-18" transform="translate(39.000000, 0.000000)">
                            <path d="M0,54.2808387 L3.72386364,54.2808387 L3.72386364,39.4556774 L9.53886932,52.3808387 C10.19825,53.9350323 11.1433409,54.5105161 12.9763807,54.5105161 C14.8100625,54.5105161 15.6980114,53.9350323 16.385642,52.3808387 L22.1723977,39.4556774 L22.1723977,54.2808387 L25.9251534,54.2808387 L25.9251534,39.4556774 C25.9251534,38.0169677 25.3518068,37.326 24.1486136,36.9518065 C21.3126989,36.0885806 19.421875,36.8369677 18.5628182,38.7653548 L12.8620966,51.546 L7.36233523,38.7653548 C6.53152841,36.8369677 4.6118125,36.0885806 1.74764773,36.9518065 C0.573346591,37.326 0,38.0169677 0,39.4556774 L0,54.2808387 Z" id="Fill-1" fill="#FFFFFE"></path>
                            <path d="M29.0189778,42.2192903 L32.7717335,42.2192903 L32.7717335,50.3657419 C32.7428415,50.8263871 32.9149097,51.8625161 34.9482676,51.8915484 C36.0082847,51.9199355 43.0264835,51.8915484 43.0842676,51.8915484 L43.0842676,42.161871 L46.8370233,42.161871 L46.8370233,55.4896129 C46.8370233,58.7709032 42.7972733,59.4909032 40.9070915,59.5192903 L29.1050119,59.5192903 L29.1050119,57.0154194 L40.9359835,57.0154194 C43.3423699,56.7560645 43.0553756,55.5470323 43.0553756,55.1438065 L43.0553756,54.1657419 L35.1203358,54.1657419 C31.4253642,54.1367097 29.0472278,52.4960645 29.0189778,50.6244516 C29.0189778,50.4521935 29.1050119,42.2773548 29.0189778,42.2192903" id="Fill-3" fill="#FFFFFE"></path>
                            <g id="Group-7" transform="translate(70.625000, 0.164774)">
                                <mask id="mask-2" fill="white">
                                    <use xlink:href="#path-1"></use>
                                </mask>
                                <g id="Clip-6"></g>
                                <path d="M38.8901057,32.6130968 C36.5986455,32.5556774 34.8227477,32.786 33.3332023,33.4195484 C32.9030318,33.5918065 32.2154011,33.5918065 32.1582591,34.1389032 C32.3874693,34.3692258 32.4163614,34.7434194 32.6166795,35.0595484 C32.9608159,35.6356774 33.5617705,36.4130968 34.106225,36.8156774 C34.7078216,37.2763226 35.3094182,37.7369677 35.9392648,38.1401935 C37.0570659,38.8305161 38.3174011,39.2337419 39.4063102,39.9247097 C40.0361568,40.3279355 40.6666455,40.846 41.296492,41.2776129 C41.6117364,41.5079355 41.8120545,41.882129 42.213333,42.026 L42.213333,41.9401935 C42.0123727,41.6801935 41.9552307,41.3066452 41.7549125,41.0189032 C41.4685602,40.7311613 41.1815659,40.4711613 40.8952136,40.1840645 C40.0644068,39.0614839 39.0339239,38.082129 37.9161227,37.2763226 C36.9999239,36.6434194 34.9948159,35.7795484 34.6224295,34.7143871 C34.6224295,34.7143871 34.5935375,34.6853548 34.5646455,34.6569677 C35.194492,34.5995484 35.9392648,34.3692258 36.5415034,34.1963226 C37.5148443,33.9376129 38.4034352,33.9950323 39.4063102,33.7356774 C39.8647307,33.6208387 40.3225091,33.4769677 40.7809295,33.3330968 L40.7809295,33.0737419 C40.265367,32.5556774 39.8929807,31.8647097 39.3485261,31.3756774 C37.8872307,30.1085806 36.2834011,28.8711613 34.6224295,27.8350323 C33.7338386,27.2595484 32.5884295,26.8847097 31.6426966,26.3956774 C31.2992023,26.2227742 30.7258557,26.1363226 30.5255375,25.8485806 C30.009975,25.2156774 29.7236227,24.3808387 29.3512364,23.6324516 C28.5204295,22.0485806 27.7185148,20.2930968 27.00135,18.6234194 C26.4864295,17.5008387 26.1711852,16.3782581 25.5406966,15.342129 C22.5904977,10.4485806 19.3815545,7.48341935 14.4544977,4.57632258 C13.3951227,3.97180645 12.1341455,3.71245161 10.7877761,3.39567742 C10.0718955,3.36729032 9.35601477,3.30987097 8.63949205,3.28083871 C8.18107159,3.07954839 7.72265114,2.53245161 7.32201477,2.27374194 C5.68929318,1.23696774 1.477475,-1.00819355 0.274281818,1.95696774 C-0.498740909,3.82793548 1.420975,5.66987097 2.07971364,6.62019355 C2.56702614,7.28212903 3.19687273,8.03051613 3.54036705,8.77890323 C3.74132727,9.26793548 3.79846932,9.78664516 3.9987875,10.3047097 C4.45720795,11.5711613 4.88673636,12.9814839 5.488975,14.1614839 C5.80357727,14.766 6.14771364,15.3995484 6.54835,15.9466452 C6.77756023,16.2634194 7.17819659,16.4072903 7.26423068,16.9253548 C6.86359432,17.5008387 6.83470227,18.3647097 6.60549205,19.0840645 C5.57436705,22.3369677 5.97564545,26.3666452 7.43694091,28.7556774 C7.89471932,29.4756774 8.98362841,31.0589032 10.4442818,30.4543871 C11.7335091,29.9363226 11.4471568,28.2956774 11.8195432,26.8563226 C11.9055773,26.5105161 11.8484352,26.2801935 12.0198614,26.0505161 L12.0198614,26.1079355 C12.4204977,26.9137419 12.8217761,27.6911613 13.1948045,28.4969677 C14.0821114,29.9072903 15.6294409,31.3756774 16.9180261,32.3543871 C17.6062989,32.8724516 18.1501114,33.7647097 19.0098102,34.0814839 L19.0098102,33.9950323 L18.9520261,33.9950323 C18.7806,33.7356774 18.5224977,33.6208387 18.2932875,33.4195484 C17.777725,32.9008387 17.2050205,32.2679355 16.8043841,31.6918065 C15.6011909,30.0801935 14.5405318,28.2956774 13.5954409,26.4530968 C13.1376625,25.5608387 12.7363841,24.582129 12.3639977,23.689871 C12.1919295,23.3440645 12.1919295,22.826 11.9055773,22.6530968 C11.4754068,23.2866452 10.8455602,23.8337419 10.5303159,24.6111613 C9.98586136,25.8485806 9.92871932,27.3743871 9.72840114,28.9569677 C9.613475,28.986 9.67061705,28.9569677 9.613475,29.0150323 C8.69727614,28.7847097 8.38138977,27.8350323 8.03789545,27.0285806 C7.17819659,24.9853548 7.0356625,21.7034194 7.78043523,19.3434194 C7.98075341,18.7389032 8.83981023,16.8389032 8.49631591,16.2634194 C8.32488977,15.7163226 7.75154318,15.3995484 7.43694091,14.9679355 C7.06455455,14.4208387 6.66327614,13.729871 6.40517386,13.1253548 C5.71754318,11.5137419 5.37404886,9.72858065 4.62927614,8.11696774 C4.28578182,7.36858065 3.68354318,6.59116129 3.19687273,5.90019355 C2.65241818,5.12341935 2.05082159,4.57632258 1.62129318,3.65503226 C1.477475,3.33890323 1.27779886,2.82019355 1.50636705,2.47503226 C1.56350909,2.24470968 1.67843523,2.15825806 1.90764545,2.10083871 C2.28003182,1.78406452 3.34004886,2.18664516 3.71243523,2.35954839 C4.77245227,2.79116129 5.66040114,3.1943871 6.54835,3.79890323 C6.94962841,4.08664516 7.37915682,4.63374194 7.89471932,4.7776129 L8.49631591,4.7776129 C9.41315682,4.97890323 10.4442818,4.83503226 11.3033386,5.0943871 C12.8217761,5.58341935 14.1970375,6.30341935 15.4291227,7.08019355 C19.1818784,9.46987097 22.2752534,12.8666452 24.3663955,16.9253548 C24.7098898,17.5872903 24.853708,18.1918065 25.1689523,18.8827742 C25.7699068,20.2930968 26.5153216,21.7324516 27.1162761,23.1137419 C27.7185148,24.4672903 28.2905773,25.8485806 29.1502761,26.9711613 C29.5798045,27.5756774 31.2992023,27.8924516 32.072225,28.2092258 C32.6449295,28.4679355 33.5335205,28.6982581 34.049083,29.0150323 C35.0230659,29.6195484 35.9970489,30.3105161 36.9138898,30.9724516 C37.3723102,31.3176129 38.8040716,32.0376129 38.8901057,32.6130968" id="Fill-5" fill="#FFFFFE" mask="url(#mask-2)"></path>
                            </g>
                            <path d="M80.2958097,7.76335484 C79.8084972,7.76335484 79.4650028,7.82077419 79.1215085,7.90722581 L79.1215085,7.96464516 L79.1786506,7.96464516 C79.4078608,8.42529032 79.8084972,8.74206452 80.0954915,9.14529032 C80.3247017,9.60529032 80.5250199,10.0659355 80.7542301,10.5272258 C80.7831222,10.4981935 80.8113722,10.4691613 80.8113722,10.4691613 C81.2126506,10.1814194 81.4129687,9.72077419 81.4129687,9.02980645 C81.2415426,8.82851613 81.2126506,8.62658065 81.0694744,8.42529032 C80.8974062,8.13754839 80.5250199,7.99367742 80.2958097,7.76335484" id="Fill-8" fill="#FFFFFE"></path>
                            <path d="M49.7014449,54.2808387 L60.4723994,54.2808387 C61.7327347,54.2808387 62.9359278,54.022129 63.9099108,53.5614839 C65.5432744,52.8130968 66.3162972,51.8053548 66.3162972,50.4808387 L66.3162972,47.7176129 C66.3162972,46.6524516 65.4283483,45.6447097 63.6524506,44.9543871 C62.7356097,44.6092258 61.5902006,44.4072903 60.4723994,44.4072903 L55.946621,44.4072903 C54.4281835,44.4072903 53.7123028,43.9466452 53.5113426,42.9395484 C53.4830926,42.8240645 53.4830926,42.7085806 53.4830926,42.5937419 L53.4830926,40.8956774 C53.4830926,40.8092258 53.4830926,40.6937419 53.5113426,40.5789032 C53.7123028,39.802129 54.1129392,39.6001935 55.4310585,39.4556774 L55.7745528,39.4556774 L66.4601153,39.4556774 L66.4601153,36.9518065 L55.974871,36.9518065 C54.4570756,36.9518065 53.6545188,37.0376129 52.9386381,37.2685806 C50.7325699,37.9595484 49.7585869,39.0530968 49.7585869,40.982129 L49.7585869,43.1692258 C49.7585869,44.8679355 51.6494108,46.3072903 54.8577119,46.6524516 C55.2012063,46.6814839 55.5742347,46.6814839 55.946621,46.6814839 L59.8136608,46.6814839 C59.957479,46.6814839 60.1000131,46.6814839 60.2149392,46.7105161 C61.3892403,46.8247097 61.9048028,47.0266452 62.2489392,47.4589032 C62.4775074,47.6885806 62.5346494,47.8905161 62.5346494,48.1492258 L62.5346494,50.3369677 C62.5346494,50.5963226 62.3632233,50.9414839 62.019729,51.229871 C61.6755926,51.5176129 61.1317801,51.7189032 60.4152574,51.7472903 C60.2720813,51.7472903 60.1860472,51.7763226 60.042871,51.7763226 L49.7014449,51.7763226 L49.7014449,54.2808387 Z" id="Fill-10" fill="#FFFFFE"></path>
                            <path d="M89.6349386,49.934129 C89.6349386,52.4960645 91.5540125,53.9347742 95.3928023,54.2225161 C95.7651886,54.2515484 96.108683,54.2805806 96.4810693,54.2805806 L106.220899,54.2805806 L106.220899,51.7760645 L96.3950352,51.7760645 C94.2185011,51.7760645 93.3876943,51.2296129 93.3876943,49.9050968 L93.3876943,36.9515484 L89.6349386,36.9515484 L89.6349386,49.934129 Z" id="Fill-12" fill="#FFFFFE"></path>
                            <path d="M72.7329636,49.847871 C72.7329636,49.9633548 72.7907477,50.0775484 72.8196398,50.2220645 C73.0193159,51.2588387 73.9939409,51.8336774 75.4834864,51.8336774 L78.8638557,51.8336774 L75.7691966,49.0130323 L80.0952989,49.0130323 L82.8169295,51.4885161 C83.332492,51.2007742 83.6477364,50.7981935 83.7626625,50.2794839 C83.7909125,50.164 83.7909125,50.0207742 83.7909125,49.9052903 L83.7909125,41.3562581 C83.7909125,41.2407742 83.7909125,41.1252903 83.7626625,41.0110968 C83.5617023,40.0317419 82.5877193,39.4852903 81.1264239,39.4852903 L75.4834864,39.4852903 C73.8218727,39.4852903 72.7329636,40.2046452 72.7329636,41.3562581 L72.7329636,49.847871 Z M68.6938557,50.0491613 L68.6938557,41.1252903 C68.6938557,38.8517419 70.2983273,37.4698065 73.4205943,37.0381935 C73.7640886,37.0098065 74.108867,36.9807742 74.4234693,36.9807742 L81.5277023,36.9807742 C81.9000886,36.9807742 82.215333,37.0098065 82.5877193,37.0381935 C85.7099864,37.4698065 87.2855659,38.8517419 87.2855659,41.1252903 L87.2855659,50.0491613 C87.2855659,51.8917419 86.6268273,52.8704516 85.0794977,53.5323871 L88.7462193,56.8717419 L84.4207591,56.8717419 L81.4416682,54.1652903 L78.4336852,54.3381935 L74.4234693,54.3381935 C73.7640886,54.3381935 73.0193159,54.2517419 72.2462932,54.0504516 C69.8687989,53.3885161 68.6938557,52.1214194 68.6938557,50.0491613 L68.6938557,50.0491613 Z" id="Fill-14" fill="#FFFFFE"></path>
                            <path d="M112.093368,54.3098065 L112.609572,54.3098065 L112.609572,51.7762581 L111.835907,51.7762581 L111.205419,53.5033548 L110.517788,51.7762581 L109.773015,51.7762581 L109.773015,54.3098065 L110.260328,54.3098065 L110.260328,52.3807742 L110.288578,52.3807742 L111.005101,54.3098065 L111.377487,54.3098065 L112.093368,52.3807742 L112.093368,54.3098065 Z M107.939334,54.3098065 L108.483788,54.3098065 L108.483788,52.207871 L109.200311,52.207871 L109.200311,51.7762581 L107.194561,51.7762581 L107.194561,52.207871 L107.939334,52.207871 L107.939334,54.3098065 Z" id="Fill-16" fill="#FFFFFE"></path>
                        </g>
                    </g>
                </g>
            </g>
        </g>
    </g>
</svg>