<?xml version="1.0" encoding="UTF-8"?>
<svg width="133px" height="52px" viewBox="0 0 133 52" version="1.1" xmlns="http://www.w3.org/2000/svg" xmlns:xlink="http://www.w3.org/1999/xlink">
    <!-- Generator: Sketch 53 (72520) - https://sketchapp.com -->
    <title>Group 39</title>
    <desc>Created with Sketch.</desc>
    <defs>
        <polygon id="path-1" points="0.0119124682 0.20025098 8.19665802 0.20025098 8.19665802 9.85620915 0.0119124682 9.85620915"></polygon>
        <polygon id="path-3" points="0.247014504 0.30900915 8.02497634 0.30900915 8.02497634 12.9150327 0.247014504 12.9150327"></polygon>
        <polygon id="path-5" points="0.134861323 0.200284967 7.93448219 0.200284967 7.93448219 9.85620915 0.134861323 9.85620915"></polygon>
        <polygon id="path-7" points="0.310197964 0.20025098 8.49494351 0.20025098 8.49494351 9.85620915 0.310197964 9.85620915"></polygon>
        <polygon id="path-9" points="0 51.6601307 132.780702 51.6601307 132.780702 0.244026144 0 0.244026144"></polygon>
    </defs>
    <g id="Page-1" stroke="none" stroke-width="1" fill="none" fill-rule="evenodd">
        <g id="Technology" transform="translate(-759.000000, -509.000000)">
            <g id="technologies">
                <g id="Group-17" transform="translate(100.000000, 505.000000)">
                    <g id="Group-39" transform="translate(630.000000, 0.000000)">
                        <g id="Group-45" transform="translate(29.000000, 4.000000)">
                            <polygon id="Fill-1" fill="#FFFFFF" points="17.0989267 49.8385673 9.29321425 47.0264889 9.29321425 35.5361882 17.0989267 38.2072209"></polygon>
                            <polygon id="Fill-2" fill="#FFFFFF" points="18.5304534 49.8385673 26.3361659 47.0264889 26.3361659 35.5361882 18.5304534 38.2072209"></polygon>
                            <polygon id="Fill-3" fill="#FFFFFF" points="10.095343 34.6768627 17.9954753 32.4435817 25.320628 34.8155294 17.9954753 37.3132288"></polygon>
                            <polygon id="Fill-4" fill="#FFFFFF" points="0 30.9746327 7.80571247 33.7867111 7.80571247 22.1550248 0 19.4846719"></polygon>
                            <polygon id="Fill-5" fill="#FFFFFF" points="9.23737455 33.7867111 17.0434254 30.9746327 17.0434254 19.4846719 9.23737455 22.1550248"></polygon>
                            <polygon id="Fill-6" fill="#FFFFFF" points="0.802264122 18.6246667 8.70239644 16.3917255 16.0278875 18.7636732 8.70239644 21.2610327"></polygon>
                            <polygon id="Fill-7" fill="#FFFFFF" points="26.0198763 33.7867111 18.2138254 30.9746327 18.2138254 19.4846719 26.0198763 22.1550248"></polygon>
                            <polygon id="Fill-8" fill="#FFFFFF" points="27.4512338 33.7867111 35.2572847 30.9746327 35.2572847 19.4846719 27.4512338 22.1550248"></polygon>
                            <polygon id="Fill-9" fill="#FFFFFF" points="19.0162588 18.6246667 26.9160527 16.3917255 34.2415438 18.7636732 26.9160527 21.2610327"></polygon>
                            <polygon id="Fill-10" fill="#FFFFFF" points="35.3127522 17.734685 27.5070397 14.9229464 27.5070397 3.43264575 35.3127522 6.10333856"></polygon>
                            <polygon id="Fill-11" fill="#FFFFFF" points="36.7442789 17.734685 44.5503298 14.9229464 44.5503298 3.43264575 36.7442789 6.10333856"></polygon>
                            <polygon id="Fill-12" fill="#FFFFFF" points="36.2090977 0.339903268 28.3093038 2.57284444 36.2090977 5.20921046 43.5345888 2.71185098"></polygon>
                            <polygon id="Fill-13" fill="#FFFFFF" points="53.5266115 17.734685 45.7205606 14.9229464 45.7205606 3.43264575 53.5266115 6.10333856"></polygon>
                            <polygon id="Fill-14" fill="#FFFFFF" points="54.9581382 17.734685 62.7641891 14.9229464 62.7641891 3.43264575 54.9581382 6.10333856"></polygon>
                            <polygon id="Fill-15" fill="#FFFFFF" points="54.4229908 0.339903268 46.5231969 2.57284444 54.4229908 5.20921046 61.7481435 2.71185098"></polygon>
                            <polygon id="Fill-16" fill="#FFFFFF" points="48.4114924 42.3537621 46.3711438 49.1926118 44.3169198 42.3537621 43.2776247 42.3537621 41.387874 49.1705203 39.4033651 42.3537621 37.9938359 42.3537621 40.7191514 51.5016837 41.880617 51.5016837 43.7527697 44.707017 45.7941336 51.5016837 46.9339402 51.5016837 49.5560369 42.3537621"></polygon>
                            <g id="Group-44" transform="translate(0.000000, 0.095843)">
                                <g id="Group-19" transform="translate(50.086514, 41.803922)">
                                    <mask id="mask-2" fill="white">
                                        <use xlink:href="#path-1"></use>
                                    </mask>
                                    <g id="Clip-18"></g>
                                    <path d="M6.64566819,4.08903529 C6.63348499,3.57617255 6.54989466,3.12040784 6.39354351,2.72242092 C6.23753079,2.32375425 5.97356132,1.98456471 5.60163511,1.70349281 C5.22970891,1.42310065 4.78265293,1.28273464 4.2608056,1.28273464 C3.55891756,1.28273464 2.96329415,1.53627712 2.47461221,2.04336209 C1.98559186,2.55044706 1.71146972,3.23222484 1.65123053,4.08903529 L6.64566819,4.08903529 Z M6.7228285,6.87290458 L8.04267583,7.1448 C7.80239593,7.92717908 7.33435776,8.57496993 6.63856132,9.08715294 C5.94174962,9.60001569 5.12276743,9.85627712 4.18026107,9.85627712 C2.93791247,9.85627712 1.93279796,9.41682614 1.16424071,8.53690458 C0.396021883,7.65766275 0.0119124682,6.50448627 0.0119124682,5.0780549 C0.0119124682,3.62103529 0.411250891,2.44406797 1.20958931,1.54681307 C2.00758931,0.648878431 3.00999644,0.20025098 4.21681069,0.20025098 C5.40568855,0.20025098 6.36139338,0.613192157 7.08460204,1.43975425 C7.80814911,2.26665621 8.17872163,3.50276078 8.19665802,5.14942745 L1.58523817,5.14942745 C1.58523817,6.53303529 1.8728972,7.46597647 2.44923053,7.94927059 C3.0245486,8.43256471 3.63370891,8.6738719 4.27535776,8.6738719 C5.43310076,8.6738719 6.24869873,8.07366275 6.7228285,6.87290458 L6.7228285,6.87290458 Z" id="Fill-17" fill="#FFFFFF" mask="url(#mask-2)"></path>
                                </g>
                                <g id="Group-22" transform="translate(59.900763, 38.745098)">
                                    <mask id="mask-4" fill="white">
                                        <use xlink:href="#path-3"></use>
                                    </mask>
                                    <g id="Clip-21"></g>
                                    <path d="M1.66601959,9.07423791 C1.73201196,10.0136366 2.01865573,10.6950745 2.52628931,11.1192314 C3.0339229,11.5430484 3.56998397,11.7551268 4.13447252,11.7551268 C4.85497379,11.7551268 5.43604504,11.4407477 5.87734784,10.8123294 C6.31898906,10.184251 6.53964046,9.32302222 6.53964046,8.22966275 C6.53964046,7.05167582 6.32643435,6.12553203 5.90002214,5.45157124 C5.4732715,4.77795033 4.88170916,4.4408 4.12567354,4.4408 C3.53072697,4.4408 2.99500433,4.68074771 2.51749033,5.1599634 C2.03963791,5.64019869 1.75603995,6.25978039 1.66601959,7.0197281 L1.66601959,9.07423791 Z M0.928935623,12.6608784 L0.247014504,12.6608784 L0.247014504,0.30900915 L1.66601959,0.30900915 L1.66601959,5.03761046 C2.31376005,3.85180654 3.20685674,3.25907451 4.34632494,3.25907451 C5.38934275,3.25907451 6.26314936,3.67269542 6.96808321,4.50129673 C7.6723402,5.3292183 8.02497634,6.53235556 8.02497634,8.10934902 C8.02497634,9.46950588 7.67809338,10.6104471 6.98534275,11.5318327 C6.29157684,12.453898 5.39001959,12.9151007 4.27965573,12.9151007 C3.04339873,12.9151007 2.09513919,12.3254275 1.4348771,11.1474405 L0.928935623,12.6608784 Z" id="Fill-20" fill="#FFFFFF" mask="url(#mask-4)"></path>
                                </g>
                                <g id="Group-25" transform="translate(71.407125, 41.803922)">
                                    <mask id="mask-6" fill="white">
                                        <use xlink:href="#path-5"></use>
                                    </mask>
                                    <g id="Clip-24"></g>
                                    <path d="M0.134861323,7.23116078 L1.48787405,6.95042876 C1.78873155,8.0995268 2.73902163,8.67390588 4.33874427,8.67390588 C4.92759924,8.67390588 5.42711069,8.54169673 5.83592494,8.27659869 C6.24507761,8.01184052 6.44948473,7.63832418 6.44948473,7.15638954 C6.44948473,6.44028497 5.92899109,5.98553987 4.88800382,5.79283399 L2.96914885,5.42611503 C2.21785115,5.28133072 1.6201972,4.99753987 1.17551018,4.57474248 C0.731161578,4.1519451 0.508818066,3.59353987 0.508818066,2.89884706 C0.508818066,2.13244183 0.812044529,1.49076863 1.41883588,0.97450719 C2.0252888,0.458245752 2.84224046,0.200284967 3.86935242,0.200284967 C5.84540076,0.200284967 7.06541349,0.975866667 7.52769847,2.5266902 L6.22951018,2.80708235 C5.85690712,1.85714771 5.0917341,1.38201046 3.93365267,1.38201046 C3.35698092,1.38201046 2.88420483,1.50096471 2.51464758,1.73819346 C2.14542875,1.97542222 1.96098855,2.30713464 1.96098855,2.73401046 C1.96098855,3.4062719 2.43308779,3.82940915 3.37627099,4.00410196 L5.14960433,4.33173595 C7.00652799,4.66990588 7.93448219,5.57463791 7.93448219,7.04389281 C7.93448219,7.88438954 7.58895293,8.56344837 6.89721756,9.08004967 C6.20615903,9.59767059 5.28666539,9.85631111 4.1380598,9.85631111 C1.98027863,9.85631111 0.645540712,8.98080784 0.134861323,7.23116078" id="Fill-23" fill="#FFFFFF" mask="url(#mask-6)"></path>
                                </g>
                                <g id="Group-28" transform="translate(79.867684, 41.803922)">
                                    <mask id="mask-8" fill="white">
                                        <use xlink:href="#path-7"></use>
                                    </mask>
                                    <g id="Clip-27"></g>
                                    <path d="M6.94395369,4.08903529 C6.93210891,3.57617255 6.84784173,3.12040784 6.69216743,2.72242092 C6.53581628,2.32375425 6.27218524,1.98456471 5.90025903,1.70349281 C5.52833282,1.42310065 5.08093842,1.28273464 4.55942952,1.28273464 C3.85754148,1.28273464 3.26191807,1.53627712 2.77289771,2.04336209 C2.28387735,2.55044706 2.00941679,3.23222484 1.94951603,4.08903529 L6.94395369,4.08903529 Z M7.02111399,6.87290458 L8.34096132,7.1448 C8.10135827,7.92717908 7.63298168,8.57496993 6.9365084,9.08715294 C6.24071196,9.60001569 5.42105293,9.85627712 4.47888499,9.85627712 C3.23619796,9.85627712 2.23074504,9.41682614 1.46286463,8.53690458 C0.694307379,7.65766275 0.310197964,6.50448627 0.310197964,5.0780549 C0.310197964,3.62103529 0.709197964,2.44406797 1.50821323,1.54681307 C2.30655165,0.648878431 3.30895878,0.20025098 4.51577303,0.20025098 C5.70363562,0.20025098 6.6600173,0.613192157 7.38322595,1.43975425 C8.10677303,2.26665621 8.47734555,3.50276078 8.49494351,5.14942745 L1.88352366,5.14942745 C1.88352366,6.53303529 2.17152112,7.46597647 2.74717761,7.94927059 C3.32351094,8.43256471 3.9319944,8.6738719 4.57398168,8.6738719 C5.73138626,8.6738719 6.54732265,8.07366275 7.02111399,6.87290458 L7.02111399,6.87290458 Z" id="Fill-26" fill="#FFFFFF" mask="url(#mask-8)"></path>
                                </g>
                                <path d="M91.3079519,51.4058745 L89.8889468,51.4058745 L89.8889468,42.2579529 L91.1319723,42.2579529 L91.1319723,44.3902928 C91.5702293,43.391417 92.0105168,42.7443059 92.4518196,42.4486196 C92.8931224,42.1519137 93.3452547,42.0040706 93.8078781,42.0040706 C93.9517076,42.0040706 94.1381784,42.0149464 94.3662751,42.0373778 L94.3662751,43.3961752 L94.0789545,43.3961752 C93.2988908,43.3961752 92.6511504,43.6871033 92.1353947,44.2689595 C91.6199774,44.8508157 91.3438247,45.6151817 91.3079519,46.5630771 L91.3079519,51.4058745 Z" id="Fill-29" fill="#FFFFFF"></path>
                                <polygon id="Fill-31" fill="#FFFFFF" points="103.180486 42.2579529 100.035527 51.4058745 98.5647433 51.4058745 95.314873 42.2579529 96.8844761 42.2579529 99.4128298 49.6936131 101.921555 42.2579529"></polygon>
                                <mask id="mask-10" fill="white">
                                    <use xlink:href="#path-9"></use>
                                </mask>
                                <g id="Clip-34"></g>
                                <path d="M104.380972,51.4059085 L105.799977,51.4059085 L105.799977,42.2579869 L104.380972,42.2579869 L104.380972,51.4059085 Z M104.31498,40.6340915 L105.833142,40.6340915 L105.833142,39.0543791 L104.31498,39.0543791 L104.31498,40.6340915 Z" id="Fill-33" fill="#FFFFFF" mask="url(#mask-10)"></path>
                                <path d="M113.213526,48.2019948 L114.489717,48.4280078 C114.309337,49.439119 113.909999,50.2303346 113.291024,50.8019948 C112.672388,51.3739948 111.900447,51.6601647 110.975538,51.6601647 C109.719991,51.6601647 108.763271,51.1945438 108.105378,50.2636418 C107.447823,49.3330797 107.118538,48.1965569 107.118538,46.8544131 C107.118538,45.4643477 107.46576,44.3084523 108.159526,43.3867268 C108.852953,42.4646614 109.797828,42.0041386 110.993136,42.0041386 C111.984714,42.0041386 112.778991,42.3018641 113.376645,42.8979948 C113.974638,43.4934458 114.34521,44.2629098 114.489717,45.2067268 L113.213526,45.4507529 C112.973246,43.9413935 112.24733,43.1858641 111.034762,43.1858641 C110.25436,43.1858641 109.653999,43.5192758 109.234355,44.1857595 C108.814035,44.852583 108.603874,45.7165307 108.603874,46.7779425 C108.603874,47.9481124 108.812342,48.8569229 109.229956,49.5053935 C109.646892,50.1535242 110.233378,50.4777595 110.990091,50.4777595 C112.160017,50.4777595 112.901162,49.7191712 113.213526,48.2019948" id="Fill-35" fill="#FFFFFF" mask="url(#mask-10)"></path>
                                <path d="M122.4154,45.8929569 C122.403555,45.3800941 122.319288,44.9243294 122.163275,44.5263425 C122.007262,44.1276758 121.743631,43.7884863 121.371705,43.5074144 C120.99944,43.2270222 120.552384,43.0866562 120.030537,43.0866562 C119.328311,43.0866562 118.733026,43.3401987 118.244344,43.8472837 C117.754985,44.3543686 117.480524,45.0361464 117.420962,45.8929569 L122.4154,45.8929569 Z M122.49256,48.6768261 L123.812407,48.9487216 C123.572466,49.7311007 123.104428,50.3788915 122.407954,50.8910745 C121.712158,51.4039373 120.892499,51.6601987 119.950331,51.6601987 C118.707644,51.6601987 117.701853,51.2207477 116.933972,50.3408261 C116.165415,49.4615843 115.781306,48.3084078 115.781306,46.8819765 C115.781306,45.4249569 116.180644,44.2479895 116.979659,43.3507346 C117.777659,42.4528 118.780405,42.0041725 119.986881,42.0041725 C121.175082,42.0041725 122.131463,42.4171137 122.854672,43.2436758 C123.578219,44.0705778 123.948453,45.3066824 123.96639,46.953349 L117.35497,46.953349 C117.35497,48.3369569 117.642629,49.269898 118.218624,49.7531922 C118.794957,50.2364863 119.403102,50.4777935 120.045428,50.4777935 C121.202494,50.4777935 122.01843,49.8775843 122.49256,48.6768261 L122.49256,48.6768261 Z" id="Fill-36" fill="#FFFFFF" mask="url(#mask-10)"></path>
                                <path d="M124.767808,49.0350824 L126.121159,48.7543503 C126.422016,49.9034484 127.371968,50.4778275 128.971691,50.4778275 C129.560884,50.4778275 130.060057,50.3456183 130.468871,50.0805203 C130.878024,49.8157621 131.082431,49.4422458 131.082431,48.9603111 C131.082431,48.2442065 130.561937,47.7894614 129.52095,47.5967556 L127.602434,47.2300366 C126.850797,47.0852523 126.253482,46.8014614 125.808456,46.3786641 C125.364446,45.9558667 125.141764,45.3974614 125.141764,44.7027686 C125.141764,43.9363634 125.444991,43.2946902 126.052121,42.7784288 C126.658235,42.2621673 127.475187,42.0042065 128.502637,42.0042065 C130.478685,42.0042065 131.69836,42.7797882 132.160645,44.3306118 L130.862456,44.6110039 C130.490192,43.6610693 129.72468,43.185932 128.566599,43.185932 C127.989927,43.185932 127.517151,43.3048863 127.147932,43.542115 C126.778713,43.7793438 126.593935,44.1110562 126.593935,44.537932 C126.593935,45.2101935 127.066034,45.6333307 128.009556,45.8080235 L129.782889,46.1356575 C131.639474,46.4738275 132.567767,47.3785595 132.567767,48.8478144 C132.567767,49.6883111 132.222238,50.3673699 131.530502,50.8839712 C130.839444,51.4015922 129.919612,51.6602327 128.771345,51.6602327 C126.613225,51.6602327 125.278825,50.7847294 124.767808,49.0350824" id="Fill-37" fill="#FFFFFF" mask="url(#mask-10)"></path>
                                <path d="M92.7812738,22.7064967 L92.7812738,20.5092418 C92.7826275,20.1748105 93.0333985,19.9518562 93.3359481,19.9521961 L103.142414,19.9515163 C103.456131,19.9515163 103.707579,20.1805882 103.708256,20.5065229 L103.707579,22.391098 C103.70521,22.7068366 103.440225,23.1197778 102.969141,23.774366 L97.8897598,31.0581046 C99.7754494,31.0135817 101.770111,31.2970327 103.483205,32.2643007 C103.869683,32.4821569 103.972902,32.8053725 104.00336,33.1221307 L104.00336,35.466549 C104.00336,35.7897647 103.651401,36.1636209 103.281505,35.9688758 C100.262778,34.3813464 96.2572102,34.2073333 92.9196885,35.9882484 C92.5785588,36.1707582 92.2218616,35.8023399 92.2218616,35.4791242 L92.2218616,33.2502614 C92.2218616,32.8937386 92.2282916,32.2836732 92.5866809,31.7398824 L98.4718463,23.2604837 L93.3477929,23.2594641 C93.0344137,23.2594641 92.7833043,23.0354902 92.7812738,22.7064967" id="Fill-38" fill="#FFFFFF" mask="url(#mask-10)"></path>
                                <path d="M57.6854842,36.4310641 L54.7022908,36.4310641 C54.4183545,36.4123712 54.191273,36.1979137 54.1682603,35.9246588 L54.1702908,20.5465935 C54.1702908,20.2390118 54.4281687,19.9929464 54.7459473,19.9929464 L57.5243952,19.9922667 C57.8154384,20.0072209 58.0486115,20.2281359 58.0672247,20.5085281 L58.0672247,22.5164758 L58.1230644,22.5164758 C58.8472883,20.5748026 60.2118074,19.6687111 62.0497794,19.6687111 C63.915502,19.6687111 65.0850898,20.5748026 65.9209931,22.5164758 C66.6448786,20.5748026 68.2879193,19.6687111 70.0426394,19.6687111 C71.2958176,19.6687111 72.6603366,20.186332 73.4959015,21.3514039 C74.4428074,22.6456261 74.2478761,24.5227242 74.2478761,26.1731294 L74.2458455,35.877417 C74.2458455,36.1846588 73.9879677,36.4310641 73.6701891,36.4310641 L70.6903799,36.4310641 C70.3908761,36.4116915 70.1546573,36.1734431 70.1546573,35.8787765 L70.1539804,27.726332 C70.1539804,27.0792209 70.2098201,25.4611033 70.0703901,24.8462797 C69.8477081,23.810698 69.1793239,23.5194301 68.3160084,23.5194301 C67.5917845,23.5194301 66.8398099,24.0047634 66.5335377,24.7817046 C66.226927,25.5583059 66.255016,26.8525281 66.255016,27.726332 L66.255016,35.877417 C66.255016,36.1846588 65.9974766,36.4310641 65.679698,36.4310641 L62.6995504,36.4310641 C62.400385,36.4116915 62.1638277,36.1734431 62.1638277,35.8787765 L62.1611204,27.726332 C62.1611204,26.0113516 62.439642,23.4871425 60.3231483,23.4871425 C58.1785656,23.4871425 58.262156,25.9464366 58.262156,27.726332 L58.2608023,35.877417 C58.2611407,36.1846588 58.0032628,36.4310641 57.6854842,36.4310641" id="Fill-39" fill="#FFFFFF" mask="url(#mask-10)"></path>
                                <path d="M110.940106,23.2033516 C108.756943,23.2033516 108.619205,26.2125542 108.619205,28.0896523 C108.619205,29.9664105 108.591454,33.5836392 110.912355,33.5836392 C113.205844,33.5836392 113.316169,30.7433516 113.316169,28.7693908 C113.316169,27.4748288 113.261006,25.9216261 112.87419,24.6919791 C112.541859,23.6241098 111.878889,23.2033516 110.940106,23.2033516 M110.912355,19.6687111 C115.305078,19.6687111 117.681141,23.4871425 117.681141,28.3411556 C117.681141,33.033051 115.057014,36.7549595 110.912355,36.7549595 C106.602546,36.7549595 104.253894,32.9361882 104.253894,28.1793778 C104.253894,23.3899399 106.630296,19.6687111 110.912355,19.6687111" id="Fill-40" fill="#FFFFFF" mask="url(#mask-10)"></path>
                                <path d="M124.039083,36.4310641 L121.066719,36.4310641 C120.767892,36.4116915 120.531335,36.1734431 120.531335,35.8787765 L120.526597,20.4949333 C120.55164,20.2138614 120.799027,19.9929464 121.099546,19.9929464 L123.867164,19.9922667 C124.127749,20.0055216 124.342309,20.1842928 124.397472,20.422881 L124.397472,22.7751163 L124.45365,22.7751163 C125.288877,20.6716654 126.458126,19.6687111 128.519118,19.6687111 C129.855548,19.6687111 131.165243,20.1540444 132.000469,21.4808941 C132.780533,22.7105412 132.780533,24.7817046 132.780533,26.270332 L132.780533,35.9464105 C132.746691,36.2193255 132.503704,36.4310641 132.208938,36.4310641 L129.217961,36.4310641 C128.941469,36.413051 128.718788,36.2094693 128.686299,35.9464105 L128.686299,27.5968418 C128.686299,25.914149 128.881569,23.4548549 126.820576,23.4548549 C126.096014,23.4548549 125.427968,23.9401882 125.093945,24.684502 C124.676332,25.622881 124.620154,26.5612601 124.620154,27.5968418 L124.620154,35.877417 C124.614739,36.1846588 124.356861,36.4310641 124.039083,36.4310641" id="Fill-41" fill="#FFFFFF" mask="url(#mask-10)"></path>
                                <path d="M88.3097326,36.3925569 C88.1120939,36.5703085 87.8274807,36.5825438 87.6047987,36.4622301 C86.613898,35.6349882 86.4365646,35.2526353 85.8947504,34.465498 C84.256786,36.1410536 83.0970125,36.6433804 80.9757809,36.6433804 C78.4640099,36.6433804 76.5102975,35.0867791 76.5102975,31.9735765 C76.5102975,29.541132 77.8220226,27.8873281 79.6918064,27.0764 C81.3104807,26.3630144 83.5714807,26.2331843 85.3018344,26.0387791 L85.3018344,25.6496288 C85.3018344,24.9362431 85.357674,24.0926876 84.9390455,23.4768444 C84.5762567,22.9252366 83.8784298,22.6982039 83.2645316,22.6982039 C82.126417,22.6982039 81.1148725,23.2837987 80.8664705,24.4974719 C80.8150303,24.7673281 80.6184069,25.0344654 80.3483458,25.0484 L77.4565265,24.7340209 C77.2121855,24.6786222 76.9407707,24.4821778 77.0111626,24.1076418 C77.6758242,20.584217 80.8437962,19.5197464 83.6831601,19.5197464 C85.1343153,19.5197464 87.0325265,19.9088967 88.1763941,21.0117725 C89.6282262,22.3739686 89.4881193,24.1902301 89.4881193,26.1682693 L89.4881193,30.8363739 C89.4881193,32.2407137 90.0691906,32.8565569 90.6147275,33.6134458 C90.8049209,33.8860209 90.8479005,34.2102562 90.6045748,34.4090797 C89.9950761,34.9222824 88.9124628,35.8667791 88.3168394,36.3993542 L88.3097326,36.3925569 Z M85.3018344,29.0870667 C85.3018344,30.2548575 85.329585,31.2275634 84.7437758,32.2655242 C84.2693076,33.1087399 83.515641,33.6277203 82.6780455,33.6277203 C81.5341779,33.6277203 80.8641015,32.7518771 80.8641015,31.4545961 C80.8641015,28.9028575 83.1433763,28.4385961 85.3018344,28.4385961 L85.3018344,29.0870667 Z" id="Fill-42" fill="#FFFFFF" mask="url(#mask-10)"></path>
                                <path d="M49.5372545,36.3925569 C49.3396158,36.5703085 49.0546641,36.5825438 48.8323206,36.4622301 C47.8410814,35.6349882 47.6637481,35.2526353 47.1219338,34.465498 C45.4843079,36.1410536 44.3245344,36.6433804 42.2033028,36.6433804 C39.6911934,36.6433804 37.7378193,35.0867791 37.7378193,31.9735765 C37.7378193,29.541132 39.0495445,27.8873281 40.9193282,27.0764 C42.5380025,26.3630144 44.7990025,26.2331843 46.5290178,26.0387791 L46.5290178,25.6496288 C46.5290178,24.9362431 46.5848575,24.0926876 46.1665674,23.4768444 C45.8037786,22.9252366 45.1056132,22.6982039 44.4920534,22.6982039 C43.3539389,22.6982039 42.342056,23.2837987 42.0939924,24.4974719 C42.0422137,24.7673281 41.8459288,25.0344654 41.5755293,25.0484 L38.6840483,24.7340209 C38.4397074,24.6786222 38.1679542,24.4821778 38.2386845,24.1076418 C38.9030076,20.584217 42.0709796,19.5197464 44.9103435,19.5197464 C46.3618372,19.5197464 48.2597099,19.9088967 49.403916,21.0117725 C50.8554097,22.3739686 50.7156412,24.1902301 50.7156412,26.1682693 L50.7156412,30.8363739 C50.7156412,32.2407137 51.296374,32.8565569 51.8419109,33.6134458 C52.0321043,33.8860209 52.075084,34.2102562 51.8320967,34.4090797 C51.222598,34.9222824 50.1396463,35.8667791 49.5443613,36.3993542 L49.5372545,36.3925569 Z M46.5290178,29.0870667 C46.5290178,30.2548575 46.5571069,31.2275634 45.9709593,32.2655242 C45.4968295,33.1087399 44.7431628,33.6277203 43.9055674,33.6277203 C42.7616997,33.6277203 42.0916234,32.7518771 42.0916234,31.4545961 C42.0916234,28.9028575 44.3708982,28.4385961 46.5290178,28.4385961 L46.5290178,29.0870667 Z" id="Fill-43" fill="#FFFFFF" mask="url(#mask-10)"></path>
                            </g>
                        </g>
                    </g>
                </g>
            </g>
        </g>
    </g>
</svg>