<?xml version="1.0" encoding="UTF-8"?>
<svg width="63px" height="60px" viewBox="0 0 63 60" version="1.1" xmlns="http://www.w3.org/2000/svg" xmlns:xlink="http://www.w3.org/1999/xlink">
    <!-- Generator: Sketch 53 (72520) - https://sketchapp.com -->
    <title>Group 40</title>
    <desc>Created with Sketch.</desc>
    <defs>
        <polygon id="path-1" points="0 0 62.9999712 0 62.9999712 59.762459 0 59.762459"></polygon>
    </defs>
    <g id="Page-1" stroke="none" stroke-width="1" fill="none" fill-rule="evenodd">
        <g id="Technology" transform="translate(-1004.000000, -505.000000)">
            <g id="technologies">
                <g id="Group-17" transform="translate(100.000000, 505.000000)">
                    <g id="Group-40" transform="translate(840.000000, 0.000000)">
                        <g id="Group-3" transform="translate(64.000000, 0.000000)">
                            <mask id="mask-2" fill="white">
                                <use xlink:href="#path-1"></use>
                            </mask>
                            <g id="Clip-2"></g>
                            <path d="M17.0358645,43.0994262 C17.116091,45.502623 19.1202785,47.4255738 21.5253527,47.4255738 L21.6858059,47.4255738 C24.1711066,47.3454098 26.0950676,45.262377 26.014841,42.7790164 C25.9348605,40.3758197 23.930427,38.4528689 21.5253527,38.4528689 L21.3651457,38.4528689 C21.2046926,38.4528689 20.964259,38.4528689 20.8038059,38.5332787 C17.5169777,33.0855738 16.1541105,27.157377 16.6349777,20.7486885 C16.9556379,15.9420492 18.5589387,11.7762295 21.3651457,8.33139344 C23.6899934,5.36754098 28.1794816,3.92532787 31.2261223,3.84540984 C39.7239855,3.68508197 43.3317199,14.2595902 43.5721535,18.5055738 C44.6143605,18.7458197 46.3781145,19.3067213 47.5807746,19.7072951 C46.618548,6.72934426 38.601552,-2.84217094e-14 30.905216,-2.84217094e-14 C23.6899934,-2.84217094e-14 17.0358645,5.20721311 14.3903566,12.8977869 C10.7023957,23.1518852 13.1074699,33.0054098 17.5969582,40.7763934 C17.1960715,41.3370492 16.9556379,42.2183607 17.0358645,43.0994262 M57.7624113,31.8036885 C51.6693762,24.6740164 42.6903996,20.7486885 32.4285363,20.7486885 L31.1456496,20.7486885 C30.4243488,19.3067213 28.9010285,18.3452459 27.2175012,18.3452459 L27.057048,18.3452459 C24.5719934,18.4254098 22.6477863,20.5081967 22.7280129,22.9918033 C22.8082395,25.395 24.812427,27.3177049 27.2175012,27.3177049 L27.3777082,27.3177049 C29.1414621,27.237541 30.6647824,26.1159836 31.3061027,24.5940984 L32.7491965,24.5940984 C38.8422316,24.5940984 44.6143605,26.3564754 49.8253957,29.8010656 C53.8340168,32.4447541 56.7199582,35.8895902 58.3235051,40.0551639 C59.6863723,43.420082 59.6061457,46.7043443 58.163298,49.5081148 C55.9184309,53.7540984 52.1504895,56.077377 47.1798879,56.077377 C43.9727941,56.077377 40.9266457,55.1159016 39.3230988,54.3951639 C38.4413449,55.1960656 36.837798,56.4779508 35.7156105,57.2790984 C39.1628918,58.8813934 42.6903996,59.762459 46.0574543,59.762459 C53.7537902,59.762459 59.4459387,55.5164754 61.6103332,51.2707377 C63.935427,46.6244262 63.7749738,38.6134426 57.7624113,31.8036885 M43.6523801,41.737623 C45.9772277,41.4971311 47.7409816,39.4945082 47.6610012,37.0910656 C47.5807746,34.6878689 45.576341,32.7654098 43.1715129,32.7654098 L43.0108137,32.7654098 C40.525759,32.8453279 38.601552,34.9283607 38.6817785,37.4114754 C38.7620051,38.6134426 39.2431184,39.6545902 39.9644191,40.3758197 C37.2386848,45.7431148 33.0698566,49.6686885 26.8166145,52.9529508 C22.5675598,55.1960656 18.158298,55.9972131 13.7490363,55.4365574 C10.141302,54.9558197 7.33534102,53.3535246 5.57158711,50.7098361 C3.00605977,46.7845082 2.76562617,42.5387705 4.9302668,38.2927869 C6.45334102,35.2485246 8.85841523,33.0054098 10.3817355,31.8840984 C10.0610754,30.842459 9.57996211,29.080082 9.33952852,27.7984426 C-2.28520195,36.2097541 -1.0825418,47.5856557 2.44471992,52.9529508 C5.09047383,56.9584426 10.4619621,59.4420492 16.3945441,59.4420492 C17.9978449,59.4420492 19.6013918,59.2819672 21.2046926,58.8813934 C31.4665559,56.8785246 39.2431184,50.79 43.6523801,41.737623" id="Fill-1" fill="#FFFFFF" mask="url(#mask-2)"></path>
                        </g>
                    </g>
                </g>
            </g>
        </g>
    </g>
</svg>