<?xml version="1.0" encoding="UTF-8"?>
<svg width="127px" height="52px" viewBox="0 0 127 52" version="1.1" xmlns="http://www.w3.org/2000/svg" xmlns:xlink="http://www.w3.org/1999/xlink">
    <!-- Generator: Sketch 53 (72520) - https://sketchapp.com -->
    <title>Group 41</title>
    <desc>Created with Sketch.</desc>
    <defs>
        <polygon id="path-1" points="0.0131712891 0.203344762 85.5074629 0.203344762 85.5074629 30.1981829 0.0131712891 30.1981829"></polygon>
        <polygon id="path-3" points="0 0.0916014312 30.0156439 0.0916014312 30.0156439 14.7081752 0 14.7081752"></polygon>
        <polygon id="path-5" points="0.0749359137 0.0653714286 19.7364555 0.0653714286 19.7364555 22.8972838 0.0749359137 22.8972838"></polygon>
    </defs>
    <g id="Page-1" stroke="none" stroke-width="1" fill="none" fill-rule="evenodd">
        <g id="Technology" transform="translate(-1182.000000, -509.000000)">
            <g id="technologies">
                <g id="Group-17" transform="translate(100.000000, 505.000000)">
                    <g id="Group-41" transform="translate(1050.000000, 0.000000)">
                        <g id="Group-16" transform="translate(32.000000, 4.000000)">
                            <g id="Group-3" transform="translate(41.423828, 19.744152)">
                                <mask id="mask-2" fill="white">
                                    <use xlink:href="#path-1"></use>
                                </mask>
                                <g id="Clip-2"></g>
                                <path d="M81.7820717,8.94305905 L81.7820717,8.19921143 C81.7820717,5.81884952 79.8817846,3.92258286 77.4978061,3.92258286 C75.1130834,3.92258286 73.2135404,5.81884952 73.2135404,8.19921143 L73.2135404,8.94305905 L81.7820717,8.94305905 Z M85.5077357,10.8026781 C85.5077357,11.807021 84.6504857,12.6622971 83.6449037,12.6622971 L73.2135404,12.6622971 L73.2135404,15.0795543 C73.2135404,17.3110971 75.3742768,19.3566781 77.8703725,19.3566781 C79.36039,19.3566781 80.5529994,18.8733257 81.4841674,17.9435162 C81.8936928,17.3853829 82.3778803,17.0879924 82.974433,17.0879924 C83.9802631,17.0879924 84.9116791,17.9435162 84.9116791,18.9471162 C84.9116791,19.6912114 84.5019057,20.1745638 84.0544291,20.6207733 C82.5272045,22.2575352 80.4413783,23.075421 77.8703725,23.075421 C73.5114447,23.075421 69.4876283,19.5054971 69.4876283,15.0795543 L69.4876283,8.19921143 C69.4876283,3.77376381 73.0642162,0.203344762 77.4978061,0.203344762 C81.9311479,0.203344762 85.5077357,3.77376381 85.5077357,8.19921143 L85.5077357,10.8026781 Z M63.1765717,8.94305905 L63.1765717,8.19921143 C63.1765717,5.81884952 61.2762846,3.92258286 58.8923061,3.92258286 C56.5075834,3.92258286 54.6075443,5.81884952 54.6075443,8.19921143 L54.6075443,8.94305905 L63.1765717,8.94305905 Z M66.9019877,10.8026781 C66.9019877,11.807021 66.0452338,12.6622971 65.0394037,12.6622971 L54.6075443,12.6622971 L54.6075443,15.0795543 C54.6075443,17.3110971 56.7687768,19.3566781 59.2648725,19.3566781 C60.75489,19.3566781 61.9470033,18.8733257 62.8784193,17.9435162 C63.2879447,17.3853829 63.7726283,17.0879924 64.3684369,17.0879924 C65.3747631,17.0879924 66.3061791,17.9435162 66.3061791,18.9471162 C66.3061791,19.6912114 65.8961576,20.1745638 65.4489291,20.6207733 C63.9217045,22.2575352 61.8353822,23.075421 59.2648725,23.075421 C54.9059447,23.075421 50.8818803,19.5054971 50.8818803,15.0795543 L50.8818803,8.19921143 C50.8818803,3.77376381 54.4589643,0.203344762 58.8923061,0.203344762 C63.3253998,0.203344762 66.9019877,3.77376381 66.9019877,8.19921143 L66.9019877,10.8026781 Z M47.4709877,5.50363048 C46.9808471,5.50363048 46.5294018,5.31544 46.1149154,4.90191619 L46.0397572,4.82664 C45.32439,4.26305905 44.5341127,3.9622019 43.5925268,3.9622019 C41.3710189,3.9622019 40.0151947,5.50363048 40.0151947,8.54810667 L40.0151947,21.0657448 C40.0151947,22.23104 39.1492631,22.9451733 38.1322709,22.9451733 C37.1157748,22.9451733 36.2498432,22.23104 36.2498432,21.0657448 L36.2498432,8.54810667 C36.2498432,3.84953524 38.9230443,0.203344762 43.5925268,0.203344762 C45.3993002,0.203344762 47.5833529,1.03014476 48.8265639,2.27071619 C49.202851,2.68424 49.3911186,3.09801143 49.3911186,3.58606857 C49.3911186,4.60130667 48.4874838,5.50363048 47.4709877,5.50363048 L47.4709877,5.50363048 Z M20.8285209,15.1077829 C20.8285209,17.4921067 22.7320326,19.3925829 25.120724,19.3925829 C27.5096635,19.3925829 29.4131752,17.4921067 29.4131752,15.1077829 L29.4131752,8.21431619 C29.4131752,5.82949714 27.5096635,3.92926857 25.120724,3.92926857 C22.7320326,3.92926857 20.8285209,5.82949714 20.8285209,8.21431619 L20.8285209,15.1077829 Z M20.8285209,28.3348495 C20.8285209,29.49024 19.9702787,30.1981829 18.9624643,30.1981829 C17.9546498,30.1981829 17.0961596,29.49024 17.0961596,28.3348495 L17.0961596,8.21431619 C17.0961596,3.7802019 20.6791967,0.203344762 25.120724,0.203344762 C29.5629955,0.203344762 33.1457846,3.7802019 33.1457846,8.21431619 L33.1457846,15.1077829 C33.1457846,19.5416495 29.5629955,23.1185067 25.120724,23.1185067 C23.4414467,23.1185067 22.0231146,22.5967733 20.8285209,21.5164114 L20.8285209,28.3348495 Z M6.68166348,23.075421 C4.33464395,23.075421 1.57785098,21.9975352 0.385489648,20.2119543 C0.12504043,19.8769257 0.0131712891,19.5054971 0.0131712891,19.0961829 C0.0131712891,18.0923352 0.944587305,17.2368114 1.95016934,17.2368114 C2.47205996,17.2368114 2.95624746,17.4968114 3.44043496,18.0551924 C4.18556777,18.9845067 5.26605996,19.4309638 6.68166348,19.4309638 C9.17775918,19.4309638 10.6308178,17.980659 10.6308178,16.4555733 C10.6308178,14.8193067 8.99147598,13.7035352 6.94285684,12.9596876 C4.8937416,12.2160876 2.69530215,11.5091352 1.24273965,9.68715429 C0.534813867,8.75709714 0.162247461,7.64182095 0.162247461,6.26555429 C0.162247461,2.43488762 3.3660209,0.203344762 6.94285684,0.203344762 C9.32683535,0.203344762 11.9348002,1.50483048 13.2385346,3.47612571 C13.4250658,3.77376381 13.5366869,4.10829714 13.5366869,4.51736381 C13.5366869,5.55884952 12.6424779,6.37723048 11.5994408,6.37723048 C11.0405912,6.37723048 10.5564037,6.07934476 10.1094232,5.48456381 C9.32683535,4.40568762 8.28379824,3.84804952 6.94285684,3.84804952 C5.00511465,3.84804952 3.88766348,4.9266781 3.88766348,6.26555429 C3.88766348,7.64182095 5.52700527,8.57138286 7.57587246,9.31523048 C9.6249877,10.096221 11.8229311,10.877459 13.2759896,12.848259 C13.9839154,13.8526019 14.3562338,15.0424114 14.3562338,16.4555733 C14.3562338,20.435059 10.817101,23.075421 6.68166348,23.075421 L6.68166348,23.075421 Z" id="Fill-1" fill="#FFFFFF" mask="url(#mask-2)"></path>
                            </g>
                            <path d="M14.2752961,39.8155581 C14.2752961,41.2282248 13.1283273,42.3734629 11.7129719,42.3734629 C10.2981125,42.3734629 9.1508957,41.2282248 9.1508957,39.8155581 C9.1508957,38.4026438 10.2981125,37.2576533 11.7129719,37.2576533 C13.1283273,37.2576533 14.2752961,38.4026438 14.2752961,39.8155581" id="Fill-4" fill="#FFFFFF"></path>
                            <path d="M25.0472773,39.8155581 C25.0472773,41.2282248 23.9000605,42.3734629 22.4849531,42.3734629 C21.0698457,42.3734629 19.922877,41.2282248 19.922877,39.8155581 C19.922877,38.4026438 21.0698457,37.2576533 22.4849531,37.2576533 C23.9000605,37.2576533 25.0472773,38.4026438 25.0472773,39.8155581" id="Fill-6" fill="#FFFFFF"></path>
                            <g id="Group-10" transform="translate(0.000000, 19.991771)">
                                <mask id="mask-4" fill="white">
                                    <use xlink:href="#path-3"></use>
                                </mask>
                                <g id="Clip-9"></g>
                                <path d="M23.4262662,14.7081752 L10.7721549,14.7081752 C9.75590684,14.7081752 8.84011777,14.0968038 8.45217246,13.1590705 L5.11891855,5.10303238 L2.50996152,5.10303238 C1.12387559,5.10303238 -2.48046875e-05,3.9813181 -2.48046875e-05,2.59762286 C-2.48046875e-05,1.21368 1.12387559,0.0919657143 2.50996152,0.0919657143 L6.79794785,0.0919657143 C7.8141959,0.0919657143 8.72998496,0.703584762 9.11768223,1.64107048 L12.4509361,9.69710857 L21.7641041,9.69710857 L25.1938482,1.61977524 C25.7350865,0.34528 27.2082369,-0.248510476 28.4849342,0.29055619 C29.7608873,0.830860952 30.3569439,2.30122286 29.8159537,3.57547048 L25.7373189,13.1803657 C25.3439166,14.106461 24.4340807,14.7081752 23.4262662,14.7081752" id="Fill-8" fill="#FFFFFF" mask="url(#mask-4)"></path>
                            </g>
                            <g id="Group-13" transform="translate(7.193359, 0.182248)">
                                <mask id="mask-6" fill="white">
                                    <use xlink:href="#path-5"></use>
                                </mask>
                                <g id="Clip-12"></g>
                                <path d="M19.0368783,11.5887695 C18.0764408,10.5901219 16.4877006,10.558179 15.4878236,11.51696 L12.3631771,14.5119124 L12.3631771,2.57097905 C12.3631771,1.18703619 11.2397729,0.0653219048 9.85343887,0.0653219048 C8.46710488,0.0653219048 7.34320449,1.18703619 7.34320449,2.57097905 L7.34320449,14.4532267 L4.33638027,11.529341 C3.34344863,10.5638743 1.7542123,10.584179 0.787077539,11.5758933 C-0.180305273,12.5671124 -0.159469336,14.1536076 0.833462305,15.1190743 L8.10197988,22.1866171 C8.13521816,22.2188076 8.17093691,22.2472838 8.20541543,22.2774933 C8.2237709,22.293341 8.24138223,22.3099314 8.25998574,22.3255314 C8.34531387,22.3958552 8.43411465,22.459741 8.52614004,22.516941 C8.53903848,22.5248648 8.55268105,22.5320457 8.56607559,22.5402171 C8.65636465,22.5939505 8.74913418,22.6419886 8.84438418,22.6835886 C8.85306582,22.6873029 8.86075527,22.6927505 8.86943691,22.6964648 C8.87539004,22.698941 8.88134316,22.7006743 8.88704824,22.7031505 C8.94409902,22.7266743 9.0016459,22.7472267 9.06018496,22.7662933 C9.08151699,22.7734743 9.10260098,22.7818933 9.12393301,22.788579 C9.18098379,22.8054171 9.23902676,22.8192838 9.29657363,22.8324076 C9.31989004,22.8376076 9.34271035,22.844541 9.36602676,22.8489981 C9.42406973,22.8606362 9.48236074,22.8680648 9.5408998,22.8752457 C9.56396816,22.8782171 9.58654043,22.8831695 9.60985684,22.8851505 C9.68823965,22.8928267 9.76662246,22.896541 9.84500527,22.896541 C9.84773379,22.896541 9.85021426,22.8972838 9.85294277,22.8972838 L9.85343887,22.8972838 C9.85988809,22.8972838 9.8668334,22.8962933 9.87328262,22.8962933 C9.94695254,22.8957981 10.0201264,22.892579 10.0930521,22.8856457 C10.1362123,22.8814362 10.1793725,22.8735124 10.2217885,22.8670743 C10.2580033,22.8618743 10.2939701,22.85816 10.3296889,22.8512267 C10.3810346,22.8415695 10.4316361,22.8277029 10.4819896,22.8148267 C10.5087787,22.8076457 10.5360639,22.8026933 10.5623568,22.7947695 C10.6144467,22.7794171 10.6650482,22.7605981 10.7161459,22.7420267 C10.7404545,22.7331124 10.7657553,22.7256838 10.7900639,22.7155314 C10.8386811,22.6962171 10.886058,22.6734362 10.9339311,22.6504076 C10.9597279,22.6382743 10.9862689,22.6268838 11.0115697,22.61376 C11.0549779,22.5912267 11.0968979,22.5659695 11.1393139,22.5404648 C11.1680873,22.523379 11.1976049,22.5070362 11.2258822,22.4884648 C11.2628412,22.4644457 11.298808,22.4374552 11.3347748,22.4112076 C11.3667729,22.3876838 11.3990189,22.3644076 11.4300248,22.3393981 C11.4615268,22.3138933 11.4917885,22.2864076 11.5220502,22.2596648 C11.5453666,22.2388648 11.5694271,22.220541 11.5919994,22.1987505 L18.9649447,15.1317029 C19.9648217,14.1729219 19.9970678,12.5869219 19.0368783,11.5887695" id="Fill-11" fill="#FFFFFF" mask="url(#mask-6)"></path>
                            </g>
                            <path d="M17.4343715,51.9346286 C14.9196723,51.9346286 12.2968246,50.9894667 9.47702773,49.0991429 C8.32633828,48.3278095 8.01975234,46.7710286 8.79266641,45.6223238 C9.56533242,44.4738667 11.1248031,44.1678095 12.2757406,44.9388952 C16.6706352,47.8850667 19.1540805,47.1753905 21.7369926,45.0760762 C22.8122758,44.2024762 24.3930785,44.3639238 25.2681879,45.4373524 C26.1432973,46.510781 25.9813227,48.0888571 24.9062875,48.9622095 C22.4677387,50.9439048 20.0078578,51.9346286 17.4343715,51.9346286" id="Fill-14" fill="#FFFFFF"></path>
                        </g>
                    </g>
                </g>
            </g>
        </g>
    </g>
</svg>