<?xml version="1.0" encoding="UTF-8"?>
<svg width="60px" height="60px" viewBox="0 0 60 60" version="1.1" xmlns="http://www.w3.org/2000/svg" xmlns:xlink="http://www.w3.org/1999/xlink">
    <!-- Generator: Sketch 53 (72520) - https://sketchapp.com -->
    <title>Group 42</title>
    <desc>Created with Sketch.</desc>
    <defs>
        <polygon id="path-1" points="4.6875e-05 0.22171875 44.3868604 0.22171875 44.3868604 44.7072632 4.6875e-05 44.7072632"></polygon>
        <polygon id="path-3" points="0.000167186848 0.0454741346 44.3867578 0.0454741346 44.3867578 44.53125 0.000167186848 44.53125"></polygon>
    </defs>
    <g id="Page-1" stroke="none" stroke-width="1" fill="none" fill-rule="evenodd">
        <g id="Technology" transform="translate(-165.000000, -645.000000)">
            <g id="technologies">
                <g id="Group-20" transform="translate(100.000000, 645.000000)">
                    <g id="Group-42">
                        <g id="Group-7" transform="translate(65.000000, 0.000000)">
                            <g id="Group-3" transform="translate(0.000000, 0.012656)">
                                <mask id="mask-2" fill="white">
                                    <use xlink:href="#path-1"></use>
                                </mask>
                                <g id="Clip-2"></g>
                                <path d="M21.7165313,4.812375 C23.1591094,4.812375 24.325125,5.97839062 24.325125,7.42096875 C24.325125,8.86378125 23.1591094,10.0297969 21.7165313,10.0297969 C20.2739531,10.0297969 19.1079375,8.86378125 19.1079375,7.42096875 C19.1079375,5.97839062 20.2739531,4.812375 21.7165313,4.812375 M29.712,0.221671875 C14.517,0.221671875 15.4659844,6.811125 15.4659844,6.811125 L15.4828594,13.6377656 L29.9831719,13.6377656 L29.9831719,15.6876094 L9.72332813,15.6876094 C9.72332813,15.6876094 4.6875e-05,14.584875 4.6875e-05,29.91675 C4.6875e-05,45.2488594 8.48676563,44.704875 8.48676563,44.704875 L13.5516094,44.704875 L13.5516094,37.5904219 C13.5516094,37.5904219 13.2787969,29.1037031 21.9028594,29.1037031 L36.2845781,29.1037031 C36.2845781,29.1037031 44.3648906,29.23425 44.3648906,21.2945625 L44.3648906,8.16651562 C44.3648906,8.16651562 45.5916094,0.221671875 29.712,0.221671875" id="Fill-1" fill="#FFFFFF" mask="url(#mask-2)"></path>
                            </g>
                            <g id="Group-6" transform="translate(15.468750, 15.247031)">
                                <mask id="mask-4" fill="white">
                                    <use xlink:href="#path-3"></use>
                                </mask>
                                <g id="Clip-5"></g>
                                <path d="M22.6702734,39.9405937 C21.2276953,39.9405937 20.0614453,38.7745781 20.0614453,37.332 C20.0614453,35.8891875 21.2276953,34.7231719 22.6702734,34.7231719 C24.1128516,34.7231719 25.2791016,35.8891875 25.2791016,37.332 C25.2791016,38.7745781 24.1128516,39.9405937 22.6702734,39.9405937 M14.6748047,44.5312969 C29.8700391,44.5312969 28.9210547,37.9418438 28.9210547,37.9418438 L28.9041797,31.1152031 L14.4036328,31.1152031 L14.4036328,29.0655938 L34.6634766,29.0655938 C34.6634766,29.0655938 44.3867578,30.1680938 44.3867578,14.8362188 C44.3867578,-0.495890625 35.9000391,0.047859375 35.9000391,0.047859375 L30.8351953,0.047859375 L30.8351953,7.16254688 C30.8351953,7.16254688 31.1082422,15.6492656 22.4839453,15.6492656 L8.10222656,15.6492656 C8.10222656,15.6492656 0.0221484375,15.5187188 0.0221484375,23.4584063 L0.0221484375,36.5864531 C0.0221484375,36.5864531 -1.20480469,44.5312969 14.6748047,44.5312969" id="Fill-4" fill="#FFFFFF" mask="url(#mask-4)"></path>
                            </g>
                        </g>
                    </g>
                </g>
            </g>
        </g>
    </g>
</svg>