<?xml version="1.0" encoding="UTF-8"?>
<svg width="53px" height="60px" viewBox="0 0 53 60" version="1.1" xmlns="http://www.w3.org/2000/svg" xmlns:xlink="http://www.w3.org/1999/xlink">
    <!-- Generator: Sketch 53 (72520) - https://sketchapp.com -->
    <title>Group 2</title>
    <desc>Created with Sketch.</desc>
    <g id="Page-1" stroke="none" stroke-width="1" fill="none" fill-rule="evenodd">
        <g id="Technology" transform="translate(-379.000000, -225.000000)" fill="#FFFFFF">
            <g id="technologies">
                <g id="Group-14" transform="translate(100.000000, 225.000000)">
                    <g id="Group-2" transform="translate(210.000000, 0.000000)">
                        <path d="M69,0 L73.4418898,53.8228874 L95.6485705,60 L117.263391,53.8228874 L122,0 L69,0 Z M78.4756394,11.470782 L95.66322,11.470782 L111.970912,11.470782 L111.970912,17.8658335 L96.4900473,24.157301 L110.751665,24.157301 L108.973317,44.4130145 L95.66322,48.5255513 L95.6485705,48.5309367 L81.7328869,44.7092143 L81.2892516,39.5616395 L80.8457316,34.414294 L87.3593037,34.414294 L87.6552913,36.9148621 L87.9511635,39.4154303 L90.521849,39.9539754 L95.66322,41.0309511 L95.66322,41.0291177 L102.754118,39.7061301 L102.822636,39.0263028 L103.644157,30.8831567 L95.66322,30.8831567 L80.5492827,30.8831567 L79.6592437,24.7062733 L95.3522369,17.9421465 L79.3637175,17.9513132 L78.4756394,11.470782 Z" id="Fill-1"></path>
                    </g>
                </g>
            </g>
        </g>
    </g>
</svg>