<?xml version="1.0" encoding="UTF-8"?>
<svg width="53px" height="60px" viewBox="0 0 53 60" version="1.1" xmlns="http://www.w3.org/2000/svg" xmlns:xlink="http://www.w3.org/1999/xlink">
    <!-- Generator: Sketch 53 (72520) - https://sketchapp.com -->
    <title>Group 43</title>
    <desc>Created with Sketch.</desc>
    <defs>
        <polygon id="path-1" points="0 6.25e-05 53 6.25e-05 53 59.9256875 0 59.9256875"></polygon>
    </defs>
    <g id="Page-1" stroke="none" stroke-width="1" fill="none" fill-rule="evenodd">
        <g id="Technology" transform="translate(-379.000000, -645.000000)">
            <g id="technologies">
                <g id="Group-20" transform="translate(100.000000, 645.000000)">
                    <g id="Group-43" transform="translate(210.000000, 0.000000)">
                        <g id="Group-3" transform="translate(69.000000, 0.000000)">
                            <mask id="mask-2" fill="white">
                                <use xlink:href="#path-1"></use>
                            </mask>
                            <g id="Clip-2"></g>
                            <path d="M46.4061582,37.0871458 C46.3372168,37.1042292 46.2688965,37.1225625 46.2007832,37.1423542 L30.1697324,9.2019375 C30.2181777,9.15527083 30.2655879,9.10777083 30.3121699,9.0594375 L42.5864316,16.1906875 C42.2069434,17.5317292 42.3462754,19.0186042 43.0909668,20.3221458 C43.8381426,21.6300625 45.0552793,22.4971458 46.4061582,22.8350625 L46.4061582,37.0871458 Z M43.0758535,39.6038125 C42.8178926,40.0552708 42.6325996,40.5290208 42.516248,41.0115208 L10.483959,41.0115208 C10.3676074,40.5294375 10.1823145,40.0556875 9.92414648,39.6038125 C9.66370117,39.1525625 9.34818555,38.7538125 8.99126367,38.4111042 L25.0214863,10.4721458 C25.4908262,10.6083958 25.986666,10.6813125 26.5001035,10.6813125 C27.0147832,10.6813125 27.5124863,10.6079792 27.9828613,10.4708958 L44.0099785,38.4044375 C43.6514004,38.7486042 43.3352637,39.1496458 43.0758535,39.6038125 L43.0758535,39.6038125 Z M30.425002,50.9871458 C29.4548535,49.9161042 28.0565645,49.2444375 26.5001035,49.2444375 C24.9968496,49.2444375 23.641416,49.8706875 22.6764434,50.8783958 L10.4220566,43.7583958 C10.4419316,43.6900625 10.4601504,43.6211042 10.477127,43.5519375 L42.5214238,43.5519375 C42.5502012,43.6696458 42.5829121,43.7865208 42.6193496,43.9021458 L30.425002,50.9871458 Z M6.80294336,37.1450625 C6.73358789,37.1248542 6.66381836,37.1058958 6.5938418,37.0883958 L6.5938418,22.8350625 C7.9447207,22.4971458 9.16185742,21.6300625 9.9090332,20.3221458 C10.6551738,19.0158958 10.7934707,17.5256875 10.411291,16.1827708 L22.6820332,9.05339583 C22.7315137,9.1050625 22.7822363,9.1556875 22.8337871,9.20527083 L6.80294336,37.1450625 Z M50.3296074,37.6450625 C49.8809707,37.3854792 49.4099746,37.1990208 48.9304902,37.0819375 L48.9304902,22.8475625 C49.4151504,22.7308958 49.8913223,22.5431875 50.3447207,22.2808958 C52.884373,20.7965208 53.7512129,17.5371458 52.2914355,14.9815208 C50.8163379,12.4258958 47.577127,11.5536042 45.0374746,13.0227708 C44.5805566,13.2898542 44.1778809,13.6144375 43.8329668,13.9819375 L31.5878965,6.8675625 C31.730748,6.38402083 31.8073496,5.87152083 31.8073496,5.3406875 C31.8073496,2.38735417 29.4349785,6.25e-05 26.5001035,6.25e-05 C23.5650215,6.25e-05 21.1926504,2.38735417 21.1926504,5.3406875 C21.1926504,5.86860417 21.2684238,6.37839583 21.4096191,6.85964583 L9.16123633,13.9758958 C8.81777148,13.6106875 8.41695898,13.2883958 7.96252539,13.0227708 C5.42287305,11.5536042 2.16854883,12.4258958 0.708564453,14.9815208 C-0.751212891,17.5371458 0.115626953,20.8119375 2.65507227,22.2808958 C3.1084707,22.5431875 3.58484961,22.7308958 4.06950977,22.8475625 L4.06950977,37.0817292 C3.59023242,37.1986042 3.11944336,37.3852708 2.67039258,37.6450625 C0.130740234,39.1294375 -0.736099609,42.3888125 0.723884766,44.9444375 C2.18366211,47.4998542 5.42287305,48.3721458 7.97763867,46.9031875 C8.42731055,46.6402708 8.82439648,46.3219375 9.16558398,45.9617292 L21.4073418,53.0742292 C21.2675957,53.5531875 21.1926504,54.0600625 21.1926504,54.5852708 C21.1926504,57.5386042 23.5650215,59.9256875 26.5001035,59.9256875 C29.4349785,59.9256875 31.8073496,57.5231875 31.8073496,54.5852708 C31.8073496,53.9969375 31.7131504,53.4311042 31.5390371,52.9019375 L43.7095762,45.8308958 C44.0772637,46.2467292 44.516791,46.6106875 45.0223613,46.9031875 C47.5620137,48.3721458 50.8163379,47.4998542 52.2761152,44.9444375 C53.7512129,42.3888125 52.884373,39.1294375 50.3296074,37.6450625 L50.3296074,37.6450625 Z" id="Fill-1" fill="#FFFFFF" mask="url(#mask-2)"></path>
                        </g>
                    </g>
                </g>
            </g>
        </g>
    </g>
</svg>