<?xml version="1.0" encoding="UTF-8"?>
<svg width="48px" height="60px" viewBox="0 0 48 60" version="1.1" xmlns="http://www.w3.org/2000/svg" xmlns:xlink="http://www.w3.org/1999/xlink">
    <!-- Generator: Sketch 53 (72520) - https://sketchapp.com -->
    <title>Group 46</title>
    <desc>Created with Sketch.</desc>
    <defs>
        <polygon id="path-1" points="0 0 47.9788125 0 47.9788125 59.8590377 0 59.8590377"></polygon>
    </defs>
    <g id="Page-1" stroke="none" stroke-width="1" fill="none" fill-rule="evenodd">
        <g id="Technology" transform="translate(-591.000000, -645.000000)">
            <g id="technologies">
                <g id="Group-20" transform="translate(100.000000, 645.000000)">
                    <g id="Group-46" transform="translate(420.000000, 0.000000)">
                        <g id="Group-3" transform="translate(71.000000, 0.000000)">
                            <mask id="mask-2" fill="white">
                                <use xlink:href="#path-1"></use>
                            </mask>
                            <g id="Clip-2"></g>
                            <path d="M33.8776313,16.718283 L26.7854438,16.718283 C29.3382563,13.5775283 31.6491938,8.19620755 31.6491938,8.19620755 L38.9823188,8.19620755 C38.9823188,8.19620755 37.7270063,11.703 33.8776313,16.718283 L33.8776313,16.718283 Z M36.5105063,51.623 L30.0676313,51.623 L30.0676313,51.6228113 L30.0676313,27.8509245 C30.0676313,27.8509245 31.6041938,22.162434 11.1406313,30.1780943 C11.1031313,30.2797925 11.1031313,8.19620755 11.1031313,8.19620755 L17.7893813,8.15488679 L17.7893813,22.3039434 C17.7893813,22.3039434 36.5105063,14.8841321 36.5105063,27.9311132 L36.5105063,51.623 Z M11.2246312,51.5814906 L11.2246312,38.0441321 L17.9515687,44.813566 L11.2246312,51.5814906 Z M42.3051938,-1.88679245e-05 L5.67331875,-1.88679245e-05 C2.53981875,-1.88679245e-05 -5.625e-05,2.55583019 -5.625e-05,5.70866038 L-5.625e-05,54.1505472 C-5.625e-05,57.3033774 2.53981875,59.8590377 5.67331875,59.8590377 L42.3051938,59.8590377 C45.4381313,59.8590377 47.9789438,57.3033774 47.9789438,54.1505472 L47.9789438,5.70866038 C47.9789438,2.55583019 45.4381313,-1.88679245e-05 42.3051938,-1.88679245e-05 L42.3051938,-1.88679245e-05 Z" id="Fill-1" fill="#FFFFFF" mask="url(#mask-2)"></path>
                        </g>
                    </g>
                </g>
            </g>
        </g>
    </g>
</svg>