<?xml version="1.0" encoding="UTF-8"?>
<svg width="49px" height="60px" viewBox="0 0 49 60" version="1.1" xmlns="http://www.w3.org/2000/svg" xmlns:xlink="http://www.w3.org/1999/xlink">
    <!-- Generator: Sketch 53 (72520) - https://sketchapp.com -->
    <title>Group 47</title>
    <desc>Created with Sketch.</desc>
    <defs>
        <polygon id="path-1" points="9.13879617e-05 0.104341083 48.8932797 0.104341083 48.8932797 45.2054795 9.13879617e-05 45.2054795"></polygon>
        <polygon id="path-3" points="0.20939406 0.166849315 12.378025 0.166849315 12.378025 13.8843682 0.20939406 13.8843682"></polygon>
    </defs>
    <g id="Page-1" stroke="none" stroke-width="1" fill="none" fill-rule="evenodd">
        <g id="Technology" transform="translate(-801.000000, -645.000000)">
            <g id="technologies">
                <g id="Group-20" transform="translate(100.000000, 645.000000)">
                    <g id="Group-47" transform="translate(630.000000, 0.000000)">
                        <g id="Group-7" transform="translate(71.000000, 0.000000)">
                            <g id="Group-3" transform="translate(0.000000, 14.627671)">
                                <mask id="mask-2" fill="white">
                                    <use xlink:href="#path-1"></use>
                                </mask>
                                <g id="Clip-2"></g>
                                <path d="M40.8332364,17.3543425 C40.7609822,9.83215068 47.03755,6.21858904 47.3207534,6.04393151 C43.7910924,0.93530137 38.2981093,0.235849315 36.3406008,0.151191781 C31.6631771,-0.316890411 27.215389,2.87667123 24.8447025,2.87667123 C22.4752619,2.87667123 18.8123042,0.222287671 14.9367364,0.294616438 C9.83699915,0.367356164 5.14047373,3.22639726 2.51191441,7.74078082 C-2.78050085,16.8365342 1.15943136,30.3065342 6.31896525,37.6832466 C8.84121949,41.289 11.8468297,45.3484521 15.7975585,45.2017397 C19.6012873,45.0550274 21.0388975,42.7696849 25.6336856,42.7696849 C30.2301347,42.7696849 31.5240669,45.2017397 35.545389,45.1261233 C39.6381347,45.0550274 42.2301517,41.449274 44.7349653,37.8295479 C47.6305331,33.6410548 48.8214822,29.5861233 48.8933212,29.3773562 C48.8036263,29.3370822 40.914211,26.3448904 40.8332364,17.3543425" id="Fill-1" fill="#FFFFFF" mask="url(#mask-2)"></path>
                            </g>
                            <g id="Group-6" transform="translate(24.084746, 0.244110)">
                                <mask id="mask-4" fill="white">
                                    <use xlink:href="#path-3"></use>
                                </mask>
                                <g id="Clip-5"></g>
                                <path d="M9.19161102,9.65527397 C11.2898907,7.14184932 12.7005093,3.64828767 12.3143229,0.166643836 C9.29500932,0.28869863 5.63745,2.1589726 3.46899237,4.66952055 C1.52643305,6.8940411 -0.174448305,10.4496575 0.285238136,13.8614384 C3.65170424,14.1195205 7.09333136,12.1662329 9.19161102,9.65527397" id="Fill-4" fill="#FFFFFF" mask="url(#mask-4)"></path>
                            </g>
                        </g>
                    </g>
                </g>
            </g>
        </g>
    </g>
</svg>