<?xml version="1.0" encoding="UTF-8"?>
<svg width="50px" height="60px" viewBox="0 0 50 60" version="1.1" xmlns="http://www.w3.org/2000/svg" xmlns:xlink="http://www.w3.org/1999/xlink">
    <!-- Generator: Sketch 53 (72520) - https://sketchapp.com -->
    <title>Group 48</title>
    <desc>Created with Sketch.</desc>
    <defs>
        <polygon id="path-1" points="0 8.30449827e-05 49.9502058 8.30449827e-05 49.9502058 22.7425744 0 22.7425744"></polygon>
        <polygon id="path-3" points="0.0301234568 0.156747405 32.6360905 0.156747405 32.6360905 18.8491557 0.0301234568 18.8491557"></polygon>
    </defs>
    <g id="Page-1" stroke="none" stroke-width="1" fill="none" fill-rule="evenodd">
        <g id="Technology" transform="translate(-1010.000000, -645.000000)">
            <g id="technologies">
                <g id="Group-20" transform="translate(100.000000, 645.000000)">
                    <g id="Group-48" transform="translate(840.000000, 0.000000)">
                        <g id="Group-11" transform="translate(70.000000, 0.000000)">
                            <g id="Group-3" transform="translate(0.000000, 19.566436)">
                                <mask id="mask-2" fill="white">
                                    <use xlink:href="#path-1"></use>
                                </mask>
                                <g id="Clip-2"></g>
                                <path d="M46.2944239,8.30449827e-05 C44.2584156,8.30449827e-05 42.6384568,1.63461592 42.6384568,3.68894118 L42.6384568,19.0537163 C42.6384568,21.1080415 44.2584156,22.7425744 46.2944239,22.7425744 C48.3304321,22.7425744 49.9503909,21.1080415 49.9503909,19.0537163 L49.9503909,3.68894118 C49.9503909,1.63461592 48.3304321,8.30449827e-05 46.2944239,8.30449827e-05 M3.65574074,8.30449827e-05 C1.61993827,8.30449827e-05 -2.05761317e-05,1.63461592 -2.05761317e-05,3.68894118 L-2.05761317e-05,19.0537163 C-2.05761317e-05,21.1080415 1.61993827,22.7425744 3.65574074,22.7425744 C5.69174897,22.7425744 7.31170782,21.1080415 7.31170782,19.0537163 L7.31170782,3.68894118 C7.31170782,1.63461592 5.69174897,8.30449827e-05 3.65574074,8.30449827e-05" id="Fill-1" fill="#FFFFFF" mask="url(#mask-2)"></path>
                            </g>
                            <path d="M31.0662757,37.1007405 C29.0302675,37.1007405 27.4103086,38.7352734 27.4103086,40.789391 L27.4103086,56.1545813 C27.4103086,58.208699 29.0302675,59.8432318 31.0662757,59.8432318 C33.1020782,59.8432318 34.722037,58.208699 34.722037,56.1545813 L34.722037,40.789391 C34.722037,38.7352734 33.1020782,37.1007405 31.0662757,37.1007405 M18.8837654,37.1007405 C16.847963,37.1007405 15.2280041,38.7352734 15.2280041,40.789391 L15.2280041,56.1545813 C15.2280041,58.208699 16.847963,59.8432318 18.8837654,59.8432318 C20.9195679,59.8432318 22.5397325,58.208699 22.5397325,56.1545813 L22.5397325,40.789391 C22.5397325,38.7352734 20.9195679,37.1007405 18.8837654,37.1007405" id="Fill-4" fill="#FFFFFF"></path>
                            <g id="Group-8" transform="translate(8.641975, 0.050865)">
                                <mask id="mask-4" fill="white">
                                    <use xlink:href="#path-3"></use>
                                </mask>
                                <g id="Clip-7"></g>
                                <path d="M23.8574897,12.8273564 C23.1130453,12.8273564 22.4969959,12.2055571 22.4969959,11.4546228 C22.4969959,10.7036886 23.1130453,10.0818893 23.8574897,10.0818893 C24.6017284,10.0818893 25.2177778,10.7036886 25.2177778,11.4546228 C25.2177778,12.2055571 24.6017284,12.8273564 23.8574897,12.8273564 M8.80851852,12.8273564 C8.06427984,12.8273564 7.44802469,12.2055571 7.44802469,11.4546228 C7.44802469,10.7036886 8.06427984,10.0818893 8.80851852,10.0818893 C9.5527572,10.0818893 10.1690123,10.7036886 10.1690123,11.4546228 C10.1690123,12.2055571 9.5527572,12.8273564 8.80851852,12.8273564 M24.3278601,5.63047059 L26.9031687,0.936352941 C27.0480247,0.672685121 26.9622222,0.370401384 26.7015226,0.224657439 C26.6223045,0.180228374 26.5416461,0.157598616 26.4552263,0.156768166 C26.2702469,0.154899654 26.0949383,0.24832526 25.9961728,0.427910035 L23.3871193,5.17310035 C21.252963,4.21787543 18.8591358,3.68182007 16.3330041,3.68182007 C13.8068724,3.68182007 11.4130453,4.21787543 9.27888889,5.17310035 L6.67004115,0.427910035 C6.57127572,0.24832526 6.39596708,0.154899654 6.21078189,0.156768166 C6.12436214,0.157806228 6.04390947,0.180228374 5.9644856,0.224657439 C5.70378601,0.370401384 5.61798354,0.672685121 5.76304527,0.936352941 L8.33835391,5.63047059 C3.38341564,8.23185467 0.0367078189,13.1755225 0.0301234568,18.8491557 L32.6360905,18.8491557 C32.6293004,13.1755225 29.2825926,8.23185467 24.3278601,5.63047059" id="Fill-6" fill="#FFFFFF" mask="url(#mask-4)"></path>
                            </g>
                            <path d="M8.67205761,44.043301 C8.67205761,46.2464844 10.4298765,48.0201176 12.6134156,48.0201176 L37.3366667,48.0201176 C39.5202058,48.0201176 41.2780247,46.2464844 41.2780247,44.043301 L41.2780247,20.199218 L8.67205761,20.199218 L8.67205761,44.043301 Z" id="Fill-9" fill="#FFFFFF"></path>
                        </g>
                    </g>
                </g>
            </g>
        </g>
    </g>
</svg>