<?xml version="1.0" encoding="UTF-8"?>
<svg width="165px" height="36px" viewBox="0 0 165 36" version="1.1" xmlns="http://www.w3.org/2000/svg" xmlns:xlink="http://www.w3.org/1999/xlink">
    <!-- Generator: Sketch 53 (72520) - https://sketchapp.com -->
    <title>Group 49</title>
    <desc>Created with Sketch.</desc>
    <defs>
        <polygon id="path-1" points="4.74137931e-05 -0.000167730802 110 -0.000167730802 110 25.159872 4.74137931e-05 25.159872"></polygon>
        <polygon id="path-3" points="0 0 45.5172414 0 45.5172414 35.9999581 0 35.9999581"></polygon>
    </defs>
    <g id="Page-1" stroke="none" stroke-width="1" fill="none" fill-rule="evenodd">
        <g id="Technology" transform="translate(-1163.000000, -657.000000)">
            <g id="technologies">
                <g id="Group-20" transform="translate(100.000000, 645.000000)">
                    <g id="Group-49" transform="translate(1050.000000, 0.000000)">
                        <g id="Group-7" transform="translate(13.000000, 12.000000)">
                            <g id="Group-3" transform="translate(55.000000, 4.736842)">
                                <mask id="mask-2" fill="white">
                                    <use xlink:href="#path-1"></use>
                                </mask>
                                <g id="Clip-2"></g>
                                <path d="M97.1769871,0.398612252 L97.1769871,-0.000167730802 L96.7294009,-0.000167730802 L94.1856509,-0.000167730802 L93.7385388,-0.000167730802 L93.7385388,0.398612252 L93.7385388,24.3145087 L93.7385388,24.7128694 L94.1856509,24.7128694 L96.7294009,24.7128694 L97.1769871,24.7128694 L97.1769871,24.3145087 L97.1769871,14.7165329 C97.1769871,11.791727 99.1764267,10.0766796 102.209487,10.0766796 C105.10647,10.0766796 106.561599,11.5694837 106.561599,14.397425 L106.561599,24.3145087 L106.561599,24.7128694 L107.009185,24.7128694 L109.552461,24.7128694 L110.000047,24.7128694 L110.000047,24.3145087 L110.000047,13.9508418 C110.000047,9.9563327 107.222073,7.30241208 102.63953,7.30241208 C100.281642,7.30241208 98.3869871,8.07145781 97.1769871,9.17512649 L97.1769871,0.398612252 Z M81.7750905,25.0957149 C86.5344871,25.0957149 89.8951767,22.4145381 90.7391422,18.6204673 L90.844875,18.1441118 L90.2996164,18.1441118 L87.7207802,18.1441118 L87.376556,18.1441118 L87.2883664,18.4401567 C86.5648319,20.8617701 84.602375,22.2577097 81.7750905,22.2577097 C78.2456078,22.2577097 75.8109095,19.7794871 75.8109095,16.2152076 C75.8109095,12.6232525 78.2413405,10.1404173 81.7750905,10.1404173 C84.602375,10.1404173 86.5648319,11.5363569 87.2883664,13.9579703 L87.376556,14.2540152 L87.7207802,14.2540152 L90.2996164,14.2540152 L90.844875,14.2540152 L90.7391422,13.7776597 C89.8951767,9.98358896 86.5344871,7.30241208 81.7750905,7.30241208 C76.245694,7.30241208 72.3364267,11.2541498 72.3364267,16.2152076 C72.3364267,21.1485898 76.2513836,25.0957149 81.7750905,25.0957149 L81.7750905,25.0957149 Z M71.0832802,10.3953681 L71.5308664,10.3953681 L71.5308664,9.99700742 L71.5308664,8.08361829 L71.5308664,7.68483831 L71.0832802,7.68483831 L67.3399612,7.68483831 L67.3399612,3.4596994 L67.3399612,3.06133874 L66.892375,3.06133874 L64.3490991,3.06133874 L63.9010388,3.06133874 L63.9010388,3.4596994 L63.9010388,7.68483831 L60.8750905,7.68483831 L60.4270302,7.68483831 L60.4270302,8.08361829 L60.4270302,9.99700742 L60.4270302,10.3953681 L60.8750905,10.3953681 L63.9010388,10.3953681 L63.9010388,19.94596 C63.9010388,23.0791714 65.7264698,24.7770264 69.0772026,24.7770264 C69.6622888,24.7770264 70.1658233,24.7459962 70.5897026,24.6935803 C70.8514267,24.6608728 71.0315991,24.6273267 71.1311681,24.6030057 L71.4592716,24.5216563 L71.4592716,24.2189022 L71.4592716,22.1780376 L71.4592716,21.6836511 L70.9159095,21.7889022 C70.8945733,21.7930954 70.8509526,21.8006433 70.7878922,21.8111265 C70.6812112,21.8287382 70.5626767,21.8467693 70.4360819,21.863123 C70.1103491,21.9058944 69.7869871,21.9331506 69.4897026,21.9381826 C69.4593578,21.9386019 69.4294871,21.9390212 69.3996164,21.9390212 C67.9316853,21.9390212 67.3399612,21.3251265 67.3399612,19.7861964 L67.3399612,10.3953681 L71.0832802,10.3953681 Z M44.7615129,14.6045726 C45.3418578,11.9212991 47.5589267,10.1404173 50.5768147,10.1404173 C53.6876336,10.1404173 55.8345302,11.8630126 56.3039267,14.6045726 L44.7615129,14.6045726 Z M59.3165991,17.2513646 L59.7371595,17.2513646 L59.7637112,16.8777443 C59.7684526,16.8123292 59.7746164,16.7033042 59.7817284,16.5720549 C59.7874181,16.4684811 59.7912112,16.3678426 59.7945302,16.2722361 C59.7983233,16.1686623 59.8002198,16.074733 59.8002198,15.9921256 C59.8002198,10.9887158 56.0777629,7.30241208 50.5768147,7.30241208 C45.0862974,7.30241208 41.1746595,11.2264742 41.1746595,16.1833387 C41.1746595,21.2840324 44.9089698,25.0957149 50.6128491,25.0957149 C54.9256078,25.0957149 58.257375,22.8179306 59.4574181,19.3622568 L59.6371164,18.8456459 L59.0302198,18.8456459 L56.3793147,18.8456459 L56.0630647,18.8456459 L55.9573319,19.1110799 C55.2039267,21.002664 53.1627629,22.2577097 50.6484095,22.2577097 C47.3616853,22.2577097 45.0701767,20.2482947 44.6572026,17.2513646 L59.3165991,17.2513646 Z M27.1871164,0.398612252 L27.1871164,-0.000167730802 L26.7395302,-0.000167730802 L24.1962543,-0.000167730802 L23.7486681,-0.000167730802 L23.7486681,0.398612252 L23.7486681,24.3145087 L23.7486681,24.7128694 L24.1962543,24.7128694 L26.7395302,24.7128694 L27.1871164,24.7128694 L27.1871164,24.3145087 L27.1871164,20.0503724 L30.8066853,16.9121291 L37.2706078,24.5543638 L37.4052629,24.7128694 L37.6281078,24.7128694 L40.7806509,24.7128694 L41.6824612,24.7128694 L41.1372026,24.0733957 L33.242806,14.816752 L40.523194,8.36624469 L41.2917716,7.68483831 L40.2074181,7.68483831 L36.8045302,7.68483831 L36.6177198,7.68483831 L36.4868578,7.8026692 L27.1871164,16.1405674 L27.1871164,0.398612252 Z M3.49207328,17.4287399 L3.46078017,17.0597322 L3.04543534,17.0597322 L0.466599138,17.0597322 L4.74137931e-05,17.0597322 L0.019012931,17.4752852 C0.231900862,22.0979462 3.73246121,25.159872 9.95836638,25.159872 C15.8964698,25.159872 19.9337543,22.4132801 19.9337543,18.2560721 C19.9337543,16.0080601 19.0580216,14.4171334 17.3885819,13.3306571 C16.1046164,12.4949384 14.5693578,12.0240342 12.0232371,11.5325829 C11.8530216,11.4998754 11.675694,11.4663292 11.4632802,11.4264932 C11.3371595,11.4025915 10.8843578,11.3183068 10.9085388,11.3229194 C6.28521983,10.4599444 4.81871121,9.71018775 4.81871121,7.47769077 C4.81871121,5.16887627 6.93905603,3.69913512 10.4955647,3.69913512 C13.9558233,3.69913512 16.1430216,5.58023607 16.2449612,8.54236204 L16.2577629,8.92856221 L16.6920733,8.92856221 L19.2353491,8.92856221 L19.6938405,8.92856221 L19.6829353,8.52097636 C19.5634526,3.90418602 16.0837543,0.797392235 10.4600043,0.797392235 C4.94767672,0.797392235 1.30819397,3.74987368 1.30819397,7.57329733 C1.30819397,9.8150195 2.18345259,11.3761739 3.85526293,12.4190402 C5.12879741,13.2136649 6.60431466,13.6346692 9.2073319,14.1026381 C9.32918534,14.1244431 9.45625431,14.1470868 9.60750431,14.1739237 C9.70138362,14.1906968 9.80711638,14.2091472 10.0057802,14.2443707 C12.4684526,14.6779548 13.5551767,14.9454854 14.5465991,15.4587417 C15.7769871,16.0961187 16.3876767,17.005639 16.3876767,18.4154164 C16.3876767,20.8626088 14.0762543,22.2577097 10.0299612,22.2577097 C6.15625431,22.2577097 3.75190086,20.5284052 3.49207328,17.4287399 L3.49207328,17.4287399 Z" id="Fill-1" fill="#FFFFFF" mask="url(#mask-2)"></path>
                            </g>
                            <g id="Group-6">
                                <mask id="mask-4" fill="white">
                                    <use xlink:href="#path-3"></use>
                                </mask>
                                <g id="Clip-5"></g>
                                <path d="M9.95689655,1.25577209 L22.7586207,-4.18604651e-05 L9.95689655,11.1139116 L9.95689655,1.25577209 Z M22.7586207,35.9999581 L22.7036207,35.8982372 L36.9709052,12.9767023 L45.5172414,12.9767023 L22.7586207,35.9999581 Z M45.5172414,12.9767023 L37.1434914,11.8393535 L35.5603448,1.25577209 L45.5172414,12.9767023 Z M35.5603448,1.25577209 L35.5603448,11.1139116 L22.7586207,-4.18604651e-05 L35.5603448,1.25577209 Z M22.7586207,-4.18604651e-05 L34.234181,11.7208884 L11.2830603,11.7208884 L22.7586207,-4.18604651e-05 Z M9.95689655,1.25577209 L8.37375,11.8393535 L0,12.9767023 L9.95689655,1.25577209 Z M35.2085345,12.9767023 L22.6998276,35.8907023 L10.3072845,12.9767023 L35.2085345,12.9767023 Z M0,12.9767023 L8.42780172,12.9767023 L22.6955603,35.8986558 L22.6822845,35.9229349 L0,12.9767023 Z M22.7586207,35.9999581 L22.6860776,35.9262837 L22.6993534,35.9049349 L22.7586207,35.9999581 Z" id="Fill-4" fill="#FFFFFF" mask="url(#mask-4)"></path>
                            </g>
                        </g>
                    </g>
                </g>
            </g>
        </g>
    </g>
</svg>