<?xml version="1.0" encoding="UTF-8"?>
<svg width="53px" height="60px" viewBox="0 0 53 60" version="1.1" xmlns="http://www.w3.org/2000/svg" xmlns:xlink="http://www.w3.org/1999/xlink">
    <!-- Generator: Sketch 53 (72520) - https://sketchapp.com -->
    <title>Group 4</title>
    <desc>Created with Sketch.</desc>
    <defs>
        <polygon id="path-1" points="4.8203729e-06 0.0239448221 52.999301 0.0239448221 52.999301 59.9793683 4.8203729e-06 59.9793683"></polygon>
    </defs>
    <g id="Page-1" stroke="none" stroke-width="1" fill="none" fill-rule="evenodd">
        <g id="Technology" transform="translate(-589.000000, -225.000000)">
            <g id="technologies">
                <g id="Group-14" transform="translate(100.000000, 225.000000)">
                    <g id="Group-4" transform="translate(420.000000, 0.000000)">
                        <g id="Group-3" transform="translate(69.000000, 0.000000)">
                            <mask id="mask-2" fill="white">
                                <use xlink:href="#path-1"></use>
                            </mask>
                            <g id="Clip-2"></g>
                            <path d="M45.1444841,17.8830012 L33.8996869,17.9241447 L33.8996869,27.1417377 L44.4416979,25.9689668 L43.0154218,43.2313579 L28.7320785,46.9348525 L28.6287056,40.6800504 L38.9639948,37.943585 L39.1086783,32.841018 L28.8561067,34.5898705 L28.6287056,11.6693667 L45.5992381,11.5870556 L45.1444841,17.8830012 Z M24.4119157,29.260954 C24.4119157,43.1901903 24.370581,46.7908141 24.2258734,46.7908141 C24.1225246,46.7702303 23.461073,46.6056321 22.7789421,46.4204742 C22.0968111,46.2147085 18.7275151,45.3094306 15.2962049,44.383545 L9.0743809,42.7169796 L9.0743809,39.6101743 C9.0743809,36.5650724 9.0743809,36.5033451 9.38442729,36.6062159 C9.54979018,36.6679432 11.8235601,37.2851923 14.4280558,38.0053123 L19.1615896,39.3015138 L19.2029484,25.5162919 L19.2442831,11.73107 L24.4119157,11.73107 L24.4119157,29.260954 Z M4.8203729e-06,0.0239448221 L4.91960509,53.9303343 L26.4583086,59.9793707 L48.1210403,53.8891907 L52.9993059,0.0445045982 L4.8203729e-06,0.0239448221 Z" id="Fill-1" fill="#FFFFFF" mask="url(#mask-2)"></path>
                        </g>
                    </g>
                </g>
            </g>
        </g>
    </g>
</svg>