<?xml version="1.0" encoding="UTF-8"?>
<svg width="67px" height="60px" viewBox="0 0 67 60" version="1.1" xmlns="http://www.w3.org/2000/svg" xmlns:xlink="http://www.w3.org/1999/xlink">
    <!-- Generator: Sketch 53 (72520) - https://sketchapp.com -->
    <title>Group 5</title>
    <desc>Created with Sketch.</desc>
    <defs>
        <polygon id="path-1" points="8.89380531e-05 0.284630542 66.9869558 0.284630542 66.9869558 59.7044335 8.89380531e-05 59.7044335"></polygon>
    </defs>
    <g id="Page-1" stroke="none" stroke-width="1" fill="none" fill-rule="evenodd">
        <g id="Technology" transform="translate(-791.000000, -225.000000)">
            <g id="technologies">
                <g id="Group-14" transform="translate(100.000000, 225.000000)">
                    <g id="Group-5" transform="translate(630.000000, 0.000000)">
                        <g id="Group-6" transform="translate(61.000000, 0.000000)">
                            <g id="Group-3" transform="translate(0.000000, 0.010936)">
                                <mask id="mask-2" fill="white">
                                    <use xlink:href="#path-1"></use>
                                </mask>
                                <g id="Clip-2"></g>
                                <path d="M53.4112438,38.061931 C53.0451155,38.1828177 52.669204,38.2998621 52.2861774,38.4127685 C51.4385978,35.7373005 50.293965,32.8918818 48.8940801,29.9521773 C50.2302261,27.0825222 51.3300934,24.2737537 52.1542527,21.6148374 C52.8393721,21.8125714 53.5043323,22.0212414 54.1455757,22.2414384 C60.3442615,24.3689261 64.1256111,27.5143448 64.1256111,29.9382857 C64.1256111,32.5200591 60.0418721,35.8714877 53.4112438,38.061931 M50.9820491,52.3114877 C50.5830137,54.4558227 49.7807925,55.8851823 48.7885403,56.4576946 C46.6774473,57.6757241 42.1632482,56.0923744 37.2944827,51.915133 C36.7362482,51.4363153 36.1738633,50.9252808 35.609996,50.383803 C37.4972615,48.326069 39.3839341,45.9331626 41.2252482,43.2760197 C44.4631863,42.9896158 47.5229518,42.5211429 50.2972261,41.8818325 C50.4338942,42.4312906 50.5554429,42.9701084 50.6600934,43.497399 C51.3300934,46.8733596 51.4261465,49.9256749 50.9820491,52.3114877 M33.6044429,48.3420296 C32.2484341,46.8831133 30.8956863,45.2693202 29.5743633,43.5334581 C30.85685,43.5834089 32.1645358,43.6091232 33.4932704,43.6091232 C34.8590624,43.6091232 36.2088456,43.5783842 37.5372836,43.5195665 C36.2328588,45.2864631 34.9156863,46.9029163 33.6044429,48.3420296 M30.3362659,51.5669557 C27.7371996,53.8318818 25.1325004,55.4388768 22.8373058,56.2469557 C20.7748323,56.9731626 19.1321465,56.9941478 18.1390049,56.4234089 C16.0264296,55.208335 15.1477217,50.5182857 16.3460137,44.2265616 C16.4832748,43.506266 16.6466243,42.7658719 16.8348765,42.0092217 C19.5789119,42.6142463 22.61585,43.0499113 25.8620889,43.3123744 C27.715558,45.9124729 29.6564827,48.3021281 31.612527,50.39533 C31.1850314,50.8064631 30.7596111,51.1977931 30.3362659,51.5669557 M14.8281376,38.5623251 C14.2583412,38.3991724 13.7057394,38.2271527 13.1744827,38.0459704 C9.90838097,36.9331626 7.21088982,35.4863645 5.3618677,33.9077438 C3.70020841,32.4893202 2.86152257,31.0809458 2.86152257,29.9382857 C2.86152257,27.5063645 6.49819956,24.4046897 12.5634783,22.2961182 C13.2992925,22.0404532 14.0697925,21.7995665 14.8690491,21.572867 C15.707142,24.2911921 16.8067128,27.1333596 18.133965,30.0077438 C16.7898146,32.9243941 15.6745314,35.8120788 14.8281376,38.5623251 M18.0948323,3.59739901 C20.3360712,2.304 25.2914031,4.14803941 30.5144385,8.77188177 C30.8485491,9.06715271 31.1832527,9.37661084 31.5194385,9.69670936 C29.5734739,11.7801576 27.6500403,14.1520788 25.8128765,16.7371034 C22.6626907,17.0282365 19.6468013,17.4958227 16.8743058,18.1221281 C16.6999872,17.4231133 16.545235,16.7362167 16.4136066,16.0646897 C15.1548367,9.65030542 15.9908544,4.81158621 18.0948323,3.59739901 M33.5255845,11.7355271 C34.8454252,13.1613399 36.1673412,14.7529655 37.4676155,16.4799606 C36.1572615,16.4184828 34.8308987,16.386266 33.4932704,16.386266 C32.1689827,16.386266 30.8521066,16.4178916 29.55035,16.4784828 C30.8515137,14.7674483 32.1846951,13.1778916 33.5255845,11.7355271 M47.2359783,26.6533596 C46.628235,25.5033103 45.9858058,24.343803 45.3089872,23.1783842 C44.6461022,22.0366108 43.9657261,20.9223251 43.2720093,19.8381872 C45.4091907,20.1074483 47.4568412,20.4650837 49.3799783,20.9025222 C48.8027704,22.7474483 48.082965,24.6763153 47.2359783,26.6533596 M45.3202527,36.7974975 C46.002704,35.6175961 46.6504695,34.4362167 47.2632527,33.2589754 C48.1585624,35.2933596 48.91335,37.2621281 49.5127925,39.1339507 C47.5703854,39.5755271 45.4735226,39.9313892 43.2637084,40.1959212 C43.959204,39.0970049 44.6461022,37.9635074 45.3202527,36.7974975 M19.7757615,26.6515862 C18.9421155,24.6810443 18.2294252,22.7433103 17.646881,20.87267 C19.5584562,20.4458719 21.5966199,20.097399 23.7201642,19.8331626 C23.0166642,20.9270542 22.3303588,22.0499113 21.6665845,23.1975961 L21.6665845,23.1978916 C21.0042925,24.3426207 20.3740181,25.4956256 19.7757615,26.6515862 M19.7790226,33.3615369 C20.378465,34.5160197 21.011704,35.6699113 21.67785,36.8170049 L21.6781465,36.8170049 C22.3567438,37.9856749 23.0596509,39.1304039 23.7815314,40.2470542 C21.5871332,40.0026207 19.5184341,39.6721773 17.6074518,39.2574975 C18.1994827,37.3534581 18.9278854,35.3740493 19.7790226,33.3615369 M21.2963058,30.0068571 C22.161673,28.2106995 23.1141996,26.4065616 24.145881,24.6228177 L24.1455845,24.6231133 C25.1799341,22.8346404 26.2688323,21.1100099 27.3936022,19.4678424 C29.3861111,19.3176946 31.4290181,19.2393695 33.4932704,19.2393695 C35.5676022,19.2393695 37.612881,19.3182857 39.6045004,19.4699113 C40.7120757,21.099665 41.7935624,22.8189754 42.8320624,24.6074483 C43.8824208,26.4166108 44.8473987,28.2086305 45.719881,29.966069 C44.8500668,31.7539507 43.8871642,33.564 42.8415491,35.3719803 C41.7941553,37.1820296 40.7191907,38.9102069 39.6282173,40.5414384 C37.6404518,40.6830148 35.5865757,40.7560197 33.4932704,40.7560197 C31.4088588,40.7560197 29.3810712,40.6912906 27.4285845,40.5650837 C26.293142,38.9125714 25.1947571,37.179665 24.1541819,35.3876453 L24.1544783,35.3876453 C23.1168677,33.6006502 22.1619695,31.7988768 21.2963058,30.0068571 M37.0712482,8.28656158 C42.0165004,3.99582266 46.6389075,2.30163547 48.7449606,3.51227586 C50.9879783,4.80212808 51.8604606,10.0035074 50.4510889,16.824 C50.360965,17.2593695 50.2598721,17.7024236 50.1498854,18.1519803 C47.3708677,17.5123744 44.3529031,17.0368079 41.1932305,16.7412414 C39.3525093,14.1278424 37.445381,11.7520788 35.5308412,9.69523153 C36.045496,9.20163547 36.5592615,8.73079803 37.0712482,8.28656158 M55.0767571,19.543803 C54.3818544,19.3052808 53.6620491,19.079468 52.9206022,18.8663645 C53.0424473,18.3704039 53.1542128,17.8809458 53.2538235,17.3997635 C54.8861332,9.50015764 53.8185801,3.1360197 50.1741951,1.04074877 C46.6795226,-0.968512315 40.9646597,1.12646305 35.1925801,6.13454187 C34.6376066,6.6160197 34.0808544,7.12587192 33.5246951,7.66025616 C33.1538235,7.30675862 32.7838412,6.96508374 32.4147482,6.63848276 C26.3654783,1.28340887 20.3019783,-0.973241379 16.6611509,1.12823645 C13.1700358,3.1431133 12.1359827,9.12597044 13.6052394,16.61267 C13.7472438,17.3356256 13.9132615,18.0742463 14.1006243,18.8249852 C13.2426686,19.0676453 12.4140624,19.3265616 11.6213279,19.6023251 C4.52911106,22.0673498 8.89380531e-05,25.9306995 8.89380531e-05,29.9382857 C8.89380531e-05,34.077399 4.86203584,38.228335 12.2489341,40.7456749 C12.8320712,40.9445911 13.43685,41.1322759 14.0603058,41.3105025 C13.8581199,42.1227192 13.6820226,42.9183842 13.5340889,43.6945419 C12.1333146,51.0511921 13.2272527,56.8927685 16.7091774,58.894936 C20.3058323,60.9627192 26.3417615,58.8373005 32.219381,53.715133 C32.6839341,53.3102069 33.1499695,52.8810443 33.6168942,52.430601 C34.2222659,53.0119803 34.8267482,53.5620296 35.4279695,54.0780887 C41.1211907,58.9623251 46.7438544,60.9346404 50.2225181,58.9268571 C53.8156155,56.852867 54.9833721,50.5779901 53.4672748,42.9432118 C53.3516553,42.3600591 53.2167659,41.764197 53.0655712,41.1582857 C53.4895093,41.0332611 53.9054429,40.9040985 54.3112969,40.7699113 C61.9905049,38.2333596 66.9870447,34.1323744 66.9870447,29.9382857 C66.9870447,25.9162167 62.3115712,22.0268571 55.0767571,19.543803" id="Fill-1" fill="#FFFFFF" mask="url(#mask-2)"></path>
                            </g>
                            <path d="M33.4936854,23.9855468 C36.7971412,23.9855468 39.4753624,26.655399 39.4753624,29.9491921 C39.4753624,33.2426897 36.7971412,35.9128374 33.4936854,35.9128374 C30.1899332,35.9128374 27.5117119,33.2426897 27.5117119,29.9491921 C27.5117119,26.655399 30.1899332,23.9855468 33.4936854,23.9855468" id="Fill-4" fill="#FFFFFF"></path>
                        </g>
                    </g>
                </g>
            </g>
        </g>
    </g>
</svg>