<?xml version="1.0" encoding="UTF-8"?>
<svg width="89px" height="60px" viewBox="0 0 89 60" version="1.1" xmlns="http://www.w3.org/2000/svg" xmlns:xlink="http://www.w3.org/1999/xlink">
    <!-- Generator: Sketch 53 (72520) - https://sketchapp.com -->
    <title>Group 12</title>
    <desc>Created with Sketch.</desc>
    <defs>
        <polygon id="path-1" points="1.08553042e-06 0.000147685091 88.9742034 0.000147685091 88.9742034 59.998536 1.08553042e-06 59.998536"></polygon>
    </defs>
    <g id="Page-1" stroke="none" stroke-width="1" fill="none" fill-rule="evenodd">
        <g id="Technology" transform="translate(-1201.000000, -225.000000)">
            <g id="technologies">
                <g id="Group-14" transform="translate(100.000000, 225.000000)">
                    <g id="Group-12" transform="translate(1050.000000, 0.000000)">
                        <g id="Group-3" transform="translate(51.000000, 0.000000)">
                            <mask id="mask-2" fill="white">
                                <use xlink:href="#path-1"></use>
                            </mask>
                            <g id="Clip-2"></g>
                            <path d="M66.361074,19.2652626 L74.7731523,31.0205863 L85.2301262,28.2012338 L76.1579313,16.9711978 L66.361074,19.2652626 Z M3.50276498,5.00857194 L24.6895905,44.5230683 L42.2433076,39.7905144 L19.8840622,2.82306835 L3.50276498,5.00857194 Z M46.4530475,41.4700468 L55.8419488,56.9932842 L83.203045,47.4944712 L73.6457585,34.1387158 L46.4530475,41.4700468 Z M55.2415526,59.998536 C54.7710826,59.998536 54.319842,59.7573489 54.0666292,59.3388957 L43.7068188,42.2104065 L24.3530014,47.4281403 C23.7355163,47.5952626 23.0847242,47.3152986 22.7842358,46.7552626 L0.160167346,4.56033453 C-0.050123726,4.16796043 -0.0535342438,3.6982482 0.15109682,3.30296043 C0.355727884,2.90749281 0.742712801,2.63652158 1.18695088,2.57716906 L20.4123659,0.0122769784 C20.9545294,-0.0599172662 21.4881665,0.194507194 21.7696431,0.65968705 L44.9893549,39.0501547 L71.9575159,31.7795432 L62.9507014,19.1927806 C62.6870393,18.8242554 62.6255412,18.3501547 62.7863435,17.9275647 C62.9471095,17.5049748 63.3094588,17.1892554 63.7528987,17.0855144 L76.3710524,14.1309101 C76.8858229,14.0101187 77.4241042,14.1944353 77.7548881,14.6035719 L88.6738057,28.1194712 C88.9621033,28.4766295 89.0497972,28.9538597 88.9068094,29.3889676 C88.7638579,29.8240396 88.4095269,30.1585 87.964019,30.2785719 L76.4613948,33.379795 L86.4897682,47.3941115 C86.7388449,47.7421331 86.8083977,48.1857662 86.6779272,48.5921331 C86.5471302,48.998464 86.2314759,49.3204424 85.8254792,49.4614496 L55.6939179,59.9220971 C55.5450524,59.9738237 55.3922684,59.998536 55.2415526,59.998536 L55.2415526,59.998536 Z" id="Fill-1" fill="#FFFFFE" mask="url(#mask-2)"></path>
                        </g>
                    </g>
                </g>
            </g>
        </g>
    </g>
</svg>