<?xml version="1.0" encoding="UTF-8"?>
<svg width="125px" height="44px" viewBox="0 0 125 44" version="1.1" xmlns="http://www.w3.org/2000/svg" xmlns:xlink="http://www.w3.org/1999/xlink">
    <!-- Generator: Sketch 53 (72520) - https://sketchapp.com -->
    <title>Group 23</title>
    <desc>Created with Sketch.</desc>
    <defs>
        <polygon id="path-1" points="0.019140625 0.0113281768 84.527832 0.0113281768 84.527832 22.3646409 0.019140625 22.3646409"></polygon>
        <polygon id="path-3" points="0 0.084839779 71.4105957 0.084839779 71.4105957 43.7256685 0 43.7256685"></polygon>
    </defs>
    <g id="Page-1" stroke="none" stroke-width="1" fill="none" fill-rule="evenodd">
        <g id="Technology" transform="translate(-133.000000, -373.000000)">
            <g id="technologies">
                <g id="Group-15" transform="translate(100.000000, 365.000000)">
                    <g id="Group-23">
                        <g id="Group-7" transform="translate(33.000000, 8.000000)">
                            <g id="Group-3" transform="translate(40.283203, 21.550519)">
                                <mask id="mask-2" fill="white">
                                    <use xlink:href="#path-1"></use>
                                </mask>
                                <g id="Clip-2"></g>
                                <path d="M68.3755859,16.6900022 L68.3755859,22.3647867 L78.6714844,22.3647867 C80.7811035,22.3647867 84.4019531,20.8284331 84.5279297,16.5332066 L84.5279297,14.3387978 C84.5279297,10.6705105 81.5052246,8.50746077 78.6714844,8.50746077 L73.5391602,8.50746077 L73.5391602,5.87402431 L83.7093262,5.87402431 L83.7093262,0.168123757 L73.948584,0.168123757 C71.4297852,0.168123757 68.0606445,2.23733923 68.0606445,6.09329503 L68.0606445,8.06843315 C68.0606445,11.924632 71.398291,13.8997702 73.948584,13.8997702 C81.0330566,13.9311293 72.2481445,13.8997702 78.7974609,13.8997702 L78.7974609,16.6586431 L68.3755859,16.6900022 Z M57.6700195,16.627284 L57.6700195,0.168123757 L51.3101563,0.168123757 L51.3101563,16.627284 L51.3101563,22.3647867 L57.6700195,22.3647867 L66.2657227,22.3647867 L66.2657227,16.627284 L57.6700195,16.627284 Z M42.3050293,22.3647867 L48.696875,22.3647867 L48.696875,0.168123757 L42.3050293,0.168123757 L42.3050293,22.3647867 Z M33.5516113,12.1127867 L27.7583984,12.1127867 L27.7583984,6.68887514 C27.7583984,6.68887514 27.7583984,5.4663558 29.6790527,5.4663558 L31.7886719,5.4663558 C33.4888672,5.4663558 33.5201172,6.68887514 33.5201172,6.68887514 L33.5201172,12.1127867 L33.5516113,12.1127867 Z M33.6463379,0.168123757 L27.5064453,0.168123757 C23.1299805,0.168123757 21.65,4.11815691 21.65,5.99921768 L21.65,22.3647867 L27.7898926,22.3647867 L27.7898926,18.4458696 L33.5516113,18.4458696 L33.5516113,22.3647867 L39.5025391,22.3647867 L39.5025391,5.99921768 C39.5025391,1.23409061 35.1575684,0.168123757 33.6463379,0.168123757 L33.6463379,0.168123757 Z M10.8816895,10.7332287 L6.06430664,10.7332287 L6.06430664,5.62315138 L10.9131836,5.62315138 C10.9131836,5.62315138 12.2671875,6.12465414 12.2671875,8.1625105 C12.2671875,10.2003669 10.8816895,10.7332287 10.8816895,10.7332287 L10.8816895,10.7332287 Z M13.2117676,15.3106873 C13.2117676,15.3106873 18.7217773,14.8405436 18.7217773,7.75508508 C18.7217773,0.669626519 12.0467285,0.0113281768 12.0467285,0.0113281768 L0.019140625,0.0113281768 L0.019140625,22.3647867 L6.06430664,22.3647867 L6.06430664,16.9722343 L11.2911133,22.3647867 L20.233252,22.3647867 L13.2117676,15.3106873 Z" id="Fill-1" fill="#FFFFFF" mask="url(#mask-2)"></path>
                            </g>
                            <g id="Group-6" transform="translate(0.000000, 0.158254)">
                                <mask id="mask-4" fill="white">
                                    <use xlink:href="#path-3"></use>
                                </mask>
                                <g id="Clip-5"></g>
                                <path d="M28.0226562,37.4553039 C28.0856445,39.1168508 28.2431152,40.4650497 28.4005859,41.4055801 L32.1789062,42.753779 C31.895459,41.5310166 31.6120117,40.1514586 31.423291,38.6780663 L28.0226562,37.4553039 Z M5.19526367,28.614221 L1.57416992,27.2976243 C0.976025391,28.6458232 0.314892578,30.2132928 -4.8828125e-05,31.0595028 L3.62080078,32.3763425 C4.03022461,31.3106188 4.69160156,29.7742652 5.19526367,28.614221 L5.19526367,28.614221 Z M14.7040527,14.6003425 L12.468457,12.6565635 C11.6498535,13.4402983 10.8627441,14.2242762 10.138623,15.008011 L12.5629395,17.0769834 C13.2240723,16.2305304 13.9484375,15.3840773 14.7040527,14.6003425 L14.7040527,14.6003425 Z M28.4950684,29.4920331 L31.0453613,31.4985304 C31.1713379,30.276011 31.3917969,29.0532486 31.7064941,27.8304862 L29.4396484,26.0435028 C29.0302246,27.203547 28.7467773,28.3635912 28.4950684,29.4920331 L28.4950684,29.4920331 Z M33.060498,19.3970718 L34.5717285,21.6541989 C35.1071289,20.8704641 35.7367676,20.1494475 36.4296387,19.4284309 L35.0126465,17.2964972 C34.2885254,17.9547956 33.6271484,18.6760552 33.060498,19.3970718 L33.060498,19.3970718 Z M26.6059082,5.28911602 L25.188916,3.1258232 C24.4018066,3.53349171 23.5832031,3.97227624 22.7328613,4.4740221 L24.1813477,6.66843094 C24.9999512,6.16692818 25.7870605,5.69654144 26.6059082,5.28911602 L26.6059082,5.28911602 Z M40.9005859,13.5343757 L41.624707,15.6976685 C42.537793,15.2586409 43.4508789,14.8825746 44.3639648,14.6003425 L43.6713379,12.5311271 C42.6007812,12.8447182 41.6876953,13.1894254 40.9005859,13.5343757 L40.9005859,13.5343757 Z M39.3891113,1.99713812 L39.7040527,1.99713812 L39.0744141,0.084718232 C38.0983398,0.084718232 37.0907715,0.147436464 36.051709,0.272872928 L36.6498535,2.12257459 C37.5629395,2.02849724 38.4760254,1.99713812 39.3891113,1.99713812 L39.3891113,1.99713812 Z M51.0390137,11.7787514 L50.9130371,13.7538895 C51.9520996,13.7852486 52.9911621,13.9106851 54.0302246,14.1299558 L54.1562012,12.1861768 C53.0856445,11.9669061 52.046582,11.8414696 51.0390137,11.7787514 L51.0390137,11.7787514 Z M54.0302246,5.13232044 L54.1562012,3.03174586 C53.8727539,2.87495028 53.0856445,2.49888398 51.102002,1.93441989 L50.9760254,4.00363536 C52.0150879,4.34858564 53.0226563,4.72465193 54.0302246,5.13232044 L54.0302246,5.13232044 Z M2.20405273,43.7256685 L27.0780762,43.7256685 C27.0780762,43.7256685 22.3236816,22.1245856 38.0668457,13.3775801 C41.4987305,11.7160331 52.4245117,5.50862983 70.3087891,18.6760552 C70.8754395,18.2056685 71.4105957,17.8296022 71.4105957,17.8296022 C71.4105957,17.8296022 55.037793,1.55835359 36.8073242,3.37669613 C27.6449707,4.19179006 16.3727539,12.499768 9.76069336,23.4725414 C3.14863281,34.445558 2.20405273,43.7256685 2.20405273,43.7256685 L2.20405273,43.7256685 Z" id="Fill-4" fill="#FFFFFF" mask="url(#mask-4)"></path>
                            </g>
                        </g>
                    </g>
                </g>
            </g>
        </g>
    </g>
</svg>