<?xml version="1.0" encoding="UTF-8"?>
<svg width="88px" height="56px" viewBox="0 0 88 56" version="1.1" xmlns="http://www.w3.org/2000/svg" xmlns:xlink="http://www.w3.org/1999/xlink">
    <!-- Generator: Sketch 53 (72520) - https://sketchapp.com -->
    <title>Group 24</title>
    <desc>Created with Sketch.</desc>
    <defs>
        <polygon id="path-1" points="0.00441491525 0.0967033717 19.2371878 0.0967033717 19.2371878 22.2061848 0.00441491525 22.2061848"></polygon>
        <polygon id="path-3" points="0 0.115754359 87.9740176 0.115754359 87.9740176 34.6671473 0 34.6671473"></polygon>
        <path d="M8.99151186,0.184341753 L8.9936,0.184341753 L0.61540339,5.11578784 C0.301437288,5.30028169 0.109030508,5.64113142 0.109030508,6.00935863 L0.109030508,6.00935863 L0.109030508,15.8790952 C0.109030508,16.2474745 0.301437288,16.58802 0.61540339,16.7723618 L0.61540339,16.7723618 L8.99419661,21.7077624 C9.30741695,21.8916478 9.69372203,21.8916478 10.0064949,21.7077624 L10.0064949,21.7077624 L18.3840949,16.7723618 C18.6962712,16.58802 18.8891254,16.2473224 18.8891254,15.8790952 L18.8891254,15.8790952 L18.8891254,6.00935863 C18.8891254,5.64113142 18.6962712,5.30028169 18.3820068,5.11578784 L18.3820068,5.11578784 L10.0057492,0.184341753 C9.84854237,0.0924750708 9.67358644,0.0465417297 9.49863051,0.0465417297 L9.49863051,0.0465417297 C9.32352542,0.0465417297 9.14871864,0.0924750708 8.99151186,0.184341753 L8.99151186,0.184341753 Z" id="path-5"></path>
        <path d="M0.0181966102,16.5057355 C0.098440678,16.6117472 0.198671186,16.7036139 0.316501695,16.7723618 L0.316501695,16.7723618 L7.50371525,21.0059861 L8.70096271,21.7076103 C8.87994576,21.8130136 9.08398644,21.8575781 9.28444746,21.8425205 L9.28444746,21.8425205 C9.35111864,21.837045 9.41808814,21.8242688 9.4832678,21.8054088 L9.4832678,21.8054088 L18.3198102,5.30590928 C18.2522441,5.23077329 18.1730441,5.16795716 18.0844475,5.11517945 L18.0844475,5.11517945 L12.5983186,1.88463586 L9.69849492,0.183124976 C9.61601356,0.134605983 9.52682034,0.100079929 9.43583729,0.0757443837 L9.43583729,0.0757443837 L0.0181966102,16.5057355 Z" id="path-7"></path>
        <path d="M8.80686102,0.0524735188 L8.80193898,0.0521693245 C8.66128814,0.0664664571 8.52391864,0.111030924 8.39728814,0.184341753 L8.39728814,0.184341753 L0.0428067797,5.1016428 L9.05147119,21.8343072 C9.17675932,21.8160556 9.29995932,21.7734684 9.41137627,21.7077624 L9.41137627,21.7077624 L17.7898712,16.7723618 C18.0483525,16.6196562 18.2253966,16.360939 18.2790915,16.0675436 L18.2790915,16.0675436 L9.09532203,0.0690521088 C9.02760678,0.0555154619 8.96004068,0.0483668956 8.89038644,0.0483668956 L8.89038644,0.0483668956 C8.86249492,0.0483668956 8.83475254,0.04973577 8.80686102,0.0524735188 L8.80686102,0.0524735188 Z" id="path-9"></path>
    </defs>
    <g id="Page-1" stroke="none" stroke-width="1" fill="none" fill-rule="evenodd">
        <g id="Technology" transform="translate(-361.000000, -367.000000)">
            <g id="technologies">
                <g id="Group-15" transform="translate(100.000000, 365.000000)">
                    <g id="Group-24" transform="translate(210.000000, 0.000000)">
                        <g id="Group-27" transform="translate(51.000000, 2.000000)">
                            <g id="Group-13" transform="translate(0.000000, 0.036351)">
                                <g id="Group-3" transform="translate(33.857627, 32.852986)">
                                    <mask id="mask-2" fill="white">
                                        <use xlink:href="#path-1"></use>
                                    </mask>
                                    <g id="Clip-2"></g>
                                    <path d="M9.62460475,22.2062304 C9.3343539,22.2062304 9.04589288,22.1285087 8.79143864,21.9791493 L6.13905898,20.3778705 C5.74290983,20.1518541 5.93621153,20.0720031 6.06686915,20.0259177 C6.59501831,19.8373172 6.70225898,19.7948821 7.26605559,19.4681774 C7.32526915,19.4336513 7.40282847,19.4459712 7.46353356,19.4824745 L9.50110644,20.7153741 C9.5747878,20.755984 9.67919458,20.755984 9.74735729,20.7153741 L17.6922658,16.0389949 C17.765798,15.9964077 17.8133776,15.909256 17.8133776,15.819975 L17.8133776,6.47101913 C17.8133776,6.37778357 17.765798,6.29473852 17.6906251,6.2478926 L9.74884881,1.57546797 C9.67531661,1.5309035 9.57792,1.5309035 9.50423864,1.57546797 L1.5642522,6.2478926 C1.48728949,6.29260916 1.43836746,6.37976083 1.43836746,6.46904187 L1.43836746,15.8178457 C1.43836746,15.9071267 1.48609627,15.9924532 1.56156746,16.0348883 L3.73725559,17.316611 C4.91854373,17.9189158 5.64044203,17.2092304 5.64044203,16.4952864 L5.64044203,7.26800823 C5.64044203,7.13629209 5.74186576,7.03484329 5.87118102,7.03484329 L6.87751322,7.03484329 C7.0026522,7.03484329 7.10616407,7.13629209 7.10616407,7.26800823 L7.10616407,16.499393 C7.10616407,18.1053869 6.24704542,19.0281603 4.75358102,19.0281603 C4.29419119,19.0281603 3.93219797,19.0281603 2.9219878,18.5210684 L0.837730169,17.2963821 C0.322706441,16.9921878 0.00441491525,16.424257 0.00441491525,15.8179977 L0.00441491525,6.46904187 C0.00441491525,5.86065324 0.322706441,5.29287456 0.837730169,4.99263477 L8.79054373,0.314126256 C9.29378441,0.0242290769 9.9619878,0.0242290769 10.4610522,0.314126256 L18.4038725,4.99476413 C18.9171064,5.29682908 19.2371878,5.8626305 19.2371878,6.47101913 L19.2371878,15.819975 C19.2371878,16.4262343 18.9171064,16.9921878 18.4038725,17.2963821 L10.4610522,21.9748906 C10.2064488,22.1248584 9.91813695,22.2019717 9.62385898,22.2019717" id="Fill-1" fill="#FFFFFF" mask="url(#mask-2)"></path>
                                </g>
                                <path d="M57.3816678,38.8215062 C57.3816678,39.6813114 56.691539,40.3830877 55.8503186,40.3830877 C55.0150644,40.3830877 54.3191186,39.6895247 54.3191186,38.8215062 C54.3191186,37.9373655 55.0310237,37.2599247 55.8503186,37.2599247 C56.6757288,37.2599247 57.3795797,37.9393427 57.3795797,38.8215062 L57.3816678,38.8215062 Z M54.5677559,38.8175517 C54.5677559,39.5435114 55.1422915,40.131519 55.8483797,40.131519 C56.5602847,40.131519 57.1351186,39.5313437 57.1351186,38.8175517 C57.1351186,38.0894626 56.5523797,37.5114934 55.8464407,37.5114934 C55.1503458,37.5114934 54.5656678,38.0814015 54.5656678,38.8154223 L54.5677559,38.8175517 Z M55.277722,37.9454266 L55.8683661,37.9454266 C56.0710644,37.9454266 56.4688542,37.9454266 56.4688542,38.407802 C56.4688542,38.7302479 56.2660068,38.7971707 56.1447458,38.8376285 C56.3813017,38.8539029 56.397261,39.012084 56.4290305,39.2352105 C56.4449898,39.3751399 56.4709424,39.6165181 56.518522,39.6975858 L56.1545898,39.6975858 C56.1447458,39.6165181 56.0889627,39.170265 56.0889627,39.1460816 C56.0652475,39.04661 56.0312407,38.9979389 55.9101288,38.9979389 L55.6097356,38.9979389 L55.6097356,39.6995631 L55.277722,39.6995631 L55.277722,37.9454266 Z M55.6016814,38.7119963 L55.8683661,38.7119963 C56.0870237,38.7119963 56.1287864,38.5557925 56.1287864,38.4645342 C56.1287864,38.2252854 55.9677017,38.2252854 55.8782102,38.2252854 L55.6037695,38.2252854 L55.6016814,38.7119963 Z M45.9362983,48.6171715 C42.4601492,48.6171715 41.7312407,46.989884 41.7312407,45.6251162 C41.7312407,45.4953773 41.8338576,45.3917992 41.9612339,45.3917992 L42.9875525,45.3917992 C43.1007593,45.3917992 43.1963661,45.476061 43.2142644,45.590286 C43.3692339,46.6566391 43.8307119,47.1943026 45.9327186,47.1943026 C47.6072542,47.1943026 48.3191593,46.8087363 48.3191593,45.9031498 C48.3191593,45.382065 48.1163119,44.9946735 45.5150915,44.7350437 C43.3395525,44.5160237 41.9950915,44.0273356 41.9950915,42.2528181 C41.9950915,40.6182299 43.3474576,39.6448081 45.6126373,39.6448081 C48.1559864,39.6448081 49.416922,40.5452233 49.5760678,42.4800512 C49.5820339,42.5468219 49.5581695,42.6117674 49.5143186,42.6604384 C49.4706169,42.7071323 49.4090169,42.7354223 49.3453288,42.7354223 L48.3131932,42.7354223 C48.2058034,42.7354223 48.1124339,42.6584612 48.0905085,42.5529058 C47.8418712,41.4314934 47.2413831,41.0725441 45.608461,41.0725441 C43.7808949,41.0725441 43.5682034,41.7213906 43.5682034,42.2082536 C43.5682034,42.7982385 43.8187797,42.9707166 46.2847186,43.3033531 C48.7269424,43.6338602 49.8863051,44.1003422 49.8863051,45.8503721 C49.8863051,47.6146991 48.4423593,48.6267536 45.9248136,48.6267536 L45.9362983,48.6171715 Z" id="Fill-4" fill="#FFFFFF"></path>
                                <g id="Group-8">
                                    <mask id="mask-4" fill="white">
                                        <use xlink:href="#path-3"></use>
                                    </mask>
                                    <g id="Clip-7"></g>
                                    <path d="M87.4682414,21.9138388 C87.7813125,21.7284324 87.9740176,21.3860617 87.9740176,21.017074 L87.9740176,18.6127222 C87.9740176,18.2428219 87.7811634,17.9015158 87.4674956,17.7153489 L79.0949668,12.7589589 C78.7787634,12.5724878 78.3911159,12.5724878 78.0747634,12.7589589 L69.6507769,17.7173262 C69.3345736,17.9039494 69.1415702,18.244647 69.1415702,18.6157641 L69.1415702,28.5324987 C69.1415702,28.905593 69.3384515,29.2503972 69.6546549,29.4348911 L78.0250956,34.3000228 C78.3333939,34.4805621 78.7111973,34.4823873 79.0235227,34.3061067 L84.0866549,31.4364897 C84.2458007,31.3452314 84.3472244,31.1727532 84.3472244,30.9862821 C84.3472244,30.7996589 84.2498278,30.6253555 84.0905329,30.5339451 L75.6147905,25.5736006 C75.4557939,25.4823423 75.3583973,25.3100162 75.3583973,25.1255224 L75.3583973,22.0146792 C75.3583973,21.8288165 75.4537058,21.6577072 75.6128515,21.5652321 L78.2498685,20.0138412 C78.4069261,19.9206056 78.5999295,19.9206056 78.7569871,20.0138412 L81.3959431,21.5652321 C81.5531498,21.6564904 81.6505464,21.8288165 81.6505464,22.0133104 L81.6505464,24.4590326 C81.6505464,24.6436786 81.7479431,24.8160047 81.9050007,24.9092402 C82.0622075,25.0004985 82.2571498,25.0004985 82.4142075,24.9072629 L87.4682414,21.9138388 Z M59.4092176,0.181436697 C59.2511159,0.0916993753 59.0591566,0.094285027 58.9031431,0.186912195 C58.7480244,0.280147752 58.6522685,0.450496566 58.6522685,0.634990416 L58.6522685,13.8167946 C58.6522685,13.9465335 58.5847024,14.066234 58.4743295,14.1311795 C58.3651498,14.1959728 58.2288244,14.1959728 58.1184515,14.1311795 L56.0083905,12.8918918 C55.6942753,12.7064854 55.3072244,12.7064854 54.9919159,12.8918918 L46.5658414,17.8508675 C46.2508312,18.0353613 46.0566346,18.3780362 46.0566346,18.747176 L46.0566346,28.6680172 C46.0566346,29.0389822 46.2508312,29.3796798 46.5658414,29.566303 L54.9919159,34.5287769 C55.3064786,34.7132708 55.6938278,34.7132708 56.0094346,34.5287769 L64.4355092,29.5641737 C64.7497736,29.3777026 64.9445668,29.0370049 64.9445668,28.6658879 L64.9445668,3.9409742 C64.9445668,3.56468583 64.7438075,3.21851271 64.421638,3.03462725 L59.4092176,0.181436697 Z M58.6276583,25.4096399 C58.6276583,25.502267 58.5793329,25.5880498 58.500282,25.6338311 L55.6071702,27.3345815 C55.5285668,27.3805148 55.4314685,27.3805148 55.3533125,27.3345815 L52.4596041,25.6338311 C52.3801058,25.5878977 52.3323769,25.5021149 52.3323769,25.4096399 L52.3323769,22.003424 C52.3323769,21.9106448 52.3801058,21.8250141 52.4576651,21.7783203 L55.3491363,20.0748321 C55.4286346,20.0282904 55.5261803,20.0282904 55.6058278,20.0748321 L58.499238,21.7783203 C58.5788854,21.8250141 58.6266142,21.9106448 58.6266142,22.003424 L58.6276583,25.4096399 Z M18.8799973,18.4788767 C18.8799973,18.1056302 18.6869939,17.7629553 18.371238,17.5773968 L9.94784814,12.6353039 C9.80570576,12.5501295 9.64641085,12.505565 9.48487864,12.4994812 L9.39777356,12.4994812 C9.23624136,12.505565 9.07694644,12.5501295 8.93241763,12.6353039 L0.509475254,17.5773968 C0.195658305,17.76402 -2.98305085e-05,18.1066949 -2.98305085e-05,18.4797892 L0.0184650847,31.7914844 C0.0184650847,31.9759783 0.111983729,32.1483043 0.270980339,32.2395626 C0.426098983,32.3369048 0.621041356,32.3369048 0.77616,32.2395626 L5.78365831,29.3153427 C6.09986169,29.1233961 6.29286508,28.7842195 6.29286508,28.4149276 L6.29286508,22.1961311 C6.29286508,21.8250141 6.48571932,21.4823392 6.8010278,21.2976932 L8.93286508,20.0456295 C9.09111593,19.9523939 9.2650278,19.9061564 9.44192271,19.9061564 C9.61613288,19.9061564 9.79392271,19.9519376 9.94784814,20.0454774 L12.0787905,21.2970849 C12.394099,21.4817308 12.5878481,21.8244057 12.5878481,22.1955228 L12.5878481,28.4138629 C12.5878481,28.7830027 12.7833871,29.1237003 13.0979498,29.314278 L18.1023159,32.2365207 C18.2593736,32.3318856 18.4549125,32.3318856 18.6113736,32.2365207 C18.7657464,32.1452624 18.8635905,31.9727842 18.8635905,31.7882904 L18.8799973,18.4788767 Z" id="Fill-6" fill="#FFFFFF" mask="url(#mask-4)"></path>
                                </g>
                                <path d="M78.4616949,21.4498208 C78.5212068,21.4139259 78.5960814,21.4139259 78.6566373,21.4498208 L80.2733017,22.4008843 C80.3338576,22.4366272 80.3708475,22.5023331 80.3708475,22.5733625 L80.3708475,24.4776189 C80.3708475,24.5484962 80.3338576,24.6142021 80.2733017,24.649945 L78.6566373,25.6010085 C78.5960814,25.6369034 78.5212068,25.6369034 78.4616949,25.6010085 L76.8457763,24.649945 C76.7841763,24.6142021 76.7464407,24.5484962 76.7464407,24.4776189 L76.7464407,22.5733625 C76.7464407,22.5023331 76.7820881,22.4366272 76.8438373,22.4008843 L78.4616949,21.4498208 Z" id="Fill-9" fill="#FFFFFF"></path>
                                <path d="M31.9631064,12.8085122 L23.5847607,17.7398062 C23.2709437,17.9244521 23.0783878,18.2651497 23.0783878,18.6333769 L23.0783878,28.5031135 C23.0783878,28.8714928 23.2709437,29.2120383 23.5847607,29.3965322 L31.9637031,34.3317807 C32.2769234,34.5156662 32.6630793,34.5156662 32.9760014,34.3317807 L41.3534522,29.3965322 C41.6657776,29.2120383 41.8586319,28.8713407 41.8586319,28.5031135 L41.8586319,18.6333769 C41.8586319,18.2651497 41.6657776,17.9244521 41.3515132,17.7398062 L32.9752556,12.8085122 C32.8180488,12.7166455 32.6430929,12.67056 32.4681369,12.67056 C32.2930319,12.67056 32.1180759,12.7166455 31.9608692,12.8085122" id="Fill-11" fill="#FFFFFF"></path>
                            </g>
                            <g id="Group-16" transform="translate(22.969492, 12.660415)">
                                <mask id="mask-6" fill="white">
                                    <use xlink:href="#path-5"></use>
                                </mask>
                                <g id="Clip-15"></g>
                                <polygon id="Fill-14" fill="#FFFFFF" mask="url(#mask-6)" points="27.3558441 4.27844737 3.74708475 -7.52216257 -8.35813559 17.659803 15.2500271 29.4610214"></polygon>
                            </g>
                            <path d="M23.286038,29.1661202 C23.366282,29.2721319 23.4663634,29.3639986 23.5843431,29.4328986 L30.7715566,33.6663709 L31.9686549,34.367995 C32.147638,34.4735505 32.3516786,34.5181149 32.5521397,34.5029052 C32.61896,34.4974297 32.6857803,34.4846536 32.75096,34.4657935 L41.5876515,17.966294 C41.5199363,17.891158 41.4408854,17.8283419 41.3521397,17.7755642 L35.86616,14.5450206 L32.9661871,12.8436618 C32.8838549,12.7949907 32.7945125,12.7604647 32.7036786,12.7361291 L23.286038,29.1661202 Z" id="Fill-17" fill="#FFFFFF"></path>
                            <g id="Group-21" transform="translate(23.267797, 12.660415)">
                                <mask id="mask-8" fill="white">
                                    <use xlink:href="#path-7"></use>
                                </mask>
                                <g id="Clip-20"></g>
                                <polygon id="Fill-19" fill="#FFFFFF" mask="url(#mask-8)" points="-10.1893112 7.76880332 6.48087186 30.7765401 28.5277058 14.166466 11.8563295 -8.8408145"></polygon>
                            </g>
                            <path d="M32.3680407,12.7125845 C32.2273898,12.7267295 32.0900203,12.7714461 31.9633898,12.844909 L23.6087593,17.762058 L32.6175729,34.4947224 C32.742861,34.4764707 32.8662102,34.4338835 32.977478,34.3681776 L41.3559729,29.432929 C41.6144542,29.2800714 41.7914983,29.0213541 41.8451932,28.7279587 L32.6614237,12.7294673 C32.5937085,12.7157785 32.5261424,12.7087821 32.4564881,12.7087821 C32.4287458,12.7087821 32.4008542,12.7101509 32.3729627,12.7127366" id="Fill-22" fill="#FFFFFF"></path>
                            <g id="Group-26" transform="translate(23.566102, 12.660415)">
                                <mask id="mask-10" fill="white">
                                    <use xlink:href="#path-9"></use>
                                </mask>
                                <g id="Clip-25"></g>
                                <polygon id="Fill-24" fill="#FFFFFF" mask="url(#mask-10)" points="0.0425084746 21.8347635 18.2755119 21.8347635 18.2755119 0.0483668956 0.0425084746 0.0483668956"></polygon>
                            </g>
                        </g>
                    </g>
                </g>
            </g>
        </g>
    </g>
</svg>