<?xml version="1.0" encoding="UTF-8"?>
<svg width="98px" height="52px" viewBox="0 0 98 52" version="1.1" xmlns="http://www.w3.org/2000/svg" xmlns:xlink="http://www.w3.org/1999/xlink">
    <!-- Generator: Sketch 53 (72520) - https://sketchapp.com -->
    <title>Group 32</title>
    <desc>Created with Sketch.</desc>
    <defs>
        <polygon id="path-1" points="0 0.259434783 97.5009364 0.259434783 97.5009364 51.4346696 0 51.4346696"></polygon>
    </defs>
    <g id="Page-1" stroke="none" stroke-width="1" fill="none" fill-rule="evenodd">
        <g id="Technology" transform="translate(-566.000000, -369.000000)">
            <g id="technologies">
                <g id="Group-15" transform="translate(100.000000, 365.000000)">
                    <g id="Group-32" transform="translate(420.000000, 0.000000)">
                        <g id="Group-8" transform="translate(46.000000, 4.000000)">
                            <path d="M28.4781202,18.8856652 L24.6425249,18.8856652 L22.5516694,29.6174478 L25.957311,29.6174478 C28.2141434,29.6174478 29.8954382,29.1935348 31.0000624,28.3445783 C32.1052532,27.496187 32.8501665,26.0803174 33.2376347,24.0952739 C33.6081087,22.1893609 33.4392994,20.8441435 32.7312069,20.0607522 C32.022548,19.2773609 30.6046636,18.8856652 28.4781202,18.8856652" id="Fill-1" fill="#FFFFFE"></path>
                            <path d="M72.1743376,18.8856652 L68.3387422,18.8856652 L66.2478867,29.6174478 L69.6535283,29.6174478 C71.9103607,29.6174478 73.5916555,29.1935348 74.6962798,28.3445783 C75.8014705,27.496187 76.5463838,26.0803174 76.9332855,24.0952739 C77.304326,22.1893609 77.1355168,20.8441435 76.4274243,20.0607522 C75.7187653,19.2773609 74.3008809,18.8856652 72.1743376,18.8856652" id="Fill-3" fill="#FFFFFE"></path>
                            <g id="Group-7" transform="translate(0.000000, 0.306009)">
                                <mask id="mask-2" fill="white">
                                    <use xlink:href="#path-1"></use>
                                </mask>
                                <g id="Clip-6"></g>
                                <path d="M82.7199306,24.1810174 C82.4763468,25.4329739 82.0633873,26.5775391 81.4827514,27.614713 C80.9015491,28.6524522 80.142474,29.6020174 79.2043931,30.461713 C78.0867399,31.5056696 76.8444624,32.2494957 75.4781272,32.6926261 C74.1117919,33.136887 72.3710173,33.357887 70.255237,33.357887 L65.4600347,33.357887 L64.1322197,40.1761043 L58.5343237,40.1761043 L63.5289249,14.5333217 L74.2941965,14.5333217 C77.5332948,14.5333217 79.8954913,15.3811478 81.3802197,17.0773652 C82.8655145,18.7735826 83.311896,21.140713 82.7199306,24.1810174 L82.7199306,24.1810174 Z M51.8499306,33.357887 L54.0591792,22.0122783 C54.3106936,20.721887 54.2183584,19.8412783 53.7816069,19.3715826 C53.3448555,18.9024522 52.4158382,18.667887 50.9951214,18.667887 L46.5562312,18.667887 L43.6949711,33.357887 L38.1406936,33.357887 L43.1358613,7.71566957 L48.6895723,7.71566957 L47.3617572,14.5333217 L52.3099075,14.5333217 C55.4232486,14.5333217 57.5707514,15.0753652 58.7524162,16.158887 C59.9346474,17.2424087 60.2886936,18.9979739 59.8162543,21.4255826 L57.4920116,33.357887 L51.8499306,33.357887 Z M35.508289,30.461713 C34.3906358,31.5056696 33.1483584,32.2494957 31.7820231,32.6926261 C30.4156879,33.136887 28.6749133,33.357887 26.5591329,33.357887 L21.7639306,33.357887 L20.4361156,40.1761043 L14.8376532,40.1761043 L19.8328208,14.5333217 L30.5980925,14.5333217 C33.8366243,14.5333217 36.1988208,15.3811478 37.6841156,17.0773652 C39.1694104,18.7735826 39.6163584,21.140713 39.0238266,24.1810174 C38.7802428,25.4329739 38.3678497,26.5775391 37.7866474,27.614713 C37.2054451,28.6524522 36.4463699,29.6020174 35.508289,30.461713 L35.508289,30.461713 Z M48.7507514,0.259321739 C21.8268092,0.259321739 0,11.715713 0,25.846713 C0,39.9782783 21.8268092,51.4346696 48.7507514,51.4346696 C75.6741272,51.4346696 97.5009364,39.9782783 97.5009364,25.846713 C97.5009364,11.715713 75.6741272,0.259321739 48.7507514,0.259321739 L48.7507514,0.259321739 Z" id="Fill-5" fill="#FFFFFE" mask="url(#mask-2)"></path>
                            </g>
                        </g>
                    </g>
                </g>
            </g>
        </g>
    </g>
</svg>